<?xml version="1.0" encoding="utf-8"?>
<!-- Generator: Adobe Illustrator 24.3.0, SVG Export Plug-In . SVG Version: 6.00 Build 0)  -->
<svg version="1.1" id="Layer_1" xmlns="http://www.w3.org/2000/svg" xmlns:xlink="http://www.w3.org/1999/xlink" x="0px" y="0px"
	 viewBox="0 0 220 390" style="enable-background:new 0 0 220 390;" xml:space="preserve">
<style type="text/css">
	.st0{fill:none;}
	.st1{fill:#BC9FB8;}
	.st2{fill:#C9859A;}
	.st3{fill:#FFFFFF;}
	.st4{fill:#F4BAB5;}
	.st5{fill:#AB485E;}
	.st6{fill:#E1565F;}
</style>
<path class="st0" d="M120.46,233.54c0.67,0.2,1.31,0.41,1.94,0.63c-0.1-0.76-0.18-1.54-0.24-2.32c-0.82,0.55-1.64,1.05-2.45,1.5
	C119.97,233.41,120.22,233.46,120.46,233.54z"/>
<path class="st0" d="M87.41,139.62c-2.96,4.05-5.59,7.92-7.86,11.6c-0.01,0.01-0.02,0.02-0.03,0.03c-0.59,0.93-1.21,1.89-1.85,2.88
	c-2.8,4.34-5.92,8.83-9.38,13.46c-3.46,4.64-7.17,9.09-11.13,13.36c-3.96,4.27-8,7.96-12.1,11.07c-0.68,0.51-1.36,0.99-2.04,1.46
	c4.27,3.68,7.6,7.84,9.98,12.51c2.81,5.53,4.1,11.86,3.86,18.98c-0.24,7.12-2.39,15.13-6.43,24.03c-2.05,4.51-4.5,8.81-7.33,12.9
	c-2.84,4.09-5.71,8.1-8.61,12.02c-1.61,2.17-3.18,4.36-4.74,6.55c-0.87,2.2-1.86,4.6-2.99,7.22c-1.24,2.9-3.03,6.91-5.37,12.03
	c3.07,1.28,5.97,2.66,8.72,4.13c3.39-2.98,6.72-6.41,10-10.33c3.62-4.35,6.94-8.68,9.95-13c2.94-4.22,5.59-8.19,7.95-11.9
	c0-0.1,0.02-0.2,0.07-0.29c0.95-1.52,1.98-3.07,3.03-4.63c1.01-1.62,1.86-3.01,2.53-4.14c0.27-0.4,0.62-0.73,1.04-0.99
	c0.91-1.26,1.85-2.52,2.82-3.8c3.54-4.67,7.34-8.83,11.4-12.48c3.4-3.06,6.93-5.46,10.58-7.23c-7.34-2.81-12.85-6.24-16.52-10.28
	c-3.74-4.11-5.98-8.78-6.74-14.01c-0.76-5.23-0.29-11.02,1.41-17.38c1.69-6.35,4.36-13.2,8-20.54c2.96-6.17,6.29-12.36,10.01-18.57
	c3.71-6.21,7.06-11.84,10.04-16.91c2.98-5.07,5.17-9.23,6.58-12.49c0.2-0.46,0.36-0.88,0.5-1.28c-2.04,1.43-4.03,3.11-5.97,5.04
	C93.5,131.92,90.38,135.57,87.41,139.62z"/>
<path class="st0" d="M139.29,267.84c-1.59,5.31-3.97,10.93-7.12,16.86c-2.03,3.8-4.36,7.94-7,12.42c-2.64,4.48-5.21,8.99-7.73,13.53
	c-2.51,4.54-4.86,8.96-7.05,13.27c-2.19,4.31-3.84,8.2-4.97,11.66c-1.13,3.46-1.57,6.41-1.33,8.85c0.03,0.31,0.08,0.6,0.14,0.89
	c2.51-2.02,5.06-4.47,7.65-7.36c3.53-3.95,7.01-8.35,10.43-13.23c3.42-4.87,6.5-9.49,9.25-13.85c1.83-4.03,3.78-8.15,5.85-12.37
	c2.07-4.22,4.18-8.38,6.35-12.48c2.16-4.1,4.29-8.04,6.38-11.81c2.09-3.77,4.1-7.28,6.03-10.54c0.79-1.41,1.6-2.52,2.42-3.34
	c0.82-0.81,1.88-1.26,3.19-1.35c0.66-0.04,1.41,0,2.25,0.13c0.21-0.19,0.44-0.36,0.68-0.5c-2.04,0.08-4.1-0.16-6.18-0.71
	c-1.09-0.02-2.19-0.14-3.3-0.34c-1.07,0.32-2.15,0.58-3.25,0.77c-3.6,0.64-7.27,0.26-11.01-1.12
	C140.98,260.56,140.42,264.09,139.29,267.84z"/>
<path class="st0" d="M122.28,353.13c-0.05-0.42-0.08-0.85-0.12-1.28c-0.43,0.29-0.86,0.57-1.29,0.83
	C121.35,352.82,121.82,352.97,122.28,353.13z"/>
<path class="st0" d="M87.43,105.6c-3.74-4.11-5.98-8.78-6.74-14.01c-0.76-5.23-0.29-11.02,1.41-17.38c1.69-6.35,4.36-13.2,8-20.54
	c2.96-6.17,6.29-12.36,10.01-18.57c3.71-6.21,7.06-11.84,10.04-16.91c2.98-5.07,5.17-9.23,6.58-12.49c0.2-0.46,0.36-0.88,0.5-1.28
	c-2.04,1.43-4.03,3.11-5.97,5.04c-3.28,3.26-6.39,6.91-9.36,10.95c-2.96,4.05-5.59,7.92-7.86,11.6c-0.01,0.01-0.02,0.02-0.03,0.03
	c-0.59,0.93-1.21,1.89-1.85,2.88c-2.8,4.34-5.92,8.83-9.38,13.46c-3.46,4.64-7.17,9.09-11.13,13.36c-3.96,4.27-8,7.96-12.1,11.07
	c-3.64,2.76-7.35,4.82-11.12,6.19c1.78,2.19,3.32,4.51,4.57,6.98c2.81,5.53,4.1,11.86,3.86,18.98c-0.24,7.12-2.39,15.13-6.43,24.03
	c-2.05,4.51-4.5,8.81-7.33,12.9c-2.84,4.09-5.71,8.1-8.61,12.02c-1.31,1.77-2.59,3.55-3.87,5.33c-0.2,0.53-0.4,1.05-0.6,1.54
	c-0.93,2.37-2.02,5.01-3.26,7.9c-1.24,2.9-3.03,6.91-5.37,12.03c2.81,1.17,5.48,2.42,8.02,3.75c3.63-3.12,7.2-6.76,10.7-10.95
	c3.62-4.35,6.94-8.68,9.95-13c2.94-4.22,5.59-8.19,7.95-11.9c0-0.1,0.02-0.2,0.07-0.29c0.95-1.52,1.98-3.07,3.03-4.63
	c1.01-1.62,1.86-3.01,2.53-4.14c0.27-0.4,0.62-0.73,1.04-0.99c0.91-1.26,1.85-2.52,2.82-3.8c3.54-4.67,7.34-8.83,11.4-12.48
	c4.05-3.65,8.28-6.37,12.7-8.18c1.79-0.73,3.59-1.19,5.4-1.39C93.03,110.62,89.83,108.25,87.43,105.6z"/>
<path class="st0" d="M208.61,352.99c-2.67-1.33-4.82-3-6.48-4.99c-1.09,1.65-2.2,3.31-3.37,4.98c-2.81,4.04-5.88,7.9-9.19,11.57
	c-3.32,3.68-6.83,6.71-10.54,9.12c-2.56,1.66-5.2,2.9-7.92,3.76c0.02,0.01,0.05,0.01,0.07,0.02c0.32-0.08,0.66-0.14,1.02-0.16
	c1.28-0.09,2.91,0.16,4.89,0.73c0.03,0,0.06-0.01,0.09-0.01c1.31-0.09,2.99,0.17,5.03,0.77c2.04,0.6,4.75,1.63,8.12,3.1
	c3.87,1.68,6.75,3.16,8.64,4.42c1.89,1.26,3.17,2.4,3.83,3.42c0.06,0.1,0.1,0.19,0.15,0.29H220v-35.27
	c-0.65,0.12-1.31,0.21-1.99,0.27C215.06,355.25,211.92,354.58,208.61,352.99z"/>
<path class="st0" d="M7.18,17.94c-1.16,1.97-2.06,3.63-2.66,4.96c-0.78,1.71-1.42,3.43-1.95,5.16c0.59-1.52,1.23-3.05,1.92-4.57
	C5.34,21.62,6.24,19.77,7.18,17.94z"/>
<path class="st0" d="M220,340.5v-13.81c-0.28,1.37-0.5,2.7-0.65,3.99C218.92,334.37,219.14,337.64,220,340.5z"/>
<path class="st0" d="M57.57,22.71c-2.84,4.09-5.71,8.1-8.61,12.02c-2.9,3.92-5.72,7.88-8.43,11.88c-2.72,4-5.08,8.19-7.07,12.58
	c-1.09,2.4-1.66,4.59-1.7,6.57c2.22,1.25,4.32,2.56,6.31,3.94c1.8-1.17,3.61-2.52,5.44-4.07c3.77-3.19,7.46-6.95,11.09-11.3
	c3.62-4.35,6.94-8.68,9.95-13c2.94-4.22,5.59-8.19,7.95-11.9c0-0.1,0.02-0.2,0.07-0.29c0.95-1.52,1.98-3.07,3.03-4.63
	c1.01-1.62,1.86-3.01,2.53-4.14c0.27-0.4,0.62-0.73,1.04-0.99c0.91-1.26,1.85-2.52,2.82-3.8c3.54-4.67,7.34-8.83,11.4-12.48
	C94.63,1.98,95.91,0.95,97.2,0H68.7c-0.99,3.14-2.25,6.41-3.8,9.81C62.85,14.32,60.4,18.62,57.57,22.71z"/>
<path class="st0" d="M10.79,106.63c2.38-4.07,4.56-8.3,6.56-12.69c1.55-3.41,2.54-6.41,2.97-9c0.32-1.98,0.2-3.81-0.36-5.49
	c-0.23-0.08-0.46-0.15-0.69-0.24c-2.02-0.79-3.86-1.66-5.57-2.59c-2.49,4.87-5.03,9.68-7.63,14.42c-2.03,3.7-4.05,7.28-6.08,10.77
	v18.14c1.15-0.56,2.34-1.01,3.56-1.34C6.02,114.67,8.43,110.68,10.79,106.63z"/>
<path class="st0" d="M208.61,232.99c-2.67-1.33-4.82-3-6.48-4.99c-1.09,1.65-2.2,3.31-3.37,4.98c-2.81,4.04-5.88,7.9-9.19,11.57
	c-3.32,3.68-6.83,6.71-10.54,9.12c-3.21,2.08-6.56,3.53-10.03,4.34c0.66,0.09,1.39,0.23,2.18,0.43c0.32-0.08,0.66-0.14,1.02-0.16
	c1.28-0.09,2.91,0.16,4.89,0.73c0.03,0,0.06-0.01,0.09-0.01c1.31-0.09,2.99,0.17,5.03,0.77c2.04,0.6,4.75,1.63,8.12,3.1
	c3.87,1.68,6.75,3.16,8.64,4.42c1.89,1.26,3.17,2.4,3.83,3.42c0.66,1.02,0.82,1.97,0.5,2.85c-0.33,0.88-0.71,1.81-1.16,2.79
	c-1.72,3.79-4.19,8.63-7.4,14.54c-3.22,5.91-6.62,12.25-10.23,19.02c-3.61,6.77-7.17,13.62-10.71,20.57
	c-3.54,6.94-6.51,13.32-8.94,19.14c-2.42,5.82-4.07,10.73-4.92,14.75c-0.46,2.14-0.49,3.82-0.14,5.07c0.86-0.55,1.71-1.15,2.56-1.82
	c2.68-2.12,5.33-4.73,7.94-7.84c2.61-3.1,5.06-6.28,7.36-9.52c2.29-3.24,4.37-6.4,6.22-9.47c1.85-3.07,3.39-5.65,4.64-7.74
	c4.54-7.68,8.93-15.52,13.18-23.55c4.25-8.02,8.28-15.73,12.1-23.14c0.61-1.34,1.36-2.59,2.26-3.73c0.89-1.15,2.19-1.28,3.88-0.39
	c0.02,0.01,0.03,0.02,0.05,0.03v-47.54c-0.65,0.12-1.31,0.21-1.99,0.27C215.06,235.25,211.92,234.58,208.61,232.99z"/>
<path class="st0" d="M58.08,387.34c0.95-1.52,1.98-3.07,3.03-4.63c1.01-1.62,1.86-3.01,2.53-4.14c0.27-0.4,0.62-0.73,1.04-0.99
	c0.91-1.26,1.85-2.52,2.82-3.8c3.54-4.67,7.34-8.83,11.4-12.48c3.05-2.75,6.21-4.97,9.46-6.67c-6.78-2.73-11.93-6-15.41-9.83
	c-3.74-4.11-5.98-8.78-6.74-14.01c-0.76-5.23-0.29-11.02,1.41-17.38c1.69-6.35,4.36-13.2,8-20.54c2.96-6.17,6.29-12.36,10.01-18.57
	c3.71-6.21,7.06-11.84,10.04-16.91c2.98-5.07,5.17-9.23,6.58-12.49c0.2-0.46,0.36-0.88,0.5-1.28c-2.04,1.43-4.03,3.11-5.97,5.04
	c-3.28,3.26-6.39,6.91-9.36,10.95c-2.96,4.05-5.59,7.92-7.86,11.6c-0.01,0.01-0.02,0.02-0.03,0.03c-0.59,0.93-1.21,1.89-1.85,2.88
	c-2.8,4.34-5.92,8.83-9.38,13.46c-3.46,4.64-7.17,9.09-11.13,13.36c-3.96,4.27-8,7.96-12.1,11.07c-0.47,0.35-0.93,0.69-1.4,1.02
	c3.96,3.54,7.09,7.52,9.34,11.95c2.81,5.53,4.1,11.86,3.86,18.98c-0.24,7.12-2.39,15.13-6.43,24.03c-2.05,4.51-4.5,8.81-7.33,12.9
	c-2.14,3.08-4.3,6.1-6.47,9.09h19.88c0.52-0.8,1.02-1.59,1.52-2.36C58.01,387.54,58.03,387.44,58.08,387.34z"/>
<path class="st0" d="M155.2,14.01c0.65,4.45,0.17,9.33-1.42,14.63c-1.59,5.31-3.97,10.93-7.12,16.86c-2.03,3.8-4.36,7.94-7,12.42
	c-2.64,4.48-5.21,8.99-7.73,13.53c-2.51,4.54-4.86,8.96-7.05,13.27c-2.19,4.31-3.84,8.2-4.97,11.66c-1.13,3.46-1.57,6.41-1.33,8.85
	c0.03,0.31,0.08,0.6,0.14,0.89c2.51-2.02,5.06-4.47,7.65-7.36c3.53-3.95,7.01-8.35,10.43-13.23c3.42-4.87,6.5-9.49,9.25-13.85
	c1.83-4.03,3.78-8.15,5.85-12.37c2.07-4.22,4.18-8.38,6.35-12.48c2.16-4.1,4.29-8.04,6.38-11.81c2.09-3.77,4.1-7.28,6.03-10.54
	c0.79-1.41,1.6-2.52,2.42-3.34c0.82-0.81,1.88-1.26,3.19-1.35c0.66-0.04,1.41,0,2.25,0.13c0.79-0.71,1.79-1.13,3.02-1.21
	c1.1-0.07,2.49,0.11,4.12,0.53c0.32-0.08,0.66-0.14,1.02-0.16c1.28-0.09,2.91,0.16,4.89,0.73c0.03,0,0.06-0.01,0.09-0.01
	c1.31-0.09,2.99,0.17,5.03,0.77c2.04,0.6,4.75,1.63,8.12,3.1c3.87,1.68,6.75,3.16,8.64,4.42c1.89,1.26,3.17,2.4,3.83,3.42
	c0.66,1.02,0.82,1.97,0.5,2.85c-0.33,0.88-0.71,1.81-1.16,2.79c-1.72,3.79-4.19,8.63-7.4,14.54c-3.22,5.91-6.62,12.25-10.23,19.02
	c-3.61,6.77-7.17,13.62-10.71,20.57c-3.54,6.94-6.51,13.32-8.94,19.14c-2.42,5.82-4.07,10.73-4.92,14.75
	c-0.46,2.14-0.49,3.82-0.14,5.07c0.86-0.55,1.71-1.15,2.56-1.82c2.68-2.12,5.33-4.73,7.94-7.84c2.61-3.1,5.06-6.28,7.36-9.52
	c2.29-3.24,4.37-6.4,6.22-9.47c1.85-3.07,3.39-5.65,4.64-7.74c4.54-7.68,8.93-15.52,13.18-23.55c1.29-2.44,2.55-4.83,3.8-7.21V0
	h-73.17c0.94,0.72,1.8,1.47,2.56,2.27C152.61,5.65,154.54,9.56,155.2,14.01z"/>
<path class="st0" d="M158.6,379.35c0.48-0.48,1.06-0.81,1.71-1.04c-0.59-0.11-1.18-0.23-1.77-0.39c-1.09-0.02-2.19-0.14-3.3-0.34
	c-1.07,0.32-2.15,0.58-3.25,0.77c-3.6,0.64-7.28,0.26-11.02-1.12c-0.11,3.03-0.66,6.24-1.68,9.62c-0.31,1.04-0.66,2.09-1.04,3.16
	h13.7c1.45-2.56,2.86-5.01,4.23-7.31C156.98,381.28,157.78,380.17,158.6,379.35z"/>
<path class="st0" d="M220,220.5v-13.81c-0.28,1.37-0.5,2.7-0.65,3.99C218.92,214.37,219.14,217.64,220,220.5z"/>
<path class="st0" d="M143.69,130.32c-2.52-2.85-4.36-6.1-5.54-9.76c-0.8-2.48-1.29-5.12-1.5-7.92c-2.84,1.91-5.65,3.22-8.43,3.92
	c-0.03,0.01-0.05,0.01-0.08,0.02c2.73,1.41,5,3.04,6.77,4.9c3.22,3.38,5.15,7.29,5.8,11.74c0.65,4.45,0.17,9.33-1.42,14.63
	c-1.59,5.31-3.97,10.93-7.12,16.86c-2.03,3.8-4.36,7.94-7,12.42c-2.64,4.48-5.21,8.99-7.73,13.53c-2.51,4.54-4.86,8.96-7.05,13.27
	c-2.19,4.31-3.84,8.2-4.97,11.66c-1.13,3.46-1.57,6.41-1.33,8.85c0.03,0.31,0.08,0.6,0.14,0.89c2.51-2.02,5.06-4.47,7.65-7.36
	c3.53-3.95,7.01-8.35,10.43-13.23c3.42-4.87,6.5-9.49,9.25-13.85c1.83-4.03,3.78-8.15,5.85-12.37c2.07-4.22,4.18-8.38,6.35-12.48
	c2.16-4.1,4.29-8.04,6.38-11.81c2.09-3.77,4.1-7.28,6.03-10.54c0.79-1.41,1.6-2.52,2.42-3.34c0.51-0.51,1.12-0.85,1.82-1.08
	c-2.12-0.28-4.25-0.88-6.41-1.82C149.64,135.55,146.2,133.17,143.69,130.32z"/>
<path class="st0" d="M10.79,345.63c2.38-4.07,4.56-8.3,6.56-12.69c1.55-3.41,2.54-6.41,2.97-9c0.3-1.82,0.21-3.5-0.23-5.07
	c-0.74-0.07-1.48-0.18-2.21-0.35c-0.09,0.01-0.19,0.02-0.28,0.03c-0.17,0.06-0.34,0.12-0.5,0.17c-1.86,0.59-3.68,0.88-5.47,0.92
	c-1.82,3.5-3.67,6.96-5.55,10.39c-2.03,3.7-4.05,7.28-6.08,10.77v22.58c1.15-1.9,2.32-3.8,3.51-5.7
	C5.99,353.72,8.41,349.7,10.79,345.63z"/>
<path class="st0" d="M220,111.93c-1.3-0.93-2.42-1.98-3.38-3.13c-1.09,1.65-2.2,3.31-3.37,4.98c-2.81,4.04-5.88,7.9-9.19,11.57
	c-3.32,3.68-6.83,6.71-10.54,9.12c-3.71,2.41-7.6,3.97-11.66,4.68c-0.45,0.08-0.91,0.14-1.36,0.19c0.54,0.12,1.11,0.26,1.72,0.43
	c2.04,0.6,4.75,1.63,8.12,3.1c3.87,1.68,6.75,3.16,8.64,4.42c1.89,1.26,3.17,2.4,3.83,3.42c0.66,1.02,0.82,1.97,0.5,2.85
	c-0.33,0.88-0.71,1.81-1.16,2.79c-1.72,3.79-4.19,8.63-7.4,14.54c-3.22,5.91-6.62,12.25-10.23,19.02
	c-3.61,6.77-7.17,13.62-10.71,20.57c-3.54,6.94-6.51,13.32-8.94,19.14c-2.42,5.82-4.07,10.73-4.92,14.75
	c-0.46,2.14-0.49,3.82-0.14,5.07c0.86-0.55,1.71-1.15,2.56-1.82c2.68-2.12,5.33-4.73,7.94-7.84c2.61-3.1,5.06-6.28,7.36-9.52
	c2.29-3.24,4.37-6.4,6.22-9.47c1.85-3.07,3.39-5.65,4.64-7.74c4.54-7.68,8.93-15.52,13.18-23.55c4.25-8.02,8.28-15.73,12.1-23.14
	c0.61-1.34,1.36-2.59,2.26-3.73c0.89-1.15,2.19-1.28,3.88-0.39c0.02,0.01,0.03,0.02,0.05,0.03V111.93z"/>
<path class="st0" d="M95.66,376.4c2.98-5.07,5.17-9.23,6.58-12.49c0.2-0.46,0.36-0.88,0.5-1.28c-2.04,1.43-4.03,3.11-5.97,5.04
	c-3.28,3.26-6.39,6.91-9.36,10.95c-2.91,3.97-5.48,7.76-7.72,11.38h7.91C90.53,385.09,93.23,380.55,95.66,376.4z"/>
<path class="st0" d="M10.79,226.63c2.38-4.07,4.56-8.3,6.56-12.69c1.55-3.41,2.54-6.41,2.97-9c0.36-2.22,0.17-4.25-0.58-6.1
	c-0.63-0.07-1.25-0.18-1.86-0.32c-0.09,0.01-0.19,0.02-0.28,0.03c-0.17,0.06-0.34,0.12-0.5,0.17c-1.67,0.53-3.32,0.83-4.94,0.91
	c-1.99,3.84-4.02,7.64-6.08,11.4c-2.03,3.7-4.05,7.28-6.08,10.77v17.14c1.38-0.67,2.81-1.18,4.29-1.53
	C6.49,233.86,8.66,230.27,10.79,226.63z"/>
<path class="st1" d="M71.64,61.76c3.96-4.27,7.67-8.72,11.13-13.36c3.46-4.64,6.58-9.12,9.38-13.46c0.64-1,1.26-1.96,1.85-2.88
	c0.01-0.01,0.02-0.02,0.03-0.03c2.27-3.69,4.9-7.55,7.86-11.6c2.96-4.05,6.08-7.7,9.36-10.95c1.95-1.93,3.94-3.61,5.97-5.04
	c0.65-1.86,0.69-3.09,0.12-3.71c-0.29,0.13-0.58,0.26-0.87,0.41c-3.53,1.83-6.92,4.37-10.2,7.62c-3.28,3.26-6.39,6.91-9.36,10.95
	c-2.96,4.05-5.59,7.92-7.86,11.6c-0.01,0.01-0.02,0.02-0.03,0.03c-0.59,0.93-1.21,1.89-1.85,2.88c-2.8,4.34-5.92,8.83-9.38,13.46
	c-3.46,4.64-7.17,9.09-11.13,13.36c-3.96,4.27-8,7.96-12.1,11.07c-2.61,1.97-5.25,3.59-7.92,4.86c0.62,0.67,1.22,1.36,1.78,2.05
	c3.77-1.38,7.48-3.44,11.12-6.19C63.65,69.72,67.68,66.03,71.64,61.76z"/>
<path class="st1" d="M125.25,115.23c1.02,0.42,1.98,0.87,2.89,1.35c0.03-0.01,0.05-0.01,0.08-0.02c2.78-0.7,5.59-2.01,8.43-3.92
	c-0.1-1.32-0.14-2.68-0.1-4.08c0-0.16,0.02-0.32,0.02-0.47c-1.52,1.36-3.06,2.58-4.62,3.65
	C129.7,113.28,127.46,114.45,125.25,115.23z"/>
<path class="st1" d="M150.22,13.3c0.65,4.45,0.17,9.33-1.42,14.63c-1.59,5.31-3.97,10.93-7.12,16.86c-2.03,3.8-4.36,7.94-7,12.42
	c-2.64,4.48-5.21,8.99-7.73,13.53c-2.51,4.54-4.86,8.96-7.05,13.27c-2.19,4.31-3.84,8.2-4.97,11.66c-1.13,3.46-1.57,6.41-1.33,8.85
	c0.16,1.68,0.83,2.97,1.97,3.91c0.14-0.09,0.27-0.16,0.41-0.26c0.91-0.62,1.82-1.3,2.74-2.04c-0.06-0.28-0.11-0.58-0.14-0.89
	c-0.24-2.44,0.21-5.39,1.33-8.85c1.13-3.46,2.78-7.34,4.97-11.66c2.19-4.31,4.54-8.74,7.05-13.27c2.51-4.53,5.09-9.04,7.73-13.53
	c2.63-4.48,4.97-8.62,7-12.42c3.15-5.94,5.52-11.56,7.12-16.86c1.59-5.3,2.07-10.18,1.42-14.63c-0.65-4.45-2.58-8.36-5.8-11.74
	c-0.76-0.8-1.62-1.56-2.56-2.27h-4.1c0.6,0.5,1.17,1.02,1.68,1.56C147.63,4.93,149.56,8.85,150.22,13.3z"/>
<path class="st1" d="M208.27,113.06c-2.81,4.04-5.88,7.9-9.19,11.57c-3.32,3.68-6.83,6.71-10.54,9.12
	c-3.71,2.41-7.6,3.97-11.66,4.68c-0.45,0.08-0.91,0.14-1.36,0.19c0.5,0.11,1.02,0.24,1.58,0.4c0.03,0,0.06-0.01,0.09-0.01
	c0.92-0.06,2.03,0.06,3.31,0.33c0.46-0.05,0.91-0.11,1.36-0.19c4.06-0.72,7.95-2.28,11.66-4.68c3.71-2.41,7.22-5.44,10.54-9.12
	c3.32-3.67,6.38-7.53,9.19-11.57c1.16-1.67,2.28-3.33,3.37-4.98c-1.09-1.31-1.97-2.77-2.61-4.37
	C212.2,107.28,210.3,110.16,208.27,113.06z"/>
<path class="st1" d="M52.59,22c-2.84,4.09-5.71,8.1-8.61,12.02c-2.9,3.92-5.72,7.88-8.43,11.88c-2.72,4-5.08,8.19-7.07,12.58
	c-0.77,1.7-1.28,3.29-1.52,4.78c1.65,0.81,3.26,1.64,4.8,2.51c0.04-1.98,0.61-4.17,1.7-6.57c2-4.39,4.35-8.58,7.07-12.58
	c2.72-4,5.53-7.96,8.43-11.88c2.9-3.92,5.77-7.92,8.61-12.02c2.83-4.09,5.28-8.4,7.33-12.9c1.55-3.4,2.81-6.67,3.8-9.81h-5.22
	c-0.95,2.92-2.13,5.95-3.57,9.09C57.87,13.6,55.42,17.9,52.59,22z"/>
<path class="st1" d="M174.43,125.17c0.85-4.02,2.49-8.93,4.92-14.75c2.42-5.82,5.4-12.2,8.94-19.14c3.53-6.94,7.1-13.8,10.71-20.57
	c3.6-6.77,7.01-13.11,10.23-19.02c3.21-5.91,5.68-10.76,7.4-14.54c0.44-0.98,0.83-1.91,1.16-2.79c0.32-0.88,0.16-1.83-0.5-2.85
	c-0.66-1.02-1.93-2.16-3.83-3.42c-1.89-1.26-4.77-2.74-8.64-4.42c-3.37-1.47-6.08-2.5-8.12-3.1c-2.05-0.6-3.73-0.85-5.03-0.77
	c-0.03,0-0.06,0.01-0.09,0.01c0.05,0.01,0.09,0.02,0.14,0.04c2.04,0.6,4.75,1.63,8.12,3.1c3.87,1.68,6.75,3.16,8.64,4.42
	c1.89,1.26,3.17,2.4,3.83,3.42c0.66,1.02,0.82,1.97,0.5,2.85c-0.33,0.88-0.71,1.81-1.16,2.79c-1.72,3.79-4.19,8.63-7.4,14.54
	c-3.22,5.91-6.62,12.25-10.23,19.02c-3.61,6.77-7.17,13.62-10.71,20.57c-3.54,6.94-6.51,13.32-8.94,19.14
	c-2.42,5.82-4.07,10.73-4.92,14.75c-0.86,4.01-0.29,6.46,1.71,7.33c0.06,0.03,0.13,0.05,0.19,0.09c0.99-0.46,1.96-1.01,2.93-1.63
	C173.93,128.99,173.97,127.31,174.43,125.17z"/>
<path class="st2" d="M111.34,0.76c-3.53,1.83-6.92,4.37-10.2,7.62c-3.28,3.26-6.4,6.91-9.36,10.95c-2.96,4.05-5.59,7.92-7.86,11.6
	c-0.01,0.01-0.02,0.02-0.03,0.03c-0.59,0.93-1.21,1.89-1.85,2.88c-2.8,4.34-5.92,8.83-9.38,13.46c-3.46,4.64-7.17,9.09-11.13,13.36
	c-3.96,4.27-8,7.96-12.1,11.07c-1.58,1.2-3.18,2.26-4.78,3.2c0.7,0.66,1.36,1.34,2,2.02c2.67-1.27,5.32-2.88,7.92-4.86
	c4.11-3.11,8.14-6.8,12.1-11.07c3.96-4.27,7.67-8.72,11.13-13.36c3.46-4.64,6.58-9.12,9.38-13.46c0.64-1,1.26-1.96,1.85-2.88
	c0.01-0.01,0.02-0.02,0.03-0.03c2.27-3.69,4.9-7.56,7.86-11.6c2.96-4.05,6.08-7.7,9.36-10.95c3.27-3.25,6.67-5.79,10.2-7.62
	c0.29-0.15,0.58-0.28,0.87-0.41c-0.18-0.2-0.41-0.35-0.72-0.42c-0.65-0.15-1.3-0.23-1.95-0.29h-1.67
	C112.45,0.22,111.89,0.47,111.34,0.76z"/>
<path class="st2" d="M126.81,111.37c-1.58,1.09-3.16,1.98-4.73,2.69c1.1,0.37,2.16,0.76,3.16,1.17c2.21-0.79,4.45-1.95,6.7-3.49
	c1.56-1.07,3.1-2.29,4.62-3.65c0.06-2,0.22-4.04,0.49-6.11c-0.55,0.62-1.1,1.24-1.65,1.84
	C132.61,106.84,129.75,109.36,126.81,111.37z"/>
<path class="st2" d="M203.14,112.69c-2.81,4.04-5.88,7.9-9.19,11.57c-3.32,3.68-6.83,6.71-10.54,9.12
	c-3.71,2.41-7.6,3.97-11.66,4.68c-0.45,0.08-0.91,0.14-1.36,0.19c0.26,0.06,0.53,0.12,0.81,0.19c0.32-0.08,0.66-0.14,1.02-0.16
	c0.92-0.06,2.03,0.06,3.31,0.33c0.46-0.05,0.91-0.11,1.36-0.19c4.06-0.72,7.95-2.28,11.66-4.68c3.71-2.41,7.22-5.44,10.54-9.12
	c3.32-3.67,6.38-7.53,9.19-11.57c2.02-2.91,3.93-5.78,5.73-8.63c-0.07-0.17-0.15-0.33-0.21-0.51c-0.67-1.82-1.17-3.63-1.51-5.43
	c-0.44,0.73-0.88,1.47-1.35,2.24C208.55,104.67,205.95,108.65,203.14,112.69z"/>
<path class="st2" d="M47.45,21.63c-2.84,4.09-5.71,8.1-8.61,12.02c-2.9,3.92-5.72,7.88-8.43,11.88c-2.72,4-5.08,8.19-7.07,12.58
	c-0.47,1.04-0.84,2.04-1.11,3c1.62,0.69,3.2,1.4,4.73,2.15c0.25-1.49,0.75-3.08,1.52-4.78c2-4.39,4.35-8.58,7.07-12.58
	c2.72-4,5.53-7.96,8.43-11.88c2.9-3.92,5.77-7.92,8.61-12.02c2.83-4.09,5.28-8.4,7.33-12.9c1.43-3.14,2.61-6.17,3.57-9.09h-5.26
	c-0.93,2.81-2.07,5.71-3.44,8.72C52.73,13.23,50.29,17.53,47.45,21.63z"/>
<path class="st2" d="M145.08,12.93c0.65,4.45,0.17,9.33-1.42,14.63c-1.59,5.31-3.97,10.93-7.12,16.86c-2.03,3.8-4.36,7.94-7,12.42
	c-2.64,4.48-5.21,8.99-7.73,13.53c-2.51,4.54-4.86,8.96-7.05,13.27c-2.19,4.31-3.84,8.2-4.97,11.66c-1.13,3.46-1.57,6.41-1.33,8.85
	c0.24,2.44,1.52,4.1,3.84,4.96c0.48,0.18,0.97,0.28,1.47,0.35c0.59-0.29,1.19-0.64,1.8-1.04c-1.14-0.93-1.81-2.23-1.97-3.91
	c-0.24-2.44,0.21-5.39,1.33-8.85c1.13-3.46,2.78-7.34,4.97-11.66c2.19-4.31,4.54-8.74,7.05-13.27c2.51-4.53,5.09-9.05,7.73-13.53
	c2.63-4.48,4.97-8.62,7-12.42c3.15-5.94,5.52-11.56,7.12-16.86c1.59-5.3,2.07-10.18,1.42-14.63c-0.65-4.45-2.58-8.36-5.8-11.74
	c-0.52-0.54-1.09-1.05-1.68-1.56h-4.69c0.43,0.39,0.85,0.78,1.24,1.19C142.49,4.57,144.43,8.48,145.08,12.93z"/>
<path class="st2" d="M169.45,124.45c0.85-4.02,2.49-8.93,4.92-14.75c2.42-5.82,5.4-12.2,8.94-19.14c3.53-6.94,7.1-13.8,10.71-20.57
	c3.6-6.77,7.01-13.11,10.23-19.02c3.21-5.91,5.68-10.76,7.4-14.54c0.44-0.98,0.83-1.91,1.16-2.79c0.32-0.88,0.16-1.83-0.5-2.85
	c-0.66-1.02-1.93-2.16-3.83-3.42c-1.89-1.26-4.77-2.74-8.64-4.42c-3.37-1.47-6.08-2.5-8.12-3.1c-0.05-0.01-0.09-0.02-0.14-0.04
	c-1.98-0.57-3.61-0.81-4.89-0.73c-0.36,0.02-0.7,0.08-1.02,0.16c0.3,0.08,0.59,0.15,0.91,0.24c2.04,0.6,4.75,1.63,8.12,3.1
	c3.87,1.68,6.75,3.16,8.64,4.42c1.89,1.26,3.17,2.4,3.83,3.42c0.66,1.02,0.82,1.97,0.5,2.85c-0.33,0.88-0.71,1.81-1.16,2.79
	c-1.72,3.79-4.19,8.63-7.4,14.54c-3.22,5.91-6.62,12.25-10.23,19.02c-3.61,6.77-7.17,13.62-10.71,20.57
	c-3.54,6.94-6.51,13.32-8.94,19.14c-2.42,5.82-4.07,10.73-4.92,14.75c-0.86,4.01-0.29,6.46,1.71,7.33c1.29,0.64,2.63,0.97,4.02,1.03
	c0.44-0.18,0.88-0.37,1.32-0.57c-0.06-0.03-0.13-0.05-0.19-0.09C169.16,130.91,168.59,128.47,169.45,124.45z"/>
<path class="st3" d="M219.29,101.93c0.19,0.57,0.44,1.1,0.71,1.61V83.72c-0.75,2.72-1.27,5.3-1.55,7.75
	C217.99,95.44,218.27,98.93,219.29,101.93z"/>
<path class="st3" d="M171.74,138.07c4.06-0.72,7.95-2.28,11.66-4.68c3.71-2.41,7.22-5.44,10.54-9.12c3.32-3.67,6.38-7.53,9.19-11.57
	c2.81-4.04,5.41-8.03,7.8-11.96c0.47-0.77,0.91-1.51,1.35-2.24c-0.46-2.41-0.63-4.81-0.49-7.18c-1.7,3.07-3.74,6.57-6.12,10.5
	c-2.39,3.93-4.99,7.92-7.8,11.96c-2.81,4.04-5.88,7.9-9.19,11.57c-3.32,3.68-6.83,6.71-10.54,9.12c-2.56,1.66-5.2,2.9-7.92,3.76
	c0.05,0.01,0.11,0.02,0.16,0.03C170.83,138.21,171.29,138.15,171.74,138.07z"/>
<path class="st3" d="M95.87,9.46c-3.28,3.26-6.39,6.91-9.36,10.95c-2.96,4.05-5.59,7.92-7.86,11.6c-0.01,0.01-0.02,0.02-0.03,0.03
	c-0.59,0.93-1.21,1.89-1.85,2.88c-2.8,4.34-5.92,8.83-9.38,13.46c-3.46,4.64-7.17,9.09-11.13,13.36c-3.96,4.27-8,7.96-12.1,11.07
	c-0.34,0.26-0.69,0.51-1.04,0.76c0.52,0.45,1.03,0.9,1.52,1.37c1.61-0.94,3.2-2,4.78-3.2c4.11-3.11,8.14-6.8,12.1-11.07
	c3.96-4.27,7.67-8.72,11.13-13.36c3.46-4.64,6.58-9.12,9.38-13.46c0.64-1,1.26-1.96,1.85-2.88c0.01-0.01,0.02-0.02,0.03-0.03
	c2.27-3.69,4.9-7.56,7.86-11.6c2.96-4.05,6.08-7.7,9.36-10.95c3.27-3.25,6.67-5.79,10.2-7.62c0.56-0.29,1.12-0.53,1.67-0.76h-0.86
	c-2.03,0.18-4.05,0.78-6.08,1.84C102.54,3.67,99.15,6.21,95.87,9.46z"/>
<path class="st3" d="M122.09,114.06c1.57-0.71,3.14-1.6,4.73-2.69c2.93-2.01,5.8-4.53,8.6-7.55c0.56-0.6,1.11-1.22,1.65-1.84
	c0.29-2.26,0.71-4.56,1.25-6.91c-2.65,3.53-5.38,6.8-8.17,9.82c-2.8,3.02-5.66,5.54-8.6,7.55c-0.5,0.35-1.01,0.67-1.51,0.97
	c0.14,0.04,0.29,0.07,0.43,0.11C121.02,113.7,121.55,113.88,122.09,114.06z"/>
<path class="st3" d="M42.19,22.71c-2.84,4.09-5.71,8.1-8.61,12.02c-0.89,1.19-1.74,2.4-2.61,3.6c-0.32,0.87-0.64,1.7-0.95,2.48
	c-0.93,2.37-2.02,5.01-3.26,7.9c-1.24,2.9-3.03,6.91-5.37,12.03c0.28,0.12,0.55,0.24,0.83,0.36c0.28-0.96,0.64-1.96,1.11-3
	c2-4.39,4.35-8.58,7.07-12.58c2.72-4,5.53-7.96,8.43-11.88c2.9-3.92,5.77-7.92,8.61-12.02c2.83-4.09,5.28-8.4,7.33-12.9
	c1.37-3.01,2.51-5.91,3.44-8.72h-4.9c-0.99,3.14-2.25,6.41-3.8,9.8C47.47,14.31,45.02,18.61,42.19,22.71z"/>
<path class="st3" d="M164.31,124.08c0.85-4.02,2.49-8.93,4.92-14.75c2.42-5.82,5.4-12.2,8.94-19.14c3.53-6.94,7.1-13.8,10.71-20.57
	c3.6-6.77,7.01-13.11,10.23-19.02c3.21-5.91,5.68-10.76,7.4-14.54c0.44-0.98,0.83-1.91,1.16-2.79c0.32-0.88,0.16-1.83-0.5-2.85
	c-0.66-1.02-1.93-2.16-3.83-3.42c-1.89-1.26-4.77-2.74-8.64-4.42c-3.37-1.47-6.08-2.5-8.12-3.1c-0.32-0.09-0.61-0.16-0.91-0.24
	c-1.63-0.41-3.02-0.6-4.12-0.53c-1.22,0.08-2.22,0.49-3.02,1.21c0.84,0.13,1.77,0.34,2.79,0.64c2.04,0.6,4.75,1.63,8.12,3.1
	c3.87,1.68,6.75,3.16,8.64,4.42c1.89,1.26,3.17,2.4,3.83,3.42c0.66,1.02,0.82,1.97,0.5,2.85c-0.33,0.88-0.71,1.81-1.16,2.79
	c-1.72,3.79-4.19,8.63-7.4,14.54c-3.22,5.91-6.62,12.25-10.23,19.02c-3.61,6.77-7.17,13.62-10.71,20.57
	c-3.54,6.94-6.51,13.32-8.94,19.14c-2.42,5.82-4.07,10.73-4.92,14.75c-0.86,4.01-0.29,6.46,1.71,7.33c2.44,1.21,5.06,1.36,7.86,0.46
	c0.47-0.15,0.95-0.33,1.42-0.52c-1.39-0.05-2.73-0.39-4.02-1.03C164.02,130.54,163.45,128.1,164.31,124.08z"/>
<path class="st4" d="M15.36,73.38c-0.55,1.08-1.1,2.16-1.65,3.23c1.71,0.94,3.55,1.81,5.57,2.59c0.23,0.09,0.46,0.16,0.69,0.24
	c-0.17-0.52-0.38-1.03-0.64-1.52C18.47,76.3,17.14,74.79,15.36,73.38z"/>
<path class="st4" d="M7.86,16.79c-0.24,0.4-0.46,0.77-0.68,1.15c-0.94,1.83-1.84,3.68-2.7,5.56c-0.69,1.52-1.33,3.04-1.92,4.57
	c-0.49,1.62-0.89,3.25-1.16,4.89c-0.58,3.41-0.47,6.63,0.31,9.68c0.55,2.14,1.46,4.2,2.71,6.18c0.39-0.89,0.75-1.71,1.06-2.45
	c1.24-2.89,2.33-5.53,3.26-7.9c0.76-2.01,1.71-4.59,2.85-7.75c1.14-3.16,2-6.37,2.59-9.62c0.58-3.26,0.72-6.27,0.41-9.03
	c-0.12-1.05-0.36-1.99-0.73-2.81c-0.26,0.24-0.52,0.47-0.77,0.73C11.12,12.03,9.37,14.3,7.86,16.79z"/>
<path class="st4" d="M81.98,15.59c-0.97,1.28-1.91,2.55-2.82,3.8c-0.42,0.26-0.77,0.58-1.04,0.99c-0.68,1.13-1.52,2.51-2.53,4.14
	c-1.05,1.56-2.07,3.11-3.03,4.63c-0.04,0.09-0.06,0.19-0.07,0.29c-2.36,3.71-5.01,7.68-7.95,11.9c-3.01,4.32-6.33,8.65-9.95,13
	c-3.62,4.34-7.32,8.11-11.09,11.3c-1.83,1.55-3.65,2.9-5.44,4.07c0.86,0.59,1.7,1.19,2.51,1.81c0.89,0.67,1.73,1.37,2.55,2.08
	c0.35-0.25,0.69-0.49,1.04-0.76c4.11-3.11,8.14-6.8,12.1-11.07c3.96-4.27,7.67-8.72,11.13-13.36c3.46-4.64,6.58-9.12,9.38-13.46
	c0.64-1,1.26-1.96,1.85-2.88c0.01-0.01,0.02-0.02,0.03-0.03c2.27-3.69,4.9-7.56,7.86-11.6c2.96-4.05,6.08-7.7,9.36-10.95
	c3.27-3.25,6.67-5.79,10.2-7.62c2.03-1.05,4.06-1.66,6.08-1.84H97.2c-1.29,0.95-2.56,1.98-3.82,3.11
	C89.33,6.76,85.53,10.92,81.98,15.59z"/>
<path class="st4" d="M117.34,0.72c0.57,0.62,0.54,1.85-0.12,3.71c-0.14,0.4-0.3,0.82-0.5,1.28c-1.41,3.26-3.6,7.42-6.58,12.49
	c-2.98,5.07-6.32,10.7-10.04,16.91c-3.72,6.21-7.05,12.39-10.01,18.57c-3.64,7.34-6.31,14.18-8,20.54
	c-1.7,6.36-2.16,12.15-1.41,17.38c0.76,5.23,3.01,9.9,6.74,14.01c2.4,2.64,5.59,5.02,9.56,7.14c0.32-0.04,0.64-0.07,0.96-0.09
	c3.41-1.19,6.86-1.43,10.37-0.71c2.13-0.13,4.27,0.1,6.44,0.69c1.74,0.02,3.5,0.29,5.27,0.79c0.5-0.31,1.01-0.63,1.51-0.97
	c2.93-2.01,5.8-4.53,8.6-7.55c2.8-3.02,5.52-6.3,8.17-9.82c-0.54,2.34-0.96,4.64-1.25,6.91c-0.27,2.07-0.43,4.1-0.49,6.11
	c-0.01,0.16-0.02,0.32-0.02,0.47c-0.03,1.4,0,2.75,0.1,4.08c0.21,2.8,0.7,5.44,1.5,7.92c1.17,3.66,3.02,6.91,5.54,9.76
	c2.51,2.85,5.95,5.23,10.32,7.13c2.16,0.94,4.3,1.55,6.41,1.82c0.43-0.14,0.87-0.24,1.37-0.27c0.66-0.04,1.41,0,2.25,0.13
	c0.79-0.71,1.79-1.13,3.02-1.21c0.88-0.06,1.94,0.05,3.15,0.3c2.72-0.86,5.37-2.1,7.92-3.76c3.71-2.41,7.22-5.44,10.54-9.12
	c3.32-3.67,6.38-7.53,9.19-11.57c2.81-4.04,5.41-8.03,7.8-11.96c2.39-3.93,4.43-7.43,6.12-10.5c-0.14,2.37,0.03,4.76,0.49,7.18
	c0.34,1.8,0.84,3.61,1.51,5.43c0.06,0.17,0.15,0.34,0.21,0.51c0.65,1.6,1.52,3.06,2.61,4.37c0.96,1.15,2.08,2.2,3.38,3.13v-8.39
	c-0.27-0.51-0.51-1.04-0.71-1.61c-1.03-3-1.31-6.49-0.85-10.46c0.28-2.45,0.8-5.03,1.55-7.75V63.1c-1.25,2.38-2.51,4.78-3.8,7.21
	c-4.25,8.02-8.65,15.87-13.18,23.55c-1.25,2.09-2.8,4.67-4.64,7.74c-1.85,3.07-3.92,6.23-6.22,9.47c-2.3,3.24-4.75,6.41-7.36,9.52
	c-2.61,3.11-5.26,5.72-7.94,7.84c-0.85,0.67-1.7,1.27-2.56,1.82c-0.97,0.62-1.95,1.16-2.93,1.63c-0.44,0.21-0.88,0.4-1.32,0.57
	c-0.47,0.19-0.94,0.36-1.42,0.52c-2.8,0.9-5.42,0.75-7.86-0.46c-2-0.87-2.57-3.31-1.71-7.33c0.85-4.02,2.49-8.93,4.92-14.75
	c2.42-5.82,5.4-12.2,8.94-19.14c3.53-6.94,7.1-13.8,10.71-20.57c3.6-6.77,7.01-13.11,10.23-19.02c3.21-5.91,5.68-10.76,7.4-14.54
	c0.44-0.98,0.83-1.91,1.16-2.79c0.32-0.88,0.16-1.83-0.5-2.85c-0.66-1.02-1.93-2.16-3.83-3.42c-1.89-1.26-4.77-2.74-8.64-4.42
	c-3.37-1.47-6.08-2.5-8.12-3.1c-1.02-0.3-1.95-0.51-2.79-0.64c-0.84-0.13-1.59-0.17-2.25-0.13c-1.31,0.09-2.38,0.54-3.19,1.35
	c-0.82,0.82-1.63,1.92-2.42,3.34c-1.93,3.26-3.94,6.77-6.03,10.54c-2.09,3.77-4.22,7.71-6.38,11.81c-2.17,4.1-4.29,8.26-6.35,12.48
	c-2.07,4.22-4.02,8.34-5.85,12.37c-2.74,4.36-5.82,8.98-9.25,13.85c-3.42,4.87-6.9,9.28-10.43,13.23c-2.59,2.89-5.14,5.34-7.65,7.36
	c-0.92,0.74-1.83,1.42-2.74,2.04c-0.14,0.1-0.27,0.17-0.41,0.26c-0.61,0.4-1.21,0.75-1.8,1.04c-2.49,1.23-4.74,1.48-6.74,0.73
	c-2.32-0.86-3.6-2.52-3.84-4.96c-0.24-2.44,0.21-5.39,1.33-8.85c1.13-3.46,2.78-7.34,4.97-11.66c2.19-4.31,4.54-8.74,7.05-13.27
	c2.51-4.53,5.09-9.04,7.73-13.53c2.63-4.48,4.97-8.62,7-12.42c3.15-5.94,5.52-11.56,7.12-16.86c1.59-5.3,2.07-10.18,1.42-14.63
	c-0.65-4.45-2.58-8.36-5.8-11.74c-0.76-0.8-1.62-1.55-2.56-2.27h-16.77c0.65,0.06,1.3,0.15,1.95,0.29
	C116.93,0.37,117.16,0.52,117.34,0.72z"/>
<path class="st4" d="M36.09,9.56c0.6,3.41,0.61,6.99,0.01,10.75c-0.6,3.76-1.5,7.46-2.71,11.1c-0.85,2.56-1.66,4.86-2.43,6.91
	c0.87-1.2,1.73-2.41,2.61-3.6c2.9-3.92,5.77-7.92,8.61-12.02c2.83-4.09,5.28-8.4,7.33-12.9c1.55-3.4,2.81-6.66,3.8-9.8H29.1
	c0.7,0.41,1.41,0.86,2.12,1.4C33.87,3.43,35.49,6.15,36.09,9.56z"/>
<path class="st1" d="M91.79,127.95c-3.28,3.26-6.39,6.91-9.36,10.95c-2.96,4.05-5.59,7.92-7.86,11.6c-0.01,0.01-0.02,0.02-0.03,0.03
	c-0.59,0.93-1.21,1.89-1.85,2.88c-2.8,4.34-5.92,8.83-9.38,13.46c-3.46,4.64-7.17,9.09-11.13,13.36
	c-3.93,4.23-7.92,7.89-11.99,10.98c0.13,0.09,0.26,0.18,0.38,0.28c0.85,0.64,1.66,1.31,2.44,1.99c0.68-0.47,1.36-0.95,2.04-1.46
	c4.11-3.11,8.14-6.8,12.1-11.07c3.96-4.27,7.67-8.72,11.13-13.36c3.46-4.64,6.58-9.12,9.38-13.46c0.64-1,1.26-1.96,1.85-2.88
	c0.01-0.01,0.02-0.02,0.03-0.03c2.27-3.69,4.9-7.56,7.86-11.6c2.96-4.05,6.08-7.7,9.36-10.95c1.95-1.93,3.94-3.61,5.97-5.04
	c0.65-1.86,0.69-3.09,0.12-3.71c-0.29,0.13-0.58,0.26-0.87,0.41C98.47,122.16,95.07,124.7,91.79,127.95z"/>
<path class="st1" d="M214.37,209.96c-0.46,3.97-0.18,7.46,0.85,10.46c0.85,2.49,2.45,4.47,4.78,5.95v-5.87
	c-0.86-2.86-1.08-6.13-0.65-9.82c0.15-1.29,0.37-2.62,0.65-3.99v-16.02c-0.86,2.13-1.67,4.23-2.42,6.32
	C215.9,201.67,214.83,206,214.37,209.96z"/>
<path class="st1" d="M114.74,232.62c0.01,0,0.02,0,0.02,0.01c1.64,0.02,3.29,0.26,4.96,0.71c0.81-0.45,1.63-0.95,2.45-1.5
	c-0.1-1.32-0.14-2.68-0.1-4.08c0-0.16,0.02-0.32,0.02-0.47c-1.52,1.36-3.06,2.58-4.62,3.65
	C116.55,231.57,115.65,232.12,114.74,232.62z"/>
<path class="st1" d="M184.6,243.83c-3.32,3.68-6.83,6.71-10.54,9.12c-3.71,2.41-7.6,3.97-11.66,4.68c-1.27,0.22-2.56,0.31-3.85,0.28
	c2.08,0.55,4.14,0.79,6.18,0.71c0.67-0.4,1.44-0.65,2.34-0.71c0.57-0.04,1.23,0,1.94,0.09c3.47-0.82,6.82-2.26,10.03-4.34
	c3.71-2.41,7.22-5.44,10.54-9.12c3.32-3.67,6.38-7.53,9.19-11.57c1.16-1.67,2.28-3.33,3.37-4.98c-1.09-1.31-1.97-2.77-2.61-4.37
	c-1.8,2.85-3.71,5.73-5.73,8.63C190.98,236.3,187.92,240.16,184.6,243.83z"/>
<path class="st1" d="M105.43,215.58c1.13-3.46,2.78-7.34,4.97-11.66c2.19-4.31,4.54-8.74,7.05-13.27c2.51-4.53,5.09-9.05,7.73-13.53
	c2.63-4.48,4.97-8.62,7-12.42c3.15-5.94,5.52-11.56,7.12-16.86c1.59-5.3,2.07-10.18,1.42-14.63c-0.65-4.45-2.58-8.36-5.8-11.74
	c-1.77-1.86-4.04-3.48-6.77-4.9c-0.91-0.47-1.87-0.92-2.89-1.35c-1-0.41-2.06-0.8-3.16-1.17c-0.53-0.18-1.06-0.36-1.62-0.52
	c-0.14-0.04-0.29-0.07-0.43-0.11c-1.77-0.51-3.53-0.77-5.27-0.79c0.24,0.07,0.48,0.12,0.72,0.19c6.41,1.91,11.22,4.56,14.44,7.94
	c3.22,3.38,5.15,7.29,5.8,11.74c0.65,4.45,0.17,9.33-1.42,14.63c-1.59,5.31-3.97,10.93-7.12,16.86c-2.03,3.8-4.36,7.94-7,12.42
	c-2.64,4.48-5.21,8.99-7.73,13.53c-2.51,4.54-4.86,8.96-7.05,13.27c-2.19,4.31-3.84,8.2-4.97,11.66c-1.13,3.46-1.57,6.41-1.33,8.85
	c0.16,1.68,0.83,2.97,1.97,3.91c0.14-0.09,0.27-0.16,0.41-0.26c0.91-0.62,1.82-1.3,2.74-2.04c-0.06-0.28-0.11-0.58-0.14-0.89
	C103.86,221.99,104.3,219.04,105.43,215.58z"/>
<path class="st1" d="M13.7,76.61c0.55-1.08,1.11-2.15,1.65-3.23c-0.49-0.39-1.02-0.77-1.58-1.15c-0.74-0.49-1.56-0.98-2.45-1.47
	C8.01,77.39,4.6,83.91,1.1,90.32c-0.37,0.67-0.73,1.31-1.1,1.97v9.52c2.03-3.49,4.05-7.07,6.08-10.77
	C8.67,86.29,11.21,81.48,13.7,76.61z"/>
<path class="st1" d="M177.18,139.01c-0.03,0-0.06,0.01-0.09,0.01c0.05,0.01,0.09,0.02,0.14,0.04c2.04,0.6,4.75,1.63,8.12,3.1
	c3.87,1.68,6.75,3.16,8.64,4.42c1.89,1.26,3.17,2.4,3.83,3.42c0.66,1.02,0.82,1.97,0.5,2.85c-0.33,0.88-0.71,1.81-1.16,2.79
	c-1.72,3.79-4.19,8.63-7.4,14.54c-3.22,5.91-6.62,12.25-10.23,19.02c-3.61,6.77-7.17,13.62-10.71,20.57
	c-3.54,6.94-6.51,13.32-8.94,19.14c-2.42,5.82-4.07,10.73-4.92,14.75c-0.86,4.01-0.29,6.46,1.71,7.33c0.06,0.03,0.13,0.05,0.19,0.09
	c0.99-0.46,1.96-1.01,2.93-1.63c-0.36-1.25-0.32-2.93,0.14-5.07c0.85-4.02,2.49-8.93,4.92-14.75c2.42-5.82,5.4-12.2,8.94-19.14
	c3.53-6.94,7.1-13.8,10.71-20.57c3.6-6.77,7.01-13.11,10.23-19.02c3.21-5.91,5.68-10.76,7.4-14.54c0.44-0.98,0.83-1.91,1.16-2.79
	c0.32-0.88,0.16-1.83-0.5-2.85c-0.66-1.02-1.93-2.16-3.83-3.42c-1.89-1.26-4.77-2.74-8.64-4.42c-3.37-1.47-6.08-2.5-8.12-3.1
	c-0.61-0.18-1.18-0.32-1.72-0.43C179.21,139.06,178.1,138.94,177.18,139.01z"/>
<path class="st1" d="M2.85,52.34c0.57-1.28,1.1-2.47,1.57-3.54c-1.25-1.98-2.16-4.03-2.71-6.18c-0.78-3.04-0.88-6.27-0.31-9.68
	c0.28-1.64,0.67-3.27,1.16-4.89c0.53-1.73,1.18-3.46,1.95-5.16c0.6-1.33,1.5-3,2.66-4.96c0.22-0.38,0.44-0.75,0.68-1.15
	c1.51-2.49,3.25-4.76,5.24-6.82c0.25-0.26,0.51-0.49,0.77-0.73c-0.53-1.19-1.33-2.13-2.38-2.84c-1.17,0.8-2.3,1.74-3.37,2.85
	c-1.98,2.06-3.73,4.34-5.24,6.82C1.66,18.1,0.71,19.81,0,21.23v27.7c0.38,0.55,0.77,1.09,1.21,1.62
	C1.71,51.16,2.26,51.76,2.85,52.34z"/>
<path class="st1" d="M31.12,8.84c0.6,3.41,0.61,6.99,0.01,10.75c-0.6,3.76-1.5,7.46-2.71,11.1c-1.21,3.64-2.34,6.77-3.38,9.39
	c-0.93,2.37-2.02,5.01-3.26,7.9c-1.24,2.9-3.03,6.91-5.37,12.03c7.32,3.04,13.71,6.63,19.18,10.76c5.47,4.14,9.61,8.97,12.42,14.5
	c2.81,5.53,4.1,11.86,3.86,18.98c-0.24,7.12-2.39,15.13-6.43,24.03c-2.05,4.51-4.5,8.81-7.33,12.9c-1.01,1.45-2.03,2.88-3.04,4.32
	c-0.47,1.98-1.03,3.95-1.67,5.9c-0.99,2.96-1.91,5.56-2.78,7.85c1.27-1.78,2.56-3.56,3.87-5.33c2.9-3.92,5.77-7.92,8.61-12.02
	c2.83-4.09,5.28-8.4,7.33-12.9c4.05-8.89,6.19-16.9,6.43-24.03c0.24-7.12-1.05-13.45-3.86-18.98c-1.25-2.47-2.79-4.79-4.57-6.98
	c-0.57-0.7-1.16-1.38-1.78-2.05c-0.64-0.69-1.3-1.37-2-2.02c-0.49-0.46-1-0.92-1.52-1.37c-0.82-0.71-1.66-1.41-2.55-2.08
	c-0.81-0.62-1.66-1.21-2.51-1.81c-1.99-1.38-4.09-2.69-6.31-3.94c-1.55-0.87-3.15-1.71-4.8-2.51c-1.53-0.74-3.11-1.46-4.73-2.15
	c-0.28-0.12-0.55-0.24-0.83-0.36c2.33-5.13,4.12-9.14,5.37-12.03c1.24-2.89,2.33-5.53,3.26-7.9c0.31-0.78,0.63-1.61,0.95-2.48
	c0.77-2.06,1.58-4.35,2.43-6.91c1.21-3.64,2.11-7.34,2.71-11.1c0.6-3.76,0.59-7.34-0.01-10.75c-0.6-3.41-2.23-6.13-4.88-8.16
	C30.51,0.86,29.8,0.41,29.1,0h-3.84c0.32,0.22,0.65,0.44,0.98,0.68C28.89,2.71,30.51,5.43,31.12,8.84z"/>
<path class="st2" d="M96.85,119.96c-3.53,1.83-6.92,4.37-10.2,7.62c-3.28,3.26-6.39,6.91-9.36,10.95c-2.96,4.05-5.59,7.92-7.86,11.6
	c-0.01,0.01-0.02,0.02-0.03,0.03c-0.59,0.93-1.21,1.89-1.85,2.88c-2.8,4.34-5.92,8.83-9.38,13.46c-3.46,4.64-7.17,9.09-11.13,13.36
	c-3.23,3.48-6.5,6.55-9.82,9.26c1.02,0.68,2.01,1.38,2.97,2.09c4.07-3.09,8.06-6.75,11.99-10.98c3.96-4.27,7.67-8.72,11.13-13.36
	c3.46-4.64,6.58-9.12,9.38-13.46c0.64-1,1.26-1.96,1.85-2.88c0.01-0.01,0.02-0.02,0.03-0.03c2.27-3.69,4.9-7.55,7.86-11.6
	c2.96-4.05,6.08-7.7,9.36-10.95c3.27-3.25,6.67-5.79,10.2-7.62c0.29-0.15,0.58-0.28,0.87-0.41c-0.18-0.2-0.41-0.35-0.72-0.42
	c-1.16-0.26-2.32-0.37-3.47-0.35C98.07,119.38,97.46,119.64,96.85,119.96z"/>
<path class="st2" d="M112.33,230.57c-0.71,0.49-1.41,0.93-2.12,1.34c1.5,0.06,3.01,0.3,4.53,0.71c0.91-0.5,1.82-1.06,2.73-1.68
	c1.56-1.07,3.1-2.29,4.62-3.65c0.06-2,0.22-4.04,0.49-6.11c-0.55,0.62-1.1,1.24-1.65,1.84
	C118.13,226.04,115.26,228.56,112.33,230.57z"/>
<path class="st5" d="M17.88,198.52c0.62,0.14,1.24,0.25,1.86,0.32c-0.07-0.18-0.15-0.35-0.23-0.52
	C18.96,198.41,18.42,198.48,17.88,198.52z"/>
<path class="st2" d="M212.45,196.62c-1.68,4.68-2.75,9-3.21,12.97c-0.46,3.97-0.18,7.46,0.85,10.46c1.02,3.01,3.13,5.28,6.32,6.81
	c1.23,0.54,2.43,0.87,3.6,1.05v-1.55c-2.33-1.48-3.94-3.46-4.78-5.95c-1.03-3-1.31-6.49-0.85-10.46c0.46-3.97,1.53-8.29,3.21-12.97
	c0.75-2.08,1.56-4.19,2.42-6.32v-12.05c-0.57,1.21-1.14,2.42-1.7,3.66C216.08,187.17,214.13,191.95,212.45,196.62z"/>
<path class="st2" d="M11.33,70.76c-1.27-0.7-2.69-1.42-4.26-2.13C4.76,73.28,2.4,77.88,0,82.42v9.87c0.37-0.66,0.73-1.31,1.1-1.97
	C4.6,83.91,8.01,77.39,11.33,70.76z"/>
<path class="st2" d="M8.12,9.25c1.08-1.12,2.2-2.06,3.37-2.85c-0.13-0.08-0.25-0.17-0.38-0.25c-0.99-0.62-1.98-1-2.97-1.18
	C6.32,5.91,4.6,7.2,2.98,8.88C1.92,9.99,0.93,11.16,0,12.39v8.85c0.71-1.43,1.66-3.14,2.88-5.16C4.39,13.58,6.14,11.31,8.12,9.25z"
	/>
<path class="st2" d="M154.97,243.65c0.85-4.02,2.49-8.93,4.92-14.75c2.42-5.82,5.4-12.2,8.94-19.14c3.53-6.94,7.1-13.8,10.71-20.57
	c3.6-6.77,7.01-13.11,10.23-19.02c3.21-5.91,5.68-10.76,7.4-14.54c0.44-0.98,0.83-1.91,1.16-2.79c0.32-0.88,0.16-1.83-0.5-2.85
	c-0.66-1.02-1.93-2.16-3.83-3.42c-1.89-1.26-4.77-2.74-8.64-4.42c-3.37-1.47-6.08-2.5-8.12-3.1c-0.05-0.01-0.09-0.02-0.14-0.04
	c-0.56-0.16-1.08-0.29-1.58-0.4c-1.28-0.28-2.39-0.39-3.31-0.33c-0.36,0.02-0.7,0.08-1.02,0.16c0.3,0.08,0.59,0.15,0.91,0.24
	c2.04,0.6,4.75,1.63,8.12,3.1c3.87,1.68,6.75,3.16,8.64,4.42c1.89,1.26,3.17,2.4,3.83,3.42c0.66,1.02,0.82,1.97,0.5,2.85
	c-0.33,0.88-0.71,1.81-1.16,2.79c-1.72,3.79-4.19,8.63-7.4,14.54c-3.22,5.91-6.62,12.25-10.23,19.02
	c-3.61,6.77-7.17,13.62-10.71,20.57c-3.54,6.94-6.51,13.32-8.94,19.14c-2.42,5.82-4.07,10.73-4.92,14.75
	c-0.86,4.01-0.29,6.46,1.71,7.33c1.29,0.64,2.63,0.97,4.02,1.03c0.44-0.18,0.88-0.37,1.32-0.57c-0.06-0.03-0.13-0.05-0.19-0.09
	C154.68,250.11,154.11,247.67,154.97,243.65z"/>
<path class="st2" d="M99.12,223.72c-0.24-2.44,0.21-5.39,1.33-8.85c1.13-3.46,2.78-7.34,4.97-11.66c2.19-4.31,4.54-8.74,7.05-13.27
	c2.51-4.53,5.09-9.04,7.73-13.53c2.63-4.48,4.97-8.62,7-12.42c3.15-5.94,5.52-11.56,7.12-16.86c1.59-5.3,2.07-10.18,1.42-14.63
	c-0.65-4.45-2.58-8.36-5.8-11.74c-3.22-3.38-8.03-6.02-14.44-7.94c-0.24-0.07-0.48-0.13-0.72-0.19c-2.17-0.59-4.31-0.82-6.44-0.69
	c0.67,0.14,1.35,0.3,2.03,0.51c6.41,1.91,11.22,4.56,14.44,7.94c3.22,3.38,5.15,7.29,5.8,11.74c0.65,4.45,0.17,9.33-1.42,14.63
	c-1.59,5.31-3.97,10.93-7.12,16.86c-2.03,3.8-4.36,7.94-7,12.42c-2.64,4.48-5.21,8.99-7.73,13.53c-2.51,4.54-4.86,8.96-7.05,13.27
	c-2.19,4.31-3.84,8.2-4.97,11.66c-1.13,3.46-1.57,6.41-1.33,8.85c0.24,2.44,1.52,4.1,3.84,4.96c0.48,0.18,0.97,0.28,1.47,0.35
	c0.59-0.29,1.19-0.64,1.8-1.04C99.94,226.69,99.28,225.4,99.12,223.72z"/>
<path class="st2" d="M162.39,257.64c4.06-0.72,7.95-2.28,11.66-4.68c3.71-2.41,7.22-5.44,10.54-9.12c3.32-3.67,6.38-7.53,9.19-11.57
	c2.02-2.91,3.93-5.78,5.73-8.63c-0.07-0.17-0.15-0.33-0.21-0.51c-0.67-1.82-1.17-3.63-1.51-5.43c-0.44,0.73-0.88,1.47-1.35,2.24
	c-2.39,3.93-4.99,7.92-7.8,11.96c-2.81,4.04-5.88,7.9-9.19,11.57c-3.32,3.68-6.83,6.71-10.54,9.12c-3.71,2.41-7.6,3.97-11.66,4.68
	c-0.58,0.1-1.15,0.17-1.73,0.22c-0.09,0.03-0.19,0.06-0.28,0.09c1.11,0.2,2.21,0.32,3.3,0.34
	C159.83,257.95,161.12,257.86,162.39,257.64z"/>
<path class="st2" d="M25.98,8.47c0.6,3.41,0.61,6.99,0.01,10.75c-0.6,3.76-1.5,7.46-2.71,11.1c-1.21,3.64-2.34,6.77-3.38,9.39
	c-0.93,2.37-2.02,5.01-3.26,7.9c-1.24,2.9-3.03,6.91-5.37,12.03c7.32,3.04,13.71,6.63,19.18,10.76c5.47,4.14,9.61,8.97,12.42,14.5
	c2.81,5.53,4.1,11.86,3.86,18.98c-0.24,7.12-2.39,15.13-6.43,24.03c-1.13,2.49-2.4,4.91-3.77,7.27c-0.02,1.67-0.15,3.37-0.43,5.12
	c-0.28,1.75-0.63,3.48-1.04,5.2c1.02-1.43,2.03-2.86,3.04-4.32c2.83-4.09,5.28-8.4,7.33-12.9c4.05-8.89,6.19-16.9,6.43-24.03
	c0.24-7.12-1.05-13.45-3.86-18.98c-2.81-5.53-6.95-10.36-12.42-14.5c-5.47-4.13-11.87-7.72-19.18-10.76
	c2.33-5.13,4.12-9.14,5.37-12.03c1.24-2.89,2.33-5.53,3.26-7.9c1.04-2.62,2.17-5.75,3.38-9.39c1.21-3.64,2.11-7.34,2.71-11.1
	c0.6-3.76,0.59-7.34-0.01-10.75c-0.6-3.41-2.23-6.13-4.88-8.16C25.91,0.44,25.59,0.22,25.26,0h-4.61c0.15,0.11,0.3,0.2,0.45,0.32
	C23.75,2.35,25.37,5.07,25.98,8.47z"/>
<path class="st2" d="M1.61,55.1c0.44-0.97,0.85-1.89,1.24-2.76c-0.59-0.58-1.14-1.17-1.64-1.79C0.77,50.02,0.38,49.48,0,48.93v5.03
	C0.51,54.35,1.05,54.73,1.61,55.1z"/>
<path class="st3" d="M207.18,197.7c-1.68,4.68-2.75,9-3.21,12.97c-0.46,3.97-0.18,7.46,0.84,10.46c1.02,3.01,3.13,5.28,6.32,6.81
	c3.14,1.37,6.1,1.56,8.87,0.6v-0.63c-1.17-0.18-2.37-0.52-3.6-1.05c-3.19-1.53-5.3-3.81-6.32-6.81c-1.03-3-1.31-6.49-0.85-10.46
	c0.46-3.97,1.53-8.29,3.21-12.97c1.68-4.68,3.63-9.46,5.85-14.34c0.56-1.23,1.13-2.45,1.7-3.66v-9.5c-2.39,4.56-4.72,9.3-6.97,14.23
	C210.81,188.25,208.86,193.03,207.18,197.7z"/>
<path class="st6" d="M19.32,197.93C19.32,197.93,19.32,197.93,19.32,197.93c-0.58,0.21-1.15,0.42-1.72,0.61
	c0.09-0.01,0.18-0.02,0.28-0.03c0.54-0.04,1.08-0.11,1.63-0.2C19.44,198.19,19.39,198.06,19.32,197.93z"/>
<path class="st3" d="M8.15,4.96c-1.33-0.24-2.66-0.1-3.99,0.46C2.71,6.02,1.32,6.87,0,7.92v4.47c0.93-1.23,1.92-2.4,2.98-3.51
	C4.6,7.2,6.32,5.91,8.15,4.96z"/>
<path class="st3" d="M47.04,179.87c3.96-4.27,7.67-8.72,11.13-13.36c3.46-4.64,6.58-9.12,9.38-13.46c0.64-1,1.26-1.96,1.85-2.88
	c0.01-0.01,0.02-0.02,0.03-0.03c2.27-3.69,4.9-7.56,7.86-11.6c2.96-4.05,6.08-7.7,9.36-10.95c3.27-3.25,6.67-5.79,10.2-7.62
	c0.61-0.31,1.21-0.58,1.82-0.81c-2.36,0.04-4.72,0.67-7.08,1.89c-3.53,1.83-6.92,4.37-10.2,7.62c-3.28,3.26-6.39,6.91-9.36,10.95
	c-2.96,4.05-5.59,7.92-7.86,11.6c-0.01,0.01-0.02,0.02-0.03,0.03c-0.59,0.93-1.21,1.89-1.85,2.88c-2.8,4.34-5.92,8.83-9.38,13.46
	c-3.46,4.64-7.17,9.09-11.13,13.36c-2.25,2.43-4.53,4.65-6.83,6.7c0.77,0.48,1.53,0.97,2.28,1.47
	C40.54,186.42,43.82,183.35,47.04,179.87z"/>
<path class="st3" d="M1.61,55.1c-0.56-0.37-1.1-0.75-1.61-1.15v4.37c0.04,0.02,0.08,0.04,0.12,0.06C0.64,57.23,1.14,56.14,1.61,55.1
	z"/>
<path class="st3" d="M7.07,68.63c-1.21-0.55-2.5-1.11-3.9-1.67C2.12,69.09,1.07,71.21,0,73.32v9.1C2.4,77.88,4.76,73.28,7.07,68.63z
	"/>
<path class="st3" d="M149.83,243.28c0.85-4.02,2.49-8.93,4.92-14.75c2.42-5.82,5.4-12.2,8.94-19.14c3.53-6.94,7.1-13.8,10.71-20.57
	c3.6-6.77,7.01-13.11,10.23-19.02c3.21-5.91,5.68-10.76,7.4-14.54c0.44-0.98,0.83-1.91,1.16-2.79c0.32-0.88,0.16-1.83-0.5-2.85
	c-0.66-1.02-1.93-2.16-3.83-3.42c-1.89-1.26-4.77-2.74-8.64-4.42c-3.37-1.47-6.08-2.5-8.12-3.1c-0.32-0.09-0.61-0.16-0.91-0.24
	c-0.27-0.07-0.55-0.14-0.81-0.19c-0.06-0.01-0.11-0.02-0.16-0.03c-1.21-0.25-2.27-0.36-3.15-0.3c-1.22,0.08-2.22,0.49-3.02,1.21
	c0.84,0.13,1.77,0.34,2.79,0.64c2.04,0.6,4.75,1.63,8.12,3.1c3.87,1.68,6.75,3.16,8.64,4.42c1.89,1.26,3.17,2.4,3.83,3.42
	c0.66,1.02,0.82,1.97,0.5,2.85c-0.33,0.88-0.71,1.81-1.16,2.79c-1.72,3.79-4.19,8.63-7.4,14.54c-3.22,5.91-6.62,12.25-10.23,19.02
	c-3.61,6.77-7.17,13.62-10.71,20.57c-3.54,6.94-6.51,13.32-8.94,19.14c-2.42,5.82-4.07,10.73-4.92,14.75
	c-0.86,4.01-0.29,6.46,1.71,7.33c2.44,1.21,5.06,1.36,7.86,0.46c0.47-0.15,0.95-0.33,1.42-0.52c-1.39-0.05-2.73-0.39-4.02-1.03
	C149.54,249.74,148.97,247.3,149.83,243.28z"/>
<path class="st3" d="M110.21,231.91c0.7-0.41,1.41-0.86,2.12-1.34c2.93-2.01,5.8-4.53,8.6-7.55c0.56-0.6,1.11-1.22,1.65-1.84
	c0.29-2.26,0.71-4.56,1.25-6.91c-2.65,3.53-5.38,6.8-8.17,9.82c-2.8,3.02-5.66,5.54-8.6,7.55c-0.03,0.02-0.06,0.04-0.08,0.05
	c0.45,0.06,0.89,0.15,1.34,0.24C108.95,231.91,109.58,231.89,110.21,231.91z"/>
<path class="st3" d="M93.98,223.35c-0.24-2.44,0.21-5.39,1.33-8.85c1.13-3.46,2.78-7.34,4.97-11.66c2.19-4.31,4.54-8.74,7.05-13.27
	c2.51-4.53,5.09-9.04,7.73-13.53c2.63-4.48,4.97-8.62,7-12.42c3.15-5.94,5.52-11.56,7.12-16.86c1.59-5.3,2.07-10.18,1.42-14.63
	c-0.65-4.45-2.58-8.36-5.8-11.74c-3.22-3.38-8.03-6.02-14.44-7.94c-0.68-0.21-1.35-0.37-2.03-0.51c-3.51-0.72-6.97-0.48-10.37,0.71
	c2.35-0.14,4.73,0.14,7.13,0.88c6.41,1.91,11.22,4.56,14.44,7.94c3.22,3.38,5.15,7.29,5.8,11.74c0.65,4.45,0.17,9.33-1.42,14.63
	c-1.59,5.31-3.97,10.93-7.12,16.86c-2.03,3.8-4.36,7.94-7,12.42c-2.64,4.48-5.21,8.99-7.73,13.53c-2.51,4.54-4.86,8.96-7.05,13.27
	c-2.19,4.31-3.84,8.2-4.97,11.66c-1.13,3.46-1.57,6.41-1.33,8.85c0.24,2.44,1.52,4.1,3.84,4.96c2,0.76,4.24,0.51,6.74-0.73
	c-0.5-0.07-1-0.17-1.47-0.35C95.49,227.45,94.22,225.79,93.98,223.35z"/>
<path class="st3" d="M15.83,1.39c2.65,2.03,4.27,4.75,4.88,8.16c0.6,3.41,0.61,6.99,0.01,10.75c-0.6,3.76-1.5,7.46-2.71,11.1
	c-1.21,3.64-2.34,6.77-3.38,9.39c-0.93,2.37-2.02,5.01-3.26,7.9C10.12,51.6,8.34,55.61,6,60.73c7.32,3.04,13.71,6.63,19.18,10.76
	c5.47,4.14,9.61,8.97,12.42,14.5s4.1,11.86,3.86,18.98c-0.23,6.76-2.19,14.33-5.85,22.69c0.19,0.61,0.36,1.23,0.48,1.89
	c0.32,1.83,0.46,3.71,0.44,5.64c1.37-2.36,2.63-4.78,3.77-7.27c4.05-8.89,6.19-16.9,6.43-24.03c0.24-7.12-1.05-13.45-3.86-18.98
	c-2.81-5.53-6.95-10.36-12.42-14.5c-5.47-4.13-11.87-7.72-19.18-10.76c2.33-5.13,4.12-9.14,5.37-12.03c1.24-2.89,2.33-5.53,3.26-7.9
	c1.04-2.62,2.17-5.75,3.38-9.39c1.21-3.64,2.11-7.34,2.71-11.1c0.6-3.76,0.59-7.34-0.01-10.75c-0.6-3.41-2.23-6.13-4.88-8.16
	C20.95,0.2,20.8,0.11,20.65,0h-6.92C14.42,0.41,15.13,0.86,15.83,1.39z"/>
<path class="st3" d="M157.26,257.27c4.06-0.72,7.95-2.28,11.66-4.68c3.71-2.41,7.22-5.44,10.54-9.12c3.32-3.67,6.38-7.53,9.19-11.57
	c2.81-4.04,5.41-8.03,7.8-11.96c0.47-0.77,0.91-1.51,1.35-2.24c-0.46-2.41-0.63-4.81-0.49-7.18c-1.7,3.07-3.74,6.57-6.12,10.5
	c-2.39,3.93-4.99,7.92-7.8,11.96c-2.81,4.04-5.88,7.9-9.19,11.57c-3.32,3.68-6.83,6.71-10.54,9.12c-2.62,1.7-5.33,2.97-8.13,3.82
	C156.1,257.44,156.68,257.37,157.26,257.27z"/>
<path class="st3" d="M216.08,162.64c-0.9,1.15-1.65,2.39-2.26,3.73c-3.82,7.41-7.86,15.12-12.1,23.14
	c-4.25,8.02-8.65,15.87-13.18,23.55c-1.25,2.09-2.8,4.67-4.64,7.74c-1.85,3.07-3.92,6.23-6.22,9.47c-2.3,3.24-4.75,6.41-7.36,9.52
	c-2.61,3.11-5.26,5.72-7.94,7.84c-0.85,0.67-1.7,1.27-2.56,1.82c-0.97,0.62-1.95,1.16-2.93,1.63c-0.44,0.21-0.88,0.4-1.32,0.57
	c-0.47,0.19-0.94,0.36-1.42,0.52c-2.8,0.9-5.42,0.75-7.86-0.46c-2-0.87-2.57-3.31-1.71-7.33c0.85-4.02,2.49-8.93,4.92-14.75
	c2.42-5.82,5.4-12.2,8.94-19.14c3.53-6.94,7.1-13.8,10.71-20.57c3.6-6.77,7.01-13.11,10.23-19.02c3.21-5.91,5.68-10.76,7.4-14.54
	c0.44-0.98,0.83-1.91,1.16-2.79c0.32-0.88,0.16-1.83-0.5-2.85c-0.66-1.02-1.93-2.16-3.83-3.42c-1.89-1.26-4.77-2.74-8.64-4.42
	c-3.37-1.47-6.08-2.5-8.12-3.1c-1.02-0.3-1.95-0.51-2.79-0.64c-0.84-0.13-1.59-0.17-2.25-0.13c-0.5,0.03-0.94,0.13-1.37,0.27
	c-0.7,0.23-1.32,0.57-1.82,1.08c-0.82,0.82-1.63,1.92-2.42,3.34c-1.93,3.26-3.94,6.77-6.03,10.54c-2.09,3.77-4.22,7.71-6.38,11.81
	c-2.17,4.1-4.29,8.26-6.35,12.48c-2.07,4.22-4.02,8.34-5.85,12.37c-2.74,4.36-5.82,8.98-9.25,13.85c-3.42,4.87-6.9,9.28-10.43,13.23
	c-2.59,2.89-5.14,5.34-7.65,7.36c-0.92,0.74-1.83,1.42-2.74,2.04c-0.14,0.1-0.27,0.17-0.41,0.26c-0.61,0.4-1.21,0.75-1.8,1.04
	c-2.49,1.23-4.74,1.48-6.74,0.73c-2.32-0.86-3.6-2.52-3.84-4.96c-0.24-2.44,0.21-5.39,1.33-8.85c1.13-3.46,2.78-7.34,4.97-11.66
	c2.19-4.31,4.54-8.74,7.05-13.27c2.51-4.53,5.09-9.04,7.73-13.53c2.63-4.48,4.97-8.62,7-12.42c3.15-5.94,5.52-11.56,7.12-16.86
	c1.59-5.3,2.07-10.18,1.42-14.63c-0.65-4.45-2.58-8.36-5.8-11.74c-3.22-3.38-8.03-6.02-14.44-7.94c-2.4-0.74-4.78-1.02-7.13-0.88
	c-0.32,0.02-0.64,0.05-0.96,0.09c-1.81,0.2-3.61,0.66-5.4,1.39c-4.41,1.81-8.65,4.54-12.7,8.18c-4.05,3.65-7.85,7.81-11.4,12.48
	c-0.97,1.28-1.91,2.55-2.82,3.8c-0.42,0.26-0.77,0.58-1.04,0.99c-0.68,1.13-1.52,2.51-2.53,4.14c-1.05,1.56-2.07,3.11-3.03,4.63
	c-0.04,0.09-0.06,0.19-0.07,0.29c-2.36,3.71-5.01,7.68-7.95,11.9c-3.01,4.32-6.33,8.65-9.95,13c-3.5,4.19-7.07,7.84-10.7,10.95
	c1.93,1.01,3.76,2.07,5.53,3.17c2.3-2.05,4.58-4.27,6.83-6.7c3.96-4.27,7.67-8.72,11.13-13.36c3.46-4.64,6.58-9.12,9.38-13.46
	c0.64-1,1.26-1.96,1.85-2.88c0.01-0.01,0.02-0.02,0.03-0.03c2.27-3.69,4.9-7.55,7.86-11.6c2.96-4.05,6.08-7.7,9.36-10.95
	c3.27-3.25,6.67-5.79,10.2-7.62c2.36-1.23,4.72-1.85,7.08-1.89c1.16-0.02,2.32,0.08,3.47,0.35c0.31,0.07,0.54,0.22,0.72,0.42
	c0.57,0.62,0.54,1.85-0.12,3.71c-0.14,0.4-0.3,0.82-0.5,1.28c-1.41,3.26-3.6,7.42-6.58,12.49c-2.98,5.07-6.32,10.7-10.04,16.91
	c-3.72,6.21-7.05,12.39-10.01,18.57c-3.64,7.34-6.31,14.18-8,20.54c-1.7,6.36-2.16,12.15-1.41,17.38c0.76,5.23,3.01,9.9,6.74,14.01
	c3.67,4.05,9.18,7.47,16.52,10.28c0.7-0.34,1.41-0.66,2.12-0.95c2.1-0.86,4.22-1.34,6.36-1.48c2.97-1.04,5.98-1.36,9.03-0.95
	c0.03-0.02,0.06-0.04,0.08-0.05c2.93-2.01,5.8-4.53,8.6-7.55c2.8-3.02,5.52-6.3,8.17-9.82c-0.54,2.34-0.96,4.64-1.25,6.91
	c-0.27,2.07-0.43,4.1-0.49,6.11c-0.01,0.16-0.02,0.32-0.02,0.47c-0.03,1.4,0,2.75,0.1,4.08c0.06,0.79,0.14,1.56,0.24,2.32
	c5.44,1.85,9.62,4.28,12.5,7.31c3.22,3.38,5.15,7.29,5.8,11.74c0.19,1.3,0.27,2.64,0.27,4.01c3.74,1.38,7.41,1.75,11.01,1.12
	c1.1-0.19,2.18-0.45,3.25-0.77c0.09-0.03,0.19-0.06,0.28-0.09c2.8-0.86,5.51-2.12,8.13-3.82c3.71-2.41,7.22-5.44,10.54-9.12
	c3.32-3.67,6.38-7.53,9.19-11.57c2.81-4.04,5.41-8.03,7.8-11.96c2.39-3.93,4.43-7.43,6.12-10.5c-0.14,2.37,0.03,4.76,0.49,7.18
	c0.34,1.8,0.84,3.61,1.51,5.43c0.06,0.17,0.15,0.34,0.21,0.51c0.65,1.6,1.52,3.06,2.61,4.37c1.65,1.99,3.8,3.66,6.48,4.99
	c3.31,1.59,6.45,2.26,9.4,2.01c0.68-0.06,1.34-0.15,1.99-0.27v-6.18c-2.77,0.96-5.72,0.77-8.87-0.6c-3.19-1.53-5.3-3.81-6.32-6.81
	c-1.03-3-1.31-6.49-0.84-10.46c0.46-3.97,1.53-8.29,3.21-12.97c1.68-4.68,3.63-9.46,5.85-14.34c2.25-4.94,4.57-9.67,6.97-14.23
	v-6.86c-0.02-0.01-0.03-0.02-0.05-0.03C218.26,161.36,216.97,161.49,216.08,162.64z"/>
<path class="st3" d="M3.17,66.96c1.39,0.56,2.68,1.12,3.9,1.67c1.57,0.72,2.99,1.43,4.26,2.13c0.89,0.49,1.71,0.98,2.45,1.47
	c0.57,0.37,1.09,0.76,1.58,1.15c1.79,1.41,3.11,2.93,3.97,4.55c0.26,0.49,0.47,1,0.64,1.52c0.56,1.68,0.68,3.51,0.36,5.49
	c-0.43,2.59-1.41,5.59-2.97,9c-2,4.39-4.19,8.62-6.56,12.69c-2.36,4.05-4.77,8.04-7.23,11.97c0.55-0.15,1.11-0.29,1.68-0.4
	c0.64-0.12,1.29-0.16,1.95-0.16c1.08-0.4,2.18-0.71,3.32-0.92c1.73-0.32,3.49-0.2,5.29,0.35c1.9-0.33,3.84-0.11,5.82,0.61
	c3.11-0.28,6.31,0.82,9.6,3.31c2.13,1.64,3.59,3.73,4.4,6.26c3.66-8.36,5.62-15.93,5.85-22.69c0.24-7.12-1.05-13.45-3.86-18.98
	s-6.95-10.36-12.42-14.5C19.72,67.36,13.32,63.78,6,60.73c2.33-5.13,4.12-9.14,5.37-12.03c1.24-2.89,2.33-5.53,3.26-7.9
	c1.04-2.62,2.17-5.75,3.38-9.39c1.21-3.64,2.11-7.34,2.71-11.1c0.6-3.76,0.59-7.34-0.01-10.75c-0.6-3.41-2.23-6.13-4.88-8.16
	C15.13,0.86,14.42,0.41,13.73,0H0v7.92c1.32-1.04,2.71-1.89,4.16-2.5c1.33-0.56,2.66-0.7,3.99-0.46c0.99,0.18,1.98,0.56,2.97,1.18
	c0.13,0.08,0.25,0.17,0.38,0.25c1.05,0.71,1.85,1.65,2.38,2.84c0.37,0.82,0.61,1.76,0.73,2.81c0.31,2.77,0.17,5.78-0.41,9.03
	c-0.59,3.26-1.45,6.46-2.59,9.62c-1.14,3.16-2.09,5.74-2.85,7.75c-0.93,2.37-2.02,5.01-3.26,7.9c-0.32,0.74-0.67,1.56-1.06,2.45
	c-0.47,1.07-1,2.26-1.57,3.54c-0.39,0.87-0.8,1.79-1.24,2.76c-0.47,1.04-0.96,2.13-1.49,3.28C0.08,58.37,0.04,58.35,0,58.32v15
	C1.07,71.21,2.12,69.09,3.17,66.96z"/>
<path class="st4" d="M19.32,197.92c-0.85-1.63-2.18-3.14-3.96-4.55c-1.06,2.1-2.13,4.18-3.2,6.25c1.62-0.08,3.27-0.38,4.94-0.91
	c0.17-0.05,0.34-0.12,0.5-0.17C18.17,198.36,18.75,198.15,19.32,197.92z"/>
<path class="st4" d="M7.86,136.79c-1.51,2.49-2.62,4.53-3.34,6.11c-1.5,3.3-2.54,6.65-3.12,10.05c-0.58,3.41-0.47,6.63,0.31,9.68
	c0.55,2.14,1.46,4.2,2.71,6.18c0.39-0.89,0.75-1.71,1.06-2.45c1.24-2.89,2.33-5.53,3.26-7.9c0.76-2.01,1.71-4.59,2.85-7.75
	c1.14-3.16,2-6.37,2.59-9.62c0.58-3.26,0.72-6.27,0.41-9.03c-0.12-1.05-0.36-1.99-0.73-2.81c-0.26,0.24-0.52,0.47-0.77,0.73
	C11.12,132.03,9.37,134.3,7.86,136.79z"/>
<path class="st1" d="M214.37,329.96c-0.46,3.97-0.18,7.46,0.85,10.46c0.85,2.49,2.45,4.47,4.78,5.95v-5.87
	c-0.86-2.86-1.08-6.13-0.65-9.82c0.15-1.29,0.37-2.62,0.65-3.99v-16.02c-0.86,2.13-1.67,4.23-2.42,6.32
	C215.9,321.67,214.83,326,214.37,329.96z"/>
<path class="st1" d="M12.15,199.63c1.08-2.07,2.15-4.16,3.2-6.25c-0.49-0.39-1.02-0.77-1.58-1.15c-0.74-0.49-1.56-0.98-2.45-1.47
	c-3.32,6.63-6.73,13.15-10.23,19.55c-0.37,0.67-0.73,1.31-1.1,1.97v9.52c2.03-3.49,4.05-7.07,6.08-10.77
	C8.13,207.27,10.16,203.47,12.15,199.63z"/>
<path class="st1" d="M116.29,351.71c1.38,0.13,2.78,0.39,4.18,0.82c0.14,0.04,0.27,0.09,0.41,0.13c0.43-0.26,0.86-0.54,1.29-0.83
	c-0.1-1.32-0.14-2.68-0.1-4.08c0-0.16,0.02-0.32,0.02-0.47c-1.52,1.36-3.06,2.58-4.62,3.65
	C117.07,351.21,116.68,351.47,116.29,351.71z"/>
<path class="st1" d="M184.6,363.83c-3.32,3.68-6.83,6.71-10.54,9.12c-3.71,2.41-7.6,3.97-11.66,4.68c-1.27,0.22-2.56,0.31-3.85,0.28
	c0.59,0.16,1.18,0.29,1.77,0.39c0.46-0.16,0.95-0.27,1.49-0.31c0.66-0.04,1.41,0,2.25,0.13c0.79-0.71,1.79-1.13,3.02-1.21
	c1.09-0.07,2.45,0.11,4.05,0.51c2.72-0.86,5.37-2.1,7.92-3.76c3.71-2.41,7.22-5.44,10.54-9.12c3.32-3.67,6.38-7.53,9.19-11.57
	c1.16-1.67,2.28-3.33,3.37-4.98c-1.09-1.31-1.97-2.77-2.61-4.37c-1.8,2.85-3.71,5.73-5.73,8.63
	C190.98,356.3,187.92,360.16,184.6,363.83z"/>
<path class="st1" d="M91.79,247.95c-3.28,3.26-6.39,6.91-9.36,10.95c-2.96,4.05-5.59,7.92-7.86,11.6c-0.01,0.01-0.02,0.02-0.03,0.03
	c-0.59,0.93-1.21,1.89-1.85,2.88c-2.8,4.34-5.92,8.83-9.38,13.46c-3.46,4.64-7.17,9.09-11.13,13.36c-3.72,4.01-7.5,7.48-11.35,10.47
	c0.99,0.76,1.92,1.54,2.82,2.34c0.47-0.33,0.94-0.67,1.4-1.02c4.11-3.11,8.14-6.8,12.1-11.07c3.96-4.27,7.67-8.72,11.13-13.36
	c3.46-4.64,6.58-9.12,9.38-13.46c0.64-1,1.26-1.96,1.85-2.88c0.01-0.01,0.02-0.02,0.03-0.03c2.27-3.69,4.9-7.56,7.86-11.6
	c2.96-4.05,6.08-7.7,9.36-10.95c1.95-1.93,3.94-3.61,5.97-5.04c0.65-1.86,0.69-3.09,0.12-3.71c-0.29,0.13-0.58,0.26-0.87,0.41
	C98.47,242.16,95.07,244.7,91.79,247.95z"/>
<path class="st1" d="M119.72,233.34c-1.66-0.45-3.32-0.69-4.96-0.71c0.24,0.07,0.48,0.12,0.72,0.19c6.41,1.91,11.22,4.56,14.44,7.94
	c3.22,3.38,5.15,7.29,5.8,11.74c0.65,4.45,0.17,9.33-1.42,14.63c-1.59,5.31-3.97,10.93-7.12,16.86c-2.03,3.8-4.36,7.94-7,12.42
	c-2.64,4.48-5.21,8.99-7.73,13.53c-2.51,4.54-4.86,8.96-7.05,13.27c-2.19,4.31-3.84,8.2-4.97,11.66c-1.13,3.46-1.57,6.41-1.33,8.85
	c0.16,1.68,0.83,2.97,1.97,3.91c0.14-0.09,0.27-0.16,0.41-0.26c0.91-0.62,1.82-1.3,2.74-2.04c-0.06-0.28-0.11-0.58-0.14-0.89
	c-0.24-2.44,0.21-5.39,1.33-8.85c1.13-3.46,2.78-7.34,4.97-11.66c2.19-4.31,4.54-8.74,7.05-13.27c2.51-4.53,5.09-9.05,7.73-13.53
	c2.63-4.48,4.97-8.62,7-12.42c3.15-5.94,5.52-11.56,7.12-16.86c1.13-3.75,1.68-7.29,1.69-10.61c0-1.37-0.08-2.71-0.27-4.01
	c-0.65-4.45-2.58-8.36-5.8-11.74c-2.89-3.02-7.06-5.46-12.5-7.31c-0.63-0.22-1.27-0.43-1.94-0.63
	C120.22,233.46,119.97,233.41,119.72,233.34z"/>
<path class="st1" d="M26.75,168.71c1.24-2.89,2.33-5.53,3.26-7.9c0.19-0.49,0.4-1.02,0.6-1.54c0.87-2.28,1.8-4.89,2.78-7.85
	c0.65-1.95,1.2-3.92,1.67-5.9c0.41-1.72,0.76-3.45,1.04-5.2c0.28-1.75,0.41-3.45,0.43-5.12c0.02-1.93-0.12-3.81-0.44-5.64
	c-0.12-0.66-0.28-1.29-0.48-1.89c-0.81-2.53-2.26-4.63-4.4-6.26c-3.3-2.49-6.5-3.59-9.6-3.31c1.52,0.56,3.06,1.41,4.63,2.59
	c2.65,2.03,4.27,4.75,4.88,8.16c0.6,3.41,0.61,6.99,0.01,10.75c-0.6,3.76-1.5,7.46-2.71,11.1c-1.21,3.64-2.34,6.77-3.38,9.39
	c-0.93,2.37-2.02,5.01-3.26,7.9c-1.24,2.9-3.03,6.91-5.37,12.03c7.32,3.04,13.71,6.63,19.18,10.76c5.47,4.14,9.61,8.97,12.42,14.5
	c2.81,5.53,4.1,11.86,3.86,18.98c-0.24,7.12-2.39,15.13-6.43,24.03c-2.05,4.51-4.5,8.81-7.33,12.9c-1.14,1.65-2.29,3.27-3.44,4.89
	c-0.38,1.45-0.8,2.9-1.27,4.33c-1.21,3.64-2.34,6.77-3.38,9.39c-0.09,0.22-0.18,0.46-0.27,0.68c1.55-2.2,3.13-4.38,4.74-6.55
	c2.9-3.92,5.77-7.92,8.61-12.02c2.83-4.09,5.28-8.4,7.33-12.9c4.05-8.89,6.19-16.9,6.43-24.03c0.24-7.12-1.05-13.45-3.86-18.98
	c-2.37-4.67-5.71-8.84-9.98-12.51c-0.79-0.68-1.59-1.34-2.44-1.99c-0.12-0.09-0.26-0.18-0.38-0.28c-0.96-0.72-1.95-1.41-2.97-2.09
	c-0.74-0.5-1.5-0.99-2.28-1.47c-1.77-1.1-3.61-2.16-5.53-3.17c-2.54-1.33-5.21-2.58-8.02-3.75
	C23.72,175.61,25.51,171.6,26.75,168.71z"/>
<path class="st1" d="M185.35,262.15c3.87,1.68,6.75,3.16,8.64,4.42c1.89,1.26,3.17,2.4,3.83,3.42c0.66,1.02,0.82,1.97,0.5,2.85
	c-0.33,0.88-0.71,1.81-1.16,2.79c-1.72,3.79-4.19,8.63-7.4,14.54c-3.22,5.91-6.62,12.25-10.23,19.02
	c-3.61,6.77-7.17,13.62-10.71,20.57c-3.54,6.94-6.51,13.32-8.94,19.14c-2.42,5.82-4.07,10.73-4.92,14.75
	c-0.86,4.01-0.29,6.46,1.71,7.33c0.06,0.03,0.13,0.05,0.19,0.09c0.99-0.46,1.96-1.01,2.93-1.63c-0.36-1.25-0.32-2.93,0.14-5.07
	c0.85-4.02,2.49-8.93,4.92-14.75c2.42-5.82,5.4-12.2,8.94-19.14c3.53-6.94,7.1-13.8,10.71-20.57c3.6-6.77,7.01-13.11,10.23-19.02
	c3.21-5.91,5.68-10.76,7.4-14.54c0.44-0.98,0.83-1.91,1.16-2.79c0.32-0.88,0.16-1.83-0.5-2.85c-0.66-1.02-1.93-2.16-3.83-3.42
	c-1.89-1.26-4.77-2.74-8.64-4.42c-3.37-1.47-6.08-2.5-8.12-3.1c-2.05-0.6-3.73-0.85-5.03-0.77c-0.03,0-0.06,0.01-0.09,0.01
	c0.05,0.01,0.09,0.02,0.14,0.04C179.28,259.65,181.99,260.69,185.35,262.15z"/>
<path class="st1" d="M2.85,172.34c0.57-1.28,1.1-2.47,1.57-3.54c-1.25-1.98-2.16-4.03-2.71-6.18c-0.78-3.04-0.88-6.27-0.31-9.68
	c0.58-3.4,1.62-6.75,3.12-10.05c0.72-1.58,1.84-3.62,3.34-6.11c1.51-2.49,3.25-4.76,5.24-6.82c0.25-0.26,0.51-0.49,0.77-0.73
	c-0.53-1.19-1.33-2.13-2.38-2.84c-1.17,0.8-2.3,1.74-3.37,2.85c-1.98,2.06-3.73,4.34-5.24,6.82c-1.23,2.03-2.18,3.74-2.88,5.16v27.7
	c0.38,0.55,0.77,1.09,1.21,1.62C1.71,171.16,2.26,171.76,2.85,172.34z"/>
<path class="st5" d="M17.88,318.52c0.73,0.16,1.47,0.28,2.21,0.35c-0.06-0.21-0.13-0.42-0.2-0.62
	C19.21,318.37,18.54,318.47,17.88,318.52z"/>
<path class="st2" d="M172.1,258.69c2.04,0.6,4.75,1.63,8.12,3.1c3.87,1.68,6.75,3.16,8.64,4.42c1.89,1.26,3.17,2.4,3.83,3.42
	c0.66,1.02,0.82,1.97,0.5,2.85c-0.33,0.88-0.71,1.81-1.16,2.79c-1.72,3.79-4.19,8.63-7.4,14.54c-3.22,5.91-6.62,12.25-10.23,19.02
	c-3.61,6.77-7.17,13.62-10.71,20.57c-3.54,6.94-6.51,13.32-8.94,19.14c-2.42,5.82-4.07,10.73-4.92,14.75
	c-0.86,4.01-0.29,6.46,1.71,7.33c1.29,0.64,2.63,0.97,4.02,1.03c0.44-0.18,0.88-0.37,1.32-0.57c-0.06-0.03-0.13-0.05-0.19-0.09
	c-2-0.87-2.57-3.31-1.71-7.33c0.85-4.02,2.49-8.93,4.92-14.75c2.42-5.82,5.4-12.2,8.94-19.14c3.53-6.94,7.1-13.8,10.71-20.57
	c3.6-6.77,7.01-13.11,10.23-19.02c3.21-5.91,5.68-10.76,7.4-14.54c0.44-0.98,0.83-1.91,1.16-2.79c0.32-0.88,0.16-1.83-0.5-2.85
	c-0.66-1.02-1.93-2.16-3.83-3.42c-1.89-1.26-4.77-2.74-8.64-4.42c-3.37-1.47-6.08-2.5-8.12-3.1c-0.05-0.01-0.09-0.02-0.14-0.04
	c-1.98-0.57-3.61-0.81-4.89-0.73c-0.36,0.02-0.7,0.08-1.02,0.16C171.48,258.52,171.78,258.59,172.1,258.69z"/>
<path class="st2" d="M212.45,316.62c-1.68,4.68-2.75,9-3.21,12.97c-0.46,3.97-0.18,7.46,0.85,10.46c1.02,3.01,3.13,5.28,6.32,6.81
	c1.23,0.54,2.43,0.87,3.6,1.05v-1.55c-2.33-1.48-3.94-3.46-4.78-5.95c-1.03-3-1.31-6.49-0.85-10.46c0.46-3.97,1.53-8.29,3.21-12.97
	c0.75-2.08,1.56-4.19,2.42-6.32v-12.05c-0.57,1.21-1.14,2.42-1.7,3.66C216.08,307.17,214.13,311.95,212.45,316.62z"/>
<path class="st2" d="M112.33,350.57c-0.23,0.16-0.46,0.3-0.69,0.45c1.04,0.12,2.08,0.32,3.12,0.6c0.51,0.01,1.02,0.04,1.53,0.08
	c0.39-0.25,0.79-0.5,1.18-0.77c1.56-1.07,3.1-2.29,4.62-3.65c0.06-2,0.22-4.04,0.49-6.11c-0.55,0.62-1.1,1.24-1.65,1.84
	C118.13,346.04,115.26,348.56,112.33,350.57z"/>
<path class="st2" d="M96.85,239.96c-3.53,1.83-6.92,4.37-10.2,7.62c-3.28,3.26-6.39,6.91-9.36,10.95c-2.96,4.05-5.59,7.92-7.86,11.6
	c-0.01,0.01-0.02,0.02-0.03,0.03c-0.59,0.93-1.21,1.89-1.85,2.88c-2.8,4.34-5.92,8.83-9.38,13.46c-3.46,4.64-7.17,9.09-11.13,13.36
	c-3.01,3.24-6.05,6.14-9.14,8.71c0.91,0.63,1.81,1.26,2.67,1.91c0.09,0.07,0.17,0.14,0.26,0.21c3.84-2.99,7.63-6.46,11.35-10.47
	c3.96-4.27,7.67-8.72,11.13-13.36c3.46-4.64,6.58-9.12,9.38-13.46c0.64-1,1.26-1.96,1.85-2.88c0.01-0.01,0.02-0.02,0.03-0.03
	c2.27-3.69,4.9-7.55,7.86-11.6c2.96-4.05,6.08-7.7,9.36-10.95c3.27-3.25,6.67-5.79,10.2-7.62c0.29-0.15,0.58-0.28,0.87-0.41
	c-0.18-0.2-0.41-0.35-0.72-0.42c-1.16-0.26-2.32-0.37-3.47-0.35C98.07,239.38,97.46,239.64,96.85,239.96z"/>
<path class="st2" d="M45.44,248.29c4.05-8.89,6.19-16.9,6.43-24.03c0.24-7.12-1.05-13.45-3.86-18.98
	c-2.81-5.53-6.95-10.36-12.42-14.5c-5.47-4.13-11.87-7.72-19.18-10.76c2.33-5.13,4.12-9.14,5.37-12.03c1.24-2.89,2.33-5.53,3.26-7.9
	c1.04-2.62,2.17-5.75,3.38-9.39c1.21-3.64,2.11-7.34,2.71-11.1c0.6-3.76,0.59-7.34-0.01-10.75c-0.6-3.41-2.23-6.13-4.88-8.16
	c-1.56-1.18-3.1-2.03-4.63-2.59c-1.98-0.73-3.92-0.94-5.82-0.61c1.74,0.54,3.51,1.48,5.31,2.84c2.65,2.03,4.27,4.75,4.88,8.16
	c0.6,3.41,0.61,6.99,0.01,10.75c-0.6,3.76-1.5,7.46-2.71,11.1c-1.21,3.64-2.34,6.77-3.38,9.39c-0.93,2.37-2.02,5.01-3.26,7.9
	c-1.24,2.9-3.03,6.91-5.37,12.03c7.32,3.04,13.71,6.63,19.18,10.76c5.47,4.14,9.61,8.97,12.42,14.5c2.81,5.53,4.1,11.86,3.86,18.98
	c-0.24,7.12-2.39,15.13-6.43,24.03c-1.14,2.51-2.42,4.95-3.81,7.34c-0.06,1.33-0.17,2.67-0.39,4.05c-0.36,2.28-0.85,4.54-1.44,6.77
	c1.15-1.62,2.3-3.24,3.44-4.89C40.94,257.1,43.39,252.8,45.44,248.29z"/>
<path class="st2" d="M162.39,377.64c4.06-0.72,7.95-2.28,11.66-4.68c3.71-2.41,7.22-5.44,10.54-9.12c3.32-3.67,6.38-7.53,9.19-11.57
	c2.02-2.91,3.93-5.78,5.73-8.63c-0.07-0.17-0.15-0.33-0.21-0.51c-0.67-1.82-1.17-3.63-1.51-5.43c-0.44,0.73-0.88,1.47-1.35,2.24
	c-2.39,3.93-4.99,7.92-7.8,11.96c-2.81,4.04-5.88,7.9-9.19,11.57c-3.32,3.68-6.83,6.71-10.54,9.12c-3.71,2.41-7.6,3.97-11.66,4.68
	c-0.58,0.1-1.15,0.17-1.73,0.22c-0.09,0.03-0.19,0.06-0.28,0.09c1.11,0.2,2.21,0.32,3.3,0.34
	C159.83,377.95,161.12,377.86,162.39,377.64z"/>
<path class="st2" d="M11.33,190.76c-1.27-0.7-2.69-1.42-4.26-2.13c-2.31,4.65-4.67,9.25-7.07,13.79v9.87
	c0.37-0.66,0.73-1.31,1.1-1.97C4.6,203.91,8.01,197.39,11.33,190.76z"/>
<path class="st2" d="M99.12,343.72c-0.24-2.44,0.21-5.39,1.33-8.85c1.13-3.46,2.78-7.34,4.97-11.66c2.19-4.31,4.54-8.74,7.05-13.27
	c2.51-4.53,5.09-9.04,7.73-13.53c2.63-4.48,4.97-8.62,7-12.42c3.15-5.94,5.52-11.56,7.12-16.86c1.59-5.3,2.07-10.18,1.42-14.63
	c-0.65-4.45-2.58-8.36-5.8-11.74c-3.22-3.38-8.03-6.02-14.44-7.94c-0.24-0.07-0.48-0.13-0.72-0.19c-0.01,0-0.02,0-0.02-0.01
	c-1.52-0.41-3.03-0.65-4.53-0.71c-0.63-0.02-1.26-0.01-1.89,0.03c0.67,0.14,1.35,0.3,2.03,0.51c6.41,1.91,11.22,4.56,14.44,7.94
	c3.22,3.38,5.15,7.29,5.8,11.74c0.65,4.45,0.17,9.33-1.42,14.63c-1.59,5.31-3.97,10.93-7.12,16.86c-2.03,3.8-4.36,7.94-7,12.42
	c-2.64,4.48-5.21,8.99-7.73,13.53c-2.51,4.54-4.86,8.96-7.05,13.27c-2.19,4.31-3.84,8.2-4.97,11.66c-1.13,3.46-1.57,6.41-1.33,8.85
	c0.24,2.44,1.52,4.1,3.84,4.96c0.48,0.18,0.97,0.28,1.47,0.35c0.59-0.29,1.19-0.64,1.8-1.04C99.94,346.69,99.28,345.4,99.12,343.72z
	"/>
<path class="st2" d="M2.88,136.07c1.51-2.49,3.25-4.76,5.24-6.82c1.08-1.12,2.2-2.06,3.37-2.85c-0.13-0.08-0.25-0.17-0.38-0.25
	c-0.99-0.62-1.98-1-2.97-1.18c-1.83,0.95-3.55,2.25-5.17,3.92c-1.06,1.11-2.06,2.28-2.98,3.51v8.85
	C0.71,139.81,1.66,138.1,2.88,136.07z"/>
<path class="st2" d="M1.61,175.1c0.44-0.97,0.85-1.89,1.24-2.76c-0.59-0.58-1.14-1.17-1.64-1.79c-0.43-0.53-0.83-1.07-1.21-1.62
	v5.03C0.51,174.35,1.05,174.73,1.61,175.1z"/>
<path class="st3" d="M207.18,317.7c-1.68,4.68-2.75,9-3.21,12.97c-0.46,3.97-0.18,7.46,0.84,10.46c1.02,3.01,3.13,5.28,6.32,6.81
	c3.14,1.37,6.1,1.56,8.87,0.6v-0.63c-1.17-0.18-2.37-0.52-3.6-1.05c-3.19-1.53-5.3-3.81-6.32-6.81c-1.03-3-1.31-6.49-0.85-10.46
	c0.46-3.97,1.53-8.29,3.21-12.97c1.68-4.68,3.63-9.46,5.85-14.34c0.56-1.23,1.13-2.45,1.7-3.66v-9.5c-2.39,4.56-4.72,9.3-6.97,14.23
	C210.81,308.25,208.86,313.03,207.18,317.7z"/>
<path class="st3" d="M167.06,257.92c-0.9,0.06-1.68,0.3-2.34,0.71c-0.24,0.14-0.47,0.31-0.68,0.5c0.84,0.13,1.77,0.34,2.79,0.64
	c2.04,0.6,4.75,1.63,8.12,3.1c3.87,1.68,6.75,3.16,8.64,4.42c1.89,1.26,3.17,2.4,3.83,3.42c0.66,1.02,0.82,1.97,0.5,2.85
	c-0.33,0.88-0.71,1.81-1.16,2.79c-1.72,3.79-4.19,8.63-7.4,14.54c-3.22,5.91-6.62,12.25-10.23,19.02
	c-3.61,6.77-7.17,13.62-10.71,20.57c-3.54,6.94-6.51,13.32-8.94,19.14c-2.42,5.82-4.07,10.73-4.92,14.75
	c-0.86,4.01-0.29,6.46,1.71,7.33c2.44,1.21,5.06,1.36,7.86,0.46c0.47-0.15,0.95-0.33,1.42-0.52c-1.39-0.05-2.73-0.39-4.02-1.03
	c-2-0.87-2.57-3.31-1.71-7.33c0.85-4.02,2.49-8.93,4.92-14.75c2.42-5.82,5.4-12.2,8.94-19.14c3.53-6.94,7.1-13.8,10.71-20.57
	c3.6-6.77,7.01-13.11,10.23-19.02c3.21-5.91,5.68-10.76,7.4-14.54c0.44-0.98,0.83-1.91,1.16-2.79c0.32-0.88,0.16-1.83-0.5-2.85
	c-0.66-1.02-1.93-2.16-3.83-3.42c-1.89-1.26-4.77-2.74-8.64-4.42c-3.37-1.47-6.08-2.5-8.12-3.1c-0.32-0.09-0.61-0.16-0.91-0.24
	c-0.79-0.2-1.51-0.35-2.18-0.43C168.29,257.92,167.63,257.88,167.06,257.92z"/>
<path class="st3" d="M105.08,233.53c6.41,1.91,11.22,4.56,14.44,7.94c3.22,3.38,5.15,7.29,5.8,11.74c0.65,4.45,0.17,9.33-1.42,14.63
	c-1.59,5.31-3.97,10.93-7.12,16.86c-2.03,3.8-4.36,7.94-7,12.42c-2.64,4.48-5.21,8.99-7.73,13.53c-2.51,4.54-4.86,8.96-7.05,13.27
	c-2.19,4.31-3.84,8.2-4.97,11.66c-1.13,3.46-1.57,6.41-1.33,8.85c0.24,2.44,1.52,4.1,3.84,4.96c2,0.76,4.24,0.51,6.74-0.73
	c-0.5-0.07-1-0.17-1.47-0.35c-2.32-0.86-3.6-2.52-3.84-4.96c-0.24-2.44,0.21-5.39,1.33-8.85c1.13-3.46,2.78-7.34,4.97-11.66
	c2.19-4.31,4.54-8.74,7.05-13.27c2.51-4.53,5.09-9.04,7.73-13.53c2.63-4.48,4.97-8.62,7-12.42c3.15-5.94,5.52-11.56,7.12-16.86
	c1.59-5.3,2.07-10.18,1.42-14.63c-0.65-4.45-2.58-8.36-5.8-11.74c-3.22-3.38-8.03-6.02-14.44-7.94c-0.68-0.21-1.35-0.37-2.03-0.51
	c-0.45-0.09-0.9-0.18-1.34-0.24c-3.05-0.42-6.06-0.09-9.03,0.95C100.3,232.51,102.68,232.79,105.08,233.53z"/>
<path class="st3" d="M37.9,308.59c3.09-2.57,6.14-5.47,9.14-8.71c3.96-4.27,7.67-8.72,11.13-13.36c3.46-4.64,6.58-9.12,9.38-13.46
	c0.64-1,1.26-1.96,1.85-2.88c0.01-0.01,0.02-0.02,0.03-0.03c2.27-3.69,4.9-7.56,7.86-11.6c2.96-4.05,6.08-7.7,9.36-10.95
	c3.27-3.25,6.67-5.79,10.2-7.62c0.61-0.31,1.21-0.58,1.82-0.81c-2.36,0.04-4.72,0.67-7.08,1.89c-3.53,1.83-6.92,4.37-10.2,7.62
	c-3.28,3.26-6.39,6.91-9.36,10.95c-2.96,4.05-5.59,7.92-7.86,11.6c-0.01,0.01-0.02,0.02-0.03,0.03c-0.59,0.93-1.21,1.89-1.85,2.88
	c-2.8,4.34-5.92,8.83-9.38,13.46c-3.46,4.64-7.17,9.09-11.13,13.36c-2.04,2.2-4.09,4.23-6.17,6.12
	C36.39,307.57,37.15,308.07,37.9,308.59z"/>
<path class="st6" d="M17.6,318.55c0.09-0.01,0.18-0.02,0.28-0.03c0.67-0.05,1.34-0.15,2.01-0.27c-0.06-0.16-0.11-0.32-0.18-0.48
	C19.01,318.05,18.31,318.31,17.6,318.55z"/>
<path class="st3" d="M7.07,188.63c-1.21-0.55-2.5-1.11-3.9-1.67c-1.05,2.13-2.11,4.26-3.17,6.37v9.1
	C2.4,197.88,4.76,193.28,7.07,188.63z"/>
<path class="st3" d="M8.15,124.96c-1.33-0.24-2.66-0.1-3.99,0.46c-1.45,0.61-2.83,1.46-4.16,2.5v4.47c0.93-1.23,1.92-2.4,2.98-3.51
	C4.6,127.2,6.32,125.91,8.15,124.96z"/>
<path class="st3" d="M1.61,175.1c-0.56-0.37-1.1-0.75-1.61-1.15v4.37c0.04,0.02,0.08,0.04,0.12,0.06
	C0.64,177.23,1.14,176.14,1.61,175.1z"/>
<path class="st3" d="M46.73,223.9c0.24-7.12-1.05-13.45-3.86-18.98c-2.81-5.53-6.95-10.36-12.42-14.5
	c-5.47-4.13-11.87-7.72-19.18-10.76c2.33-5.13,4.12-9.14,5.37-12.03c1.24-2.89,2.33-5.53,3.26-7.9c1.04-2.62,2.17-5.75,3.38-9.39
	c1.21-3.64,2.11-7.34,2.71-11.1c0.6-3.76,0.59-7.34-0.01-10.75c-0.6-3.41-2.23-6.13-4.88-8.16c-1.8-1.36-3.57-2.3-5.31-2.84
	c-1.79-0.55-3.55-0.67-5.29-0.35c-1.13,0.21-2.24,0.52-3.32,0.92c2.8,0.01,5.69,1.11,8.65,3.34c2.65,2.03,4.27,4.75,4.88,8.16
	c0.6,3.41,0.61,6.99,0.01,10.75c-0.6,3.76-1.5,7.46-2.71,11.1c-1.21,3.64-2.34,6.77-3.38,9.39c-0.93,2.37-2.02,5.01-3.26,7.9
	c-1.24,2.9-3.03,6.91-5.37,12.03c7.32,3.04,13.71,6.63,19.18,10.76c5.47,4.14,9.61,8.97,12.42,14.5s4.1,11.86,3.86,18.98
	c-0.23,6.65-2.13,14.08-5.67,22.27c0.12,0.43,0.22,0.86,0.3,1.31c0.38,2.16,0.5,4.4,0.4,6.71c1.39-2.38,2.67-4.83,3.81-7.34
	C44.35,239.03,46.49,231.02,46.73,223.9z"/>
<path class="st3" d="M111.64,351.03c0.23-0.15,0.46-0.3,0.69-0.45c2.93-2.01,5.8-4.53,8.6-7.55c0.56-0.6,1.11-1.22,1.65-1.84
	c0.29-2.26,0.71-4.56,1.25-6.91c-2.65,3.53-5.38,6.8-8.17,9.82c-2.47,2.67-5,4.92-7.57,6.8c0.08,0.02,0.16,0.03,0.24,0.04
	C109.42,350.88,110.53,350.9,111.64,351.03z"/>
<path class="st6" d="M15.77,312.71c-0.13-0.11-0.27-0.22-0.41-0.33c-0.09,0.17-0.18,0.34-0.26,0.51
	C15.32,312.84,15.54,312.77,15.77,312.71z"/>
<path class="st3" d="M157.26,377.27c4.06-0.72,7.95-2.28,11.66-4.68c3.71-2.41,7.22-5.44,10.54-9.12c3.32-3.67,6.38-7.53,9.19-11.57
	c2.81-4.04,5.41-8.03,7.8-11.96c0.47-0.77,0.91-1.51,1.35-2.24c-0.46-2.41-0.63-4.81-0.49-7.18c-1.7,3.07-3.74,6.57-6.12,10.5
	c-2.39,3.93-4.99,7.92-7.8,11.96c-2.81,4.04-5.88,7.9-9.19,11.57c-3.32,3.68-6.83,6.71-10.54,9.12c-2.62,1.7-5.33,2.97-8.13,3.82
	C156.1,377.44,156.68,377.37,157.26,377.27z"/>
<path class="st4" d="M216.08,282.64c-0.9,1.15-1.65,2.39-2.26,3.73c-3.82,7.41-7.86,15.12-12.1,23.14
	c-4.25,8.02-8.65,15.87-13.18,23.55c-1.25,2.09-2.8,4.67-4.64,7.74c-1.85,3.07-3.92,6.23-6.22,9.47c-2.3,3.24-4.75,6.41-7.36,9.52
	c-2.61,3.11-5.26,5.72-7.94,7.84c-0.85,0.67-1.7,1.27-2.56,1.82c-0.97,0.62-1.95,1.16-2.93,1.63c-0.44,0.21-0.88,0.4-1.32,0.57
	c-0.47,0.19-0.94,0.36-1.42,0.52c-2.8,0.9-5.42,0.75-7.86-0.46c-2-0.87-2.57-3.31-1.71-7.33c0.85-4.02,2.49-8.93,4.92-14.75
	c2.42-5.82,5.4-12.2,8.94-19.14c3.53-6.94,7.1-13.8,10.71-20.57c3.6-6.77,7.01-13.11,10.23-19.02c3.21-5.91,5.68-10.76,7.4-14.54
	c0.44-0.98,0.83-1.91,1.16-2.79c0.32-0.88,0.16-1.83-0.5-2.85c-0.66-1.02-1.93-2.16-3.83-3.42c-1.89-1.26-4.77-2.74-8.64-4.42
	c-3.37-1.47-6.08-2.5-8.12-3.1c-1.02-0.3-1.95-0.51-2.79-0.64c-0.84-0.13-1.59-0.17-2.25-0.13c-1.31,0.09-2.38,0.54-3.19,1.35
	c-0.82,0.82-1.63,1.92-2.42,3.34c-1.93,3.26-3.94,6.77-6.03,10.54c-2.09,3.77-4.22,7.71-6.38,11.81c-2.17,4.1-4.29,8.26-6.35,12.48
	c-2.07,4.22-4.02,8.34-5.85,12.37c-2.74,4.36-5.82,8.98-9.25,13.85c-3.42,4.87-6.9,9.28-10.43,13.23c-2.59,2.89-5.14,5.34-7.65,7.36
	c-0.92,0.74-1.83,1.42-2.74,2.04c-0.14,0.1-0.27,0.17-0.41,0.26c-0.61,0.4-1.21,0.75-1.8,1.04c-2.49,1.23-4.74,1.48-6.74,0.73
	c-2.32-0.86-3.6-2.52-3.84-4.96c-0.24-2.44,0.21-5.39,1.33-8.85c1.13-3.46,2.78-7.34,4.97-11.66c2.19-4.31,4.54-8.74,7.05-13.27
	c2.51-4.53,5.09-9.04,7.73-13.53c2.63-4.48,4.97-8.62,7-12.42c3.15-5.94,5.52-11.56,7.12-16.86c1.59-5.3,2.07-10.18,1.42-14.63
	c-0.65-4.45-2.58-8.36-5.8-11.74c-3.22-3.38-8.03-6.02-14.44-7.94c-2.4-0.74-4.78-1.02-7.13-0.88c-2.14,0.13-4.26,0.62-6.36,1.48
	c-0.71,0.29-1.42,0.62-2.12,0.95c-3.65,1.77-7.18,4.17-10.58,7.23c-4.05,3.65-7.85,7.81-11.4,12.48c-0.97,1.28-1.91,2.55-2.82,3.8
	c-0.42,0.26-0.77,0.58-1.04,0.99c-0.68,1.13-1.52,2.51-2.53,4.14c-1.05,1.56-2.07,3.11-3.03,4.63c-0.04,0.09-0.06,0.19-0.07,0.29
	c-2.36,3.71-5.01,7.68-7.95,11.9c-3.01,4.32-6.33,8.65-9.95,13c-3.27,3.92-6.61,7.35-10,10.33c1.91,1.02,3.75,2.09,5.5,3.21
	c2.07-1.89,4.13-3.92,6.17-6.12c3.96-4.27,7.67-8.72,11.13-13.36c3.46-4.64,6.58-9.12,9.38-13.46c0.64-1,1.26-1.96,1.85-2.88
	c0.01-0.01,0.02-0.02,0.03-0.03c2.27-3.69,4.9-7.55,7.86-11.6c2.96-4.05,6.08-7.7,9.36-10.95c3.27-3.25,6.67-5.79,10.2-7.62
	c2.36-1.23,4.72-1.85,7.08-1.89c1.16-0.02,2.32,0.08,3.47,0.35c0.31,0.07,0.54,0.22,0.72,0.42c0.57,0.62,0.54,1.85-0.12,3.71
	c-0.14,0.4-0.3,0.82-0.5,1.28c-1.41,3.26-3.6,7.42-6.58,12.49c-2.98,5.07-6.32,10.7-10.04,16.91c-3.72,6.21-7.05,12.39-10.01,18.57
	c-3.64,7.34-6.31,14.18-8,20.54c-1.7,6.36-2.16,12.15-1.41,17.38c0.76,5.23,3.01,9.9,6.74,14.01c3.48,3.84,8.63,7.11,15.41,9.83
	c1.07-0.56,2.14-1.06,3.23-1.51c2.1-0.86,4.22-1.34,6.36-1.48c3.33-1.16,6.71-1.41,10.13-0.75c2.58-1.88,5.1-4.13,7.57-6.8
	c2.8-3.02,5.52-6.3,8.17-9.82c-0.54,2.34-0.96,4.64-1.25,6.91c-0.27,2.07-0.43,4.1-0.49,6.11c-0.01,0.16-0.02,0.32-0.02,0.47
	c-0.03,1.4,0,2.75,0.1,4.08c0.03,0.43,0.07,0.86,0.12,1.28c5.5,1.86,9.72,4.3,12.63,7.35c3.22,3.38,5.15,7.29,5.8,11.74
	c0.23,1.61,0.32,3.28,0.26,5.01c3.74,1.38,7.42,1.76,11.02,1.12c1.1-0.19,2.18-0.45,3.25-0.77c0.09-0.03,0.19-0.06,0.28-0.09
	c2.8-0.86,5.51-2.12,8.13-3.82c3.71-2.41,7.22-5.44,10.54-9.12c3.32-3.67,6.38-7.53,9.19-11.57c2.81-4.04,5.41-8.03,7.8-11.96
	c2.39-3.93,4.43-7.43,6.12-10.5c-0.14,2.37,0.03,4.76,0.49,7.18c0.34,1.8,0.84,3.61,1.51,5.43c0.06,0.17,0.15,0.34,0.21,0.51
	c0.65,1.6,1.52,3.06,2.61,4.37c1.65,1.99,3.8,3.66,6.48,4.99c3.31,1.59,6.45,2.26,9.4,2.01c0.68-0.06,1.34-0.15,1.99-0.27v-6.18
	c-2.77,0.96-5.72,0.77-8.87-0.6c-3.19-1.53-5.3-3.81-6.32-6.81c-1.03-3-1.31-6.49-0.84-10.46c0.46-3.97,1.53-8.29,3.21-12.97
	c1.68-4.68,3.63-9.46,5.85-14.34c2.25-4.94,4.57-9.67,6.97-14.23v-6.86c-0.02-0.01-0.03-0.02-0.05-0.03
	C218.26,281.36,216.97,281.49,216.08,282.64z"/>
<path class="st4" d="M3.17,186.96c1.39,0.56,2.68,1.12,3.9,1.67c1.57,0.72,2.99,1.43,4.26,2.13c0.89,0.49,1.71,0.98,2.45,1.47
	c0.57,0.37,1.09,0.76,1.58,1.15c1.78,1.41,3.11,2.92,3.96,4.55c0,0,0,0.01,0,0.01c0.07,0.13,0.12,0.26,0.18,0.39
	c0.08,0.17,0.16,0.35,0.23,0.52c0.75,1.85,0.94,3.88,0.58,6.1c-0.43,2.59-1.41,5.59-2.97,9c-2,4.39-4.19,8.62-6.56,12.69
	c-2.13,3.64-4.3,7.23-6.5,10.78c0.32-0.07,0.63-0.15,0.95-0.21c0.64-0.12,1.29-0.16,1.95-0.16c1.08-0.4,2.18-0.71,3.32-0.92
	c1.73-0.32,3.49-0.2,5.29,0.35c1.9-0.33,3.84-0.11,5.82,0.61c3.11-0.28,6.31,0.82,9.6,3.31c2.3,1.76,3.82,4.04,4.58,6.84
	c3.54-8.19,5.44-15.62,5.67-22.27c0.24-7.12-1.05-13.45-3.86-18.98s-6.95-10.36-12.42-14.5c-5.47-4.13-11.87-7.72-19.18-10.76
	c2.33-5.13,4.12-9.14,5.37-12.03c1.24-2.89,2.33-5.53,3.26-7.9c1.04-2.62,2.17-5.75,3.38-9.39c1.21-3.64,2.11-7.34,2.71-11.1
	c0.6-3.76,0.59-7.34-0.01-10.75c-0.6-3.41-2.23-6.13-4.88-8.16c-2.96-2.24-5.84-3.34-8.65-3.34c-0.65,0-1.3,0.04-1.95,0.16
	c-0.57,0.11-1.13,0.24-1.68,0.4c-1.22,0.34-2.41,0.78-3.56,1.34v7.97c1.32-1.04,2.71-1.89,4.16-2.5c1.33-0.56,2.66-0.7,3.99-0.46
	c0.99,0.18,1.98,0.56,2.97,1.18c0.13,0.08,0.25,0.17,0.38,0.25c1.05,0.71,1.85,1.65,2.38,2.84c0.37,0.82,0.61,1.76,0.73,2.81
	c0.31,2.77,0.17,5.78-0.41,9.03c-0.59,3.26-1.45,6.46-2.59,9.62c-1.14,3.16-2.09,5.74-2.85,7.75c-0.93,2.37-2.02,5.01-3.26,7.9
	c-0.32,0.74-0.67,1.56-1.06,2.45c-0.47,1.07-1,2.26-1.57,3.54c-0.39,0.87-0.8,1.79-1.24,2.76c-0.47,1.04-0.96,2.13-1.49,3.28
	c-0.04-0.02-0.08-0.04-0.12-0.06v15C1.07,191.21,2.12,189.09,3.17,186.96z"/>
<path class="st4" d="M7.86,255.79c-1.51,2.49-2.62,4.53-3.34,6.11c-1.5,3.3-2.54,6.65-3.12,10.05c-0.58,3.41-0.47,6.63,0.31,9.68
	c0.55,2.14,1.46,4.2,2.71,6.18c0.39-0.89,0.75-1.71,1.06-2.45c1.24-2.89,2.33-5.53,3.26-7.9c0.76-2.01,1.71-4.59,2.85-7.75
	c1.14-3.16,2-6.37,2.59-9.62c0.58-3.26,0.72-6.27,0.41-9.03c-0.12-1.05-0.36-1.99-0.73-2.81c-0.26,0.24-0.52,0.47-0.77,0.73
	C11.12,251.03,9.37,253.3,7.86,255.79z"/>
<path class="st4" d="M11.62,319.64c1.79-0.04,3.61-0.33,5.47-0.92c0.17-0.05,0.34-0.12,0.5-0.17c0.71-0.24,1.41-0.5,2.11-0.78
	c-0.12-0.28-0.25-0.56-0.39-0.84c-0.79-1.5-1.98-2.91-3.55-4.22c-0.23,0.06-0.45,0.13-0.67,0.18
	C13.95,315.16,12.79,317.4,11.62,319.64z"/>
<path class="st1" d="M140.97,377.23c0.06-1.73-0.02-3.4-0.26-5.01c-0.65-4.45-2.58-8.36-5.8-11.74c-2.91-3.05-7.12-5.49-12.63-7.35
	c-0.46-0.16-0.93-0.31-1.41-0.46c-0.14-0.04-0.27-0.09-0.41-0.13c-1.4-0.43-2.79-0.69-4.18-0.82c-0.51-0.05-1.02-0.08-1.53-0.08
	c0.24,0.07,0.48,0.12,0.72,0.19c6.41,1.91,11.22,4.56,14.44,7.94c3.22,3.38,5.15,7.29,5.8,11.74c0.65,4.45,0.17,9.33-1.42,14.63
	c-0.38,1.27-0.81,2.56-1.28,3.87h5.23c0.37-1.06,0.72-2.12,1.04-3.16C140.31,383.46,140.86,380.26,140.97,377.23z"/>
<path class="st1" d="M87.41,378.62c2.96-4.05,6.08-7.7,9.36-10.95c1.95-1.93,3.94-3.61,5.97-5.04c0.65-1.86,0.69-3.09,0.12-3.71
	c-0.29,0.13-0.58,0.26-0.87,0.41c-3.53,1.83-6.92,4.37-10.2,7.62c-3.28,3.26-6.39,6.91-9.36,10.95c-2.96,4.05-5.59,7.92-7.86,11.6
	c-0.01,0.01-0.02,0.02-0.03,0.03c-0.1,0.15-0.2,0.31-0.3,0.47h5.45C81.94,386.38,84.51,382.59,87.41,378.62z"/>
<path class="st1" d="M198.97,386.29c-1.89-1.26-4.77-2.74-8.64-4.42c-3.37-1.47-6.08-2.5-8.12-3.1c-2.05-0.6-3.73-0.85-5.03-0.77
	c-0.03,0-0.06,0.01-0.09,0.01c0.05,0.01,0.09,0.02,0.14,0.04c2.04,0.6,4.75,1.63,8.12,3.1c3.87,1.68,6.75,3.16,8.64,4.42
	c1.89,1.26,3.17,2.4,3.83,3.42c0.22,0.34,0.37,0.68,0.48,1h4.66c-0.05-0.1-0.09-0.19-0.15-0.29
	C202.14,388.7,200.87,387.55,198.97,386.29z"/>
<path class="st1" d="M11.62,319.64c1.17-2.24,2.33-4.48,3.47-6.75c0.09-0.17,0.18-0.34,0.26-0.51c-0.49-0.39-1.02-0.77-1.58-1.15
	c-0.74-0.49-1.56-0.98-2.45-1.47c-3.32,6.63-6.73,13.15-10.23,19.55c-0.37,0.67-0.73,1.31-1.1,1.97v9.52
	c2.03-3.49,4.05-7.07,6.08-10.77C7.95,326.6,9.8,323.14,11.62,319.64z"/>
<path class="st1" d="M50.42,368.01c4.05-8.89,6.19-16.9,6.43-24.03c0.24-7.12-1.05-13.45-3.86-18.98
	c-2.25-4.43-5.38-8.41-9.34-11.95c-0.9-0.8-1.83-1.59-2.82-2.34c-0.09-0.07-0.17-0.14-0.26-0.21c-0.86-0.65-1.76-1.29-2.67-1.91
	c-0.75-0.51-1.51-1.02-2.29-1.51c-1.75-1.12-3.59-2.18-5.5-3.21c-2.75-1.47-5.65-2.85-8.72-4.13c2.33-5.13,4.12-9.14,5.37-12.03
	c1.12-2.62,2.12-5.02,2.99-7.22c0.09-0.23,0.18-0.46,0.27-0.68c1.04-2.62,2.17-5.75,3.38-9.39c0.48-1.43,0.89-2.88,1.27-4.33
	c0.59-2.24,1.08-4.49,1.44-6.77c0.22-1.38,0.33-2.72,0.39-4.05c0.1-2.3-0.01-4.54-0.4-6.71c-0.08-0.45-0.18-0.89-0.3-1.31
	c-0.76-2.8-2.28-5.08-4.58-6.84c-3.3-2.49-6.5-3.59-9.6-3.31c1.52,0.56,3.06,1.41,4.63,2.59c2.65,2.03,4.27,4.75,4.88,8.16
	c0.6,3.41,0.61,6.99,0.01,10.75c-0.6,3.76-1.5,7.46-2.71,11.1c-1.21,3.64-2.34,6.77-3.38,9.39c-0.93,2.37-2.02,5.01-3.26,7.9
	c-1.24,2.9-3.03,6.91-5.37,12.03c7.32,3.04,13.71,6.63,19.18,10.76c5.47,4.14,9.61,8.97,12.42,14.5c2.81,5.53,4.1,11.86,3.86,18.98
	c-0.24,7.12-2.39,15.13-6.43,24.03c-2.05,4.51-4.5,8.81-7.33,12.9c-2.31,3.33-4.64,6.59-7,9.8h5.5c2.17-2.98,4.34-6,6.47-9.09
	C45.92,376.82,48.37,372.52,50.42,368.01z"/>
<path class="st1" d="M2.85,291.34c0.57-1.28,1.1-2.47,1.57-3.54c-1.25-1.98-2.16-4.03-2.71-6.18c-0.78-3.04-0.88-6.27-0.31-9.68
	c0.58-3.4,1.62-6.75,3.12-10.05c0.72-1.58,1.84-3.62,3.34-6.11c1.51-2.49,3.25-4.76,5.24-6.82c0.25-0.26,0.51-0.49,0.77-0.73
	c-0.53-1.19-1.33-2.13-2.38-2.84c-1.17,0.8-2.3,1.74-3.37,2.85c-1.98,2.06-3.73,4.34-5.24,6.82c-1.23,2.03-2.18,3.74-2.88,5.16v27.7
	c0.38,0.55,0.77,1.09,1.21,1.62C1.71,290.16,2.26,290.76,2.85,291.34z"/>
<path class="st2" d="M193.99,385.58c-1.89-1.26-4.77-2.74-8.64-4.42c-3.37-1.47-6.08-2.5-8.12-3.1c-0.05-0.01-0.09-0.02-0.14-0.04
	c-1.98-0.57-3.61-0.81-4.89-0.73c-0.36,0.02-0.7,0.08-1.02,0.16c0.3,0.08,0.59,0.15,0.91,0.24c2.04,0.6,4.75,1.63,8.12,3.1
	c3.87,1.68,6.75,3.16,8.64,4.42c1.89,1.26,3.17,2.4,3.83,3.42c0.31,0.47,0.49,0.93,0.59,1.37h5.03c-0.11-0.33-0.25-0.66-0.48-1
	C197.16,387.98,195.89,386.84,193.99,385.58z"/>
<path class="st2" d="M45.44,367.29c4.05-8.89,6.19-16.9,6.43-24.03c0.24-7.12-1.05-13.45-3.86-18.98
	c-2.81-5.53-6.95-10.36-12.42-14.5c-5.47-4.13-11.87-7.72-19.18-10.76c2.33-5.13,4.12-9.14,5.37-12.03c1.24-2.89,2.33-5.53,3.26-7.9
	c1.04-2.62,2.17-5.75,3.38-9.39c1.21-3.64,2.11-7.34,2.71-11.1c0.6-3.76,0.59-7.34-0.01-10.75c-0.6-3.41-2.23-6.13-4.88-8.16
	c-1.56-1.18-3.1-2.03-4.63-2.59c-1.98-0.73-3.92-0.94-5.82-0.61c1.74,0.54,3.51,1.48,5.31,2.84c2.65,2.03,4.27,4.75,4.88,8.16
	c0.6,3.41,0.61,6.99,0.01,10.75c-0.6,3.76-1.5,7.46-2.71,11.1c-1.21,3.64-2.34,6.77-3.38,9.39c-0.93,2.37-2.02,5.01-3.26,7.9
	c-1.24,2.9-3.03,6.91-5.37,12.03c7.32,3.04,13.71,6.63,19.18,10.76c5.47,4.14,9.61,8.97,12.42,14.5c2.81,5.53,4.1,11.86,3.86,18.98
	c-0.24,7.12-2.39,15.13-6.43,24.03c-2.05,4.51-4.5,8.81-7.33,12.9c-2.4,3.46-4.82,6.84-7.26,10.17h5.41c2.35-3.21,4.69-6.47,7-9.8
	C40.94,376.1,43.39,371.8,45.44,367.29z"/>
<path class="st2" d="M74.57,389.51c2.27-3.69,4.9-7.55,7.86-11.6c2.96-4.05,6.08-7.7,9.36-10.95c3.27-3.25,6.67-5.79,10.2-7.62
	c0.29-0.15,0.58-0.28,0.87-0.41c-0.18-0.2-0.41-0.35-0.72-0.42c-1.16-0.26-2.32-0.37-3.47-0.35c-0.61,0.24-1.21,0.5-1.82,0.81
	c-3.53,1.83-6.92,4.37-10.2,7.62c-3.28,3.26-6.39,6.91-9.36,10.95c-2.96,4.05-5.59,7.92-7.86,11.6c-0.01,0.01-0.02,0.02-0.03,0.03
	c-0.18,0.27-0.35,0.55-0.53,0.84h5.37c0.1-0.16,0.2-0.31,0.3-0.47C74.55,389.52,74.56,389.52,74.57,389.51z"/>
<path class="st2" d="M11.33,309.76c-1.27-0.7-2.69-1.42-4.26-2.13c-2.31,4.65-4.67,9.25-7.07,13.79v9.87
	c0.37-0.66,0.73-1.31,1.1-1.97C4.6,322.91,8.01,316.39,11.33,309.76z"/>
<path class="st2" d="M135.73,371.5c-0.65-4.45-2.58-8.36-5.8-11.74c-3.22-3.38-8.03-6.02-14.44-7.94c-0.24-0.07-0.48-0.13-0.72-0.19
	c-1.05-0.28-2.09-0.49-3.12-0.6c-1.11-0.12-2.22-0.15-3.32-0.08c0.67,0.14,1.35,0.3,2.03,0.51c6.41,1.91,11.22,4.56,14.44,7.94
	c3.22,3.38,5.15,7.29,5.8,11.74c0.65,4.45,0.17,9.33-1.42,14.63c-0.42,1.39-0.89,2.81-1.42,4.24h5.27c0.47-1.31,0.9-2.6,1.28-3.87
	C135.91,380.83,136.38,375.95,135.73,371.5z"/>
<path class="st2" d="M2.88,255.07c1.51-2.49,3.25-4.76,5.24-6.82c1.08-1.12,2.2-2.06,3.37-2.85c-0.13-0.08-0.25-0.17-0.38-0.25
	c-0.99-0.62-1.98-1-2.97-1.18c-1.83,0.95-3.55,2.25-5.17,3.92c-1.06,1.11-2.06,2.28-2.98,3.51v8.85
	C0.71,258.81,1.66,257.1,2.88,255.07z"/>
<path class="st2" d="M1.61,294.1c0.44-0.97,0.85-1.89,1.24-2.76c-0.59-0.58-1.14-1.17-1.64-1.79c-0.43-0.53-0.83-1.07-1.21-1.62
	v5.03C0.51,293.35,1.05,293.73,1.61,294.1z"/>
<path class="st3" d="M69.44,389.14c2.27-3.69,4.9-7.56,7.86-11.6c2.96-4.05,6.08-7.7,9.36-10.95c3.27-3.25,6.67-5.79,10.2-7.62
	c0.61-0.31,1.21-0.58,1.82-0.81c-2.36,0.04-4.72,0.67-7.08,1.89c-3.53,1.83-6.92,4.37-10.2,7.62c-3.28,3.26-6.39,6.91-9.36,10.95
	c-2.91,3.97-5.48,7.76-7.72,11.39h4.56c0.18-0.28,0.36-0.56,0.53-0.84C69.41,389.15,69.43,389.15,69.44,389.14z"/>
<path class="st3" d="M7.07,307.63c-1.21-0.55-2.5-1.11-3.9-1.67c-1.05,2.13-2.11,4.26-3.17,6.37v9.1
	C2.4,316.88,4.76,312.28,7.07,307.63z"/>
<path class="st3" d="M2.98,247.88c1.61-1.67,3.34-2.97,5.17-3.92c-1.33-0.24-2.66-0.1-3.99,0.46c-1.45,0.61-2.83,1.46-4.16,2.5v4.47
	C0.93,250.16,1.92,248.99,2.98,247.88z"/>
<path class="st3" d="M1.61,294.1c-0.56-0.37-1.1-0.75-1.61-1.15v4.37c0.04,0.02,0.08,0.04,0.12,0.06
	C0.64,296.23,1.14,295.14,1.61,294.1z"/>
<path class="st3" d="M130.6,371.13c-0.65-4.45-2.58-8.36-5.8-11.74c-3.22-3.38-8.03-6.02-14.44-7.94c-0.68-0.21-1.35-0.37-2.03-0.51
	c-0.08-0.02-0.16-0.03-0.24-0.04c-3.43-0.66-6.81-0.41-10.13,0.75c2.35-0.14,4.73,0.14,7.13,0.88c6.41,1.91,11.22,4.56,14.44,7.94
	c3.22,3.38,5.15,7.29,5.8,11.74c0.65,4.45,0.17,9.33-1.42,14.63c-0.31,1.04-0.66,2.1-1.04,3.16h4.88c0.53-1.43,1-2.85,1.42-4.24
	C130.77,380.46,131.24,375.58,130.6,371.13z"/>
<path class="st3" d="M40.3,366.92c4.05-8.89,6.19-16.9,6.43-24.03c0.24-7.12-1.05-13.45-3.86-18.98
	c-2.81-5.53-6.95-10.36-12.42-14.5c-5.47-4.13-11.87-7.72-19.18-10.76c2.33-5.13,4.12-9.14,5.37-12.03c1.24-2.89,2.33-5.53,3.26-7.9
	c1.04-2.62,2.17-5.75,3.38-9.39c1.21-3.64,2.11-7.34,2.71-11.1c0.6-3.76,0.59-7.34-0.01-10.75c-0.6-3.41-2.23-6.13-4.88-8.16
	c-1.8-1.36-3.57-2.3-5.31-2.84c-1.79-0.55-3.55-0.67-5.29-0.35c-1.13,0.21-2.24,0.52-3.32,0.92c2.8,0.01,5.69,1.11,8.65,3.34
	c2.65,2.03,4.27,4.75,4.88,8.16c0.6,3.41,0.61,6.99,0.01,10.75c-0.6,3.76-1.5,7.46-2.71,11.1c-1.21,3.64-2.34,6.77-3.38,9.39
	c-0.93,2.37-2.02,5.01-3.26,7.9c-1.24,2.9-3.03,6.91-5.37,12.03c7.32,3.04,13.71,6.63,19.18,10.76c5.47,4.14,9.61,8.97,12.42,14.5
	s4.1,11.86,3.86,18.98c-0.24,7.12-2.39,15.13-6.43,24.03c-2.05,4.51-4.5,8.81-7.33,12.9c-2.14,3.09-4.3,6.11-6.48,9.09h4.48
	c2.44-3.33,4.87-6.71,7.26-10.17C35.8,375.74,38.25,371.43,40.3,366.92z"/>
<path class="st3" d="M188.86,385.21c-1.89-1.26-4.77-2.74-8.64-4.42c-3.37-1.47-6.08-2.5-8.12-3.1c-0.32-0.09-0.61-0.16-0.91-0.24
	c-0.02-0.01-0.05-0.01-0.07-0.02c-1.6-0.4-2.96-0.58-4.05-0.51c-1.22,0.08-2.22,0.49-3.02,1.21c0.84,0.13,1.77,0.34,2.79,0.64
	c2.04,0.6,4.75,1.63,8.12,3.1c3.87,1.68,6.75,3.16,8.64,4.42c1.89,1.26,3.17,2.4,3.83,3.42c0.06,0.1,0.1,0.2,0.16,0.29h5.7
	c-0.09-0.44-0.28-0.9-0.59-1.37C192.02,387.61,190.75,386.47,188.86,385.21z"/>
<path class="st3" d="M125.33,372.21c-0.65-4.45-2.58-8.36-5.8-11.74c-3.22-3.38-8.03-6.02-14.44-7.94c-2.4-0.74-4.78-1.02-7.13-0.88
	c-2.14,0.13-4.26,0.62-6.36,1.48c-1.09,0.45-2.17,0.95-3.23,1.51c-3.26,1.7-6.41,3.93-9.46,6.67c-4.05,3.65-7.85,7.81-11.4,12.48
	c-0.97,1.28-1.91,2.55-2.82,3.8c-0.42,0.26-0.77,0.58-1.04,0.99c-0.68,1.13-1.52,2.51-2.53,4.14c-1.05,1.56-2.07,3.11-3.03,4.63
	c-0.04,0.09-0.06,0.19-0.07,0.29c-0.49,0.78-1,1.56-1.52,2.36h7.81c2.24-3.62,4.82-7.42,7.72-11.39c2.96-4.05,6.08-7.7,9.36-10.95
	c3.27-3.25,6.67-5.79,10.2-7.62c2.36-1.23,4.72-1.85,7.08-1.89c1.16-0.02,2.32,0.08,3.47,0.35c0.31,0.07,0.54,0.22,0.72,0.42
	c0.57,0.62,0.54,1.85-0.12,3.71c-0.14,0.4-0.3,0.82-0.5,1.28c-1.41,3.26-3.6,7.42-6.58,12.49c-2.43,4.14-5.13,8.69-8.06,13.6h35.27
	c0.37-1.06,0.72-2.12,1.04-3.16C125.5,381.54,125.98,376.66,125.33,372.21z"/>
<path class="st3" d="M183.59,386.29c-1.89-1.26-4.77-2.74-8.64-4.42c-3.37-1.47-6.08-2.5-8.12-3.1c-1.02-0.3-1.95-0.51-2.79-0.64
	c-0.84-0.13-1.59-0.17-2.25-0.13c-0.54,0.04-1.03,0.15-1.49,0.31c-0.65,0.23-1.23,0.56-1.71,1.04c-0.82,0.82-1.63,1.92-2.42,3.34
	c-1.37,2.31-2.78,4.75-4.23,7.31h35.61c-0.05-0.1-0.09-0.19-0.16-0.29C186.76,388.69,185.48,387.55,183.59,386.29z"/>
<path class="st3" d="M35.03,368c4.05-8.89,6.19-16.9,6.43-24.03c0.24-7.12-1.05-13.45-3.86-18.98s-6.95-10.36-12.42-14.5
	c-5.47-4.13-11.87-7.72-19.18-10.76c2.33-5.13,4.12-9.14,5.37-12.03c1.24-2.89,2.33-5.53,3.26-7.9c1.04-2.62,2.17-5.75,3.38-9.39
	c1.21-3.64,2.11-7.34,2.71-11.1c0.6-3.76,0.59-7.34-0.01-10.75c-0.6-3.41-2.23-6.13-4.88-8.16c-2.96-2.24-5.84-3.34-8.65-3.34
	c-0.65,0-1.3,0.04-1.95,0.16c-0.32,0.06-0.64,0.13-0.95,0.21c-1.48,0.35-2.91,0.86-4.29,1.53v7.97c1.32-1.04,2.71-1.89,4.16-2.5
	c1.33-0.56,2.66-0.7,3.99-0.46c0.99,0.18,1.98,0.56,2.97,1.18c0.13,0.08,0.25,0.17,0.38,0.25c1.05,0.71,1.85,1.65,2.38,2.84
	c0.37,0.82,0.61,1.76,0.73,2.81c0.31,2.77,0.17,5.78-0.41,9.03c-0.59,3.26-1.45,6.46-2.59,9.62c-1.14,3.16-2.09,5.74-2.85,7.75
	c-0.93,2.37-2.02,5.01-3.26,7.9c-0.32,0.74-0.67,1.56-1.06,2.45c-0.47,1.07-1,2.26-1.57,3.54c-0.39,0.87-0.8,1.79-1.24,2.76
	c-0.47,1.04-0.96,2.13-1.49,3.28c-0.04-0.02-0.08-0.04-0.12-0.06v15c1.07-2.11,2.12-4.23,3.17-6.37c1.39,0.56,2.68,1.12,3.9,1.67
	c1.57,0.72,2.99,1.43,4.26,2.13c0.89,0.49,1.71,0.98,2.45,1.47c0.57,0.37,1.09,0.76,1.58,1.15c0.14,0.11,0.28,0.22,0.41,0.33
	c1.58,1.31,2.77,2.72,3.55,4.22c0.14,0.27,0.27,0.55,0.39,0.84c0.07,0.16,0.12,0.32,0.18,0.48c0.07,0.2,0.14,0.41,0.2,0.62
	c0.45,1.57,0.53,3.26,0.23,5.07c-0.43,2.59-1.41,5.59-2.97,9c-2,4.39-4.19,8.62-6.56,12.69c-2.38,4.07-4.8,8.09-7.28,12.05
	c-1.19,1.9-2.36,3.8-3.51,5.7V390h21.23c2.18-2.99,4.34-6.01,6.48-9.09C30.54,376.82,32.98,372.51,35.03,368z"/>
</svg>
