<?xml version="1.0" encoding="utf-8"?>
<!-- Generator: Adobe Illustrator 24.3.0, SVG Export Plug-In . SVG Version: 6.00 Build 0)  -->
<svg version="1.1" id="Layer_1" xmlns="http://www.w3.org/2000/svg" xmlns:xlink="http://www.w3.org/1999/xlink" x="0px" y="0px"
	 viewBox="0 0 390 220" style="enable-background:new 0 0 390 220;" xml:space="preserve">
<style type="text/css">
	.st0{fill:#A82A4E;}
	.st1{clip-path:url(#SVGID_2_);fill:#5F2756;}
	.st2{clip-path:url(#SVGID_2_);}
	.st3{clip-path:url(#SVGID_4_);fill:#F8A257;}
	.st4{clip-path:url(#SVGID_4_);fill:#55144D;}
	.st5{fill:#F36F56;}
	.st6{font-family:'AvenirNextCondensed-DemiBold';}
	.st7{font-size:13.2465px;}
</style>
<rect x="-1.49" y="-1.58" class="st0" width="391.37" height="223.64"/>
<g>
	<defs>
		<rect id="SVGID_1_" x="-15.46" y="-510.21" width="419.32" height="1240.89"/>
	</defs>
	<clipPath id="SVGID_2_">
		<use xlink:href="#SVGID_1_"  style="overflow:visible;"/>
	</clipPath>
	<path class="st1" d="M73.44,200.7c0.43-0.25,0.69-0.87,0.79-1.87c0.1-1.41-0.3-2.23-1.2-2.49c-0.9-0.26-1.82-0.39-2.76-0.4
		c-5.32-0.35-10.87-0.75-16.66-1.2c-5.79-0.45-11.51-1.05-17.17-1.8c-1.54-0.22-3.45-0.48-5.72-0.8c-2.27-0.32-4.65-0.77-7.13-1.34
		c-2.48-0.57-4.97-1.27-7.45-2.1c-2.48-0.82-4.68-1.82-6.6-2.99c-1.92-1.17-3.5-2.56-4.73-4.18c-1.23-1.62-1.79-3.43-1.69-5.43
		c0.01-1.6,1.31-2.72,3.89-3.35c2.58-0.63,5.89-1,9.92-1.12c4.03-0.11,8.54-0.03,13.51,0.27c4.97,0.29,9.91,0.64,14.79,1.03
		c4.89,0.39,9.47,0.78,13.76,1.17c4.29,0.39,7.76,0.59,10.42,0.62c0.69,0.01,1.33-0.02,1.93-0.06c0.6-0.05,1.12-0.44,1.55-1.19
		c0.43-0.75,0.79-1.95,1.06-3.6c0.27-1.65,0.42-4.03,0.45-7.14c0.02-2.71-0.04-4.84-0.2-6.39c-0.16-1.56-0.43-2.76-0.8-3.62
		c-0.38-0.86-0.91-1.44-1.59-1.74c-0.68-0.31-1.54-0.52-2.57-0.62c-2.4-0.32-4.97-0.62-7.72-0.89c-2.74-0.27-5.59-0.53-8.55-0.75
		c-2.96-0.23-5.94-0.4-8.94-0.53c-3-0.13-5.92-0.2-8.75-0.23c-3.26-0.54-6.75-1.22-10.47-2.06c-3.73-0.84-7.19-1.86-10.4-3.05
		s-5.92-2.58-8.14-4.17c-2.22-1.59-3.36-3.39-3.43-5.41c-0.07-1.82,0.58-3.18,1.97-4.07c1.38-0.89,3.23-1.48,5.55-1.76
		c2.32-0.28,5.02-0.33,8.11-0.16c3.09,0.18,6.28,0.43,9.58,0.76c3.3,0.33,6.6,0.71,9.9,1.14c3.3,0.43,6.32,0.75,9.07,0.98
		c4.29,0.34,8.19,0.25,11.71-0.27c3.52-0.52,6.52-1.66,8.98-3.44c2.46-1.77,4.28-4.25,5.47-7.43c1.18-3.18,1.54-7.21,1.07-12.1
		c-0.31-3.51-1.55-6.47-3.72-8.9c-2.17-2.43-4.83-4.46-7.99-6.09c-3.16-1.63-6.56-2.94-10.2-3.92c-3.64-0.99-7.09-1.74-10.34-2.27
		c-0.26,0-0.48,0.22-0.65,0.67c-0.18,0.45-0.27,0.98-0.27,1.58c0,0.6,0.05,1.18,0.18,1.73c0.12,0.55,0.31,0.88,0.57,0.98
		c2.74,0.42,5.67,1.03,8.8,1.81c3.12,0.78,6.05,1.78,8.79,3.01c2.73,1.23,5.08,2.75,7.04,4.57c1.96,1.82,3.14,4.03,3.55,6.64
		c0.16,1.1-0.9,1.66-3.17,1.69c-2.28,0.03-5.28-0.2-9-0.68c-3.73-0.48-7.89-1.04-12.47-1.68c-4.59-0.64-9.07-1.03-13.44-1.16
		c-5.23-0.25-9.93,0.01-14.1,0.78c-4.17,0.76-7.7,2.19-10.59,4.27c-2.89,2.08-5.08,4.99-6.58,8.74c-1.49,3.75-2.13,8.58-1.93,14.5
		c0.07,2.2,0.67,4.17,1.82,5.88c1.14,1.71,2.67,3.26,4.59,4.63c1.92,1.37,4.12,2.54,6.6,3.52c2.48,0.97,5.09,1.82,7.83,2.55
		c-3.01,0.67-5.81,1.63-8.39,2.86c-2.59,1.23-4.81,2.79-6.67,4.68c-1.86,1.89-3.32,4.11-4.37,6.65c-1.05,2.55-1.59,5.58-1.62,9.09
		c-0.03,3.41,0.67,6.37,2.11,8.89c1.44,2.52,3.33,4.67,5.67,6.44c2.34,1.77,5.01,3.23,8.01,4.36c2.99,1.13,6.03,2.03,9.11,2.71
		c3.08,0.68,6.08,1.23,9,1.66c2.91,0.43,5.48,0.75,7.71,0.97c-2.5,1.08-4.81,2.79-6.93,5.13c-2.12,2.34-3.29,5.41-3.49,9.22
		c-0.11,2.71,0.28,5.01,1.16,6.93c0.89,1.91,2.05,3.5,3.5,4.77c1.45,1.27,3.15,2.23,5.12,2.9c1.97,0.67,3.98,1.11,6.04,1.33l-0.13,0
		c0.6,0.21,1.11,0.06,1.55-0.44c0.43-0.5,0.65-1.15,0.66-1.95c0.01-0.6-0.18-1.11-0.57-1.51c-0.38-0.41-0.83-0.71-1.34-0.91
		c-3.43-0.43-6.36-1.48-8.79-3.16c-2.43-1.68-3.63-4.27-3.6-7.78c0.11-2.61,0.92-4.71,2.44-6.3c1.51-1.59,3.5-2.83,5.95-3.71
		c2.45-0.88,5.27-1.46,8.45-1.73c3.18-0.27,6.48-0.39,9.91-0.36c4.12,0.04,8.11,0.22,11.97,0.56
		C72.53,201.07,73.01,200.95,73.44,200.7 M82.43,11.35c1.05-2.3,2.37-4.16,3.97-5.6c1.6-1.44,3.48-2.47,5.63-3.11
		c2.15-0.63,4.38-0.94,6.7-0.92c1.12,0.01,2.59,0.15,4.44,0.41c1.84,0.27,3.62,0.76,5.33,1.48c1.71,0.72,3.14,1.71,4.29,2.97
		c1.15,1.26,1.58,2.9,1.31,4.9c-0.19,1.71-1.06,3.08-2.61,4.11s-3.36,1.85-5.43,2.43c-2.07,0.58-4.17,0.97-6.32,1.15
		c-2.15,0.18-3.91,0.32-5.28,0.41c-1.63,0.08-3.46,0.14-5.47,0.18c-2.02,0.03-4.83,0.03-8.43,0C80.75,16.45,81.38,13.65,82.43,11.35
		 M43.13,16.42c-1.37-0.01-2.07,0.68-2.08,2.09c-0.1,1.57,0.45,2.46,1.65,2.67c5.14,0.82,10.56,1.5,16.26,2.04
		c5.7,0.53,11.47,0.93,17.3,1.17c0.05,3.54-0.1,6.45-0.46,8.72c-0.36,2.27-1.02,4.09-1.97,5.44c-0.96,1.36-2.25,2.28-3.88,2.77
		c-1.63,0.49-3.65,0.73-6.04,0.71c-3.09-0.03-6.12-0.23-9.12-0.61c-2.99-0.38-5.97-0.8-8.92-1.28c-2.95-0.48-5.88-0.9-8.79-1.28
		c-2.91-0.38-5.82-0.58-8.73-0.6c-3.85-0.03-7.56,0.39-11.13,1.26c-3.56,0.87-6.7,2.35-9.42,4.43c-2.72,2.08-4.86,4.82-6.43,8.22
		C-0.2,55.55-0.92,59.8-0.8,64.92c0.06,3.11,1.03,5.9,2.89,8.37c1.87,2.47,4.23,4.62,7.08,6.45c2.86,1.83,6.04,3.44,9.55,4.82
		c3.51,1.38,7.06,2.54,10.65,3.48c3.6,0.93,7.02,1.69,10.28,2.27c3.25,0.58,5.99,1.03,8.22,1.35c1.46,0.21,2.28-0.48,2.46-2.08
		c0.09-0.7-0.05-1.3-0.43-1.81c-0.38-0.51-0.83-0.81-1.34-0.91c-1.54-0.22-3.73-0.56-6.55-1.03c-2.83-0.48-5.89-1.08-9.19-1.81
		c-3.3-0.73-6.68-1.66-10.14-2.8c-3.46-1.14-6.61-2.49-9.43-4.07c-2.82-1.58-5.14-3.35-6.97-5.33c-1.83-1.97-2.78-4.26-2.84-6.87
		c-0.06-2.61,0.57-4.41,1.91-5.4c1.34-0.99,3.12-1.48,5.35-1.46c3.08,0.03,6.14,0.36,9.18,0.98c3.03,0.63,6.07,1.33,9.11,2.11
		c3.03,0.78,6.11,1.5,9.23,2.19c3.12,0.68,6.27,1.03,9.43,1.06c6.25,0.05,11.51-0.91,15.77-2.88c4.26-1.98,7.66-4.74,10.22-8.29
		c2.56-3.55,4.37-7.79,5.44-12.71c1.07-4.92,1.59-10.3,1.55-16.14c3.6,0.03,6.41,0.03,8.43,0c2.01-0.03,3.84-0.09,5.47-0.18
		c1.8-0.09,3.93-0.27,6.38-0.54c2.45-0.28,4.85-0.78,7.22-1.51c2.37-0.73,4.48-1.81,6.33-3.23c1.86-1.43,3.05-3.34,3.59-5.73
		c0.71-3.28,0.46-5.98-0.77-8.08c-1.23-2.1-2.89-3.79-4.98-5.06c-2.09-1.26-4.4-2.13-6.93-2.6c-2.53-0.47-4.74-0.71-6.62-0.73
		c-3-0.02-5.79,0.4-8.38,1.28c-2.58,0.88-4.87,2.27-6.86,4.15c-1.99,1.89-3.62,4.28-4.88,7.18c-1.26,2.9-2.04,6.35-2.35,10.36
		c-5.58-0.25-11.21-0.65-16.91-1.2c-5.7-0.55-11.08-1.25-16.13-2.1L43.13,16.42z"/>
	<g class="st2">
		<defs>
			<rect id="SVGID_3_" x="-15.46" y="-510.21" width="419.32" height="1240.89"/>
		</defs>
		<clipPath id="SVGID_4_">
			<use xlink:href="#SVGID_3_"  style="overflow:visible;"/>
		</clipPath>
		<path class="st3" d="M5.85,25.88L5.81,25.9L4.9,23.99l-1.97,1.13l4.73,9.92l2.05-1.17L7.33,28.9c-0.18-0.38-0.32-0.77-0.42-1.17
			c-0.1-0.4-0.15-0.79-0.14-1.16c0.01-0.37,0.07-0.7,0.19-0.99c0.12-0.29,0.31-0.51,0.57-0.66c0.15-0.09,0.31-0.15,0.46-0.19
			L7,22.42c-0.07,0.01-0.13,0.02-0.17,0.05c-0.04,0.02-0.09,0.05-0.15,0.09c-0.45,0.26-0.75,0.67-0.9,1.24
			C5.63,24.36,5.65,25.05,5.85,25.88"/>
		<path class="st3" d="M26.39,26.24l-1.4-1.56c-0.09,0.24-0.21,0.45-0.38,0.62c-0.16,0.17-0.38,0.3-0.65,0.39
			c-0.58,0.19-1.09,0-1.55-0.55c-0.46-0.56-0.82-1.37-1.11-2.44c-0.28-1.07-0.38-1.97-0.27-2.71c0.1-0.74,0.42-1.2,0.96-1.37
			c0.27-0.09,0.51-0.1,0.73-0.05c0.22,0.05,0.42,0.14,0.6,0.26l0.5-2.11c-0.28-0.17-0.64-0.29-1.07-0.36
			c-0.43-0.07-0.91-0.03-1.44,0.14c-0.6,0.19-1.1,0.5-1.48,0.92c-0.39,0.42-0.67,0.94-0.85,1.54s-0.26,1.29-0.23,2.04
			c0.03,0.75,0.15,1.55,0.38,2.4c0.23,0.84,0.51,1.59,0.85,2.24c0.34,0.65,0.74,1.19,1.19,1.6c0.45,0.41,0.94,0.68,1.48,0.82
			c0.54,0.13,1.11,0.1,1.71-0.09c0.49-0.16,0.9-0.39,1.24-0.68C25.94,26.98,26.2,26.63,26.39,26.24 M16.4,28.75l0.57,1.55l1.75-0.77
			l-2.27-6.17c-0.26-0.72-0.56-1.34-0.87-1.86c-0.32-0.52-0.67-0.92-1.06-1.2c-0.39-0.28-0.83-0.43-1.3-0.45
			c-0.48-0.02-1.01,0.09-1.59,0.35c-0.52,0.23-1,0.6-1.44,1.1c-0.43,0.5-0.74,1.07-0.91,1.7l1.54,1c0.1-0.39,0.26-0.75,0.49-1.06
			c0.22-0.31,0.51-0.55,0.87-0.71c0.42-0.19,0.82-0.18,1.18,0.01c0.37,0.19,0.68,0.63,0.93,1.33l0.12,0.33l-0.52,0.23
			c-0.45,0.2-0.88,0.45-1.31,0.76c-0.43,0.31-0.78,0.68-1.06,1.12c-0.28,0.44-0.45,0.95-0.52,1.52c-0.07,0.57,0.03,1.23,0.3,1.96
			c0.21,0.57,0.46,1.02,0.76,1.36c0.3,0.33,0.61,0.58,0.93,0.73c0.32,0.15,0.64,0.22,0.97,0.2c0.32-0.02,0.62-0.09,0.9-0.21
			c0.59-0.26,1.01-0.64,1.26-1.11c0.24-0.48,0.33-1.03,0.25-1.66L16.4,28.75z M15.28,26.07c0.11,0.31,0.21,0.65,0.27,1
			c0.07,0.36,0.09,0.7,0.07,1.02c-0.02,0.32-0.09,0.62-0.23,0.88c-0.13,0.27-0.34,0.46-0.63,0.59c-0.29,0.13-0.58,0.11-0.9-0.05
			c-0.31-0.16-0.57-0.51-0.77-1.06c-0.14-0.37-0.19-0.69-0.17-0.98c0.02-0.29,0.1-0.54,0.24-0.76c0.14-0.22,0.32-0.41,0.54-0.56
			c0.22-0.15,0.47-0.29,0.73-0.41l0.61-0.27L15.28,26.07z"/>
		<path class="st3" d="M49.12,24.37l0.26-16.61l-2.27-0.04l-0.26,16.61L49.12,24.37z M39,17.87c-0.02-0.26-0.01-0.56,0.03-0.89
			c0.04-0.34,0.11-0.65,0.22-0.95c0.1-0.3,0.25-0.55,0.45-0.76c0.19-0.21,0.43-0.33,0.73-0.35c0.51-0.05,0.9,0.18,1.18,0.67
			c0.28,0.5,0.45,1.16,0.52,1.99L39,17.87z M44.42,19.17l-0.07-0.94c-0.06-0.8-0.19-1.54-0.37-2.21c-0.19-0.67-0.44-1.25-0.77-1.72
			c-0.32-0.48-0.73-0.84-1.21-1.09c-0.48-0.25-1.05-0.34-1.7-0.28c-0.59,0.05-1.11,0.25-1.56,0.58c-0.45,0.33-0.83,0.77-1.14,1.33
			c-0.31,0.56-0.52,1.21-0.65,1.97c-0.13,0.75-0.16,1.58-0.09,2.47c0.15,1.91,0.62,3.34,1.42,4.3c0.8,0.96,1.79,1.38,2.97,1.26
			c0.84-0.08,1.51-0.37,2.02-0.88c0.5-0.51,0.87-1.17,1.11-1.97l-1.74-0.89c-0.12,0.39-0.29,0.75-0.51,1.06
			c-0.22,0.32-0.54,0.49-0.96,0.53c-0.29,0.03-0.56-0.03-0.79-0.18c-0.23-0.15-0.44-0.36-0.61-0.63c-0.18-0.27-0.32-0.59-0.43-0.98
			c-0.11-0.38-0.18-0.79-0.21-1.23L44.42,19.17z M35.24,25l-1.18-6.91c-0.09-0.56-0.22-1.11-0.38-1.63
			c-0.16-0.52-0.36-0.98-0.62-1.36c-0.26-0.38-0.58-0.66-0.96-0.84c-0.39-0.18-0.85-0.21-1.41-0.1c-0.63,0.13-1.12,0.44-1.46,0.94
			c-0.34,0.5-0.55,1.04-0.63,1.64l-0.04,0.01l-1.2-7.02l-2.23,0.46l2.78,16.32l2.23-0.46l-1.09-6.37c-0.14-0.83-0.11-1.56,0.09-2.16
			c0.2-0.61,0.55-0.96,1.05-1.07c0.26-0.05,0.49-0.03,0.68,0.07c0.19,0.1,0.34,0.26,0.47,0.47c0.13,0.21,0.23,0.46,0.3,0.73
			c0.07,0.27,0.14,0.55,0.18,0.82l1.18,6.91L35.24,25z"/>
		<path class="st3" d="M111.9,54.1l1.31-1.27l-4.13-5.14l-1.31,1.26L111.9,54.1z M101.38,33.96l-6.63,8.54l1.72,1.61l3.84-4.94
			c0.5-0.65,1.03-1.08,1.59-1.29c0.56-0.21,1.03-0.14,1.42,0.23c0.2,0.19,0.33,0.4,0.37,0.62c0.04,0.22,0.03,0.46-0.04,0.7
			c-0.07,0.24-0.18,0.48-0.33,0.71c-0.15,0.24-0.31,0.46-0.47,0.67l-4.16,5.36l1.73,1.61l4.16-5.36c0.34-0.44,0.64-0.89,0.92-1.35
			c0.27-0.47,0.47-0.93,0.58-1.38c0.11-0.46,0.11-0.9,0-1.34c-0.11-0.44-0.37-0.85-0.8-1.25c-0.49-0.46-1.02-0.68-1.6-0.67
			c-0.58,0.01-1.12,0.18-1.62,0.5l-0.03-0.03l1.05-1.36L101.38,33.96z M92.25,32.31c0.14-0.22,0.32-0.44,0.55-0.67
			c0.23-0.23,0.47-0.42,0.72-0.58c0.25-0.15,0.51-0.25,0.78-0.27c0.27-0.02,0.52,0.05,0.77,0.24c0.42,0.32,0.59,0.77,0.51,1.34
			c-0.08,0.58-0.33,1.21-0.77,1.89L92.25,32.31z M95.65,37.1l0.49-0.78c0.42-0.66,0.76-1.32,1.01-1.96
			c0.25-0.65,0.39-1.27,0.42-1.86c0.03-0.59-0.07-1.16-0.3-1.69c-0.22-0.53-0.61-1-1.14-1.41c-0.48-0.37-0.99-0.58-1.53-0.65
			c-0.54-0.06-1.09,0.01-1.65,0.23c-0.56,0.21-1.11,0.57-1.65,1.06c-0.54,0.49-1.04,1.1-1.51,1.83c-1,1.57-1.48,3.01-1.42,4.3
			c0.05,1.29,0.57,2.31,1.55,3.06c0.69,0.53,1.38,0.77,2.06,0.73c0.69-0.04,1.35-0.29,2-0.74l-0.81-1.91
			c-0.32,0.22-0.66,0.37-1.01,0.46c-0.36,0.09-0.7,0-1.04-0.26c-0.24-0.18-0.41-0.41-0.5-0.69c-0.09-0.28-0.13-0.58-0.1-0.91
			c0.02-0.33,0.1-0.68,0.24-1.05c0.14-0.37,0.32-0.73,0.55-1.09L95.65,37.1z M88.12,27.03l-0.03-0.02l0.97-1.88l-1.94-1.2
			l-5.03,9.77l2.01,1.24l2.52-4.9c0.19-0.37,0.41-0.71,0.67-1.03c0.25-0.31,0.52-0.57,0.81-0.76c0.28-0.19,0.57-0.32,0.86-0.37
			c0.29-0.05,0.56,0,0.81,0.16c0.15,0.09,0.28,0.2,0.39,0.32l1.25-2.16c-0.05-0.06-0.09-0.1-0.13-0.13
			c-0.04-0.02-0.09-0.06-0.15-0.09c-0.44-0.27-0.92-0.32-1.44-0.16C89.16,26,88.64,26.4,88.12,27.03 M81.89,23.65l-0.04-0.02
			l0.8-1.97l-2.04-0.98l-4.14,10.25l2.11,1.02l2.08-5.15c0.16-0.39,0.35-0.75,0.57-1.09c0.23-0.34,0.47-0.62,0.74-0.84
			c0.27-0.22,0.54-0.38,0.82-0.46c0.28-0.08,0.56-0.06,0.82,0.07c0.16,0.08,0.3,0.17,0.42,0.27l1.05-2.28
			c-0.05-0.06-0.1-0.09-0.14-0.11c-0.04-0.02-0.09-0.05-0.16-0.08c-0.47-0.22-0.95-0.23-1.45,0C82.84,22.5,82.36,22.96,81.89,23.65
			 M72.76,27.59l-0.48,1.59l1.79,0.64l1.9-6.33c0.22-0.74,0.37-1.42,0.43-2.04c0.07-0.62,0.03-1.18-0.1-1.67
			c-0.14-0.49-0.38-0.91-0.73-1.27c-0.35-0.36-0.82-0.64-1.42-0.86c-0.53-0.19-1.11-0.25-1.74-0.17c-0.63,0.07-1.19,0.29-1.7,0.65
			l0.58,1.85c0.31-0.23,0.64-0.38,0.99-0.46c0.35-0.08,0.72-0.05,1.08,0.08c0.43,0.16,0.73,0.44,0.9,0.84
			c0.17,0.41,0.14,0.96-0.07,1.67l-0.1,0.33l-0.53-0.19c-0.46-0.16-0.94-0.28-1.45-0.35c-0.51-0.07-1-0.03-1.47,0.11
			c-0.47,0.14-0.9,0.41-1.29,0.8c-0.39,0.39-0.7,0.96-0.93,1.71c-0.18,0.59-0.25,1.11-0.22,1.57c0.03,0.47,0.12,0.87,0.28,1.21
			c0.16,0.34,0.36,0.62,0.62,0.84c0.26,0.22,0.53,0.37,0.81,0.48c0.61,0.22,1.15,0.23,1.62,0.04c0.47-0.19,0.86-0.56,1.17-1.09
			L72.76,27.59z M73.48,24.75c-0.1,0.32-0.23,0.64-0.38,0.96c-0.16,0.32-0.34,0.6-0.55,0.83c-0.21,0.24-0.44,0.41-0.69,0.52
			c-0.26,0.11-0.53,0.11-0.82,0c-0.29-0.1-0.51-0.33-0.65-0.67c-0.14-0.34-0.13-0.8,0.04-1.35c0.11-0.37,0.26-0.66,0.45-0.87
			c0.19-0.2,0.4-0.34,0.63-0.41c0.23-0.07,0.48-0.09,0.74-0.05c0.26,0.04,0.53,0.11,0.79,0.2l0.63,0.23L73.48,24.75z M68.4,15.85
			l-2.23-0.41l-2.51,7.89l-0.04-0.01l-0.22-8.4l-1.98-0.36l-2.71,7.86l-0.04-0.01l0.04-8.35l-2.29-0.42l0.44,11.45l2.33,0.43
			l2.62-7.29l0.02,0l0.27,7.83l2.39,0.44L68.4,15.85z"/>
		<path class="st3" d="M125.71,120.1l1.82-0.9c-0.18-0.17-0.31-0.38-0.4-0.6c-0.09-0.23-0.13-0.49-0.11-0.8
			c0.04-0.66,0.38-1.13,1.01-1.4c0.63-0.28,1.46-0.38,2.47-0.3c1.01,0.07,1.82,0.29,2.42,0.65c0.6,0.36,0.88,0.84,0.84,1.46
			c-0.02,0.31-0.09,0.56-0.21,0.77c-0.12,0.2-0.26,0.38-0.43,0.53l1.63,1.24c0.24-0.23,0.47-0.56,0.68-0.97
			c0.21-0.42,0.34-0.93,0.38-1.53c0.04-0.69-0.05-1.3-0.28-1.84c-0.23-0.54-0.57-1.01-1.03-1.41c-0.46-0.4-1.01-0.71-1.67-0.94
			c-0.66-0.23-1.38-0.38-2.18-0.44c-0.8-0.06-1.54-0.02-2.22,0.11c-0.68,0.13-1.27,0.35-1.78,0.67c-0.51,0.32-0.91,0.73-1.21,1.24
			c-0.3,0.51-0.47,1.11-0.51,1.79c-0.03,0.55,0.02,1.06,0.16,1.51C125.22,119.39,125.43,119.77,125.71,120.1 M125.49,110.93
			l10.22-0.39l-0.08-2.48l-10.22,0.39L125.49,110.93z M139.67,110.18c0.27-0.28,0.4-0.64,0.39-1.06c-0.01-0.42-0.16-0.77-0.45-1.03
			c-0.29-0.26-0.63-0.38-1.01-0.37c-0.4,0.02-0.73,0.16-0.99,0.44c-0.26,0.28-0.38,0.63-0.37,1.06c0.01,0.41,0.16,0.75,0.43,1.02
			c0.28,0.27,0.61,0.39,1.02,0.38C139.07,110.61,139.4,110.46,139.67,110.18 M125.47,105.53l6.36-0.95
			c0.52-0.08,1.02-0.19,1.51-0.34c0.49-0.15,0.91-0.35,1.27-0.61c0.36-0.26,0.63-0.6,0.82-1.01c0.18-0.41,0.24-0.92,0.16-1.53
			c-0.09-0.7-0.35-1.25-0.78-1.65c-0.43-0.4-0.92-0.66-1.46-0.77l0-0.04l6.46-0.97l-0.3-2.46l-15.03,2.25l0.3,2.46l5.86-0.88
			c0.77-0.11,1.43-0.05,1.97,0.2c0.54,0.25,0.85,0.65,0.92,1.2c0.04,0.29,0,0.54-0.1,0.74c-0.1,0.2-0.25,0.36-0.46,0.49
			c-0.2,0.13-0.43,0.22-0.68,0.29c-0.25,0.07-0.51,0.12-0.76,0.16l-6.36,0.95L125.47,105.53z M127.3,91.66
			c-0.43,0.04-0.82,0.03-1.15-0.03c-0.34-0.06-0.62-0.18-0.84-0.36c-0.23-0.18-0.37-0.43-0.44-0.74c-0.07-0.3-0.03-0.59,0.09-0.86
			s0.32-0.53,0.6-0.76c0.27-0.23,0.61-0.44,1.01-0.63c0.4-0.19,0.83-0.34,1.3-0.47c0.47-0.12,0.92-0.2,1.35-0.23
			c0.43-0.03,0.82-0.01,1.15,0.06c0.33,0.07,0.61,0.2,0.84,0.38c0.23,0.18,0.37,0.42,0.43,0.72c0.07,0.31,0.04,0.61-0.09,0.88
			c-0.13,0.27-0.32,0.52-0.59,0.74c-0.27,0.22-0.6,0.42-1,0.6c-0.4,0.18-0.84,0.33-1.3,0.46C128.18,91.54,127.73,91.62,127.3,91.66
			 M131.22,93.04c0.61-0.33,1.12-0.7,1.53-1.13c0.41-0.42,0.7-0.89,0.87-1.39c0.17-0.5,0.2-1.04,0.07-1.61
			c-0.15-0.7-0.43-1.19-0.85-1.47c-0.41-0.28-0.89-0.45-1.42-0.51l-0.01-0.04l1.4-0.37l-0.51-2.33l-14.63,3.86l0.52,2.37l5.99-1.58
			l0.01,0.04c-0.42,0.28-0.75,0.66-0.98,1.15c-0.23,0.49-0.28,1.05-0.14,1.68c0.12,0.57,0.37,1.04,0.73,1.41
			c0.36,0.37,0.82,0.64,1.36,0.82c0.55,0.17,1.16,0.25,1.83,0.23c0.68-0.02,1.4-0.13,2.16-0.33
			C129.93,93.63,130.61,93.37,131.22,93.04 M122.34,81.66l-1.44,0.55l0.62,1.95l5.74-2.19c0.67-0.25,1.25-0.54,1.74-0.86
			c0.49-0.32,0.88-0.69,1.15-1.1c0.27-0.41,0.43-0.88,0.48-1.4c0.05-0.52-0.03-1.11-0.24-1.76c-0.18-0.58-0.49-1.12-0.93-1.62
			c-0.43-0.5-0.93-0.86-1.5-1.08l-0.99,1.63c0.35,0.13,0.67,0.32,0.94,0.58c0.27,0.26,0.47,0.59,0.6,0.99
			c0.15,0.47,0.13,0.9-0.07,1.29c-0.19,0.39-0.61,0.71-1.26,0.96l-0.3,0.12l-0.18-0.58c-0.16-0.5-0.37-0.99-0.63-1.47
			c-0.26-0.48-0.58-0.89-0.97-1.21c-0.39-0.32-0.84-0.54-1.36-0.64c-0.52-0.1-1.12-0.02-1.8,0.24c-0.53,0.2-0.96,0.46-1.28,0.77
			c-0.32,0.31-0.56,0.64-0.71,0.98c-0.15,0.34-0.23,0.7-0.23,1.05c0,0.36,0.05,0.69,0.14,0.99c0.21,0.66,0.53,1.14,0.95,1.43
			c0.42,0.29,0.93,0.41,1.5,0.36L122.34,81.66z M124.84,80.57c-0.29,0.11-0.6,0.19-0.93,0.25c-0.33,0.06-0.64,0.07-0.93,0.03
			c-0.3-0.04-0.56-0.13-0.79-0.29c-0.23-0.16-0.4-0.4-0.5-0.71c-0.1-0.32-0.07-0.64,0.09-0.98c0.16-0.33,0.5-0.6,1-0.79
			c0.34-0.13,0.64-0.18,0.9-0.14c0.26,0.04,0.49,0.14,0.68,0.3c0.19,0.16,0.35,0.36,0.48,0.62c0.13,0.25,0.24,0.52,0.33,0.81
			l0.22,0.68L124.84,80.57z M125.35,70.31l-0.02-0.04l1.78-0.91l-0.93-2.21l-9.29,4.71l0.97,2.29l4.66-2.37
			c0.35-0.18,0.71-0.32,1.09-0.41c0.37-0.09,0.73-0.13,1.06-0.1c0.33,0.02,0.63,0.11,0.89,0.25c0.26,0.14,0.45,0.36,0.57,0.65
			c0.07,0.17,0.12,0.34,0.15,0.51l2.16-0.95c0-0.08-0.02-0.14-0.03-0.19c-0.02-0.05-0.04-0.1-0.07-0.17
			c-0.21-0.5-0.57-0.85-1.08-1.05C126.75,70.14,126.11,70.13,125.35,70.31 M117.69,65c-0.41,0.17-0.78,0.27-1.12,0.31
			c-0.34,0.04-0.65,0.01-0.91-0.09c-0.26-0.1-0.47-0.28-0.61-0.55c-0.15-0.28-0.2-0.57-0.15-0.87c0.05-0.3,0.17-0.6,0.38-0.9
			c0.2-0.3,0.47-0.6,0.81-0.9c0.34-0.3,0.71-0.59,1.13-0.85c0.41-0.27,0.82-0.49,1.23-0.66c0.4-0.17,0.77-0.28,1.1-0.33
			c0.33-0.05,0.63-0.02,0.89,0.09c0.26,0.1,0.47,0.29,0.62,0.57c0.14,0.27,0.19,0.55,0.14,0.85c-0.05,0.3-0.17,0.61-0.36,0.91
			c-0.2,0.3-0.46,0.61-0.79,0.91c-0.33,0.31-0.71,0.59-1.12,0.86C118.51,64.62,118.1,64.83,117.69,65 M124.4,63.55l-1.09-2.05
			l-1.25,0.8l-0.03-0.06c0.36-0.43,0.6-0.91,0.71-1.43c0.12-0.52,0.01-1.09-0.32-1.71c-0.27-0.5-0.63-0.87-1.07-1.11
			c-0.44-0.23-0.94-0.35-1.5-0.35c-0.56,0-1.16,0.12-1.81,0.35c-0.65,0.23-1.32,0.57-2,1c-0.67,0.43-1.25,0.89-1.75,1.39
			c-0.49,0.5-0.88,1.01-1.16,1.53c-0.28,0.52-0.43,1.06-0.45,1.6c-0.02,0.54,0.11,1.07,0.38,1.59c0.28,0.53,0.66,0.89,1.13,1.09
			c0.47,0.2,0.94,0.24,1.41,0.13l0.02,0.04l-1.07,0.69c-0.36,0.23-0.71,0.41-1.05,0.55c-0.34,0.13-0.66,0.2-0.96,0.2
			c-0.3,0-0.58-0.08-0.84-0.23c-0.26-0.15-0.49-0.41-0.68-0.76c-0.24-0.44-0.36-0.91-0.38-1.4c-0.01-0.49,0.04-0.96,0.17-1.42
			l-2.02-0.25c-0.18,0.64-0.23,1.34-0.14,2.1c0.09,0.76,0.31,1.47,0.67,2.14c0.38,0.71,0.81,1.24,1.28,1.59
			c0.48,0.36,0.99,0.57,1.55,0.63c0.56,0.07,1.14,0,1.75-0.21c0.61-0.2,1.24-0.52,1.9-0.94L124.4,63.55z"/>
		<path class="st3" d="M96.79,189.86l0.03-0.03l1.15,1.74l1.8-1.43l-5.99-9.07l-1.87,1.48l3.01,4.55c0.23,0.34,0.42,0.71,0.57,1.09
			c0.15,0.38,0.25,0.76,0.29,1.12c0.04,0.36,0.02,0.7-0.05,1c-0.08,0.31-0.24,0.55-0.48,0.74c-0.14,0.11-0.28,0.2-0.43,0.26
			l1.27,2.14c0.07-0.02,0.12-0.04,0.16-0.07c0.04-0.03,0.08-0.07,0.14-0.11c0.41-0.33,0.66-0.78,0.73-1.37
			C97.21,191.33,97.1,190.64,96.79,189.86 M103.54,180.97c0.16,0.2,0.31,0.44,0.46,0.74c0.15,0.3,0.26,0.59,0.34,0.9
			c0.08,0.31,0.09,0.61,0.05,0.9c-0.04,0.29-0.17,0.55-0.39,0.76c-0.38,0.37-0.82,0.45-1.31,0.23c-0.5-0.21-0.99-0.64-1.5-1.26
			L103.54,180.97z M98.48,183.46l0.57,0.71c0.49,0.6,0.99,1.11,1.5,1.53c0.52,0.42,1.03,0.71,1.55,0.89
			c0.52,0.17,1.04,0.2,1.57,0.08c0.52-0.11,1.03-0.41,1.52-0.88c0.44-0.43,0.75-0.92,0.94-1.48c0.18-0.56,0.25-1.16,0.19-1.81
			c-0.06-0.65-0.24-1.32-0.54-2c-0.31-0.69-0.73-1.37-1.27-2.04c-1.16-1.44-2.32-2.28-3.48-2.53c-1.16-0.24-2.19,0.06-3.08,0.93
			c-0.63,0.61-1.01,1.29-1.14,2.02c-0.13,0.74-0.07,1.5,0.18,2.3l1.89-0.42c-0.12-0.39-0.17-0.79-0.16-1.19
			c0.01-0.4,0.17-0.75,0.48-1.05c0.22-0.21,0.46-0.34,0.73-0.37c0.27-0.03,0.55,0,0.83,0.1c0.29,0.1,0.58,0.27,0.87,0.5
			c0.3,0.23,0.57,0.51,0.84,0.84L98.48,183.46z M115.11,174.35l-7.46-7.65l-1.55,1.81l4.31,4.43c0.57,0.58,0.93,1.18,1.09,1.8
			c0.16,0.62,0.07,1.14-0.27,1.54c-0.18,0.21-0.38,0.34-0.59,0.38c-0.21,0.04-0.42,0.01-0.63-0.08c-0.21-0.09-0.43-0.22-0.64-0.4
			c-0.21-0.17-0.41-0.36-0.59-0.55l-4.68-4.8l-1.55,1.81l4.68,4.8c0.38,0.39,0.78,0.75,1.19,1.07c0.41,0.32,0.82,0.55,1.23,0.69
			c0.41,0.14,0.82,0.16,1.22,0.06c0.4-0.1,0.8-0.37,1.18-0.82c0.44-0.51,0.67-1.09,0.69-1.72c0.02-0.63-0.11-1.23-0.38-1.79
			l0.03-0.03l1.18,1.22L115.11,174.35z M113.65,164.57c-0.31-0.33-0.55-0.66-0.73-0.99c-0.18-0.32-0.28-0.64-0.3-0.94
			c-0.02-0.31,0.04-0.59,0.2-0.84c0.17-0.26,0.39-0.44,0.66-0.52c0.27-0.08,0.57-0.08,0.91,0c0.33,0.08,0.7,0.22,1.09,0.43
			c0.39,0.21,0.78,0.46,1.17,0.76c0.39,0.3,0.75,0.62,1.06,0.94c0.31,0.33,0.56,0.65,0.73,0.96c0.18,0.31,0.28,0.62,0.3,0.93
			c0.02,0.31-0.05,0.59-0.21,0.85c-0.16,0.25-0.38,0.42-0.65,0.5c-0.27,0.08-0.57,0.09-0.91,0.02c-0.33-0.07-0.69-0.2-1.09-0.4
			c-0.39-0.2-0.79-0.45-1.18-0.75S113.96,164.9,113.65,164.57 M117.65,170.64l1.24-1.95l-1.18-0.9l0.03-0.05
			c0.51,0.17,1,0.21,1.48,0.11c0.48-0.1,0.91-0.44,1.28-1.03c0.31-0.48,0.46-0.99,0.47-1.53c0.01-0.54-0.1-1.08-0.34-1.64
			c-0.23-0.55-0.58-1.11-1.05-1.66c-0.46-0.55-1.02-1.07-1.66-1.57c-0.64-0.49-1.26-0.87-1.88-1.16c-0.62-0.28-1.2-0.45-1.75-0.51
			c-0.55-0.06-1.06,0.02-1.51,0.22c-0.46,0.2-0.84,0.55-1.16,1.05c-0.32,0.5-0.47,1.03-0.44,1.58c0.03,0.55,0.19,1.04,0.48,1.45
			l-0.02,0.04l-1.02-0.78c-0.34-0.26-0.64-0.53-0.89-0.81c-0.25-0.28-0.44-0.57-0.57-0.88s-0.18-0.61-0.16-0.94
			c0.02-0.32,0.14-0.66,0.35-0.99c0.27-0.42,0.6-0.74,1-0.96c0.4-0.22,0.82-0.36,1.25-0.43L111,155.2c-0.61,0.09-1.21,0.33-1.8,0.74
			c-0.59,0.41-1.09,0.93-1.5,1.56c-0.43,0.67-0.69,1.32-0.79,1.94c-0.1,0.62-0.06,1.23,0.12,1.81c0.18,0.58,0.48,1.13,0.9,1.65
			c0.43,0.52,0.95,1.02,1.57,1.5L117.65,170.64z M114.71,155.19l8.91,5.49l1.12-2.16l-8.91-5.49L114.71,155.19z M127.17,162.63
			c0.37-0.09,0.64-0.31,0.84-0.68c0.19-0.37,0.22-0.75,0.1-1.14c-0.12-0.39-0.35-0.68-0.69-0.89c-0.35-0.22-0.7-0.28-1.05-0.18
			c-0.36,0.09-0.63,0.32-0.82,0.69c-0.18,0.36-0.22,0.73-0.11,1.12c0.11,0.39,0.34,0.69,0.68,0.9
			C126.45,162.65,126.8,162.72,127.17,162.63 M125.4,155.4c0.46-0.19,0.89-0.49,1.29-0.89c0.4-0.4,0.73-0.91,0.98-1.52
			c0.17-0.42,0.27-0.85,0.29-1.3c0.03-0.45-0.02-0.88-0.15-1.3c-0.13-0.41-0.34-0.8-0.62-1.15c-0.28-0.35-0.65-0.64-1.1-0.86
			c-0.43-0.21-0.82-0.32-1.17-0.34c-0.35-0.02-0.67,0.03-0.97,0.14c-0.29,0.11-0.55,0.27-0.78,0.46c-0.23,0.2-0.43,0.41-0.63,0.63
			c-0.38,0.44-0.73,0.77-1.06,0.99c-0.32,0.22-0.7,0.22-1.14,0.01c-0.38-0.18-0.64-0.44-0.79-0.76c-0.14-0.33-0.14-0.68,0.01-1.05
			c0.17-0.43,0.42-0.76,0.73-0.99c0.31-0.23,0.65-0.41,1-0.52l-0.82-1.87c-0.55,0.2-1.05,0.52-1.51,0.97
			c-0.46,0.44-0.82,0.99-1.07,1.63c-0.17,0.43-0.28,0.87-0.32,1.32c-0.04,0.46,0.01,0.9,0.14,1.33c0.13,0.43,0.35,0.83,0.67,1.2
			c0.31,0.37,0.72,0.68,1.24,0.92c0.43,0.21,0.83,0.31,1.19,0.32c0.37,0.01,0.71-0.05,1.03-0.18c0.32-0.13,0.6-0.3,0.86-0.52
			c0.26-0.22,0.49-0.46,0.71-0.7c0.38-0.44,0.71-0.74,0.97-0.9c0.26-0.16,0.58-0.15,0.94,0.02c0.35,0.17,0.59,0.42,0.71,0.75
			c0.12,0.33,0.11,0.66-0.02,1c-0.15,0.36-0.35,0.65-0.61,0.86c-0.26,0.21-0.54,0.35-0.85,0.43L125.4,155.4z M127.5,140.26
			c0.23,0.08,0.48,0.21,0.74,0.38c0.27,0.17,0.5,0.37,0.71,0.59c0.21,0.22,0.36,0.47,0.46,0.74c0.1,0.27,0.1,0.57,0.01,0.87
			c-0.16,0.53-0.5,0.84-1.03,0.93c-0.52,0.09-1.15,0-1.87-0.26L127.5,140.26z M124.28,145.21l0.82,0.29
			c0.7,0.25,1.37,0.41,2.01,0.49c0.64,0.08,1.22,0.04,1.75-0.1c0.53-0.14,0.99-0.41,1.39-0.8c0.4-0.39,0.7-0.92,0.91-1.61
			c0.18-0.61,0.23-1.21,0.13-1.79c-0.1-0.58-0.32-1.14-0.67-1.66c-0.35-0.53-0.81-1-1.4-1.43c-0.58-0.43-1.26-0.78-2.04-1.05
			c-1.66-0.6-3.05-0.68-4.17-0.25c-1.12,0.43-1.86,1.27-2.23,2.51c-0.26,0.88-0.28,1.67-0.05,2.38c0.23,0.71,0.64,1.33,1.22,1.88
			l1.44-1.4c-0.28-0.27-0.51-0.58-0.69-0.93c-0.18-0.35-0.2-0.74-0.07-1.17c0.09-0.31,0.25-0.55,0.46-0.72
			c0.21-0.18,0.47-0.3,0.77-0.37c0.3-0.07,0.62-0.09,0.99-0.05c0.36,0.04,0.73,0.12,1.11,0.26L124.28,145.21z M127.08,132.05
			c-0.39-0.18-0.73-0.38-1.01-0.6c-0.28-0.22-0.48-0.47-0.61-0.74c-0.13-0.27-0.16-0.56-0.1-0.88c0.06-0.31,0.21-0.57,0.43-0.75
			c0.22-0.19,0.5-0.32,0.84-0.38c0.34-0.07,0.72-0.09,1.14-0.06c0.43,0.03,0.87,0.1,1.34,0.21c0.48,0.12,0.92,0.26,1.32,0.43
			c0.4,0.17,0.73,0.36,1.01,0.58c0.28,0.22,0.48,0.46,0.61,0.73c0.13,0.27,0.16,0.56,0.1,0.88c-0.06,0.3-0.2,0.55-0.43,0.74
			c-0.23,0.19-0.51,0.33-0.84,0.41c-0.34,0.07-0.72,0.1-1.15,0.08c-0.43-0.02-0.88-0.09-1.37-0.21
			C127.9,132.37,127.47,132.23,127.08,132.05 M122.92,133.57l14.8,3.58l0.48-2.38l-6.09-1.47l0.01-0.06
			c0.49-0.05,0.93-0.24,1.32-0.58c0.39-0.34,0.65-0.81,0.77-1.41c0.12-0.59,0.09-1.13-0.08-1.63c-0.17-0.5-0.46-0.96-0.86-1.37
			c-0.4-0.41-0.91-0.77-1.52-1.07c-0.61-0.31-1.29-0.55-2.05-0.73c-0.77-0.19-1.5-0.28-2.19-0.28c-0.69,0-1.31,0.09-1.86,0.27
			c-0.55,0.18-1.01,0.46-1.37,0.84c-0.36,0.38-0.6,0.84-0.72,1.4c-0.15,0.72-0.09,1.3,0.18,1.76c0.26,0.46,0.63,0.83,1.09,1.11
			l-0.01,0.04l-1.43-0.35L122.92,133.57z"/>
		<path class="st3" d="M3.35,195.82l0.03,0.02l-0.97,1.88l1.94,1.2l5.03-9.77l-2.01-1.24l-2.52,4.9c-0.19,0.37-0.41,0.71-0.67,1.03
			c-0.25,0.31-0.52,0.57-0.81,0.76c-0.28,0.19-0.57,0.32-0.86,0.37c-0.29,0.05-0.56,0-0.81-0.16c-0.15-0.09-0.28-0.2-0.39-0.32
			l-1.25,2.16c0.05,0.06,0.09,0.1,0.13,0.13c0.04,0.02,0.09,0.06,0.15,0.09c0.44,0.27,0.92,0.32,1.44,0.16
			C2.3,196.86,2.82,196.46,3.35,195.82 M11.96,194.99c0.23-0.4,0.48-0.72,0.72-0.97c0.25-0.25,0.5-0.42,0.77-0.5
			c0.27-0.09,0.54-0.06,0.81,0.07c0.27,0.13,0.46,0.33,0.58,0.6c0.12,0.27,0.17,0.59,0.17,0.96c0,0.37-0.06,0.78-0.17,1.24
			c-0.11,0.46-0.27,0.93-0.46,1.41c-0.2,0.5-0.42,0.94-0.65,1.33c-0.23,0.39-0.47,0.72-0.72,0.97c-0.25,0.25-0.5,0.43-0.77,0.52
			c-0.26,0.09-0.53,0.07-0.8-0.06c-0.27-0.13-0.46-0.33-0.58-0.6c-0.12-0.27-0.18-0.6-0.18-0.97c0-0.38,0.05-0.79,0.16-1.24
			c0.11-0.45,0.26-0.93,0.46-1.42C11.51,195.83,11.72,195.39,11.96,194.99 M8.59,197.65c-0.11,0.76-0.1,1.45,0.01,2.09
			c0.12,0.63,0.34,1.19,0.68,1.66c0.34,0.48,0.79,0.85,1.35,1.12c0.56,0.27,1.12,0.39,1.68,0.34s1.08-0.23,1.58-0.57
			c0.5-0.34,0.97-0.8,1.41-1.4c0.44-0.6,0.82-1.3,1.15-2.12c0.32-0.8,0.54-1.58,0.64-2.33c0.11-0.75,0.1-1.44-0.02-2.07
			c-0.12-0.63-0.35-1.18-0.68-1.66c-0.33-0.48-0.78-0.86-1.35-1.13c-0.56-0.27-1.12-0.38-1.67-0.33s-1.08,0.25-1.58,0.57
			c-0.5,0.32-0.98,0.78-1.41,1.37c-0.43,0.59-0.82,1.29-1.14,2.09C8.92,196.11,8.7,196.9,8.59,197.65 M16.89,202.71l-0.55,1.82
			l1.7,0.61l-0.82,2.71l2.02,0.73l0.82-2.71l1.22,0.44l0.55-1.82l-1.22-0.44l1.8-5.99c0.3-1,0.35-1.84,0.15-2.5
			c-0.2-0.67-0.71-1.15-1.54-1.44c-0.25-0.09-0.52-0.15-0.79-0.19c-0.27-0.04-0.5-0.04-0.67-0.01l-0.51,1.85
			c0.11-0.02,0.22-0.03,0.35-0.01c0.13,0.02,0.25,0.04,0.36,0.09c0.33,0.12,0.53,0.34,0.61,0.66c0.08,0.32,0.03,0.77-0.14,1.36
			l-1.64,5.47L16.89,202.71z M27.39,198.09l0.33-1.63l-1.84-0.45l-1.32,6.5c-0.15,0.76-0.24,1.45-0.25,2.08
			c-0.01,0.63,0.07,1.18,0.25,1.65c0.18,0.47,0.46,0.86,0.84,1.18c0.38,0.32,0.88,0.55,1.49,0.7c0.55,0.13,1.13,0.13,1.75-0.02
			c0.62-0.14,1.16-0.42,1.63-0.83l-0.75-1.78c-0.29,0.26-0.6,0.45-0.95,0.57c-0.34,0.12-0.71,0.13-1.09,0.04
			c-0.44-0.11-0.77-0.35-0.97-0.74c-0.2-0.39-0.23-0.94-0.08-1.67l0.07-0.34l0.55,0.13c0.47,0.11,0.96,0.18,1.47,0.19
			c0.51,0.01,1-0.08,1.45-0.27c0.46-0.19,0.86-0.5,1.22-0.93c0.36-0.43,0.61-1.03,0.77-1.81c0.12-0.6,0.15-1.13,0.08-1.59
			c-0.07-0.46-0.2-0.85-0.39-1.17c-0.19-0.32-0.42-0.58-0.7-0.77c-0.28-0.19-0.56-0.32-0.85-0.38c-0.63-0.15-1.16-0.11-1.61,0.14
			c-0.45,0.25-0.8,0.65-1.07,1.22L27.39,198.09z M26.93,200.99c0.07-0.33,0.17-0.66,0.3-1c0.13-0.34,0.29-0.63,0.47-0.89
			c0.18-0.26,0.4-0.45,0.64-0.59c0.25-0.14,0.52-0.17,0.82-0.09c0.3,0.07,0.54,0.27,0.71,0.6c0.17,0.33,0.2,0.78,0.09,1.35
			c-0.08,0.39-0.2,0.69-0.37,0.91c-0.17,0.22-0.36,0.38-0.59,0.48c-0.23,0.1-0.47,0.14-0.73,0.13c-0.26-0.01-0.53-0.05-0.81-0.12
			l-0.65-0.16L26.93,200.99z M34.62,206.99l0.04,0l-0.23,2.14l2.21,0.28l1.21-11.13l-2.29-0.3l-0.61,5.59
			c-0.05,0.42-0.13,0.83-0.25,1.23c-0.12,0.4-0.28,0.75-0.48,1.05s-0.41,0.53-0.66,0.7c-0.25,0.17-0.52,0.23-0.81,0.19
			c-0.17-0.02-0.33-0.06-0.47-0.13l-0.39,2.51c0.06,0.04,0.12,0.06,0.16,0.07c0.05,0,0.1,0.01,0.17,0.02
			c0.5,0.06,0.97-0.09,1.38-0.46C34.02,208.39,34.36,207.8,34.62,206.99 M38.93,207.71l-0.12,1.91l1.78,0.13l-0.18,2.85l2.12,0.16
			l0.18-2.85l1.28,0.09l0.12-1.91L42.83,208l0.39-6.29c0.07-1.05-0.07-1.87-0.42-2.46c-0.35-0.59-0.95-0.92-1.82-0.98
			c-0.27-0.02-0.54-0.01-0.81,0.03s-0.49,0.1-0.65,0.17l-0.08,1.93c0.1-0.05,0.21-0.09,0.34-0.11c0.13-0.02,0.25-0.03,0.37-0.02
			c0.35,0.02,0.59,0.18,0.74,0.47c0.15,0.29,0.21,0.74,0.17,1.36l-0.36,5.74L38.93,207.71z M45.76,209.04
			c0.36,0.37,0.79,0.66,1.29,0.89c0.5,0.22,1.06,0.32,1.67,0.3c0.41-0.02,0.81-0.11,1.2-0.28c0.38-0.17,0.72-0.41,1-0.72
			c0.28-0.31,0.51-0.68,0.68-1.11c0.17-0.43,0.24-0.92,0.23-1.46c-0.02-0.51-0.09-0.95-0.23-1.3c-0.14-0.35-0.32-0.65-0.54-0.89
			c-0.22-0.24-0.46-0.43-0.72-0.57c-0.26-0.14-0.52-0.25-0.79-0.34c-0.53-0.19-0.95-0.39-1.27-0.61c-0.32-0.22-0.49-0.6-0.5-1.12
			c-0.01-0.46,0.08-0.82,0.29-1.11c0.21-0.29,0.5-0.44,0.87-0.45c0.43-0.02,0.81,0.08,1.13,0.29c0.33,0.21,0.62,0.46,0.87,0.76
			l1.18-1.63c-0.4-0.46-0.89-0.81-1.45-1.07c-0.56-0.26-1.16-0.37-1.81-0.35c-0.43,0.02-0.84,0.11-1.23,0.27
			c-0.39,0.16-0.73,0.4-1.03,0.72c-0.3,0.32-0.53,0.71-0.7,1.18c-0.17,0.47-0.24,1.01-0.22,1.62c0.02,0.51,0.1,0.95,0.25,1.32
			c0.15,0.37,0.35,0.68,0.59,0.93c0.24,0.25,0.51,0.46,0.8,0.62c0.29,0.16,0.59,0.29,0.89,0.4c0.53,0.18,0.91,0.37,1.16,0.56
			c0.25,0.19,0.38,0.5,0.39,0.94c0.01,0.42-0.09,0.77-0.31,1.03c-0.22,0.27-0.5,0.4-0.83,0.42c-0.36,0.01-0.68-0.06-0.97-0.23
			c-0.29-0.16-0.53-0.38-0.72-0.65L45.76,209.04z M53.77,198.32l1.37,11.1l2.25-0.34l-0.79-6.42c-0.1-0.84-0.04-1.56,0.19-2.15
			c0.23-0.59,0.6-0.92,1.1-1c0.27-0.04,0.49,0,0.67,0.11c0.18,0.11,0.33,0.27,0.45,0.49c0.11,0.21,0.2,0.45,0.26,0.73
			c0.06,0.27,0.11,0.55,0.14,0.84l0.86,6.97l2.25-0.34l-0.86-6.97c-0.07-0.57-0.17-1.12-0.3-1.65c-0.13-0.53-0.32-1-0.56-1.39
			c-0.24-0.39-0.54-0.69-0.91-0.89c-0.37-0.2-0.83-0.26-1.39-0.18c-0.64,0.09-1.14,0.38-1.52,0.86c-0.38,0.48-0.63,1.03-0.74,1.65
			l-0.04,0.01l-0.22-1.76L53.77,198.32z M63.73,196.47l3.53,16.15l2.2-0.58l-3.53-16.15L63.73,196.47z M68.58,195.06l4.26,15.93
			l2.18-0.7l-4.26-15.93L68.58,195.06z M73.31,193.38l3.83,10.38l2.1-0.93l-3.83-10.38L73.31,193.38z M78.8,207.71
			c0.34,0.18,0.68,0.2,1.04,0.04c0.36-0.16,0.6-0.43,0.73-0.82c0.12-0.39,0.11-0.78-0.03-1.17c-0.15-0.41-0.39-0.7-0.72-0.87
			c-0.33-0.17-0.67-0.17-1.03-0.02c-0.35,0.16-0.59,0.42-0.72,0.8c-0.14,0.38-0.13,0.77,0.02,1.18
			C78.22,207.24,78.46,207.53,78.8,207.71 M82.78,194.31l0.81,1.69l5.55-3.18l-0.81-1.69L82.78,194.31z"/>
		<rect x="161.77" y="-9.43" class="st4" width="242.09" height="243.12"/>
	</g>
</g>
<text transform="matrix(1 0 0 1 175.999 51.6091)"><tspan x="0" y="0" class="st5 st6 st7">R</tspan><tspan x="7.33" y="0" class="st5 st6 st7">A</tspan><tspan x="14.48" y="0" class="st5 st6 st7">C</tspan><tspan x="21.58" y="0" class="st5 st6 st7">H</tspan><tspan x="29.96" y="0" class="st5 st6 st7">E</tspan><tspan x="36.27" y="0" class="st5 st6 st7">L</tspan><tspan x="41.7" y="0" class="st5 st6 st7"> </tspan><tspan x="44.65" y="0" class="st5 st6 st7">W</tspan><tspan x="55.04" y="0" class="st5 st6 st7">A</tspan><tspan x="62.26" y="0" class="st5 st6 st7">RRE</tspan><tspan x="83.21" y="0" class="st5 st6 st7">N</tspan></text>
<text transform="matrix(1 0 0 1 176.9668 120.8645)"><tspan x="0" y="0" class="st5 st6 st7">W</tspan><tspan x="10.27" y="0" class="st5 st6 st7">A</tspan><tspan x="17.35" y="0" class="st5 st6 st7">RRENR</tspan><tspan x="53.26" y="0" class="st5 st6 st7">A</tspan><tspan x="60.28" y="0" class="st5 st6 st7">C</tspan><tspan x="67.25" y="0" class="st5 st6 st7">H</tspan><tspan x="75.5" y="0" class="st5 st6 st7">ELM</tspan><tspan x="97.57" y="0" class="st5 st6 st7">@G</tspan><tspan x="114.09" y="0" class="st5 st6 st7">M</tspan><tspan x="124.37" y="0" class="st5 st6 st7">A</tspan><tspan x="131.46" y="0" class="st5 st6 st7">I</tspan><tspan x="135.35" y="0" class="st5 st6 st7">L.</tspan><tspan x="144.58" y="0" class="st5 st6 st7">C</tspan><tspan x="151.39" y="0" class="st5 st6 st7">O</tspan><tspan x="159.62" y="0" class="st5 st6 st7">M</tspan></text>
<text transform="matrix(1 0 0 1 176.9668 190.7131)"><tspan x="0" y="0" class="st5 st6 st7">A</tspan><tspan x="7.22" y="0" class="st5 st6 st7">RRE</tspan><tspan x="28.17" y="0" class="st5 st6 st7">.</tspan><tspan x="31.31" y="0" class="st5 st6 st7">T</tspan><tspan x="36.25" y="0" class="st5 st6 st7">.</tspan><tspan x="40.02" y="0" class="st5 st6 st7">A</tspan><tspan x="47.16" y="0" class="st5 st6 st7">C</tspan><tspan x="54.26" y="0" class="st5 st6 st7">H</tspan><tspan x="62.64" y="0" class="st5 st6 st7">E</tspan></text>
</svg>
