<?xml version="1.0" encoding="utf-8"?>
<!-- Generator: Adobe Illustrator 24.3.0, SVG Export Plug-In . SVG Version: 6.00 Build 0)  -->
<svg version="1.1" id="Layer_2_1_" xmlns="http://www.w3.org/2000/svg" xmlns:xlink="http://www.w3.org/1999/xlink" x="0px" y="0px"
	 viewBox="0 0 184.63 125.38" style="enable-background:new 0 0 184.63 125.38;" xml:space="preserve">
<style type="text/css">
	.st0{clip-path:url(#SVGID_2_);fill:none;stroke:#FFFFFF;stroke-width:6;}
	.st1{fill:#FFFFFF;}
	.st2{clip-path:url(#SVGID_4_);fill:none;}
</style>
<g>
	<g>
		<defs>
			<rect id="SVGID_1_" width="184.63" height="125.38"/>
		</defs>
		<clipPath id="SVGID_2_">
			<use xlink:href="#SVGID_1_"  style="overflow:visible;"/>
		</clipPath>
		<path class="st0" d="M21.19,5.2C12.36,5.2,5.2,12.36,5.2,21.19v83.01c0,8.83,7.16,15.99,15.99,15.99h142.26
			c8.83,0,15.99-7.16,15.99-15.99V21.19c0-8.83-7.16-15.99-15.99-15.99H21.19z"/>
	</g>
</g>
<polygon class="st1" points="6.73,6.45 2.23,97.15 8.22,118.86 17.72,120.31 17.72,118.38 17.72,23.34 92.32,71.1 167.65,23.34 
	167.65,118.86 170.17,120.31 180.15,115 180.15,25.76 180.15,13.21 175.14,5.97 158.65,6.45 92.32,49.4 26.22,6.45 21.72,4.53 "/>
<g>
	<g>
		<defs>
			<rect id="SVGID_3_" width="184.63" height="125.38"/>
		</defs>
		<clipPath id="SVGID_4_">
			<use xlink:href="#SVGID_3_"  style="overflow:visible;"/>
		</clipPath>
		<line class="st2" x1="168.42" y1="120.39" x2="84.42" y2="65.22"/>
	</g>
</g>
</svg>
