<?xml version="1.0" encoding="utf-8"?>
<!-- Generator: Adobe Illustrator 24.3.0, SVG Export Plug-In . SVG Version: 6.00 Build 0)  -->
<svg version="1.1" id="Layer_1" xmlns="http://www.w3.org/2000/svg" xmlns:xlink="http://www.w3.org/1999/xlink" x="0px" y="0px"
	 viewBox="0 0 1900.8 864" style="enable-background:new 0 0 1900.8 864;" xml:space="preserve">
<style type="text/css">
	.st0{fill:none;}
	.st1{fill:#F8A256;}
	.st2{fill:#5F2756;}
	.st3{fill:#A83B55;}
	.st4{fill:#E14C56;}
	.st5{fill:#F36F56;}
</style>
<g>
	<path class="st0" d="M0,797.37v49.12h0.03v-49.11C0.02,797.38,0.01,797.37,0,797.37z"/>
	<path class="st0" d="M0.03,212.54c-0.01,0.02-0.02,0.03-0.03,0.05v131.46c0.01-0.01,0.02-0.03,0.03-0.04V212.54z"/>
	<path class="st0" d="M182.56,59.53H1387.8v-6.06H173.14C176.31,55.47,179.48,57.47,182.56,59.53z"/>
	<path class="st1" d="M401.45,654.45c16.49-35.2,35.11-70.48,55.84-105.88c20.72-35.39,39.39-67.54,55.99-96.44
		c16.6-28.89,28.83-52.63,36.71-71.24c1.11-2.62,2.01-5.03,2.8-7.33c-11.35,8.16-22.47,17.72-33.33,28.75
		c-18.28,18.57-35.68,39.38-52.21,62.46c-16.54,23.09-31.16,45.14-43.85,66.18c-0.05,0.06-0.14,0.09-0.19,0.14
		c-3.3,5.29-6.72,10.76-10.31,16.45c-15.62,24.75-33.05,50.34-52.33,76.79c-19.28,26.45-39.98,51.86-62.08,76.2
		c-22.11,24.37-44.61,45.41-67.53,63.15c-22.92,17.75-46.3,30.46-70.17,38.18c-20.85,6.73-40.95,7.13-60.28,1.2
		c-7.15,0.01-14.21-0.77-21.17-2.37c-0.51,0.04-1.03,0.12-1.55,0.16c-0.94,0.32-1.87,0.68-2.81,0.98
		c-23.88,7.7-46.77,7.12-68.65-1.77c-2.17-0.86-4.2-1.8-6.3-2.69v49.11h347.05c-0.47-23.23,2.75-48.19,9.73-74.91
		C366.26,735.34,381.14,696.3,401.45,654.45z"/>
	<path class="st1" d="M0.03,212.54v131.46c13.52-22.14,26.78-44.6,39.79-67.36c13.26-23.22,25.46-47.35,36.61-72.37
		c8.66-19.45,14.16-36.57,16.54-51.34c2.37-14.76,0.52-28.08-5.56-39.95C82.64,103.69,75.24,95.03,65.28,87
		c-16.84,34.09-34.1,67.66-51.78,100.69C9.01,196.08,4.52,204.34,0.03,212.54z"/>
	<path class="st1" d="M205.95,76.3c30.51,23.59,53.62,51.16,69.3,82.7c15.67,31.53,22.85,67.63,21.52,108.24
		c-1.35,40.63-13.31,86.31-35.89,137.03c-11.44,25.71-25.09,50.25-40.9,73.59c-15.83,23.35-31.83,46.2-48.03,68.54
		s-31.89,44.94-47.05,67.74c-15.16,22.81-28.31,46.73-39.45,71.74c-8.05,18.07-10.99,34.05-8.82,47.91
		c1.45,9.28,6.62,17.07,15.35,23.44c16.27-8.61,32.78-20.11,49.55-34.6c21.01-18.17,41.62-39.65,61.84-64.43
		c20.2-24.79,38.7-49.49,55.52-74.12c16.43-24.09,31.2-46.71,44.35-67.88c0.01-0.58,0.13-1.14,0.37-1.67
		c5.32-8.68,11.02-17.51,16.89-26.41c5.63-9.26,10.36-17.15,14.14-23.59c1.51-2.3,3.48-4.14,5.82-5.63
		c5.08-7.17,10.3-14.39,15.72-21.69c19.78-26.64,40.97-50.36,63.59-71.16c22.58-20.79,46.21-36.35,70.82-46.67
		c11.72-4.91,23.54-7.67,35.47-8.42c19-6.77,38.29-8.14,57.86-4.04c11.87-0.77,23.84,0.56,35.92,3.91
		c10.52,0.15,21.12,1.81,31.81,5.18c35.76,10.92,62.61,26,80.58,45.26c17.96,19.26,28.74,41.57,32.38,66.96
		c3.61,25.38,0.96,53.19-7.92,83.43c-8.89,30.26-22.13,62.31-39.71,96.18c-11.33,21.66-24.34,45.27-39.04,70.82
		c-14.73,25.56-29.09,51.29-43.1,77.15c-14.03,25.87-27.13,51.1-39.34,75.7c-2.53,5.1-4.9,10.07-7.17,14.96h66.36
		c2.44-3.45,4.89-6.82,7.32-10.36c19.1-27.78,36.28-54.11,51.58-79c10.23-22.98,21.1-46.48,32.66-70.54
		c11.53-24.06,23.34-47.79,35.44-71.17c12.08-23.4,23.94-45.84,35.61-67.35c11.65-21.5,22.87-41.52,33.64-60.09
		c4.41-8.05,8.9-14.37,13.48-19.03c4.57-4.63,10.5-7.21,17.82-7.7c3.66-0.25,7.84-0.01,12.53,0.73c4.43-4.07,10.01-6.42,16.84-6.88
		c6.16-0.42,13.88,0.64,22.98,3.01c1.8-0.45,3.67-0.77,5.68-0.91c7.12-0.49,16.23,0.93,27.28,4.16c0.17-0.01,0.32-0.06,0.5-0.07
		c7.3-0.5,16.65,0.96,28.08,4.37c11.4,3.41,26.51,9.3,45.31,17.67c21.57,9.6,37.65,18.01,48.2,25.22
		c10.56,7.2,17.67,13.71,21.34,19.51c3.67,5.82,4.58,11.23,2.78,16.25c-1.83,5.03-3.97,10.33-6.45,15.89
		c-9.61,21.59-23.39,49.23-41.31,82.95c-17.95,33.73-36.96,69.88-57.05,108.47c-16.29,31.26-32.42,62.95-48.45,94.88h91.99
		c17.89-31.89,35.38-64.26,52.44-97.17c23.69-45.75,46.2-89.72,67.51-131.96c3.41-7.65,7.61-14.75,12.61-21.29
		c4.98-6.54,12.19-7.28,21.64-2.25c1.27,0.73,2.39,1.47,3.43,2.22c1.37-2.09,2.79-4.14,4.3-6.12c4.98-6.54,12.19-7.28,21.64-2.25
		c2.78,1.59,4.97,3.23,6.62,4.9c0.14-0.18,0.26-0.37,0.39-0.55c4.98-6.54,12.19-7.28,21.64-2.25c3.03,1.73,5.35,3.51,7.04,5.34
		c4.94-5.54,11.83-5.99,20.74-1.25c6.64,3.8,10.07,7.83,10.27,12.08c0.18,4.26-0.64,8.47-2.51,12.65
		c-16.03,30.39-31.49,62.3-46.36,95.71c-12.4,27.85-23.29,55.12-32.67,81.8c-6.22,17.71-10.91,34.49-14.13,50.41h180.73V59.53
		H182.56C190.66,64.93,198.46,70.52,205.95,76.3z"/>
	<path class="st2" d="M178.17,72.21c30.51,23.59,53.62,51.16,69.3,82.7c15.67,31.53,22.85,67.63,21.52,108.24
		c-1.35,40.63-13.31,86.31-35.89,137.03c-11.44,25.71-25.09,50.25-40.9,73.59c-15.83,23.35-31.83,46.2-48.03,68.54
		s-31.89,44.94-47.05,67.74c-15.16,22.81-28.31,46.73-39.45,71.74c-8.05,18.07-10.99,34.05-8.82,47.91
		c2.16,13.86,12.44,24.48,30.87,31.85c0.69,0.28,1.38,0.46,2.07,0.71c3.39-1.55,6.78-3.23,10.19-5.03
		c-8.73-6.37-13.91-14.16-15.35-23.44c-2.17-13.87,0.78-29.84,8.82-47.91c11.14-25.01,24.29-48.93,39.45-71.74
		c15.16-22.81,30.85-45.4,47.05-67.74s32.2-45.19,48.03-68.54c15.81-23.34,29.45-47.88,40.9-73.59
		c22.58-50.73,34.54-96.41,35.89-137.03c1.33-40.62-5.84-76.71-21.52-108.24c-15.67-31.53-38.79-59.1-69.3-82.7
		c-7.48-5.78-15.28-11.37-23.38-16.77c-3.08-2.06-6.25-4.06-9.42-6.06h-21.4C160.92,59.48,169.76,65.72,178.17,72.21z"/>
	<path class="st2" d="M634.82,755.84c14.02-25.86,28.38-51.59,43.1-77.15c14.7-25.55,27.71-49.16,39.04-70.82
		c17.58-33.87,30.82-65.92,39.71-96.18c8.88-30.23,11.53-58.05,7.92-83.43c-3.63-25.39-14.42-47.7-32.38-66.96
		c-17.97-19.26-44.82-34.34-80.58-45.26c-10.69-3.36-21.29-5.02-31.81-5.18c1.35,0.37,2.69,0.67,4.04,1.09
		c35.76,10.92,62.61,26,80.58,45.26c17.96,19.26,28.74,41.57,32.38,66.96c3.61,25.38,0.96,53.19-7.92,83.43
		c-8.89,30.26-22.13,62.31-39.71,96.18c-11.33,21.66-24.34,45.27-39.04,70.82c-14.73,25.56-29.09,51.29-43.1,77.15
		c-14.03,25.87-27.13,51.1-39.34,75.7c-3.24,6.52-6.25,12.86-9.07,19.04h29.67c2.27-4.89,4.65-9.86,7.17-14.96
		C607.69,806.94,620.79,781.71,634.82,755.84z"/>
	<path class="st2" d="M491.68,398.24c-18.28,18.57-35.68,39.38-52.21,62.46c-16.54,23.09-31.16,45.14-43.85,66.18
		c-0.05,0.06-0.14,0.09-0.19,0.14c-3.3,5.29-6.72,10.76-10.31,16.45c-15.62,24.75-33.05,50.34-52.33,76.79
		c-19.28,26.45-39.98,51.86-62.08,76.2c-22.11,24.37-44.62,45.41-67.53,63.15c-22.92,17.75-46.3,30.46-70.17,38.18
		c-11.05,3.57-21.88,5.27-32.51,5.29c19.33,5.93,39.43,5.53,60.28-1.2c23.86-7.72,47.25-20.43,70.17-38.18
		c22.92-17.74,45.42-38.78,67.53-63.15c22.1-24.35,42.8-49.76,62.08-76.2c19.29-26.45,36.72-52.04,52.33-76.79
		c3.59-5.69,7.01-11.16,10.31-16.45c0.06-0.06,0.14-0.09,0.19-0.14c12.69-21.04,27.32-43.09,43.85-66.18
		c16.53-23.08,33.93-43.89,52.21-62.46c10.86-11.03,21.97-20.59,33.33-28.75c3.64-10.59,3.82-17.61,0.65-21.16
		c-1.62,0.76-3.24,1.49-4.86,2.35C528.91,365.2,509.95,379.69,491.68,398.24z"/>
	<path class="st2" d="M1065.97,643.14c17.92-33.71,31.7-61.36,41.31-82.95c2.48-5.56,4.62-10.87,6.45-15.89
		c1.81-5.02,0.89-10.44-2.78-16.25c-3.67-5.8-10.78-12.31-21.34-19.51c-10.55-7.2-26.63-15.61-48.2-25.22
		c-18.8-8.37-33.91-14.25-45.31-17.67c-11.43-3.41-20.78-4.87-28.08-4.37c-0.17,0.01-0.33,0.06-0.5,0.07
		c0.28,0.08,0.52,0.13,0.8,0.21c11.4,3.41,26.51,9.3,45.31,17.67c21.57,9.6,37.65,18.01,48.2,25.22
		c10.56,7.2,17.67,13.71,21.34,19.51c3.67,5.82,4.58,11.23,2.78,16.25c-1.83,5.03-3.97,10.33-6.45,15.89
		c-9.61,21.59-23.39,49.23-41.31,82.95c-17.95,33.73-36.96,69.88-57.05,108.47c-16.99,32.6-33.8,65.64-50.5,98.96h29.83
		c16.03-31.93,32.15-63.62,48.45-94.88C1029.01,713.02,1048.02,676.87,1065.97,643.14z"/>
	<path class="st2" d="M1253.87,714.29c14.87-33.41,30.33-65.31,46.36-95.71c1.86-4.18,2.68-8.39,2.51-12.65
		c-0.2-4.25-3.62-8.28-10.27-12.08c-8.91-4.74-15.8-4.29-20.74,1.25c2.02,2.18,3.12,4.43,3.23,6.74c0.18,4.26-0.64,8.47-2.51,12.65
		c-16.03,30.39-31.49,62.3-46.36,95.71c-12.4,27.85-23.29,55.12-32.66,81.8c-6.76,19.23-11.72,37.38-14.94,54.49h28.58
		c3.22-15.91,7.91-32.7,14.13-50.41C1230.58,769.41,1241.47,742.14,1253.87,714.29z"/>
	<path class="st2" d="M13.5,187.69C31.18,154.66,48.44,121.09,65.28,87c-2.76-2.22-5.68-4.41-8.83-6.53
		c-4.12-2.78-8.7-5.57-13.65-8.38c-13.98,28.53-28.24,56.7-42.8,84.5v56.01c0.01-0.02,0.02-0.03,0.03-0.05
		C4.52,204.34,9.01,196.08,13.5,187.69z"/>
	<path class="st3" d="M519.92,352.66c-19.67,10.44-38.63,24.93-56.89,43.48c-18.28,18.57-35.68,39.38-52.21,62.46
		c-16.54,23.09-31.16,45.14-43.85,66.18c-0.05,0.06-0.14,0.09-0.19,0.14c-3.3,5.29-6.73,10.76-10.31,16.45
		c-15.62,24.75-33.05,50.34-52.33,76.79c-19.28,26.45-39.98,51.86-62.08,76.2c-22.11,24.37-44.61,45.41-67.53,63.15
		c-22.92,17.75-46.3,30.46-70.17,38.18c-8.47,2.73-16.8,4.37-25.02,5.01c6.96,1.6,14.02,2.38,21.17,2.37
		c10.63-0.01,21.46-1.72,32.51-5.29c23.86-7.72,47.25-20.43,70.17-38.18c22.91-17.74,45.42-38.78,67.53-63.15
		c22.1-24.35,42.8-49.76,62.08-76.2c19.29-26.45,36.72-52.04,52.33-76.79c3.59-5.69,7.01-11.16,10.31-16.45
		c0.06-0.06,0.14-0.09,0.19-0.14c12.69-21.04,27.32-43.09,43.85-66.18c16.53-23.08,33.93-43.89,52.21-62.46
		c18.27-18.55,37.23-33.04,56.89-43.48c1.62-0.86,3.24-1.59,4.86-2.35c-1.01-1.13-2.29-1.99-4-2.41c-6.46-1.5-12.92-2.1-19.38-1.98
		C526.68,349.37,523.3,350.86,519.92,352.66z"/>
	<path class="st3" d="M1038.19,639.05c17.92-33.71,31.7-61.36,41.31-82.95c2.48-5.56,4.62-10.87,6.45-15.89
		c1.81-5.02,0.89-10.44-2.78-16.25c-3.67-5.8-10.78-12.31-21.34-19.51c-10.55-7.2-26.63-15.61-48.2-25.22
		c-18.8-8.37-33.91-14.25-45.31-17.67c-0.28-0.08-0.52-0.13-0.8-0.21c-11.05-3.23-20.16-4.65-27.28-4.16
		c-2,0.14-3.88,0.46-5.68,0.91c1.68,0.44,3.32,0.83,5.1,1.37c11.4,3.41,26.51,9.3,45.31,17.67c21.57,9.6,37.65,18.01,48.2,25.22
		c10.56,7.2,17.67,13.71,21.34,19.51c3.67,5.82,4.58,11.23,2.78,16.25c-1.83,5.03-3.97,10.33-6.45,15.89
		c-9.61,21.59-23.39,49.23-41.31,82.95c-17.95,33.73-36.96,69.88-57.05,108.47c-17.35,33.28-34.52,67.03-51.56,101.06h29.72
		c16.7-33.32,33.52-66.37,50.5-98.96C1001.23,708.93,1020.24,672.79,1038.19,639.05z"/>
	<path class="st3" d="M1226.09,710.2c14.87-33.41,30.33-65.31,46.36-95.71c1.86-4.18,2.68-8.39,2.51-12.65
		c-0.11-2.31-1.21-4.56-3.23-6.74c-1.69-1.83-4.01-3.61-7.04-5.34c-9.45-5.03-16.66-4.29-21.64,2.25c-0.14,0.18-0.26,0.37-0.39,0.55
		c2.29,2.32,3.53,4.71,3.64,7.18c0.18,4.26-0.64,8.47-2.51,12.65c-16.03,30.39-31.49,62.3-46.36,95.71
		c-12.4,27.85-23.29,55.12-32.66,81.8c-7.03,20.01-12.15,38.87-15.35,56.59h29.07c3.22-17.12,8.18-35.27,14.94-54.49
		C1202.8,765.32,1213.69,738.05,1226.09,710.2z"/>
	<path class="st3" d="M42.8,72.08c-7.07-4.02-15-8.07-23.76-12.17C12.75,72.85,6.41,85.71,0,98.49v58.08
		C14.56,128.78,28.82,100.62,42.8,72.08z"/>
	<path class="st3" d="M149.51,70.11c30.51,23.59,53.62,51.16,69.3,82.7s22.85,67.63,21.52,108.24
		c-1.35,40.63-13.31,86.31-35.89,137.03c-11.44,25.71-25.09,50.25-40.9,73.59c-15.83,23.35-31.83,46.2-48.03,68.54
		s-31.89,44.94-47.05,67.74C53.29,630.77,40.13,654.69,29,679.71c-8.05,18.07-10.99,34.05-8.82,47.91
		c2.16,13.87,12.44,24.48,30.87,31.85c8.4,3.37,17.01,4.95,25.8,4.91c0.93-0.38,1.85-0.68,2.79-1.1c0.71-0.31,1.43-0.68,2.14-1
		c-0.69-0.25-1.39-0.44-2.07-0.71C61.28,754.2,51,743.58,48.84,729.72c-2.17-13.87,0.78-29.84,8.82-47.91
		c11.14-25.01,24.29-48.93,39.45-71.74c15.16-22.81,30.85-45.4,47.05-67.74s32.2-45.19,48.03-68.54
		c15.81-23.34,29.45-47.88,40.9-73.59c22.58-50.73,34.54-96.41,35.89-137.03c1.33-40.62-5.84-76.71-21.52-108.24
		c-15.68-31.53-38.79-59.1-69.3-82.7c-8.41-6.5-17.24-12.73-26.43-18.75H126.3C134.34,58.83,142.08,64.38,149.51,70.11z"/>
	<path class="st3" d="M607.04,751.75c14.02-25.86,28.38-51.59,43.1-77.15c14.7-25.55,27.71-49.16,39.04-70.82
		c17.58-33.87,30.82-65.92,39.71-96.18c8.88-30.23,11.53-58.05,7.92-83.43c-3.63-25.39-14.42-47.7-32.38-66.96
		c-17.97-19.26-44.82-34.34-80.58-45.26c-1.35-0.42-2.69-0.72-4.04-1.09c-12.08-3.35-24.06-4.67-35.92-3.91
		c3.76,0.79,7.52,1.71,11.3,2.9c35.76,10.92,62.61,26,80.58,45.26c17.96,19.26,28.74,41.57,32.38,66.96
		c3.61,25.38,0.96,53.19-7.92,83.43c-8.89,30.26-22.13,62.31-39.71,96.18c-11.33,21.66-24.34,45.27-39.04,70.82
		c-14.73,25.56-29.09,51.29-43.1,77.15c-14.03,25.87-27.13,51.1-39.34,75.7c-3.61,7.27-6.92,14.3-10.01,21.14h29.6
		c2.82-6.18,5.83-12.52,9.07-19.04C579.91,802.85,593.02,777.63,607.04,751.75z"/>
	<path class="st4" d="M19.04,59.91c-4.58-2.14-9.38-4.29-14.42-6.45H0v45.03C6.41,85.71,12.75,72.85,19.04,59.91z"/>
	<path class="st4" d="M104.35,795.69c23.86-7.72,47.25-20.43,70.17-38.18c22.92-17.74,45.42-38.78,67.53-63.15
		c22.1-24.35,42.8-49.76,62.08-76.2c19.29-26.45,36.72-52.04,52.33-76.79c3.59-5.69,7.01-11.16,10.31-16.45
		c0.06-0.06,0.14-0.09,0.19-0.14c12.69-21.04,27.32-43.09,43.85-66.18c16.53-23.08,33.93-43.89,52.21-62.46
		c18.27-18.55,37.23-33.04,56.89-43.48c3.38-1.79,6.76-3.28,10.14-4.64c-13.16,0.25-26.33,3.79-39.52,10.79
		c-19.67,10.44-38.63,24.93-56.89,43.48c-18.28,18.57-35.68,39.38-52.21,62.46c-16.54,23.09-31.16,45.14-43.85,66.18
		c-0.05,0.06-0.14,0.09-0.19,0.14c-3.3,5.29-6.72,10.76-10.31,16.45c-15.62,24.75-33.05,50.34-52.33,76.79
		c-19.28,26.45-39.98,51.86-62.08,76.2c-22.11,24.37-44.61,45.41-67.53,63.15c-22.01,17.05-44.47,29.4-67.36,37.19
		c0.51-0.03,1.03-0.12,1.55-0.16C87.55,800.06,95.89,798.42,104.35,795.69z"/>
	<path class="st4" d="M1164.77,789.9c9.37-26.68,20.26-53.95,32.66-81.8c14.88-33.41,30.33-65.31,46.36-95.71
		c1.86-4.18,2.68-8.39,2.51-12.65c-0.12-2.47-1.35-4.86-3.64-7.18c-1.65-1.67-3.84-3.31-6.62-4.9c-9.45-5.03-16.66-4.29-21.64,2.25
		c-1.52,1.98-2.93,4.03-4.3,6.12c4.37,3.14,6.67,6.43,6.83,9.86c0.18,4.26-0.64,8.47-2.51,12.65
		c-16.03,30.39-31.49,62.3-46.36,95.71c-12.4,27.85-23.29,55.12-32.66,81.8c-6.23,17.72-10.92,34.51-14.14,50.44h28.17
		C1152.62,828.77,1157.73,809.91,1164.77,789.9z"/>
	<path class="st4" d="M21.67,765.62c17.54,7.03,35.95,6.56,55.18-1.24c-8.79,0.03-17.4-1.55-25.8-4.91
		c-18.43-7.36-28.71-17.98-30.87-31.85c-2.17-13.87,0.78-29.84,8.82-47.91c11.14-25.01,24.29-48.93,39.45-71.74
		c15.16-22.81,30.85-45.4,47.05-67.74s32.2-45.19,48.03-68.54c15.81-23.34,29.45-47.88,40.9-73.59
		c22.58-50.73,34.54-96.41,35.89-137.03c1.33-40.62-5.84-76.71-21.52-108.24s-38.79-59.1-69.3-82.7
		c-7.43-5.74-15.17-11.28-23.21-16.65H87.37c11.49,7.26,22.45,14.84,32.76,22.81c30.51,23.59,53.62,51.16,69.3,82.7
		s22.85,67.63,21.52,108.24c-1.35,40.63-13.31,86.31-35.89,137.03c-11.44,25.71-25.09,50.25-40.9,73.59
		c-15.83,23.35-31.83,46.2-48.03,68.54s-31.89,44.94-47.05,67.74c-15,22.56-28.01,46.22-39.07,70.94v66.92
		C5.15,757.35,12.37,761.9,21.67,765.62z"/>
	<path class="st4" d="M578.38,749.65c14.02-25.86,28.38-51.59,43.1-77.15c14.7-25.55,27.71-49.16,39.04-70.82
		c17.58-33.87,30.82-65.92,39.71-96.18c8.88-30.23,11.53-58.05,7.92-83.43c-3.63-25.39-14.42-47.7-32.38-66.96
		c-17.97-19.26-44.82-34.34-80.58-45.26c-3.78-1.19-7.54-2.11-11.3-2.9c-19.57-4.1-38.86-2.73-57.86,4.04
		c13.13-0.82,26.39,0.8,39.78,5.02c35.76,10.92,62.61,26.01,80.58,45.26c17.96,19.26,28.74,41.57,32.38,66.96
		c3.61,25.38,0.96,53.19-7.92,83.43c-8.89,30.26-22.13,62.31-39.71,96.18c-11.33,21.66-24.34,45.27-39.04,70.82
		c-14.73,25.56-29.09,51.29-43.1,77.15c-14.03,25.87-27.13,51.1-39.34,75.7c-2.53,5.11-4.91,10.09-7.19,14.99h26.56
		c3.09-6.84,6.4-13.87,10.01-21.14C551.25,800.75,564.36,775.52,578.38,749.65z"/>
	<path class="st4" d="M1009.53,636.95c17.92-33.71,31.7-61.36,41.31-82.95c2.48-5.56,4.62-10.87,6.45-15.89
		c1.81-5.02,0.89-10.44-2.78-16.25c-3.67-5.8-10.78-12.31-21.34-19.51c-10.55-7.2-26.63-15.61-48.2-25.22
		c-18.8-8.37-33.91-14.25-45.31-17.67c-1.78-0.53-3.42-0.93-5.1-1.37c-9.1-2.37-16.82-3.43-22.98-3.01
		c-6.83,0.46-12.41,2.82-16.84,6.88c4.67,0.73,9.85,1.94,15.55,3.64c11.4,3.41,26.51,9.3,45.31,17.67
		c21.57,9.6,37.65,18.01,48.2,25.22c10.56,7.2,17.67,13.71,21.34,19.51c3.67,5.82,4.58,11.23,2.78,16.25
		c-1.83,5.03-3.97,10.33-6.45,15.89c-9.61,21.59-23.39,49.23-41.31,82.95c-17.95,33.73-36.96,69.88-57.05,108.47
		c-16.3,31.27-32.43,62.97-48.46,94.91h26.28c17.05-34.04,34.21-67.78,51.56-101.06C972.57,706.83,991.58,670.69,1009.53,636.95z"/>
	<path class="st5" d="M1135.39,796.05c9.37-26.68,20.26-53.95,32.66-81.8c14.87-33.41,30.33-65.32,46.36-95.71
		c1.86-4.18,2.68-8.39,2.51-12.65c-0.16-3.44-2.47-6.72-6.83-9.86c-1.04-0.75-2.16-1.49-3.43-2.22c-9.45-5.03-16.66-4.29-21.64,2.25
		c-5,6.53-9.2,13.64-12.61,21.29c-21.31,42.24-43.82,86.21-67.51,131.96c-17.05,32.91-34.55,65.28-52.44,97.17h68.79
		C1124.47,830.57,1129.16,813.77,1135.39,796.05z"/>
	<path class="st5" d="M980.15,643.11c17.92-33.71,31.7-61.36,41.31-82.95c2.48-5.56,4.62-10.87,6.45-15.89
		c1.81-5.02,0.89-10.44-2.78-16.25c-3.67-5.8-10.78-12.31-21.34-19.51c-10.55-7.2-26.63-15.61-48.2-25.22
		c-18.8-8.37-33.91-14.25-45.31-17.67c-5.7-1.7-10.88-2.91-15.55-3.64c-4.7-0.73-8.88-0.98-12.53-0.73
		c-7.32,0.5-13.26,3.07-17.82,7.7c-4.57,4.65-9.07,10.98-13.48,19.03c-10.77,18.56-21.99,38.59-33.64,60.09
		c-11.66,21.51-23.53,43.95-35.61,67.35c-12.1,23.39-23.91,47.12-35.44,71.17c-11.55,24.06-22.43,47.57-32.66,70.54
		c-15.3,24.89-32.48,51.22-51.58,79c-2.43,3.54-4.88,6.91-7.32,10.36h219.97c16.03-31.94,32.16-63.64,48.46-94.91
		C943.2,712.99,962.2,676.84,980.15,643.11z"/>
	<path class="st5" d="M549,755.81c14.02-25.86,28.38-51.59,43.1-77.15c14.7-25.55,27.71-49.16,39.04-70.82
		c17.58-33.87,30.82-65.92,39.71-96.18c8.88-30.23,11.53-58.05,7.92-83.43c-3.63-25.39-14.42-47.7-32.38-66.96
		c-17.97-19.26-44.82-34.34-80.58-45.26c-13.4-4.21-26.65-5.84-39.78-5.02c-11.93,0.75-23.76,3.51-35.47,8.42
		c-24.61,10.31-48.24,25.88-70.82,46.67c-22.62,20.8-43.81,44.52-63.59,71.16c-5.43,7.3-10.64,14.52-15.72,21.69
		c-2.33,1.49-4.31,3.33-5.82,5.63c-3.77,6.43-8.5,14.33-14.14,23.59c-5.87,8.9-11.57,17.72-16.89,26.41
		c-0.24,0.53-0.36,1.09-0.37,1.67c-13.14,21.17-27.92,43.79-44.35,67.88c-16.81,24.63-35.32,49.33-55.52,74.12
		c-20.22,24.78-40.83,46.25-61.84,64.43c-16.78,14.49-33.29,25.99-49.55,34.6c-3.41,1.8-6.8,3.49-10.19,5.03
		c-0.71,0.33-1.43,0.69-2.14,1c-0.94,0.41-1.86,0.72-2.79,1.1c-19.23,7.8-37.63,8.27-55.18,1.24c-9.3-3.72-16.51-8.27-21.67-13.64
		v45.39c0.01,0,0.02,0.01,0.03,0.01c2.1,0.9,4.13,1.83,6.3,2.69c21.89,8.89,44.77,9.48,68.65,1.77c0.94-0.3,1.87-0.67,2.81-0.98
		c22.89-7.79,45.34-20.14,67.36-37.19c22.92-17.74,45.42-38.78,67.53-63.15c22.1-24.35,42.8-49.76,62.08-76.2
		c19.29-26.45,36.72-52.04,52.33-76.79c3.59-5.69,7.01-11.16,10.31-16.45c0.06-0.06,0.14-0.09,0.19-0.14
		c12.69-21.04,27.32-43.09,43.85-66.18c16.53-23.08,33.93-43.89,52.21-62.46c18.27-18.55,37.23-33.04,56.89-43.48
		c13.18-7,26.35-10.54,39.52-10.79c6.46-0.12,12.92,0.48,19.38,1.98c1.71,0.42,2.99,1.28,4,2.41c3.18,3.55,2.99,10.58-0.65,21.16
		c-0.79,2.29-1.69,4.7-2.8,7.33c-7.88,18.6-20.11,42.34-36.71,71.24c-16.6,28.9-35.27,61.05-55.99,96.44
		c-20.73,35.4-39.35,70.68-55.84,105.88c-20.31,41.84-35.19,80.88-44.64,117.13c-6.98,26.72-10.2,51.68-9.73,74.91h155.4
		c2.28-4.9,4.65-9.88,7.19-14.99C521.87,806.91,534.98,781.68,549,755.81z"/>
	<path class="st5" d="M39.07,614.12c15.16-22.81,30.85-45.4,47.05-67.74s32.2-45.19,48.03-68.54c15.81-23.34,29.45-47.88,40.9-73.59
		c22.58-50.73,34.54-96.41,35.89-137.03c1.33-40.62-5.84-76.71-21.52-108.24s-38.79-59.1-69.3-82.7
		c-10.31-7.97-21.27-15.55-32.76-22.81H4.62c5.05,2.16,9.84,4.31,14.42,6.45c8.76,4.09,16.69,8.15,23.76,12.17
		c4.95,2.81,9.53,5.61,13.65,8.38c3.16,2.13,6.07,4.31,8.83,6.53c9.96,8.03,17.36,16.69,22.12,25.98
		c6.07,11.87,7.92,25.19,5.56,39.95c-2.38,14.78-7.89,31.89-16.54,51.34c-11.15,25.02-23.35,49.15-36.61,72.37
		c-13.01,22.77-26.27,45.22-39.79,67.36c-0.01,0.01-0.02,0.03-0.03,0.04v341.01C11.06,660.34,24.07,636.68,39.07,614.12z"/>
</g>
</svg>
