<?xml version="1.0" encoding="utf-8"?>
<!-- Generator: Adobe Illustrator 24.3.0, SVG Export Plug-In . SVG Version: 6.00 Build 0)  -->
<svg version="1.1" id="Layer_1" xmlns="http://www.w3.org/2000/svg" xmlns:xlink="http://www.w3.org/1999/xlink" x="0px" y="0px"
	 viewBox="0 0 390 220" style="enable-background:new 0 0 390 220;" xml:space="preserve">
<style type="text/css">
	.st0{fill:none;}
	.st1{fill:#F8A256;}
	.st2{fill:#5F2756;}
	.st3{fill:#A83B55;}
	.st4{fill:#E14C56;}
	.st5{fill:#F36F56;}
</style>
<g>
	<polygon class="st0" points="0,206.61 0,220.25 0.01,220.25 0.01,206.61 	"/>
	<path class="st0" d="M0.01,44.18c0,0-0.01,0.01-0.01,0.01v36.51c0,0,0.01-0.01,0.01-0.01V44.18z"/>
	<path class="st0" d="M51.3,1.68H390V0H48.65C49.55,0.56,50.44,1.11,51.3,1.68z"/>
	<path class="st1" d="M112.82,166.92c4.63-9.78,9.87-19.58,15.69-29.41c5.82-9.83,11.07-18.76,15.73-26.78
		c4.66-8.02,8.1-14.62,10.31-19.78c0.31-0.73,0.57-1.4,0.79-2.03c-3.19,2.27-6.31,4.92-9.37,7.98
		c-5.14,5.16-10.03,10.94-14.67,17.35c-4.65,6.41-8.76,12.54-12.32,18.38c-0.01,0.02-0.04,0.02-0.05,0.04
		c-0.93,1.47-1.89,2.99-2.9,4.57c-4.39,6.88-9.29,13.98-14.71,21.33c-5.42,7.34-11.23,14.4-17.44,21.16
		c-6.21,6.77-12.54,12.61-18.98,17.54c-6.44,4.93-13.01,8.46-19.72,10.6c-5.86,1.87-11.51,1.98-16.94,0.33
		c-2.01,0-3.99-0.21-5.95-0.66c-0.14,0.01-0.29,0.03-0.43,0.04c-0.26,0.09-0.53,0.19-0.79,0.27c-6.71,2.14-13.14,1.98-19.29-0.49
		c-0.61-0.24-1.18-0.5-1.77-0.75v13.64h97.53c-0.13-6.45,0.77-13.38,2.74-20.81C102.93,189.38,107.11,178.54,112.82,166.92z"/>
	<path class="st1" d="M0.01,44.18v36.51c3.8-6.15,7.52-12.39,11.18-18.71c3.73-6.45,7.15-13.15,10.29-20.1
		c2.43-5.4,3.98-10.16,4.65-14.26c0.67-4.1,0.15-7.8-1.56-11.1c-1.34-2.58-3.42-4.98-6.22-7.21c-4.73,9.47-9.58,18.79-14.55,27.97
		C2.53,39.61,1.27,41.91,0.01,44.18z"/>
	<path class="st2" d="M50.07,5.21c8.57,6.55,15.07,14.21,19.47,22.97c4.4,8.76,6.42,18.78,6.05,30.06
		C75.21,69.52,71.85,82.21,65.5,96.3c-3.22,7.14-7.05,13.96-11.49,20.44c-4.45,6.49-8.95,12.83-13.5,19.04
		c-4.55,6.21-8.96,12.48-13.22,18.81c-4.26,6.34-7.96,12.98-11.09,19.93c-2.26,5.02-3.09,9.46-2.48,13.31
		c0.61,3.85,3.5,6.8,8.67,8.85c0.19,0.08,0.39,0.13,0.58,0.2c0.95-0.43,1.91-0.9,2.86-1.4c-2.45-1.77-3.91-3.93-4.31-6.51
		c-0.61-3.85,0.22-8.29,2.48-13.31c3.13-6.95,6.82-13.59,11.09-19.93c4.26-6.33,8.67-12.61,13.22-18.81
		c4.55-6.21,9.05-12.55,13.5-19.04c4.44-6.48,8.28-13.3,11.49-20.44c6.35-14.09,9.71-26.78,10.09-38.06
		c0.37-11.28-1.64-21.31-6.05-30.06c-4.4-8.76-10.9-16.42-19.47-22.97c-2.1-1.61-4.29-3.16-6.57-4.66C50.44,1.11,49.55,0.56,48.65,0
		h-6.01C45.22,1.67,47.71,3.4,50.07,5.21z"/>
	<path class="st2" d="M178.4,195.08c3.94-7.18,7.97-14.33,12.11-21.43c4.13-7.1,7.79-13.65,10.97-19.67
		c4.94-9.41,8.66-18.31,11.16-26.71c2.5-8.4,3.24-16.12,2.23-23.17c-1.02-7.05-4.05-13.25-9.1-18.6
		c-5.05-5.35-12.6-9.54-22.64-12.57c-3-0.93-5.98-1.39-8.94-1.44c0.38,0.1,0.76,0.19,1.13,0.3c10.05,3.03,17.59,7.22,22.64,12.57
		c5.05,5.35,8.08,11.55,9.1,18.6c1.02,7.05,0.27,14.77-2.23,23.17c-2.5,8.4-6.22,17.31-11.16,26.71
		c-3.18,6.02-6.84,12.57-10.97,19.67c-4.14,7.1-8.17,14.24-12.11,21.43c-3.94,7.19-7.63,14.19-11.05,21.02
		c-0.91,1.81-1.76,3.57-2.55,5.29h8.34c0.64-1.36,1.31-2.74,2.02-4.15C170.77,209.27,174.46,202.26,178.4,195.08z"/>
	<path class="st2" d="M138.17,95.76c-5.14,5.16-10.03,10.94-14.67,17.35c-4.65,6.41-8.76,12.54-12.32,18.38
		c-0.01,0.02-0.04,0.02-0.05,0.04c-0.93,1.47-1.89,2.99-2.9,4.57c-4.39,6.88-9.29,13.98-14.71,21.33
		c-5.42,7.34-11.23,14.4-17.44,21.16c-6.21,6.77-12.54,12.61-18.98,17.54c-6.44,4.93-13.01,8.46-19.72,10.6
		c-3.11,0.99-6.15,1.46-9.14,1.47c5.43,1.65,11.08,1.54,16.94-0.33c6.71-2.14,13.28-5.67,19.72-10.6
		c6.44-4.93,12.76-10.77,18.98-17.54c6.21-6.76,12.03-13.82,17.44-21.16c5.42-7.35,10.32-14.45,14.71-21.33
		c1.01-1.58,1.97-3.1,2.9-4.57c0.02-0.02,0.04-0.02,0.05-0.04c3.57-5.84,7.68-11.97,12.32-18.38c4.65-6.41,9.53-12.19,14.67-17.35
		c3.05-3.06,6.17-5.72,9.37-7.98c1.02-2.94,1.07-4.89,0.18-5.88c-0.45,0.21-0.91,0.41-1.36,0.65
		C148.63,86.58,143.31,90.61,138.17,95.76z"/>
	<path class="st2" d="M299.56,163.78c5.04-9.36,8.91-17.04,11.61-23.04c0.7-1.54,1.3-3.02,1.81-4.41c0.51-1.39,0.25-2.9-0.78-4.51
		c-1.03-1.61-3.03-3.42-6-5.42c-2.97-2-7.48-4.34-13.54-7c-5.28-2.32-9.53-3.96-12.73-4.91c-3.21-0.95-5.84-1.35-7.89-1.21
		c-0.05,0-0.09,0.02-0.14,0.02c0.08,0.02,0.15,0.04,0.23,0.06c3.2,0.95,7.45,2.58,12.73,4.91c6.06,2.67,10.58,5,13.54,7
		c2.97,2,4.96,3.81,6,5.42c1.03,1.62,1.29,3.12,0.78,4.51c-0.51,1.4-1.12,2.87-1.81,4.41c-2.7,6-6.57,13.67-11.61,23.04
		c-5.05,9.37-10.39,19.41-16.03,30.13c-4.77,9.05-9.5,18.23-14.19,27.49h8.38c4.5-8.87,9.04-17.67,13.61-26.35
		C289.17,183.18,294.51,173.14,299.56,163.78z"/>
	<path class="st2" d="M352.36,183.54c4.18-9.28,8.52-18.14,13.03-26.58c0.52-1.16,0.75-2.33,0.7-3.51c-0.06-1.18-1.02-2.3-2.88-3.35
		c-2.5-1.32-4.44-1.19-5.83,0.35c0.57,0.61,0.88,1.23,0.91,1.87c0.05,1.18-0.18,2.35-0.7,3.51c-4.51,8.44-8.85,17.3-13.03,26.58
		c-3.49,7.73-6.54,15.31-9.18,22.72c-1.9,5.34-3.29,10.38-4.2,15.13h8.03c0.91-4.42,2.22-9.08,3.97-14
		C345.82,198.85,348.88,191.27,352.36,183.54z"/>
	<path class="st2" d="M3.79,37.28c4.97-9.17,9.82-18.5,14.55-27.97c-0.78-0.62-1.6-1.22-2.48-1.81c-1.16-0.77-2.45-1.55-3.84-2.33
		C8.1,13.1,4.09,20.92,0,28.64V44.2c0,0,0.01-0.01,0.01-0.01C1.27,41.91,2.53,39.61,3.79,37.28z"/>
	<path class="st3" d="M146.11,83.1c-5.53,2.9-10.86,6.92-15.99,12.08c-5.14,5.16-10.03,10.94-14.67,17.35
		c-4.65,6.41-8.76,12.54-12.32,18.38c-0.01,0.02-0.04,0.02-0.05,0.04c-0.93,1.47-1.89,2.99-2.9,4.57
		c-4.39,6.88-9.29,13.98-14.71,21.33c-5.42,7.34-11.23,14.4-17.44,21.16c-6.21,6.77-12.54,12.61-18.98,17.54
		c-6.44,4.93-13.01,8.46-19.72,10.6c-2.38,0.76-4.72,1.21-7.03,1.39c1.96,0.45,3.94,0.66,5.95,0.66c2.99,0,6.03-0.48,9.14-1.47
		c6.71-2.14,13.28-5.67,19.72-10.6c6.44-4.93,12.76-10.77,18.98-17.54c6.21-6.76,12.03-13.82,17.44-21.16
		c5.42-7.35,10.32-14.45,14.71-21.33c1.01-1.58,1.97-3.1,2.9-4.57c0.02-0.02,0.04-0.02,0.05-0.04c3.57-5.84,7.68-11.97,12.32-18.38
		c4.65-6.41,9.53-12.19,14.67-17.35c5.13-5.15,10.46-9.18,15.99-12.08c0.46-0.24,0.91-0.44,1.36-0.65
		c-0.29-0.31-0.64-0.55-1.12-0.67c-1.81-0.42-3.63-0.58-5.44-0.55C148.01,82.19,147.06,82.6,146.11,83.1z"/>
	<path class="st3" d="M291.75,162.64c5.04-9.36,8.91-17.04,11.61-23.04c0.7-1.54,1.3-3.02,1.81-4.41c0.51-1.39,0.25-2.9-0.78-4.51
		c-1.03-1.61-3.03-3.42-6-5.42c-2.97-2-7.48-4.34-13.54-7c-5.28-2.32-9.53-3.96-12.73-4.91c-0.08-0.02-0.15-0.04-0.23-0.06
		c-3.1-0.9-5.67-1.29-7.67-1.15c-0.56,0.04-1.09,0.13-1.6,0.25c0.47,0.12,0.93,0.23,1.43,0.38c3.2,0.95,7.45,2.58,12.73,4.91
		c6.06,2.67,10.58,5,13.54,7c2.97,2,4.96,3.81,6,5.42c1.03,1.62,1.29,3.12,0.78,4.51c-0.51,1.4-1.12,2.87-1.81,4.41
		c-2.7,6-6.57,13.67-11.61,23.04c-5.05,9.37-10.39,19.41-16.03,30.13c-4.88,9.24-9.7,18.62-14.49,28.07h8.35
		c4.69-9.25,9.42-18.43,14.19-27.49C281.37,182.05,286.71,172.01,291.75,162.64z"/>
	<path class="st3" d="M344.56,182.4c4.18-9.28,8.52-18.14,13.03-26.58c0.52-1.16,0.75-2.33,0.7-3.51c-0.03-0.64-0.34-1.27-0.91-1.87
		c-0.47-0.51-1.13-1-1.98-1.48c-2.66-1.4-4.68-1.19-6.08,0.63c-0.04,0.05-0.07,0.1-0.11,0.15c0.64,0.64,0.99,1.31,1.02,1.99
		c0.05,1.18-0.18,2.35-0.7,3.51c-4.51,8.44-8.85,17.3-13.03,26.58c-3.49,7.73-6.54,15.31-9.18,22.72
		c-1.98,5.56-3.41,10.8-4.31,15.72h8.17c0.91-4.75,2.3-9.79,4.2-15.13C338.01,197.71,341.07,190.14,344.56,182.4z"/>
	<path class="st3" d="M12.03,5.17c-1.99-1.12-4.22-2.24-6.68-3.38C3.58,5.38,1.8,8.96,0,12.51v16.13C4.09,20.92,8.1,13.1,12.03,5.17
		z"/>
	<path class="st3" d="M42.01,4.62c8.57,6.55,15.07,14.21,19.47,22.97s6.42,18.78,6.05,30.06c-0.38,11.28-3.74,23.97-10.09,38.06
		c-3.22,7.14-7.05,13.96-11.49,20.44c-4.45,6.49-8.95,12.83-13.5,19.04c-4.55,6.21-8.96,12.48-13.22,18.81
		c-4.26,6.34-7.96,12.98-11.09,19.93c-2.26,5.02-3.09,9.46-2.48,13.31c0.61,3.85,3.5,6.8,8.67,8.85c2.36,0.93,4.78,1.37,7.25,1.36
		c0.26-0.1,0.52-0.19,0.78-0.3c0.2-0.09,0.4-0.19,0.6-0.28c-0.19-0.07-0.39-0.12-0.58-0.2c-5.18-2.04-8.07-5-8.67-8.85
		c-0.61-3.85,0.22-8.29,2.48-13.31c3.13-6.95,6.82-13.59,11.09-19.93c4.26-6.33,8.67-12.61,13.22-18.81
		c4.55-6.21,9.05-12.55,13.5-19.04c4.44-6.48,8.28-13.3,11.49-20.44c6.35-14.09,9.71-26.78,10.09-38.06
		c0.37-11.28-1.64-21.31-6.05-30.06c-4.41-8.76-10.9-16.42-19.47-22.97C47.71,3.4,45.22,1.67,42.64,0h-7.15
		C37.75,1.49,39.93,3.03,42.01,4.62z"/>
	<path class="st3" d="M170.59,193.94c3.94-7.18,7.97-14.33,12.11-21.43c4.13-7.1,7.79-13.65,10.97-19.67
		c4.94-9.41,8.66-18.31,11.16-26.71c2.5-8.4,3.24-16.12,2.23-23.17c-1.02-7.05-4.05-13.25-9.1-18.6
		c-5.05-5.35-12.6-9.54-22.64-12.57c-0.38-0.12-0.76-0.2-1.13-0.3c-3.4-0.93-6.76-1.3-10.1-1.09c1.06,0.22,2.11,0.48,3.18,0.81
		c10.05,3.03,17.59,7.22,22.64,12.57c5.05,5.35,8.08,11.55,9.1,18.6c1.02,7.05,0.27,14.77-2.23,23.17
		c-2.5,8.4-6.22,17.31-11.16,26.71c-3.18,6.02-6.84,12.57-10.97,19.67c-4.14,7.1-8.17,14.24-12.11,21.43
		c-3.94,7.19-7.63,14.19-11.05,21.02c-1.01,2.02-1.94,3.97-2.81,5.87h8.32c0.79-1.72,1.64-3.48,2.55-5.29
		C162.97,208.13,166.65,201.13,170.59,193.94z"/>
	<path class="st4" d="M5.35,1.79C4.06,1.2,2.71,0.6,1.3,0H0v12.51C1.8,8.96,3.58,5.38,5.35,1.79z"/>
	<path class="st4" d="M29.33,206.15c6.71-2.14,13.28-5.67,19.72-10.6c6.44-4.93,12.76-10.77,18.98-17.54
		c6.21-6.76,12.03-13.82,17.44-21.16c5.42-7.35,10.32-14.45,14.71-21.33c1.01-1.58,1.97-3.1,2.9-4.57c0.02-0.02,0.04-0.02,0.05-0.04
		c3.57-5.84,7.68-11.97,12.32-18.38c4.65-6.41,9.53-12.19,14.67-17.35c5.13-5.15,10.46-9.18,15.99-12.08
		c0.95-0.5,1.9-0.91,2.85-1.29c-3.7,0.07-7.4,1.05-11.11,3c-5.53,2.9-10.86,6.92-15.99,12.08c-5.14,5.16-10.03,10.94-14.67,17.35
		c-4.65,6.41-8.76,12.54-12.32,18.38c-0.01,0.02-0.04,0.02-0.05,0.04c-0.93,1.47-1.89,2.99-2.9,4.57
		c-4.39,6.88-9.29,13.98-14.71,21.33c-5.42,7.34-11.23,14.4-17.44,21.16c-6.21,6.77-12.54,12.61-18.98,17.54
		c-6.19,4.74-12.5,8.17-18.93,10.33c0.14-0.01,0.29-0.03,0.43-0.04C24.6,207.36,26.95,206.9,29.33,206.15z"/>
	<path class="st4" d="M327.32,204.54c2.63-7.41,5.69-14.98,9.18-22.72c4.18-9.28,8.52-18.14,13.03-26.58
		c0.52-1.16,0.75-2.33,0.7-3.51c-0.03-0.69-0.38-1.35-1.02-1.99c-0.46-0.46-1.08-0.92-1.86-1.36c-2.66-1.4-4.68-1.19-6.08,0.63
		c-0.43,0.55-0.82,1.12-1.21,1.7c1.23,0.87,1.88,1.78,1.92,2.74c0.05,1.18-0.18,2.35-0.7,3.51c-4.51,8.44-8.85,17.3-13.03,26.58
		c-3.49,7.73-6.54,15.31-9.18,22.72c-1.75,4.92-3.07,9.59-3.97,14.01h7.92C323.91,215.33,325.35,210.09,327.32,204.54z"/>
	<path class="st4" d="M6.09,197.79c4.93,1.95,10.1,1.82,15.51-0.35c-2.47,0.01-4.89-0.43-7.25-1.36c-5.18-2.04-8.07-4.99-8.67-8.85
		c-0.61-3.85,0.22-8.29,2.48-13.31c3.13-6.95,6.82-13.59,11.09-19.93c4.26-6.33,8.67-12.61,13.22-18.81
		c4.55-6.21,9.05-12.55,13.5-19.04c4.44-6.48,8.28-13.3,11.49-20.44c6.35-14.09,9.71-26.78,10.09-38.06
		c0.37-11.28-1.64-21.31-6.05-30.06S50.59,11.18,42.01,4.62C39.93,3.03,37.75,1.49,35.49,0H24.55c3.23,2.02,6.31,4.12,9.21,6.33
		c8.57,6.55,15.07,14.21,19.47,22.97s6.42,18.78,6.05,30.06c-0.38,11.28-3.74,23.97-10.09,38.06c-3.22,7.14-7.05,13.96-11.49,20.44
		c-4.45,6.49-8.95,12.83-13.5,19.04c-4.55,6.21-8.96,12.48-13.22,18.81c-4.21,6.27-7.87,12.84-10.98,19.7V194
		C1.45,195.5,3.47,196.76,6.09,197.79z"/>
	<path class="st4" d="M162.54,193.36c3.94-7.18,7.97-14.33,12.11-21.43c4.13-7.1,7.79-13.65,10.97-19.67
		c4.94-9.41,8.66-18.31,11.16-26.71c2.5-8.4,3.24-16.12,2.23-23.17c-1.02-7.05-4.05-13.25-9.1-18.6
		c-5.05-5.35-12.6-9.54-22.64-12.57c-1.06-0.33-2.12-0.59-3.18-0.81c-5.5-1.14-10.92-0.76-16.26,1.12
		c3.69-0.23,7.42,0.22,11.18,1.39c10.05,3.03,17.59,7.22,22.64,12.57c5.05,5.35,8.08,11.55,9.1,18.6
		c1.02,7.05,0.27,14.77-2.23,23.17c-2.5,8.4-6.22,17.31-11.16,26.71c-3.18,6.02-6.84,12.57-10.97,19.67
		c-4.14,7.1-8.17,14.24-12.11,21.43c-3.94,7.19-7.63,14.19-11.05,21.02c-0.71,1.42-1.38,2.8-2.02,4.16h7.46
		c0.87-1.9,1.8-3.85,2.81-5.87C154.91,207.55,158.59,200.54,162.54,193.36z"/>
	<path class="st4" d="M283.7,162.06c5.04-9.36,8.91-17.04,11.61-23.04c0.7-1.54,1.3-3.02,1.81-4.41c0.51-1.39,0.25-2.9-0.78-4.51
		c-1.03-1.61-3.03-3.42-6-5.42c-2.97-2-7.48-4.34-13.54-7c-5.28-2.32-9.53-3.96-12.73-4.91c-0.5-0.15-0.96-0.26-1.43-0.38
		c-2.56-0.66-4.73-0.95-6.46-0.84c-1.92,0.13-3.49,0.78-4.73,1.91c1.31,0.2,2.77,0.54,4.37,1.01c3.2,0.95,7.45,2.58,12.73,4.91
		c6.06,2.67,10.58,5,13.54,7c2.97,2,4.96,3.81,6,5.42c1.03,1.62,1.29,3.12,0.78,4.51c-0.51,1.4-1.12,2.87-1.81,4.41
		c-2.7,6-6.57,13.67-11.61,23.04c-5.05,9.37-10.39,19.41-16.03,30.13c-4.58,8.69-9.11,17.49-13.62,26.36h7.38
		c4.79-9.45,9.61-18.83,14.49-28.07C273.31,181.47,278.65,171.43,283.7,162.06z"/>
	<path class="st5" d="M319.07,206.25c2.63-7.41,5.69-14.98,9.18-22.72c4.18-9.28,8.52-18.14,13.03-26.58
		c0.52-1.16,0.75-2.33,0.7-3.51c-0.05-0.95-0.69-1.87-1.92-2.74c-0.29-0.21-0.61-0.41-0.96-0.62c-2.66-1.4-4.68-1.19-6.08,0.63
		c-1.41,1.81-2.58,3.79-3.54,5.91c-5.99,11.73-12.31,23.94-18.97,36.65c-4.79,9.14-9.71,18.13-14.74,26.99h19.33
		C316,215.83,317.32,211.17,319.07,206.25z"/>
	<path class="st5" d="M275.44,163.77c5.04-9.36,8.91-17.04,11.61-23.04c0.7-1.54,1.3-3.02,1.81-4.41c0.51-1.39,0.25-2.9-0.78-4.51
		c-1.03-1.61-3.03-3.42-6-5.42c-2.97-2-7.48-4.34-13.54-7c-5.28-2.32-9.53-3.96-12.73-4.91c-1.6-0.47-3.06-0.81-4.37-1.01
		c-1.32-0.2-2.49-0.27-3.52-0.2c-2.06,0.14-3.73,0.85-5.01,2.14c-1.28,1.29-2.55,3.05-3.79,5.28c-3.03,5.16-6.18,10.72-9.45,16.69
		c-3.28,5.97-6.61,12.21-10.01,18.7c-3.4,6.5-6.72,13.09-9.96,19.77c-3.25,6.68-6.3,13.21-9.18,19.59
		c-4.3,6.91-9.13,14.23-14.5,21.94c-0.68,0.98-1.37,1.92-2.06,2.88h61.82c4.51-8.87,9.04-17.67,13.62-26.36
		C265.06,183.18,270.4,173.14,275.44,163.77z"/>
	<path class="st5" d="M154.28,195.07c3.94-7.18,7.97-14.33,12.11-21.43c4.13-7.1,7.79-13.65,10.97-19.67
		c4.94-9.41,8.66-18.31,11.16-26.71c2.5-8.4,3.24-16.12,2.23-23.17c-1.02-7.05-4.05-13.25-9.1-18.6
		c-5.05-5.35-12.6-9.54-22.64-12.57c-3.76-1.17-7.49-1.62-11.18-1.39c-3.35,0.21-6.68,0.98-9.97,2.34
		c-6.92,2.86-13.56,7.19-19.9,12.96c-6.36,5.78-12.31,12.36-17.87,19.76c-1.52,2.03-2.99,4.03-4.42,6.02
		c-0.66,0.41-1.21,0.92-1.63,1.56c-1.06,1.79-2.39,3.98-3.97,6.55c-1.65,2.47-3.25,4.92-4.75,7.33c-0.07,0.15-0.1,0.3-0.1,0.46
		c-3.69,5.88-7.85,12.16-12.46,18.85c-4.72,6.84-9.92,13.7-15.6,20.59c-5.68,6.88-11.47,12.85-17.38,17.89
		c-4.71,4.02-9.35,7.22-13.93,9.61c-0.96,0.5-1.91,0.97-2.86,1.4c-0.2,0.09-0.4,0.19-0.6,0.28c-0.26,0.11-0.52,0.2-0.78,0.3
		c-5.4,2.17-10.58,2.3-15.51,0.35C3.47,196.76,1.45,195.5,0,194v12.61c0,0,0.01,0,0.01,0c0.59,0.25,1.16,0.51,1.77,0.75
		c6.15,2.47,12.58,2.63,19.29,0.49c0.26-0.08,0.53-0.18,0.79-0.27c6.43-2.16,12.74-5.59,18.93-10.33
		c6.44-4.93,12.76-10.77,18.98-17.54c6.21-6.76,12.03-13.82,17.44-21.16c5.42-7.35,10.32-14.45,14.71-21.33
		c1.01-1.58,1.97-3.1,2.9-4.57c0.02-0.02,0.04-0.02,0.05-0.04c3.57-5.84,7.68-11.97,12.32-18.38c4.65-6.41,9.53-12.19,14.67-17.35
		c5.13-5.15,10.46-9.18,15.99-12.08c3.71-1.94,7.41-2.93,11.11-3c1.82-0.03,3.63,0.13,5.44,0.55c0.48,0.12,0.84,0.35,1.12,0.67
		c0.89,0.99,0.84,2.94-0.18,5.88c-0.22,0.64-0.48,1.31-0.79,2.03c-2.21,5.17-5.65,11.76-10.31,19.78
		c-4.66,8.03-9.91,16.95-15.73,26.78c-5.83,9.83-11.06,19.63-15.69,29.41c-5.71,11.62-9.89,22.46-12.54,32.53
		c-1.96,7.42-2.87,14.35-2.74,20.81h43.67c0.64-1.36,1.31-2.74,2.02-4.16C146.66,209.26,150.34,202.25,154.28,195.07z"/>
	<path class="st5" d="M10.98,155.72c4.26-6.33,8.67-12.61,13.22-18.81c4.55-6.21,9.05-12.55,13.5-19.04
		c4.44-6.48,8.28-13.3,11.49-20.44c6.35-14.09,9.71-26.78,10.09-38.06c0.37-11.28-1.64-21.31-6.05-30.06S42.33,12.89,33.76,6.33
		c-2.9-2.21-5.98-4.32-9.21-6.33H1.3c1.42,0.6,2.76,1.2,4.05,1.79c2.46,1.14,4.69,2.26,6.68,3.38c1.39,0.78,2.68,1.56,3.84,2.33
		c0.89,0.59,1.71,1.2,2.48,1.81c2.8,2.23,4.88,4.64,6.22,7.21c1.71,3.3,2.23,7,1.56,11.1c-0.67,4.1-2.22,8.86-4.65,14.26
		c-3.13,6.95-6.56,13.65-10.29,20.1C7.53,68.31,3.81,74.54,0.01,80.69c0,0-0.01,0.01-0.01,0.01v94.71
		C3.11,168.55,6.76,161.98,10.98,155.72z"/>
</g>
</svg>
