<?xml version="1.0" encoding="utf-8"?>
<!-- Generator: Adobe Illustrator 24.3.0, SVG Export Plug-In . SVG Version: 6.00 Build 0)  -->
<svg version="1.1" id="Layer_1" xmlns="http://www.w3.org/2000/svg" xmlns:xlink="http://www.w3.org/1999/xlink" x="0px" y="0px"
	 viewBox="0 0 2016 1224" style="enable-background:new 0 0 2016 1224;" xml:space="preserve">
<style type="text/css">
	.st0{fill:none;}
	.st1{fill:#F8A256;}
	.st2{fill:#5F2756;}
	.st3{fill:#A83B55;}
	.st4{fill:#E14C56;}
	.st5{fill:#F36F56;}
	.st6{fill:#FFFFFF;}
	.st7{font-family:'AvenirNextCondensed-DemiBold';}
	.st8{font-size:121.0032px;}
	.st9{letter-spacing:2;}
	.st10{letter-spacing:1;}
</style>
<g>
	<path class="st0" d="M-262.53,1257.01v89.94h0.05v-89.92C-262.5,1257.03-262.52,1257.02-262.53,1257.01z"/>
	<path class="st0" d="M-262.48,186.19c-0.02,0.03-0.03,0.06-0.05,0.09v240.7c0.02-0.03,0.03-0.05,0.05-0.08V186.19z"/>
	<path class="st0" d="M71.74-93.98h2206.8v-11.1H54.48C60.29-101.42,66.09-97.75,71.74-93.98z"/>
	<path class="st1" d="M472.52,995.33c30.19-64.44,64.29-129.05,102.25-193.87c37.93-64.8,72.13-123.67,102.52-176.57
		c30.39-52.9,52.79-96.37,67.21-130.43c2.03-4.8,3.68-9.22,5.12-13.41c-20.79,14.94-41.13,32.44-61.02,52.63
		c-33.47,34-65.32,72.11-95.59,114.37c-30.28,42.28-57.06,82.66-80.3,121.17c-0.1,0.11-0.25,0.16-0.35,0.26
		c-6.04,9.69-12.31,19.7-18.88,30.12c-28.6,45.33-60.51,92.17-95.82,140.61c-35.3,48.42-73.2,94.95-113.66,139.53
		c-40.49,44.62-81.69,83.15-123.65,115.63c-41.96,32.5-84.78,55.77-128.47,69.9c-38.18,12.32-74.98,13.05-110.38,2.2
		c-13.1,0.02-26.03-1.41-38.77-4.34c-0.94,0.07-1.89,0.23-2.83,0.29c-1.72,0.58-3.43,1.25-5.15,1.8
		c-43.72,14.11-85.63,13.03-125.7-3.25c-3.97-1.58-7.68-3.29-11.53-4.93v89.92h635.45c-0.86-42.53,5.04-88.24,17.82-137.16
		C408.09,1143.43,435.34,1071.95,472.52,995.33z"/>
	<path class="st1" d="M-262.48,186.19V426.9c24.75-40.55,49.03-81.66,72.85-123.34c24.27-42.52,46.62-86.7,67.03-132.52
		c15.85-35.62,25.93-66.96,30.29-94.01c4.34-27.02,0.95-51.41-10.17-73.15c-8.72-17-22.27-32.86-40.51-47.56
		c-30.84,62.42-62.43,123.89-94.81,184.37C-246.03,156.05-254.26,171.18-262.48,186.19z"/>
	<path class="st1" d="M114.55-63.27c55.86,43.2,98.18,93.68,126.88,151.42c28.7,57.74,41.84,123.83,39.4,198.19
		c-2.48,74.39-24.36,158.03-65.71,250.91c-20.95,47.08-45.94,92.01-74.88,134.75c-28.99,42.75-58.28,84.59-87.95,125.5
		s-58.39,82.28-86.15,124.04c-27.76,41.77-51.84,85.56-72.23,131.36c-14.73,33.09-20.13,62.34-16.15,87.73
		c2.65,16.99,12.12,31.26,28.11,42.92c29.78-15.77,60.01-36.83,90.73-63.36c38.47-33.28,76.2-72.6,113.23-117.97
		c36.99-45.39,70.87-90.61,101.65-135.71c30.08-44.1,57.13-85.52,81.2-124.29c0.03-1.06,0.24-2.08,0.68-3.06
		c9.75-15.9,20.18-32.06,30.93-48.35c10.31-16.95,18.97-31.41,25.88-43.19c2.76-4.21,6.38-7.58,10.65-10.3
		c9.3-13.13,18.85-26.35,28.79-39.71c36.21-48.77,75.01-92.2,116.43-130.29c41.35-38.07,84.61-66.56,129.68-85.45
		c21.45-8.99,43.1-14.04,64.95-15.42c34.79-12.4,70.1-14.91,105.94-7.39c21.73-1.4,43.65,1.02,65.78,7.16
		c19.26,0.28,38.67,3.32,58.25,9.48c65.47,20,114.64,47.61,147.54,82.88c32.88,35.26,52.63,76.12,59.28,122.61
		c6.61,46.48,1.77,97.4-14.5,152.76c-16.28,55.4-40.53,114.09-72.71,176.1c-20.74,39.66-44.57,82.89-71.48,129.68
		c-26.96,46.81-53.26,93.91-78.92,141.26c-25.68,47.37-49.68,93.57-72.03,138.6c-4.63,9.34-8.97,18.44-13.14,27.39h121.5
		c4.47-6.32,8.95-12.49,13.4-18.96c34.97-50.86,66.42-99.07,94.44-144.65c18.73-42.07,38.64-85.11,59.8-129.16
		c21.11-44.05,42.74-87.5,64.9-130.32c22.11-42.85,43.84-83.93,65.2-123.31c21.33-39.37,41.88-76.03,61.59-110.02
		c8.07-14.74,16.3-26.32,24.67-34.84c8.36-8.48,19.23-13.2,32.63-14.11c6.7-0.46,14.35-0.01,22.95,1.33
		c8.12-7.45,18.33-11.76,30.84-12.6c11.28-0.77,25.42,1.17,42.09,5.51c3.29-0.82,6.73-1.41,10.39-1.66
		c13.03-0.9,29.72,1.7,49.95,7.61c0.32-0.03,0.59-0.11,0.91-0.13c13.36-0.92,30.49,1.77,51.42,8.01
		c20.87,6.25,48.54,17.03,82.96,32.35c39.49,17.59,68.93,32.98,88.25,46.17c19.33,13.18,32.35,25.1,39.07,35.72
		c6.72,10.65,8.39,20.56,5.08,29.76c-3.35,9.21-7.27,18.92-11.81,29.1c-17.6,39.53-42.83,90.15-75.64,151.88
		c-32.87,61.76-67.67,127.95-104.47,198.62c-29.83,57.24-59.36,115.26-88.71,173.72h168.44c32.76-58.39,64.78-117.67,96.01-177.92
		c43.38-83.76,84.6-164.28,123.61-241.62c6.24-14.01,13.93-27.01,23.08-38.97c9.13-11.98,22.33-13.33,39.63-4.12
		c2.33,1.34,4.38,2.69,6.28,4.06c2.51-3.82,5.1-7.58,7.88-11.2c9.13-11.98,22.32-13.33,39.63-4.12c5.1,2.92,9.1,5.91,12.13,8.97
		c0.25-0.33,0.47-0.68,0.72-1c9.13-11.98,22.32-13.33,39.63-4.12c5.54,3.17,9.8,6.43,12.89,9.77c9.04-10.14,21.66-10.97,37.97-2.29
		c12.16,6.96,18.43,14.33,18.8,22.11c0.32,7.8-1.18,15.51-4.59,23.16c-29.35,55.65-57.66,114.07-84.89,175.24
		c-22.71,50.99-42.64,100.93-59.82,149.77c-11.39,32.42-19.97,63.16-25.87,92.3h330.92V-93.98H71.74
		C86.57-84.08,100.85-73.85,114.55-63.27z"/>
	<path class="st2" d="M63.69-70.75c55.86,43.2,98.17,93.68,126.88,151.42c28.7,57.74,41.84,123.83,39.4,198.19
		c-2.48,74.39-24.36,158.03-65.71,250.91c-20.95,47.08-45.94,92.01-74.88,134.75c-28.99,42.75-58.28,84.59-87.95,125.5
		s-58.39,82.28-86.15,124.04c-27.76,41.77-51.84,85.56-72.23,131.36c-14.73,33.09-20.13,62.34-16.15,87.73
		c3.95,25.38,22.78,44.83,56.52,58.31c1.26,0.5,2.53,0.84,3.79,1.3c6.2-2.83,12.42-5.91,18.65-9.21
		c-15.99-11.66-25.46-25.93-28.11-42.92c-3.97-25.39,1.42-54.63,16.15-87.73c20.39-45.8,44.47-89.59,72.23-131.36
		c27.76-41.76,56.49-83.13,86.15-124.04s58.96-82.75,87.95-125.5c28.94-42.73,53.93-87.67,74.88-134.75
		c41.35-92.88,63.23-176.52,65.71-250.91c2.44-74.37-10.7-140.45-39.4-198.19c-28.7-57.74-71.02-108.22-126.88-151.42
		c-13.7-10.58-27.98-20.81-42.82-30.71c-5.65-3.77-11.45-7.44-17.26-11.1H15.29C32.12-94.06,48.3-82.64,63.69-70.75z"/>
	<path class="st2" d="M899.82,1180.97c25.66-47.35,51.96-94.45,78.92-141.26c26.91-46.79,50.74-90.02,71.48-129.68
		c32.19-62.01,56.43-120.7,72.71-176.1c16.27-55.36,21.11-106.28,14.5-152.76c-6.66-46.49-26.4-87.34-59.28-122.61
		c-32.9-35.26-82.07-62.88-147.54-82.88c-19.58-6.16-38.99-9.2-58.25-9.48c2.46,0.68,4.92,1.22,7.39,2
		c65.47,20,114.64,47.61,147.54,82.88c32.88,35.26,52.63,76.12,59.28,122.61c6.61,46.48,1.77,97.4-14.5,152.76
		c-16.28,55.4-40.53,114.09-72.71,176.1c-20.74,39.66-44.57,82.89-71.48,129.68c-26.96,46.81-53.26,93.91-78.92,141.26
		c-25.68,47.37-49.68,93.57-72.03,138.6c-5.92,11.94-11.44,23.55-16.6,34.87h54.33c4.16-8.95,8.51-18.05,13.14-27.39
		C850.14,1274.53,874.14,1228.34,899.82,1180.97z"/>
	<path class="st2" d="M637.74,526.2c-33.47,34-65.32,72.11-95.59,114.37c-30.28,42.28-57.06,82.66-80.3,121.17
		c-0.1,0.11-0.25,0.16-0.35,0.26c-6.04,9.69-12.31,19.7-18.88,30.12c-28.6,45.33-60.51,92.17-95.82,140.61
		c-35.3,48.42-73.2,94.95-113.66,139.53c-40.49,44.62-81.7,83.15-123.65,115.63c-41.96,32.5-84.78,55.77-128.47,69.9
		c-20.24,6.53-40.06,9.66-59.52,9.68c35.4,10.85,72.2,10.12,110.38-2.2c43.69-14.13,86.52-37.4,128.47-69.9
		c41.96-32.48,83.16-71.01,123.65-115.63c40.47-44.58,78.36-91.11,113.66-139.53c35.31-48.43,67.23-95.28,95.82-140.61
		c6.57-10.42,12.84-20.43,18.88-30.12c0.1-0.1,0.25-0.16,0.35-0.26c23.23-38.52,50.01-78.89,80.3-121.17
		c30.27-42.26,62.13-80.37,95.59-114.37c19.89-20.19,40.23-37.69,61.02-52.63c6.66-19.39,7-32.25,1.19-38.75
		c-2.96,1.39-5.93,2.72-8.89,4.3C705.91,465.71,671.19,492.24,637.74,526.2z"/>
	<path class="st2" d="M1689.26,974.61c32.81-61.73,58.04-112.35,75.64-151.88c4.54-10.18,8.46-19.89,11.81-29.1
		c3.31-9.2,1.63-19.11-5.08-29.76c-6.73-10.62-19.74-22.54-39.07-35.72c-19.32-13.19-48.76-28.59-88.25-46.17
		c-34.42-15.32-62.08-26.1-82.96-32.35c-20.92-6.24-38.06-8.92-51.42-8.01c-0.32,0.02-0.6,0.11-0.91,0.13
		c0.51,0.15,0.95,0.24,1.47,0.39c20.87,6.25,48.54,17.03,82.96,32.35c39.49,17.59,68.93,32.98,88.25,46.17
		c19.33,13.18,32.35,25.1,39.07,35.72c6.72,10.65,8.39,20.56,5.08,29.76c-3.35,9.21-7.27,18.92-11.81,29.1
		c-17.6,39.53-42.83,90.15-75.64,151.88c-32.87,61.76-67.67,127.95-104.47,198.62c-31.11,59.69-61.9,120.19-92.47,181.2h54.63
		c29.35-58.46,58.87-116.48,88.71-173.72C1621.59,1102.57,1656.39,1036.38,1689.26,974.61z"/>
	<path class="st2" d="M2033.3,1104.88c27.24-61.18,55.54-119.59,84.89-175.24c3.41-7.65,4.91-15.36,4.59-23.16
		c-0.36-7.78-6.64-15.16-18.8-22.11c-16.31-8.68-28.93-7.85-37.97,2.29c3.7,3.99,5.71,8.1,5.91,12.34
		c0.32,7.8-1.18,15.51-4.59,23.16c-29.35,55.65-57.66,114.07-84.89,175.24c-22.71,50.99-42.64,100.93-59.81,149.77
		c-12.38,35.21-21.46,68.44-27.36,99.78h52.33c5.9-29.14,14.48-59.88,25.87-92.3C1990.66,1205.81,2010.59,1155.88,2033.3,1104.88z"
		/>
	<path class="st2" d="M-237.81,140.69C-205.44,80.21-173.84,18.74-143-43.68c-5.05-4.07-10.39-8.07-16.17-11.96
		c-7.55-5.08-15.94-10.2-24.99-15.35c-25.59,52.25-51.71,103.82-78.37,154.71v102.56c0.02-0.03,0.03-0.06,0.05-0.09
		C-254.26,171.18-246.03,156.05-237.81,140.69z"/>
	<path class="st3" d="M689.44,442.74c-36.01,19.12-70.73,45.65-104.17,79.61c-33.47,34-65.32,72.11-95.59,114.37
		c-30.28,42.28-57.06,82.66-80.3,121.17c-0.1,0.11-0.25,0.16-0.35,0.26c-6.04,9.69-12.31,19.7-18.88,30.12
		c-28.6,45.33-60.51,92.17-95.82,140.61c-35.3,48.42-73.2,94.95-113.66,139.53c-40.49,44.62-81.69,83.15-123.65,115.63
		c-41.96,32.5-84.78,55.77-128.47,69.9c-15.5,5-30.77,8-45.81,9.18c12.74,2.94,25.67,4.36,38.77,4.34
		c19.46-0.02,39.29-3.15,59.52-9.68c43.69-14.13,86.52-37.4,128.47-69.9c41.95-32.48,83.16-71.01,123.65-115.63
		c40.47-44.58,78.36-91.11,113.66-139.53c35.31-48.43,67.23-95.28,95.82-140.61c6.57-10.42,12.84-20.43,18.88-30.12
		c0.1-0.1,0.25-0.16,0.35-0.26c23.23-38.52,50.01-78.89,80.3-121.17c30.27-42.26,62.12-80.37,95.59-114.37
		c33.45-33.96,68.17-60.49,104.17-79.61c2.96-1.57,5.93-2.91,8.89-4.3c-1.86-2.08-4.2-3.65-7.33-4.41
		c-11.82-2.74-23.65-3.85-35.48-3.62C701.82,436.73,695.63,439.46,689.44,442.74z"/>
	<path class="st3" d="M1638.4,967.13c32.81-61.73,58.04-112.35,75.64-151.88c4.54-10.18,8.46-19.89,11.81-29.1
		c3.31-9.2,1.63-19.11-5.08-29.76c-6.73-10.62-19.74-22.54-39.07-35.72c-19.32-13.19-48.76-28.59-88.25-46.17
		c-34.42-15.32-62.08-26.1-82.96-32.35c-0.51-0.15-0.96-0.24-1.47-0.39c-20.23-5.92-36.92-8.51-49.95-7.61
		c-3.67,0.25-7.1,0.84-10.39,1.66c3.07,0.8,6.07,1.53,9.33,2.5c20.87,6.25,48.54,17.03,82.96,32.35
		c39.49,17.59,68.93,32.98,88.25,46.17c19.33,13.18,32.35,25.1,39.07,35.72c6.72,10.65,8.39,20.56,5.08,29.76
		c-3.35,9.21-7.27,18.92-11.81,29.1c-17.6,39.53-42.83,90.15-75.64,151.88c-32.87,61.76-67.67,127.95-104.47,198.62
		c-31.76,60.94-63.2,122.73-94.41,185.05h54.41c30.58-61.01,61.37-121.52,92.47-181.2C1570.73,1095.08,1605.52,1028.9,1638.4,967.13
		z"/>
	<path class="st3" d="M1982.44,1097.4c27.24-61.18,55.54-119.59,84.89-175.24c3.41-7.65,4.91-15.36,4.59-23.16
		c-0.2-4.24-2.21-8.35-5.91-12.34c-3.09-3.34-7.35-6.6-12.89-9.77c-17.3-9.21-30.5-7.86-39.63,4.12c-0.25,0.33-0.47,0.68-0.72,1
		c4.19,4.24,6.46,8.62,6.67,13.14c0.32,7.8-1.18,15.51-4.59,23.16c-29.35,55.65-57.66,114.07-84.89,175.24
		c-22.71,50.99-42.64,100.93-59.81,149.77c-12.88,36.64-22.25,71.17-28.11,103.62h53.23c5.9-31.34,14.98-64.57,27.36-99.78
		C1939.8,1198.33,1959.73,1148.4,1982.44,1097.4z"/>
	<path class="st3" d="M-184.17-70.99c-12.95-7.36-27.47-14.78-43.51-22.28c-11.51,23.69-23.13,47.23-34.86,70.64V83.72
		C-235.88,32.83-209.76-18.75-184.17-70.99z"/>
	<path class="st3" d="M11.21-74.6C67.08-31.4,109.4,19.08,138.1,76.82s41.84,123.83,39.4,198.19
		c-2.48,74.39-24.36,158.03-65.71,250.91C90.82,573,65.84,617.93,36.9,660.67c-28.99,42.75-58.28,84.59-87.95,125.5
		s-58.39,82.28-86.15,124.04c-27.76,41.77-51.84,85.56-72.23,131.36c-14.73,33.09-20.13,62.34-16.15,87.73
		c3.95,25.39,22.78,44.83,56.52,58.31c15.38,6.16,31.15,9.06,47.24,8.99c1.71-0.69,3.4-1.25,5.11-2.01c1.3-0.58,2.62-1.24,3.92-1.84
		c-1.26-0.46-2.54-0.8-3.79-1.3c-33.74-13.48-52.57-32.93-56.52-58.31c-3.97-25.39,1.42-54.63,16.15-87.73
		c20.39-45.8,44.47-89.59,72.23-131.36c27.76-41.76,56.49-83.13,86.15-124.04s58.96-82.75,87.95-125.5
		c28.94-42.73,53.93-87.67,74.88-134.75c41.35-92.88,63.23-176.52,65.71-250.91c2.44-74.37-10.7-140.45-39.4-198.19
		C161.87,22.92,119.55-27.55,63.69-70.75c-15.39-11.89-31.57-23.31-48.4-34.33h-46.57C-16.56-95.26-2.38-85.1,11.21-74.6z"/>
	<path class="st3" d="M848.96,1173.48c25.66-47.35,51.96-94.45,78.92-141.26c26.91-46.79,50.74-90.02,71.48-129.68
		c32.19-62.01,56.43-120.7,72.71-176.1c16.27-55.36,21.11-106.28,14.5-152.76c-6.66-46.49-26.4-87.34-59.28-122.61
		c-32.9-35.26-82.07-62.88-147.54-82.88c-2.47-0.78-4.93-1.31-7.39-2c-22.12-6.13-44.05-8.56-65.78-7.16
		c6.88,1.44,13.77,3.13,20.69,5.31c65.47,20,114.64,47.61,147.54,82.88c32.88,35.26,52.63,76.12,59.28,122.61
		c6.61,46.48,1.76,97.4-14.5,152.76c-16.28,55.4-40.53,114.09-72.71,176.1c-20.74,39.66-44.57,82.89-71.48,129.68
		c-26.96,46.81-53.26,93.91-78.92,141.26c-25.68,47.37-49.68,93.57-72.03,138.6c-6.6,13.31-12.67,26.18-18.33,38.72h54.2
		c5.16-11.32,10.68-22.93,16.6-34.87C799.28,1267.05,823.28,1220.86,848.96,1173.48z"/>
	<path class="st4" d="M-227.68-93.27c-8.39-3.92-17.17-7.86-26.41-11.81h-8.45v82.45C-250.81-46.04-239.19-69.59-227.68-93.27z"/>
	<path class="st4" d="M-71.46,1253.94c43.69-14.13,86.52-37.4,128.47-69.9c41.96-32.48,83.16-71.01,123.65-115.63
		c40.47-44.58,78.36-91.11,113.66-139.53c35.31-48.43,67.23-95.28,95.82-140.61c6.57-10.42,12.84-20.43,18.88-30.12
		c0.1-0.1,0.25-0.16,0.35-0.26c23.23-38.52,50.01-78.89,80.3-121.17c30.27-42.26,62.13-80.37,95.59-114.37
		c33.45-33.96,68.17-60.49,104.17-79.61c6.19-3.29,12.38-6.01,18.57-8.49c-24.1,0.46-48.22,6.95-72.36,19.76
		c-36.01,19.12-70.73,45.65-104.17,79.61c-33.47,34-65.32,72.11-95.59,114.37c-30.28,42.28-57.06,82.66-80.3,121.17
		c-0.1,0.11-0.25,0.16-0.35,0.26c-6.04,9.69-12.31,19.7-18.88,30.12c-28.6,45.33-60.51,92.17-95.82,140.61
		c-35.3,48.42-73.2,94.95-113.66,139.53c-40.49,44.62-81.69,83.15-123.65,115.63c-40.31,31.22-81.42,53.83-123.33,68.1
		c0.94-0.06,1.89-0.21,2.83-0.29C-102.23,1261.93-86.97,1258.94-71.46,1253.94z"/>
	<path class="st4" d="M1870.16,1243.33c17.16-48.84,37.1-98.78,59.81-149.77c27.24-61.18,55.54-119.59,84.89-175.24
		c3.41-7.65,4.91-15.36,4.59-23.16c-0.21-4.52-2.48-8.9-6.67-13.14c-3.03-3.06-7.03-6.06-12.13-8.97
		c-17.3-9.21-30.5-7.86-39.63,4.12c-2.78,3.63-5.37,7.38-7.88,11.2c8,5.75,12.22,11.77,12.51,18.06c0.32,7.8-1.18,15.51-4.59,23.16
		c-29.35,55.65-57.66,114.07-84.89,175.24c-22.71,50.99-42.64,100.93-59.81,149.77c-11.41,32.44-19.99,63.2-25.89,92.35h51.58
		C1847.91,1314.5,1857.28,1279.97,1870.16,1243.33z"/>
	<path class="st4" d="M-222.86,1198.88c32.12,12.87,65.82,12.01,101.03-2.28c-16.1,0.06-31.86-2.83-47.24-8.99
		c-33.74-13.48-52.57-32.92-56.52-58.31c-3.97-25.39,1.42-54.63,16.15-87.73c20.39-45.8,44.47-89.59,72.23-131.36
		c27.76-41.76,56.49-83.13,86.15-124.04s58.96-82.75,87.95-125.5c28.94-42.73,53.93-87.67,74.88-134.75
		c41.35-92.88,63.23-176.52,65.71-250.91c2.44-74.37-10.7-140.45-39.4-198.19S67.08-31.4,11.21-74.6
		c-13.6-10.51-27.78-20.66-42.49-30.49h-71.28c21.04,13.29,41.1,27.17,59.98,41.76C13.29-20.13,55.61,30.35,84.31,88.09
		s41.84,123.83,39.4,198.19c-2.48,74.39-24.36,158.03-65.71,250.91c-20.95,47.08-45.94,92.01-74.88,134.75
		c-28.99,42.75-58.28,84.59-87.95,125.5s-58.39,82.28-86.15,124.04c-27.46,41.31-51.29,84.63-71.54,129.89v122.53
		C-253.1,1183.74-239.89,1192.07-222.86,1198.88z"/>
	<path class="st4" d="M796.48,1169.64c25.66-47.35,51.96-94.45,78.92-141.26c26.91-46.79,50.74-90.02,71.48-129.68
		c32.19-62.01,56.43-120.7,72.71-176.1c16.27-55.36,21.12-106.28,14.5-152.76c-6.66-46.49-26.4-87.34-59.28-122.61
		c-32.9-35.26-82.07-62.88-147.54-82.88c-6.92-2.18-13.81-3.87-20.69-5.31c-35.84-7.51-71.15-5.01-105.94,7.39
		c24.04-1.51,48.31,1.47,72.84,9.18c65.47,20,114.64,47.62,147.54,82.88c32.88,35.26,52.63,76.12,59.28,122.61
		c6.61,46.48,1.77,97.4-14.5,152.76c-16.29,55.4-40.53,114.09-72.71,176.1c-20.74,39.66-44.57,82.89-71.48,129.68
		c-26.96,46.81-53.26,93.91-78.92,141.26c-25.68,47.37-49.68,93.57-72.03,138.6c-4.64,9.36-8.99,18.47-13.16,27.45h48.63
		c5.66-12.53,11.72-25.4,18.33-38.72C746.8,1263.2,770.8,1217.01,796.48,1169.64z"/>
	<path class="st4" d="M1585.92,963.29c32.81-61.73,58.04-112.35,75.64-151.88c4.54-10.18,8.46-19.9,11.81-29.1
		c3.31-9.2,1.63-19.11-5.08-29.76c-6.73-10.62-19.74-22.54-39.07-35.72c-19.32-13.19-48.76-28.59-88.25-46.17
		c-34.42-15.32-62.08-26.1-82.96-32.35c-3.26-0.97-6.26-1.7-9.33-2.5c-16.67-4.33-30.8-6.28-42.09-5.51
		c-12.51,0.85-22.72,5.15-30.84,12.6c8.55,1.34,18.03,3.56,28.47,6.67c20.87,6.25,48.54,17.03,82.96,32.35
		c39.49,17.59,68.93,32.98,88.25,46.17c19.33,13.18,32.35,25.1,39.07,35.72c6.72,10.65,8.39,20.56,5.08,29.76
		c-3.35,9.21-7.27,18.92-11.81,29.1c-17.6,39.53-42.83,90.15-75.64,151.88c-32.87,61.76-67.67,127.95-104.47,198.62
		c-29.84,57.26-59.38,115.3-88.74,173.78h48.12c31.21-62.32,62.65-124.11,94.41-185.05
		C1518.25,1091.24,1553.05,1025.05,1585.92,963.29z"/>
	<path class="st5" d="M1816.37,1254.6c17.16-48.84,37.1-98.78,59.81-149.77c27.24-61.18,55.54-119.59,84.89-175.24
		c3.41-7.65,4.91-15.36,4.59-23.16c-0.29-6.29-4.51-12.31-12.51-18.06c-1.9-1.37-3.95-2.72-6.28-4.06
		c-17.3-9.21-30.5-7.85-39.63,4.12c-9.16,11.96-16.84,24.97-23.08,38.97c-39.01,77.34-80.24,157.86-123.61,241.62
		c-31.23,60.26-63.25,119.53-96.01,177.92h125.95C1796.37,1317.8,1804.96,1287.04,1816.37,1254.6z"/>
	<path class="st5" d="M1532.13,974.56c32.81-61.73,58.04-112.35,75.64-151.88c4.54-10.18,8.46-19.9,11.81-29.1
		c3.31-9.2,1.63-19.11-5.08-29.76c-6.73-10.62-19.74-22.54-39.07-35.72c-19.32-13.19-48.76-28.59-88.25-46.17
		c-34.42-15.32-62.08-26.1-82.96-32.35c-10.43-3.11-19.92-5.34-28.47-6.67c-8.6-1.35-16.25-1.79-22.95-1.33
		c-13.4,0.91-24.27,5.63-32.63,14.11c-8.37,8.52-16.61,20.1-24.67,34.84c-19.71,33.99-40.26,70.66-61.59,110.02
		c-21.36,39.39-43.09,80.47-65.2,123.31c-22.15,42.82-43.78,86.27-64.9,130.32c-21.16,44.06-41.07,87.09-59.8,129.16
		c-28.02,45.58-59.47,93.79-94.44,144.65c-4.45,6.48-8.94,12.65-13.4,18.96h402.77c29.36-58.48,58.89-116.52,88.74-173.78
		C1464.46,1102.51,1499.26,1036.32,1532.13,974.56z"/>
	<path class="st5" d="M742.69,1180.91c25.66-47.35,51.96-94.45,78.92-141.26c26.91-46.79,50.74-90.02,71.48-129.68
		c32.19-62.01,56.43-120.7,72.71-176.1c16.27-55.36,21.11-106.28,14.5-152.76c-6.66-46.49-26.4-87.34-59.28-122.61
		c-32.9-35.26-82.07-62.88-147.54-82.88c-24.53-7.71-48.8-10.69-72.84-9.18c-21.85,1.37-43.5,6.43-64.95,15.42
		c-45.06,18.89-88.32,47.38-129.68,85.45c-41.41,38.09-80.21,81.52-116.43,130.29c-9.93,13.37-19.48,26.59-28.79,39.71
		c-4.27,2.73-7.89,6.1-10.65,10.3c-6.91,11.78-15.57,26.24-25.88,43.19c-10.75,16.29-21.18,32.45-30.93,48.35
		c-0.43,0.98-0.65,2-0.68,3.06c-24.07,38.77-51.12,80.19-81.2,124.29c-30.79,45.1-64.67,90.33-101.65,135.71
		c-37.03,45.37-74.76,84.69-113.23,117.97c-30.72,26.53-60.95,47.59-90.73,63.36c-6.24,3.3-12.46,6.38-18.65,9.21
		c-1.31,0.6-2.62,1.26-3.92,1.84c-1.71,0.76-3.4,1.32-5.11,2.01c-35.21,14.28-68.91,15.15-101.03,2.28
		c-17.03-6.81-30.24-15.14-39.67-24.98v83.11c0.02,0.01,0.03,0.01,0.05,0.02c3.85,1.64,7.56,3.34,11.53,4.93
		c40.07,16.27,81.98,17.35,125.7,3.25c1.72-0.56,3.43-1.22,5.15-1.8c41.91-14.26,83.02-36.88,123.33-68.1
		c41.96-32.48,83.16-71.01,123.65-115.63c40.47-44.58,78.36-91.11,113.66-139.53c35.31-48.43,67.23-95.28,95.82-140.61
		c6.57-10.42,12.84-20.43,18.88-30.12c0.1-0.1,0.25-0.16,0.35-0.26c23.23-38.52,50.01-78.89,80.3-121.17
		c30.27-42.26,62.13-80.37,95.59-114.37c33.45-33.96,68.17-60.49,104.17-79.61c24.14-12.81,48.26-19.29,72.36-19.76
		c11.83-0.23,23.65,0.88,35.48,3.62c3.13,0.76,5.47,2.34,7.33,4.41c5.82,6.5,5.47,19.37-1.19,38.75c-1.44,4.2-3.1,8.61-5.12,13.41
		c-14.42,34.06-36.82,77.53-67.21,130.43c-30.39,52.91-64.59,111.78-102.52,176.57c-37.95,64.82-72.06,129.42-102.25,193.87
		c-37.19,76.61-64.43,148.1-81.74,214.46c-12.79,48.93-18.68,94.63-17.82,137.16H657.5c4.17-8.97,8.52-18.09,13.16-27.45
		C693.01,1274.47,717.01,1228.28,742.69,1180.91z"/>
	<path class="st5" d="M-191,921.48c27.76-41.76,56.49-83.13,86.15-124.04s58.96-82.75,87.95-125.5
		c28.94-42.73,53.93-87.67,74.88-134.75c41.35-92.88,63.23-176.52,65.71-250.91c2.44-74.37-10.7-140.45-39.4-198.19
		S13.29-20.13-42.58-63.33c-18.88-14.59-38.94-28.47-59.98-41.76h-151.52c9.24,3.96,18.01,7.89,26.41,11.81
		c16.04,7.49,30.56,14.92,43.51,22.28c9.06,5.15,17.45,10.27,24.99,15.35c5.78,3.89,11.12,7.89,16.17,11.96
		c18.24,14.7,31.79,30.56,40.51,47.56C-91.37,25.62-87.98,50-92.32,77.03c-4.36,27.05-14.44,58.39-30.29,94.01
		c-20.41,45.82-42.75,90-67.03,132.52c-23.82,41.69-48.1,82.8-72.85,123.34c-0.02,0.03-0.03,0.05-0.05,0.08v624.38
		C-242.29,1006.1-218.46,962.79-191,921.48z"/>
</g>
<text transform="matrix(1 0 0 1 1272.4525 165.972)"><tspan x="0" y="0" class="st6 st7 st8 st9">GRA</tspan><tspan x="196.99" y="0" class="st6 st7 st8 st9">P</tspan><tspan x="259.19" y="0" class="st6 st7 st8 st9">HIC DESI</tspan><tspan x="673.85" y="0" class="st6 st7 st8 st9">G</tspan><tspan x="742.58" y="0" class="st6 st7 st8">N</tspan></text>
<text transform="matrix(1 0 0 1 1425.5248 297.0189)"><tspan x="0" y="0" class="st6 st7 st8 st9">I</tspan><tspan x="34.36" y="0" class="st6 st7 st8 st9">L</tspan><tspan x="84.34" y="0" class="st6 st7 st8">L</tspan><tspan x="131.65" y="0" class="st6 st7 st8 st9">U</tspan><tspan x="202.68" y="0" class="st6 st7 st8 st10">S</tspan><tspan x="258.7" y="0" class="st6 st7 st8 st9">TR</tspan><tspan x="371.59" y="0" class="st6 st7 st8">A</tspan><tspan x="432.94" y="0" class="st6 st7 st8 st9">TIO</tspan><tspan x="589.64" y="0" class="st6 st7 st8">N</tspan></text>
</svg>
