<?xml version="1.0" encoding="utf-8"?>
<!-- Generator: Adobe Illustrator 24.3.0, SVG Export Plug-In . SVG Version: 6.00 Build 0)  -->
<svg version="1.1" xmlns="http://www.w3.org/2000/svg" xmlns:xlink="http://www.w3.org/1999/xlink" x="0px" y="0px"
	 viewBox="0 0 612 792" style="enable-background:new 0 0 612 792;" xml:space="preserve">
<style type="text/css">
	.st0{fill:none;}
	.st1{fill:#F8A256;}
	.st2{fill:#5F2756;}
	.st3{fill:#A83B55;}
	.st4{fill:#E14C56;}
	.st5{fill:#F36F56;}
	.st6{fill:#FFFFFF;}
	.st7{font-family:'AvenirNextCondensed-DemiBold';}
	.st8{font-size:29.1429px;}
</style>
<g id="Layer_1">
</g>
<g id="Layer_2">
	<g>
		<polygon class="st0" points="0,446.28 0,467.94 0.01,467.94 0.01,446.29 		"/>
		<path class="st0" d="M0.01,188.38c0,0.01-0.01,0.01-0.01,0.02v57.97c0-0.01,0.01-0.01,0.01-0.02V188.38z"/>
		<path class="st0" d="M80.51,120.9H612v-2.67H76.35C77.75,119.11,79.15,120,80.51,120.9z"/>
		<path class="st1" d="M177.03,383.26c7.27-15.52,15.48-31.08,24.63-46.69c9.14-15.61,17.37-29.78,24.69-42.53
			c7.32-12.74,12.71-23.21,16.19-31.41c0.49-1.16,0.89-2.22,1.23-3.23c-5.01,3.6-9.91,7.81-14.7,12.68
			c-8.06,8.19-15.73,17.37-23.02,27.54c-7.29,10.18-13.74,19.91-19.34,29.18c-0.02,0.03-0.06,0.04-0.08,0.06
			c-1.45,2.33-2.97,4.74-4.55,7.25c-6.89,10.92-14.57,22.2-23.08,33.86c-8.5,11.66-17.63,22.87-27.37,33.6
			c-9.75,10.75-19.67,20.03-29.78,27.85c-10.11,7.83-20.42,13.43-30.94,16.83c-9.2,2.97-18.06,3.14-26.58,0.53
			c-3.16,0-6.27-0.34-9.34-1.05c-0.23,0.02-0.46,0.05-0.68,0.07c-0.41,0.14-0.83,0.3-1.24,0.43c-10.53,3.4-20.62,3.14-30.27-0.78
			c-0.96-0.38-1.85-0.79-2.78-1.19v21.66h153.04c-0.21-10.24,1.21-21.25,4.29-33.04C161.52,418.92,168.08,401.71,177.03,383.26z"/>
		<path class="st1" d="M0.01,188.38v57.97c5.96-9.77,11.81-19.67,17.55-29.71c5.85-10.24,11.23-20.88,16.14-31.92
			c3.82-8.58,6.25-16.13,7.3-22.64c1.04-6.51,0.23-12.38-2.45-17.62c-2.1-4.1-5.36-7.91-9.76-11.45
			c-7.43,15.03-15.04,29.84-22.83,44.4C3.97,181.12,1.99,184.76,0.01,188.38z"/>
		<path class="st1" d="M90.82,128.3c13.45,10.4,23.65,22.56,30.56,36.47c6.91,13.91,10.08,29.82,9.49,47.73
			c-0.6,17.92-5.87,38.06-15.83,60.43c-5.05,11.34-11.06,22.16-18.03,32.45c-6.98,10.3-14.04,20.37-21.18,30.23
			s-14.06,19.82-20.75,29.87c-6.69,10.06-12.49,20.61-17.4,31.64c-3.55,7.97-4.85,15.01-3.89,21.13c0.64,4.09,2.92,7.53,6.77,10.34
			c7.17-3.8,14.45-8.87,21.85-15.26c9.27-8.01,18.35-17.49,27.27-28.41c8.91-10.93,17.07-21.82,24.48-32.69
			c7.24-10.62,13.76-20.6,19.56-29.93c0.01-0.26,0.06-0.5,0.16-0.74c2.35-3.83,4.86-7.72,7.45-11.64c2.48-4.08,4.57-7.56,6.23-10.4
			c0.67-1.01,1.54-1.82,2.57-2.48c2.24-3.16,4.54-6.35,6.93-9.56c8.72-11.75,18.07-22.21,28.04-31.38
			c9.96-9.17,20.38-16.03,31.23-20.58c5.17-2.16,10.38-3.38,15.64-3.71c8.38-2.99,16.88-3.59,25.52-1.78
			c5.23-0.34,10.51,0.25,15.84,1.72c4.64,0.07,9.31,0.8,14.03,2.28c15.77,4.82,27.61,11.47,35.53,19.96
			c7.92,8.49,12.67,18.33,14.28,29.53c1.59,11.19,0.43,23.46-3.49,36.79c-3.92,13.34-9.76,27.48-17.51,42.41
			c-5,9.55-10.73,19.96-17.22,31.23c-6.49,11.27-12.83,22.62-19.01,34.02c-6.19,11.41-11.97,22.53-17.35,33.38
			c-1.12,2.25-2.16,4.44-3.16,6.6h29.26c1.08-1.52,2.16-3.01,3.23-4.57c8.42-12.25,16-23.86,22.75-34.84
			c4.51-10.13,9.31-20.5,14.4-31.11c5.09-10.61,10.29-21.07,15.63-31.39c5.33-10.32,10.56-20.21,15.7-29.7
			c5.14-9.48,10.09-18.31,14.83-26.5c1.94-3.55,3.93-6.34,5.94-8.39c2.01-2.04,4.63-3.18,7.86-3.4c1.61-0.11,3.46,0,5.53,0.32
			c1.95-1.79,4.41-2.83,7.43-3.04c2.72-0.19,6.12,0.28,10.14,1.33c0.79-0.2,1.62-0.34,2.5-0.4c3.14-0.22,7.16,0.41,12.03,1.83
			c0.08-0.01,0.14-0.03,0.22-0.03c3.22-0.22,7.34,0.43,12.38,1.93c5.03,1.51,11.69,4.1,19.98,7.79c9.51,4.24,16.6,7.94,21.25,11.12
			c4.66,3.17,7.79,6.04,9.41,8.6c1.62,2.56,2.02,4.95,1.22,7.17c-0.81,2.22-1.75,4.56-2.84,7.01c-4.24,9.52-10.31,21.71-18.22,36.58
			c-7.92,14.87-16.3,30.82-25.16,47.84c-7.19,13.79-14.3,27.76-21.36,41.84h40.57c7.89-14.06,15.6-28.34,23.12-42.85
			c10.45-20.17,20.38-39.57,29.77-58.19c1.5-3.37,3.35-6.51,5.56-9.39c2.2-2.89,5.38-3.21,9.54-0.99c0.56,0.32,1.06,0.65,1.51,0.98
			c0.6-0.92,1.23-1.82,1.9-2.7c2.2-2.89,5.38-3.21,9.54-0.99c1.23,0.7,2.19,1.42,2.92,2.16c0.06-0.08,0.11-0.16,0.17-0.24
			c2.2-2.89,5.38-3.21,9.54-0.99c1.33,0.76,2.36,1.55,3.1,2.35c2.18-2.44,5.22-2.64,9.15-0.55c2.93,1.68,4.44,3.45,4.53,5.33
			c0.08,1.88-0.28,3.74-1.1,5.58c-7.07,13.4-13.89,27.47-20.45,42.21c-5.47,12.28-10.27,24.31-14.41,36.07
			c-2.74,7.81-4.81,15.21-6.23,22.23H612V120.9H80.51C84.08,123.29,87.52,125.75,90.82,128.3z"/>
		<path class="st2" d="M78.57,126.5c13.45,10.4,23.64,22.56,30.56,36.47c6.91,13.91,10.08,29.82,9.49,47.73
			c-0.6,17.92-5.87,38.06-15.83,60.43c-5.05,11.34-11.06,22.16-18.03,32.45c-6.98,10.3-14.04,20.37-21.18,30.23
			s-14.06,19.82-20.75,29.87c-6.69,10.06-12.49,20.61-17.4,31.64c-3.55,7.97-4.85,15.01-3.89,21.13c0.95,6.11,5.49,10.8,13.61,14.04
			c0.3,0.12,0.61,0.2,0.91,0.31c1.49-0.68,2.99-1.42,4.49-2.22c-3.85-2.81-6.13-6.25-6.77-10.34c-0.96-6.12,0.34-13.16,3.89-21.13
			c4.91-11.03,10.71-21.58,17.4-31.64c6.69-10.06,13.6-20.02,20.75-29.87s14.2-19.93,21.18-30.23
			c6.97-10.29,12.99-21.11,18.03-32.45c9.96-22.37,15.23-42.51,15.83-60.43c0.59-17.91-2.58-33.83-9.49-47.73
			c-6.91-13.91-17.1-26.06-30.56-36.47c-3.3-2.55-6.74-5.01-10.31-7.4c-1.36-0.91-2.76-1.79-4.16-2.67h-9.44
			C70.96,120.88,74.86,123.63,78.57,126.5z"/>
		<path class="st2" d="M279.95,427.97c6.18-11.4,12.51-22.75,19.01-34.02c6.48-11.27,12.22-21.68,17.22-31.23
			c7.75-14.94,13.59-29.07,17.51-42.41c3.92-13.33,5.09-25.6,3.49-36.79c-1.6-11.2-6.36-21.04-14.28-29.53
			c-7.92-8.49-19.77-15.14-35.53-19.96c-4.71-1.48-9.39-2.21-14.03-2.28c0.59,0.16,1.19,0.29,1.78,0.48
			c15.77,4.82,27.61,11.47,35.53,19.96c7.92,8.49,12.67,18.33,14.28,29.53c1.59,11.19,0.43,23.46-3.49,36.79
			c-3.92,13.34-9.76,27.48-17.51,42.41c-5,9.55-10.73,19.96-17.22,31.23c-6.49,11.27-12.83,22.62-19.01,34.02
			c-6.19,11.41-11.97,22.53-17.35,33.38c-1.43,2.88-2.76,5.67-4,8.4h13.08c1-2.16,2.05-4.35,3.16-6.6
			C267.98,450.5,273.76,439.37,279.95,427.97z"/>
		<path class="st2" d="M216.83,270.27c-8.06,8.19-15.73,17.37-23.02,27.54c-7.29,10.18-13.74,19.91-19.34,29.18
			c-0.02,0.03-0.06,0.04-0.08,0.06c-1.45,2.33-2.97,4.74-4.55,7.25c-6.89,10.92-14.57,22.2-23.08,33.86
			c-8.5,11.66-17.63,22.87-27.37,33.6c-9.75,10.75-19.68,20.03-29.78,27.85c-10.11,7.83-20.42,13.43-30.94,16.83
			c-4.87,1.57-9.65,2.33-14.34,2.33c8.53,2.61,17.39,2.44,26.58-0.53c10.52-3.4,20.84-9.01,30.94-16.83
			c10.11-7.82,20.03-17.1,29.78-27.85c9.75-10.74,18.87-21.94,27.37-33.6c8.5-11.66,16.19-22.95,23.08-33.86
			c1.58-2.51,3.09-4.92,4.55-7.25c0.02-0.02,0.06-0.04,0.08-0.06c5.6-9.28,12.05-19,19.34-29.18c7.29-10.18,14.96-19.36,23.02-27.54
			c4.79-4.86,9.69-9.08,14.7-12.68c1.6-4.67,1.69-7.77,0.29-9.33c-0.71,0.33-1.43,0.66-2.14,1.03
			C233.24,255.7,224.88,262.09,216.83,270.27z"/>
		<path class="st2" d="M470.08,378.27c7.9-14.87,13.98-27.06,18.22-36.58c1.09-2.45,2.04-4.79,2.84-7.01
			c0.8-2.21,0.39-4.6-1.22-7.17c-1.62-2.56-4.76-5.43-9.41-8.6c-4.65-3.18-11.74-6.89-21.25-11.12c-8.29-3.69-14.95-6.29-19.98-7.79
			c-5.04-1.5-9.17-2.15-12.38-1.93c-0.08,0.01-0.14,0.03-0.22,0.03c0.12,0.04,0.23,0.06,0.35,0.09c5.03,1.51,11.69,4.1,19.98,7.79
			c9.51,4.24,16.6,7.94,21.25,11.12c4.66,3.17,7.79,6.04,9.41,8.6c1.62,2.56,2.02,4.95,1.22,7.17c-0.81,2.22-1.75,4.56-2.84,7.01
			c-4.24,9.52-10.31,21.71-18.22,36.58c-7.92,14.87-16.3,30.82-25.16,47.84c-7.49,14.38-14.91,28.95-22.27,43.64h13.16
			c7.07-14.08,14.18-28.05,21.36-41.84C453.78,409.08,462.16,393.14,470.08,378.27z"/>
		<path class="st2" d="M552.94,409.64c6.56-14.73,13.38-28.8,20.45-42.21c0.82-1.84,1.18-3.7,1.1-5.58
			c-0.09-1.87-1.6-3.65-4.53-5.33c-3.93-2.09-6.97-1.89-9.15,0.55c0.89,0.96,1.37,1.95,1.42,2.97c0.08,1.88-0.28,3.74-1.11,5.58
			c-7.07,13.4-13.89,27.47-20.45,42.21c-5.47,12.28-10.27,24.31-14.4,36.07c-2.98,8.48-5.17,16.48-6.59,24.03h12.6
			c1.42-7.02,3.49-14.42,6.23-22.23C542.67,433.95,547.47,421.92,552.94,409.64z"/>
		<path class="st2" d="M5.95,177.42c7.8-14.57,15.41-29.37,22.83-44.4c-1.22-0.98-2.5-1.94-3.89-2.88c-1.82-1.22-3.84-2.46-6.02-3.7
			c-6.16,12.58-12.45,25-18.87,37.26v24.7c0-0.01,0.01-0.01,0.01-0.02C1.99,184.76,3.97,181.12,5.95,177.42z"/>
		<path class="st3" d="M229.28,250.17c-8.67,4.6-17.03,10.99-25.09,19.17c-8.06,8.19-15.73,17.37-23.02,27.54
			c-7.29,10.18-13.74,19.91-19.34,29.18c-0.02,0.03-0.06,0.04-0.08,0.06c-1.45,2.33-2.97,4.74-4.55,7.25
			c-6.89,10.92-14.57,22.2-23.08,33.86c-8.5,11.66-17.63,22.87-27.37,33.6c-9.75,10.75-19.67,20.03-29.78,27.85
			c-10.11,7.83-20.42,13.43-30.94,16.83c-3.73,1.2-7.41,1.93-11.03,2.21c3.07,0.71,6.18,1.05,9.34,1.05
			c4.69-0.01,9.46-0.76,14.34-2.33c10.52-3.4,20.84-9.01,30.94-16.83c10.1-7.82,20.03-17.1,29.78-27.85
			c9.75-10.74,18.87-21.94,27.37-33.6c8.5-11.66,16.19-22.95,23.08-33.86c1.58-2.51,3.09-4.92,4.55-7.25
			c0.02-0.02,0.06-0.04,0.08-0.06c5.6-9.28,12.05-19,19.34-29.18c7.29-10.18,14.96-19.36,23.02-27.54
			c8.06-8.18,16.42-14.57,25.09-19.17c0.71-0.38,1.43-0.7,2.14-1.03c-0.45-0.5-1.01-0.88-1.76-1.06c-2.85-0.66-5.7-0.93-8.54-0.87
			C232.26,248.72,230.77,249.38,229.28,250.17z"/>
		<path class="st3" d="M457.83,376.47c7.9-14.87,13.98-27.06,18.22-36.58c1.09-2.45,2.04-4.79,2.84-7.01
			c0.8-2.21,0.39-4.6-1.22-7.17c-1.62-2.56-4.76-5.43-9.41-8.6c-4.65-3.18-11.74-6.89-21.25-11.12c-8.29-3.69-14.95-6.29-19.98-7.79
			c-0.12-0.04-0.23-0.06-0.35-0.09c-4.87-1.43-8.89-2.05-12.03-1.83c-0.88,0.06-1.71,0.2-2.5,0.4c0.74,0.19,1.46,0.37,2.25,0.6
			c5.03,1.51,11.69,4.1,19.98,7.79c9.51,4.24,16.6,7.94,21.25,11.12c4.66,3.17,7.79,6.04,9.41,8.6c1.62,2.56,2.02,4.95,1.22,7.17
			c-0.81,2.22-1.75,4.56-2.84,7.01c-4.24,9.52-10.31,21.71-18.22,36.58c-7.92,14.88-16.3,30.82-25.16,47.84
			c-7.65,14.68-15.22,29.56-22.74,44.57h13.11c7.36-14.69,14.78-29.27,22.27-43.64C441.53,407.28,449.91,391.34,457.83,376.47z"/>
		<path class="st3" d="M540.69,407.84c6.56-14.73,13.38-28.8,20.45-42.21c0.82-1.84,1.18-3.7,1.11-5.58
			c-0.05-1.02-0.53-2.01-1.42-2.97c-0.75-0.8-1.77-1.59-3.1-2.35c-4.17-2.22-7.35-1.89-9.54,0.99c-0.06,0.08-0.11,0.16-0.17,0.24
			c1.01,1.02,1.56,2.08,1.61,3.16c0.08,1.88-0.28,3.74-1.1,5.58c-7.07,13.4-13.89,27.47-20.45,42.21
			c-5.47,12.28-10.27,24.31-14.4,36.07c-3.1,8.82-5.36,17.14-6.77,24.96h12.82c1.42-7.55,3.61-15.55,6.59-24.03
			C530.42,432.15,535.22,420.12,540.69,407.84z"/>
		<path class="st3" d="M18.87,126.44c-3.12-1.77-6.62-3.56-10.48-5.37c-2.77,5.7-5.57,11.38-8.4,17.01v25.61
			C6.42,151.44,12.71,139.02,18.87,126.44z"/>
		<path class="st3" d="M65.93,125.57c13.45,10.4,23.65,22.56,30.56,36.47c6.91,13.91,10.08,29.82,9.49,47.73
			c-0.6,17.92-5.87,38.06-15.83,60.43c-5.05,11.34-11.06,22.16-18.03,32.45c-6.98,10.3-14.04,20.37-21.18,30.23
			s-14.06,19.82-20.75,29.87c-6.69,10.06-12.49,20.61-17.4,31.64c-3.55,7.97-4.85,15.01-3.89,21.13c0.95,6.12,5.49,10.8,13.61,14.04
			c3.71,1.48,7.5,2.18,11.38,2.17c0.41-0.17,0.82-0.3,1.23-0.48c0.31-0.14,0.63-0.3,0.94-0.44c-0.3-0.11-0.61-0.19-0.91-0.31
			c-8.13-3.25-12.66-7.93-13.61-14.04c-0.96-6.12,0.34-13.16,3.89-21.13c4.91-11.03,10.71-21.58,17.4-31.64
			c6.69-10.06,13.6-20.02,20.75-29.87s14.2-19.93,21.18-30.23c6.97-10.29,12.99-21.11,18.03-32.45
			c9.96-22.37,15.23-42.51,15.83-60.43c0.59-17.91-2.58-33.83-9.49-47.73c-6.91-13.91-17.1-26.06-30.56-36.47
			c-3.71-2.86-7.6-5.61-11.66-8.27H55.7C59.24,120.6,62.66,123.04,65.93,125.57z"/>
		<path class="st3" d="M267.7,426.16c6.18-11.4,12.51-22.75,19.01-34.02c6.48-11.27,12.22-21.68,17.22-31.23
			c7.75-14.94,13.59-29.07,17.51-42.41c3.92-13.33,5.09-25.6,3.49-36.79c-1.6-11.2-6.36-21.04-14.28-29.53
			c-7.92-8.49-19.77-15.14-35.53-19.96c-0.59-0.19-1.19-0.32-1.78-0.48c-5.33-1.48-10.61-2.06-15.84-1.72
			c1.66,0.35,3.32,0.75,4.98,1.28c15.77,4.82,27.61,11.47,35.53,19.96c7.92,8.49,12.67,18.33,14.28,29.53
			c1.59,11.19,0.42,23.46-3.49,36.79c-3.92,13.34-9.76,27.48-17.51,42.41c-5,9.55-10.73,19.96-17.22,31.23
			c-6.49,11.27-12.83,22.62-19.01,34.02c-6.19,11.41-11.97,22.53-17.35,33.38c-1.59,3.21-3.05,6.31-4.41,9.32h13.05
			c1.24-2.73,2.57-5.52,4-8.4C255.73,448.7,261.51,437.57,267.7,426.16z"/>
		<path class="st4" d="M8.4,121.07c-2.02-0.94-4.13-1.89-6.36-2.85H0v19.86C2.82,132.45,5.62,126.78,8.4,121.07z"/>
		<path class="st4" d="M46.02,445.54c10.52-3.4,20.84-9.01,30.94-16.83c10.11-7.82,20.03-17.1,29.78-27.85
			c9.75-10.74,18.87-21.94,27.37-33.6c8.5-11.66,16.19-22.95,23.08-33.86c1.58-2.51,3.09-4.92,4.55-7.25
			c0.02-0.02,0.06-0.04,0.08-0.06c5.6-9.28,12.05-19,19.34-29.18c7.29-10.18,14.96-19.36,23.02-27.54
			c8.06-8.18,16.42-14.57,25.09-19.17c1.49-0.79,2.98-1.45,4.47-2.04c-5.8,0.11-11.61,1.67-17.43,4.76
			c-8.67,4.6-17.03,10.99-25.09,19.17c-8.06,8.19-15.73,17.37-23.02,27.54c-7.29,10.18-13.74,19.91-19.34,29.18
			c-0.02,0.03-0.06,0.04-0.08,0.06c-1.45,2.33-2.97,4.74-4.55,7.25c-6.89,10.92-14.57,22.2-23.08,33.86
			c-8.5,11.66-17.63,22.87-27.37,33.6c-9.75,10.75-19.67,20.03-29.78,27.85c-9.71,7.52-19.61,12.97-29.7,16.4
			c0.23-0.01,0.46-0.05,0.68-0.07C38.61,447.47,42.28,446.74,46.02,445.54z"/>
		<path class="st4" d="M513.64,442.99c4.13-11.76,8.93-23.79,14.4-36.07c6.56-14.73,13.38-28.8,20.45-42.21
			c0.82-1.84,1.18-3.7,1.1-5.58c-0.05-1.09-0.6-2.14-1.61-3.16c-0.73-0.74-1.69-1.46-2.92-2.16c-4.17-2.22-7.35-1.89-9.54,0.99
			c-0.67,0.87-1.29,1.78-1.9,2.7c1.93,1.39,2.94,2.83,3.01,4.35c0.08,1.88-0.28,3.74-1.1,5.58c-7.07,13.4-13.89,27.47-20.45,42.21
			c-5.47,12.28-10.27,24.31-14.4,36.07c-2.75,7.81-4.82,15.22-6.24,22.24h12.42C508.29,460.13,510.54,451.81,513.64,442.99z"/>
		<path class="st4" d="M9.55,432.28c7.74,3.1,15.85,2.89,24.33-0.55c-3.88,0.02-7.67-0.68-11.38-2.17
			c-8.13-3.25-12.66-7.93-13.61-14.04c-0.96-6.12,0.34-13.16,3.89-21.13c4.91-11.03,10.71-21.58,17.4-31.64
			c6.69-10.06,13.6-20.02,20.75-29.87s14.2-19.93,21.18-30.23c6.97-10.29,12.99-21.11,18.03-32.45
			c9.96-22.37,15.23-42.51,15.83-60.43c0.59-17.91-2.58-33.83-9.49-47.73c-6.91-13.91-17.1-26.06-30.56-36.47
			c-3.27-2.53-6.69-4.98-10.23-7.34H38.53c5.07,3.2,9.9,6.54,14.45,10.06c13.45,10.4,23.65,22.56,30.56,36.47
			s10.08,29.82,9.49,47.73c-0.6,17.92-5.87,38.06-15.83,60.43c-5.05,11.34-11.06,22.16-18.03,32.45
			c-6.98,10.3-14.04,20.37-21.18,30.23c-7.14,9.85-14.06,19.82-20.75,29.87C10.62,375.42,4.88,385.85,0,396.75v29.51
			C2.27,428.63,5.45,430.64,9.55,432.28z"/>
		<path class="st4" d="M255.06,425.24c6.18-11.4,12.51-22.75,19.01-34.02c6.48-11.27,12.22-21.68,17.22-31.23
			c7.75-14.94,13.59-29.07,17.51-42.41c3.92-13.33,5.09-25.6,3.49-36.79c-1.6-11.2-6.36-21.04-14.28-29.53
			c-7.92-8.49-19.77-15.14-35.53-19.96c-1.67-0.52-3.33-0.93-4.98-1.28c-8.63-1.81-17.14-1.21-25.52,1.78
			c5.79-0.36,11.64,0.35,17.54,2.21c15.77,4.82,27.61,11.47,35.53,19.96c7.92,8.49,12.67,18.33,14.28,29.53
			c1.59,11.19,0.43,23.46-3.49,36.79c-3.92,13.34-9.76,27.48-17.51,42.41c-5,9.55-10.73,19.96-17.22,31.23
			c-6.49,11.27-12.83,22.62-19.01,34.02c-6.19,11.41-11.97,22.53-17.35,33.38c-1.12,2.25-2.17,4.45-3.17,6.61h11.71
			c1.36-3.02,2.82-6.12,4.41-9.32C243.09,447.77,248.87,436.65,255.06,425.24z"/>
		<path class="st4" d="M445.19,375.54c7.9-14.87,13.98-27.06,18.22-36.58c1.09-2.45,2.04-4.79,2.84-7.01
			c0.8-2.21,0.39-4.6-1.22-7.17c-1.62-2.56-4.76-5.43-9.41-8.6c-4.65-3.18-11.74-6.88-21.25-11.12c-8.29-3.69-14.95-6.29-19.98-7.79
			c-0.78-0.23-1.51-0.41-2.25-0.6c-4.01-1.04-7.42-1.51-10.14-1.33c-3.01,0.2-5.47,1.24-7.43,3.04c2.06,0.32,4.34,0.86,6.86,1.61
			c5.03,1.51,11.69,4.1,19.98,7.79c9.51,4.24,16.6,7.94,21.25,11.12c4.66,3.17,7.79,6.04,9.41,8.6c1.62,2.56,2.02,4.95,1.22,7.17
			c-0.81,2.22-1.75,4.56-2.84,7.01c-4.24,9.52-10.31,21.71-18.22,36.58c-7.92,14.88-16.3,30.82-25.16,47.84
			c-7.19,13.79-14.3,27.77-21.37,41.85h11.59c7.52-15.01,15.09-29.89,22.74-44.57C428.89,406.36,437.27,390.41,445.19,375.54z"/>
		<path class="st5" d="M500.69,445.7c4.13-11.76,8.93-23.79,14.4-36.07c6.56-14.73,13.38-28.8,20.45-42.21
			c0.82-1.84,1.18-3.7,1.1-5.58c-0.07-1.51-1.09-2.96-3.01-4.35c-0.46-0.33-0.95-0.66-1.51-0.98c-4.17-2.22-7.35-1.89-9.54,0.99
			c-2.21,2.88-4.06,6.01-5.56,9.39c-9.4,18.63-19.32,38.02-29.77,58.19c-7.52,14.51-15.23,28.79-23.12,42.85h30.33
			C495.87,460.92,497.94,453.51,500.69,445.7z"/>
		<path class="st5" d="M432.23,378.25c7.9-14.87,13.98-27.06,18.22-36.58c1.09-2.45,2.04-4.79,2.84-7.01
			c0.8-2.21,0.39-4.6-1.22-7.17c-1.62-2.56-4.76-5.43-9.41-8.6c-4.65-3.18-11.74-6.89-21.25-11.12c-8.29-3.69-14.95-6.29-19.98-7.79
			c-2.51-0.75-4.8-1.28-6.86-1.61c-2.07-0.32-3.91-0.43-5.53-0.32c-3.23,0.22-5.85,1.36-7.86,3.4c-2.02,2.05-4,4.84-5.94,8.39
			c-4.75,8.19-9.7,17.02-14.83,26.5c-5.14,9.49-10.38,19.38-15.7,29.7c-5.34,10.31-10.54,20.78-15.63,31.39
			c-5.1,10.61-9.89,20.98-14.4,31.11c-6.75,10.98-14.32,22.59-22.75,34.84c-1.07,1.56-2.15,3.05-3.23,4.57h97.01
			c7.07-14.08,14.18-28.06,21.37-41.85C415.93,409.07,424.32,393.13,432.23,378.25z"/>
		<path class="st5" d="M242.1,427.95c6.18-11.4,12.51-22.75,19.01-34.02c6.48-11.27,12.22-21.68,17.22-31.23
			c7.75-14.94,13.59-29.07,17.51-42.41c3.92-13.33,5.09-25.6,3.49-36.79c-1.6-11.2-6.36-21.04-14.28-29.53
			c-7.92-8.49-19.77-15.14-35.53-19.96c-5.91-1.86-11.75-2.58-17.54-2.21c-5.26,0.33-10.48,1.55-15.64,3.71
			c-10.85,4.55-21.27,11.41-31.23,20.58c-9.97,9.17-19.32,19.63-28.04,31.38c-2.39,3.22-4.69,6.4-6.93,9.56
			c-1.03,0.66-1.9,1.47-2.57,2.48c-1.66,2.84-3.75,6.32-6.23,10.4c-2.59,3.92-5.1,7.82-7.45,11.64c-0.1,0.24-0.16,0.48-0.16,0.74
			c-5.8,9.34-12.31,19.31-19.56,29.93c-7.41,10.86-15.57,21.76-24.48,32.69c-8.92,10.93-18.01,20.4-27.27,28.41
			c-7.4,6.39-14.68,11.46-21.85,15.26c-1.5,0.8-3,1.54-4.49,2.22c-0.31,0.14-0.63,0.3-0.94,0.44c-0.41,0.18-0.82,0.32-1.23,0.48
			c-8.48,3.44-16.6,3.65-24.33,0.55c-4.1-1.64-7.28-3.65-9.55-6.02v20.02c0,0,0.01,0,0.01,0.01c0.93,0.4,1.82,0.81,2.78,1.19
			c9.65,3.92,19.74,4.18,30.27,0.78c0.41-0.13,0.83-0.29,1.24-0.43c10.09-3.44,20-8.88,29.7-16.4c10.11-7.82,20.03-17.1,29.78-27.85
			c9.75-10.74,18.87-21.94,27.37-33.6c8.5-11.66,16.19-22.95,23.08-33.86c1.58-2.51,3.09-4.92,4.55-7.25
			c0.02-0.02,0.06-0.04,0.08-0.06c5.6-9.28,12.05-19,19.34-29.18c7.29-10.18,14.96-19.36,23.02-27.54
			c8.06-8.18,16.42-14.57,25.09-19.17c5.81-3.09,11.62-4.65,17.43-4.76c2.85-0.05,5.7,0.21,8.54,0.87c0.75,0.18,1.32,0.56,1.76,1.06
			c1.4,1.57,1.32,4.66-0.29,9.33c-0.35,1.01-0.75,2.07-1.23,3.23c-3.47,8.2-8.87,18.67-16.19,31.41
			c-7.32,12.74-15.55,26.92-24.69,42.53c-9.14,15.61-17.35,31.17-24.63,46.69c-8.96,18.45-15.52,35.67-19.69,51.65
			c-3.08,11.78-4.5,22.79-4.29,33.04h68.53c1.01-2.16,2.05-4.36,3.17-6.61C230.14,450.49,235.92,439.36,242.1,427.95z"/>
		<path class="st5" d="M17.23,365.47c6.69-10.06,13.6-20.02,20.75-29.87c7.14-9.85,14.2-19.93,21.18-30.23
			c6.97-10.29,12.99-21.11,18.03-32.45c9.96-22.37,15.23-42.51,15.83-60.43c0.59-17.91-2.58-33.83-9.49-47.73
			s-17.1-26.06-30.56-36.47c-4.55-3.51-9.38-6.86-14.45-10.06H2.04c2.23,0.95,4.34,1.9,6.36,2.85c3.86,1.8,7.36,3.59,10.48,5.37
			c2.18,1.24,4.2,2.47,6.02,3.7c1.39,0.94,2.68,1.9,3.89,2.88c4.39,3.54,7.66,7.36,9.76,11.45c2.68,5.24,3.49,11.11,2.45,17.62
			c-1.05,6.52-3.48,14.06-7.3,22.64c-4.92,11.04-10.3,21.67-16.14,31.92c-5.74,10.04-11.58,19.94-17.55,29.71
			c0,0.01-0.01,0.01-0.01,0.02v150.38C4.88,385.85,10.62,375.42,17.23,365.47z"/>
	</g>
</g>
<g id="Layer_3">
	<text transform="matrix(1 0 0 1 369.6924 183.5112)"><tspan x="0" y="0" class="st6 st7 st8">GRA</tspan><tspan x="47.44" y="0" class="st6 st7 st8">P</tspan><tspan x="62.42" y="0" class="st6 st7 st8">HIC DESI</tspan><tspan x="162.29" y="0" class="st6 st7 st8">G</tspan><tspan x="178.85" y="0" class="st6 st7 st8">N</tspan></text>
	<text transform="matrix(1 0 0 1 406.5586 215.0728)"><tspan x="0" y="0" class="st6 st7 st8">I</tspan><tspan x="8.28" y="0" class="st6 st7 st8">L</tspan><tspan x="20.31" y="0" class="st6 st7 st8">L</tspan><tspan x="31.71" y="0" class="st6 st7 st8">U</tspan><tspan x="48.81" y="0" class="st6 st7 st8">S</tspan><tspan x="62.31" y="0" class="st6 st7 st8">TR</tspan><tspan x="89.5" y="0" class="st6 st7 st8">A</tspan><tspan x="104.27" y="0" class="st6 st7 st8">TIO</tspan><tspan x="142.01" y="0" class="st6 st7 st8">N</tspan></text>
</g>
</svg>
