<?xml version="1.0" encoding="utf-8"?>
<!-- Generator: Adobe Illustrator 24.3.0, SVG Export Plug-In . SVG Version: 6.00 Build 0)  -->
<svg version="1.1" id="Layer_1" xmlns="http://www.w3.org/2000/svg" xmlns:xlink="http://www.w3.org/1999/xlink" x="0px" y="0px"
	 viewBox="0 0 135.72 135.45" style="enable-background:new 0 0 135.72 135.45;" xml:space="preserve">
<style type="text/css">
	.st0{clip-path:url(#SVGID_2_);fill:none;stroke:#FFFFFF;stroke-width:10;}
	.st1{clip-path:url(#SVGID_2_);fill:#FFFFFF;}
</style>
<g id="Layer_3">
</g>
<g>
	<defs>
		<rect id="SVGID_1_" x="5.99" y="5.98" width="123.74" height="123.5"/>
	</defs>
	<clipPath id="SVGID_2_">
		<use xlink:href="#SVGID_1_"  style="overflow:visible;"/>
	</clipPath>
	<path class="st0" d="M47.95,13.24c-19.16,0-34.7,15.5-34.7,34.62v39.72c0,19.12,15.54,34.62,34.7,34.62h39.82
		c19.16,0,34.7-15.5,34.7-34.62V47.87c0-19.12-15.54-34.62-34.7-34.62H47.95z"/>
	<path class="st0" d="M68.4,94.18c13.69,0,24.78-11.06,24.78-24.71c0-13.65-11.09-24.71-24.78-24.71S43.62,55.82,43.62,69.47
		C43.62,83.11,54.71,94.18,68.4,94.18z"/>
	<path class="st1" d="M100.84,43.17c4.16,0,7.53-3.36,7.53-7.51s-3.37-7.5-7.53-7.5c-4.16,0-7.53,3.36-7.53,7.5
		S96.68,43.17,100.84,43.17"/>
</g>
</svg>
