<?xml version="1.0" encoding="utf-8"?>
<!-- Generator: Adobe Illustrator 24.3.0, SVG Export Plug-In . SVG Version: 6.00 Build 0)  -->
<svg version="1.1" id="Layer_1" xmlns="http://www.w3.org/2000/svg" xmlns:xlink="http://www.w3.org/1999/xlink" x="0px" y="0px"
	 viewBox="0 0 612 792" style="enable-background:new 0 0 612 792;" xml:space="preserve">
<style type="text/css">
	.st0{clip-path:url(#SVGID_2_);fill:#FFFFFF;}
</style>
<g>
	<defs>
		<rect id="SVGID_1_" x="299.05" y="388.64" width="14.93" height="14.72"/>
	</defs>
	<clipPath id="SVGID_2_">
		<use xlink:href="#SVGID_1_"  style="overflow:visible;"/>
	</clipPath>
	<path class="st0" d="M304.25,403.36h3.19v-5.91c0-0.29,0.04-0.61,0.13-0.8c0.21-0.59,0.73-1.2,1.61-1.2c1.15,0,1.61,0.9,1.61,2.22
		v5.68h3.19v-6.08c0-3.02-1.57-4.4-3.67-4.4c-1.7,0-2.75,0.99-3.17,1.64h-0.06l-0.15-1.4h-2.77c0.04,0.9,0.08,1.99,0.08,3.27V403.36
		z M300.72,388.64c-1.03,0-1.7,0.69-1.68,1.61c-0.02,0.88,0.65,1.59,1.66,1.59c1.05,0,1.72-0.71,1.72-1.59
		C302.4,389.33,301.75,388.64,300.72,388.64 M302.32,393.11h-3.19v10.25h3.19V393.11z"/>
</g>
</svg>
