<?xml version="1.0" encoding="utf-8"?>
<!-- Generator: Adobe Illustrator 24.3.0, SVG Export Plug-In . SVG Version: 6.00 Build 0)  -->
<svg version="1.1" id="Layer_1" xmlns="http://www.w3.org/2000/svg" xmlns:xlink="http://www.w3.org/1999/xlink" x="0px" y="0px"
	 viewBox="0 0 190.32 187.64" style="enable-background:new 0 0 190.32 187.64;" xml:space="preserve">
<style type="text/css">
	.st0{clip-path:url(#SVGID_2_);fill:#FFFFFF;}
</style>
<g id="Layer_2_1_">
</g>
<g id="Layer_1_1_">
	<g>
		<g>
			<defs>
				<rect id="SVGID_1_" x="5.65" y="5.57" width="179.02" height="176.5"/>
			</defs>
			<clipPath id="SVGID_2_">
				<use xlink:href="#SVGID_1_"  style="overflow:visible;"/>
			</clipPath>
			<path class="st0" d="M68,182.07h38.22v-70.9c0-3.52,0.51-7.29,1.51-9.55c2.5-7.04,8.79-14.34,19.36-14.34
				c13.83,0,19.36,10.81,19.36,26.65v68.13h38.22v-72.92c0-36.2-18.87-52.8-44-52.8c-20.36,0-32.93,11.81-37.97,19.61h-0.75
				l-1.75-16.84H67C67.51,69.93,68,83,68,98.34V182.07z M25.78,5.57c-12.33,0-20.36,8.3-20.12,19.36
				c-0.24,10.56,7.8,19.11,19.88,19.11c12.57,0,20.62-8.55,20.62-19.11C45.89,13.87,38.09,5.57,25.78,5.57 M44.88,59.13H6.67v122.94
				h38.22V59.13z"/>
		</g>
	</g>
</g>
</svg>
