<?xml version="1.0" encoding="utf-8"?>
<!-- Generator: Adobe Illustrator 24.3.0, SVG Export Plug-In . SVG Version: 6.00 Build 0)  -->
<svg version="1.1" id="Capa_1" xmlns="http://www.w3.org/2000/svg" xmlns:xlink="http://www.w3.org/1999/xlink" x="0px" y="0px"
	 viewBox="0 0 438.5 438.5" style="enable-background:new 0 0 438.5 438.5;" xml:space="preserve">
<g>
	<g>
		<rect x="138.7" y="169.5" width="35.5" height="106.6"/>
		<path d="M290.7,179.3c-7.5-8.1-17.3-12.2-29.6-12.2c-4.5,0-8.6,0.6-12.3,1.7c-3.7,1.1-6.8,2.7-9.4,4.7c-2.5,2-4.6,3.9-6.1,5.6
			c-1.4,1.6-2.8,3.5-4.2,5.7v-15.2h-35.4l0.1,5.2c0.1,3.4,0.1,14.1,0.1,31.8c0,17.8-0.1,41-0.2,69.6h35.4v-59.5
			c0-3.7,0.4-6.6,1.2-8.7c1.5-3.7,3.8-6.7,6.8-9.2c3-2.5,6.8-3.7,11.3-3.7c6.2,0,10.7,2.1,13.6,6.4c2.9,4.3,4.4,10.2,4.4,17.7v57
			h35.4V215C301.9,199.3,298.1,187.4,290.7,179.3z"/>
		<path d="M156.7,118.2c-6,0-10.8,1.7-14.5,5.2c-3.7,3.5-5.5,7.9-5.5,13.2c0,5.2,1.8,9.6,5.4,13.1c3.6,3.5,8.3,5.3,14.2,5.3h0.2
			c6,0,10.9-1.8,14.6-5.3c3.7-3.5,5.5-7.9,5.4-13.1c-0.1-5.3-1.9-9.7-5.5-13.2C167.4,120,162.6,118.2,156.7,118.2z"/>
	</g>
</g>
</svg>
