<?xml version="1.0" encoding="utf-8"?>
<!-- Generator: Adobe Illustrator 24.3.0, SVG Export Plug-In . SVG Version: 6.00 Build 0)  -->
<svg version="1.1" id="Layer_1" xmlns="http://www.w3.org/2000/svg" xmlns:xlink="http://www.w3.org/1999/xlink" x="0px" y="0px"
	 viewBox="0 0 220 390" style="enable-background:new 0 0 220 390;" xml:space="preserve">
<style type="text/css">
	.st0{clip-path:url(#SVGID_1_);fill:#673A5E;}
	.st1{clip-path:url(#SVGID_1_);fill:#AB485E;}
	.st2{clip-path:url(#SVGID_1_);fill:#E1565F;}
	.st3{clip-path:url(#SVGID_1_);fill:#F3755E;}
</style>
<g>
	<defs>
		<rect id="SVGID_3_" x="-37.4" y="24" width="296.4" height="259"/>
	</defs>
	<clipPath id="SVGID_1_">
		<use xlink:href="#SVGID_3_"  style="overflow:visible;"/>
	</clipPath>
	<path class="st0" d="M240.83,189.69c-0.04-0.74-0.68-1.44-1.93-2.1c-1.78-0.87-3.13-0.74-4.07,0.39c-0.94,1.13-1.73,2.37-2.37,3.69
		c-4,7.33-8.23,14.96-12.68,22.9c-4.45,7.94-9.06,15.71-13.82,23.3c-1.31,2.07-2.93,4.62-4.87,7.66c-1.94,3.04-4.11,6.16-6.51,9.37
		c-2.41,3.21-4.98,6.35-7.71,9.42c-2.74,3.07-5.51,5.66-8.32,7.76c-2.81,2.1-5.69,3.6-8.62,4.49c-2.94,0.89-5.68,0.74-8.24-0.46
		c-2.09-0.86-2.69-3.28-1.79-7.25c0.89-3.97,2.61-8.84,5.15-14.6c2.54-5.76,5.66-12.07,9.37-18.94c3.7-6.87,7.44-13.66,11.22-20.35
		c3.77-6.7,7.35-12.97,10.72-18.82c3.37-5.85,5.95-10.65,7.76-14.39c0.47-0.97,0.87-1.89,1.21-2.76c0.34-0.87,0.17-1.81-0.52-2.82
		c-0.69-1.01-2.03-2.14-4.01-3.38c-1.98-1.25-5-2.71-9.05-4.38c-3.53-1.45-6.37-2.47-8.51-3.07c-2.15-0.59-3.9-0.85-5.27-0.76
		c-1.37,0.09-2.49,0.53-3.35,1.34c-0.86,0.81-1.7,1.9-2.53,3.3c-2.02,3.22-4.13,6.7-6.32,10.43c-2.19,3.73-4.42,7.63-6.69,11.69
		c-2.27,4.06-4.49,8.18-6.66,12.35c-2.17,4.18-4.21,8.25-6.13,12.24c-2.87,4.32-6.1,8.89-9.69,13.71
		c-3.59,4.82-7.23,9.18-10.93,13.09c-3.7,3.91-7.33,7.01-10.89,9.31c-3.56,2.3-6.69,2.97-9.38,2c-2.43-0.85-3.77-2.49-4.02-4.91
		c-0.25-2.42,0.22-5.34,1.4-8.76c1.18-3.42,2.92-7.27,5.21-11.54c2.29-4.27,4.75-8.65,7.39-13.14c2.63-4.49,5.33-8.95,8.1-13.39
		c2.76-4.43,5.21-8.53,7.33-12.29c3.3-5.88,5.79-11.44,7.46-16.69c1.67-5.25,2.17-10.07,1.49-14.48c-0.68-4.41-2.71-8.28-6.08-11.62
		c-3.38-3.34-8.42-5.96-15.14-7.85c-4.8-1.4-9.51-1.2-14.14,0.59c-4.62,1.79-9.06,4.49-13.3,8.1c-4.25,3.61-8.23,7.73-11.94,12.35
		c-3.72,4.62-7.01,9.1-9.87,13.42c-0.17,0.36-0.03,0.79,0.45,1.27c0.47,0.49,1.1,0.89,1.88,1.21c0.78,0.32,1.58,0.54,2.39,0.66
		c0.8,0.11,1.36,0.02,1.67-0.29c2.38-3.65,5.13-7.48,8.24-11.48c3.11-4.01,6.37-7.62,9.81-10.84c3.43-3.22,6.99-5.73,10.69-7.54
		c3.69-1.81,7.38-2.32,11.06-1.53c1.54,0.35,1.58,2.13,0.1,5.36c-1.48,3.23-3.78,7.35-6.9,12.36c-3.12,5.01-6.63,10.59-10.52,16.73
		c-3.89,6.14-7.39,12.27-10.49,18.37c-3.82,7.26-6.61,14.04-8.39,20.32c-1.78,6.29-2.27,12.02-1.47,17.2
		c0.8,5.18,3.15,9.8,7.06,13.87c3.91,4.07,9.81,7.51,17.71,10.32c2.93,1.06,5.91,1.23,8.92,0.52c3.01-0.72,6.05-2.07,9.13-4.06
		c3.08-1.99,6.08-4.48,9.01-7.48c2.93-2.99,5.78-6.23,8.56-9.72c-1.13,4.61-1.74,9.05-1.85,13.35c-0.11,4.3,0.45,8.25,1.68,11.87
		c1.23,3.62,3.17,6.84,5.8,9.66c2.63,2.82,6.24,5.17,10.82,7.06c4.44,1.83,8.8,2.39,13.06,1.68c4.26-0.71,8.33-2.25,12.22-4.63
		c3.89-2.38,7.57-5.39,11.05-9.03c3.47-3.64,6.69-7.46,9.63-11.45c2.94-4,5.67-7.94,8.17-11.84c2.5-3.89,4.64-7.35,6.42-10.39
		c-0.25,4.1,0.45,8.25,2.09,12.48c1.64,4.22,4.89,7.48,9.75,9.76c3.47,1.57,6.76,2.24,9.85,1.99c3.09-0.25,5.95-1.06,8.58-2.44
		c2.62-1.38,5.03-3.28,7.22-5.71c2.19-2.43,4.11-5.04,5.77-7.83l-0.09,0.18c0.67-0.74,0.82-1.54,0.46-2.42
		c-0.37-0.87-1.07-1.53-2.11-1.96c-0.79-0.32-1.57-0.32-2.35,0.01c-0.79,0.33-1.48,0.8-2.09,1.42c-2.85,4.62-6.19,8.2-10,10.76
		c-3.82,2.56-8.01,2.89-12.59,1.01c-3.34-1.52-5.55-3.77-6.62-6.74c-1.07-2.97-1.37-6.42-0.89-10.35c0.48-3.93,1.6-8.2,3.37-12.84
		c1.76-4.63,3.81-9.36,6.14-14.19c2.79-5.8,5.7-11.33,8.71-16.61C240.71,191.16,240.86,190.43,240.83,189.69 M-1.24,77.75
		c-2.31-2.69-3.87-5.54-4.69-8.55c-0.82-3.01-0.92-6.21-0.32-9.58c0.61-3.37,1.69-6.68,3.27-9.95c0.76-1.57,1.93-3.58,3.5-6.05
		c1.58-2.46,3.41-4.71,5.49-6.75c2.08-2.04,4.33-3.54,6.75-4.5c2.42-0.96,4.85-0.72,7.29,0.72c2.11,1.16,3.32,3.1,3.65,5.84
		c0.32,2.74,0.18,5.72-0.43,8.94c-0.61,3.22-1.52,6.4-2.71,9.52c-1.2,3.13-2.19,5.69-2.99,7.67c-0.98,2.35-2.12,4.96-3.42,7.82
		c-1.3,2.87-3.18,6.83-5.62,11.91C4.33,82.79,1.07,80.44-1.24,77.75 M-20.81,135.92c-0.93,1.93-0.48,3.28,1.35,4.03
		c1.99,0.97,3.52,0.66,4.59-0.93c4.5-6.83,9.01-14.13,13.52-21.9c4.5-7.77,8.86-15.71,13.08-23.82c4.67,1.78,8.38,3.52,11.11,5.22
		c2.73,1.7,4.67,3.58,5.82,5.64c1.14,2.06,1.49,4.37,1.04,6.93c-0.45,2.56-1.48,5.53-3.11,8.91c-2.09,4.34-4.39,8.53-6.88,12.56
		c-2.49,4.03-5.03,8.01-7.63,11.93c-2.59,3.92-5.11,7.84-7.54,11.75c-2.44,3.91-4.64,7.92-6.61,12.02
		c-2.62,5.43-4.54,10.88-5.78,16.37c-1.24,5.49-1.39,10.7-0.48,15.62c0.91,4.93,3.07,9.39,6.47,13.39c3.4,4,8.49,7.25,15.28,9.75
		c4.11,1.54,8.41,1.64,12.9,0.31c4.48-1.34,8.88-3.54,13.18-6.62c4.3-3.08,8.53-6.73,12.69-10.96c4.15-4.22,8.04-8.63,11.66-13.22
		c3.62-4.59,6.9-9.03,9.83-13.33c2.93-4.29,5.35-7.93,7.26-10.91c1.25-1.95,0.89-3.47-1.09-4.57c-0.86-0.5-1.75-0.61-2.66-0.33
		c-0.92,0.27-1.62,0.75-2.09,1.42c-1.31,2.07-3.22,4.97-5.73,8.72s-5.35,7.76-8.5,12.03c-3.16,4.27-6.63,8.56-10.43,12.86
		c-3.8,4.3-7.67,8.03-11.62,11.18c-3.95,3.15-7.82,5.5-11.62,7.05c-3.8,1.55-7.43,1.68-10.89,0.41c-3.46-1.28-5.39-3.12-5.8-5.53
		c-0.41-2.41,0.15-5.18,1.66-8.31c2.09-4.34,4.56-8.49,7.41-12.45c2.85-3.96,5.8-7.88,8.84-11.76c3.04-3.88,6.05-7.84,9.02-11.89
		c2.97-4.05,5.53-8.31,7.68-12.77c4.24-8.8,6.49-16.73,6.74-23.78c0.25-7.05-1.1-13.31-4.04-18.78
		c-2.94-5.47-7.29-10.26-13.02-14.35c-5.73-4.09-12.43-7.64-20.1-10.65c2.45-5.07,4.32-9.04,5.62-11.91
		c1.3-2.87,2.44-5.47,3.42-7.82c1.09-2.59,2.27-5.69,3.54-9.29c1.27-3.6,2.22-7.26,2.84-10.99c0.63-3.72,0.62-7.27-0.01-10.64
		c-0.63-3.37-2.34-6.06-5.11-8.07c-3.82-2.73-7.52-3.78-11.1-3.15c-3.58,0.63-6.89,2.09-9.94,4.38c-3.05,2.29-5.73,5.1-8.03,8.42
		c-2.3,3.32-4.09,6.31-5.37,8.97c-2.04,4.23-3.34,8.4-3.91,12.5c-0.57,4.11-0.28,8.07,0.86,11.87c1.14,3.81,3.19,7.36,6.14,10.66
		c2.95,3.3,6.96,6.22,12,8.74c-4.05,7.75-8.33,15.5-12.86,23.26c-4.53,7.76-9.03,15-13.51,21.69L-20.81,135.92z"/>
	<path class="st1" d="M235.61,188.98c-0.04-0.74-0.68-1.44-1.93-2.1c-1.78-0.87-3.13-0.74-4.07,0.39c-0.94,1.13-1.73,2.37-2.37,3.69
		c-4,7.33-8.23,14.96-12.68,22.9c-4.45,7.94-9.06,15.71-13.82,23.3c-1.31,2.07-2.93,4.62-4.87,7.66c-1.94,3.04-4.11,6.16-6.51,9.37
		c-2.41,3.21-4.98,6.35-7.71,9.42c-2.74,3.07-5.51,5.66-8.32,7.76c-2.81,2.1-5.69,3.6-8.62,4.49c-2.94,0.89-5.68,0.74-8.24-0.46
		c-2.09-0.86-2.69-3.28-1.79-7.25c0.89-3.97,2.61-8.84,5.15-14.6c2.54-5.76,5.66-12.07,9.37-18.94c3.7-6.87,7.44-13.66,11.22-20.35
		c3.77-6.7,7.35-12.97,10.72-18.82c3.37-5.85,5.95-10.65,7.76-14.39c0.47-0.97,0.87-1.89,1.21-2.76c0.34-0.87,0.17-1.81-0.52-2.82
		c-0.69-1.01-2.03-2.14-4.01-3.38c-1.98-1.25-5-2.71-9.05-4.38c-3.53-1.45-6.37-2.47-8.51-3.07c-2.15-0.59-3.9-0.85-5.27-0.76
		c-1.37,0.09-2.49,0.53-3.35,1.34c-0.86,0.81-1.7,1.9-2.53,3.3c-2.02,3.22-4.13,6.7-6.32,10.43c-2.19,3.73-4.42,7.63-6.69,11.69
		c-2.27,4.06-4.49,8.18-6.66,12.35c-2.17,4.18-4.21,8.25-6.13,12.24c-2.87,4.32-6.1,8.89-9.69,13.71
		c-3.59,4.82-7.23,9.18-10.93,13.09c-3.7,3.91-7.33,7.01-10.89,9.31c-3.56,2.3-6.69,2.97-9.38,2c-2.43-0.85-3.77-2.49-4.02-4.91
		c-0.25-2.42,0.22-5.34,1.4-8.76c1.18-3.42,2.92-7.27,5.21-11.54c2.29-4.27,4.75-8.65,7.39-13.14c2.63-4.49,5.33-8.95,8.1-13.39
		c2.76-4.43,5.21-8.53,7.33-12.29c3.3-5.88,5.79-11.44,7.46-16.69c1.67-5.25,2.17-10.07,1.49-14.48c-0.68-4.41-2.71-8.28-6.08-11.62
		c-3.38-3.34-8.42-5.96-15.14-7.85c-4.8-1.4-9.51-1.2-14.14,0.59c-4.62,1.79-9.06,4.49-13.3,8.1c-4.25,3.61-8.23,7.73-11.94,12.35
		c-3.72,4.62-7.01,9.1-9.87,13.42c-0.17,0.36-0.03,0.79,0.45,1.27c0.47,0.49,1.1,0.89,1.88,1.21s1.58,0.54,2.39,0.66
		c0.8,0.11,1.36,0.02,1.67-0.29c2.38-3.65,5.13-7.48,8.24-11.48c3.11-4.01,6.37-7.62,9.81-10.84c3.43-3.22,6.99-5.73,10.69-7.54
		c3.69-1.81,7.38-2.32,11.06-1.53c1.54,0.35,1.58,2.13,0.1,5.36c-1.48,3.23-3.78,7.35-6.9,12.36c-3.12,5.01-6.63,10.59-10.52,16.73
		c-3.89,6.14-7.39,12.27-10.49,18.37c-3.82,7.26-6.61,14.04-8.39,20.32c-1.78,6.29-2.27,12.02-1.47,17.2
		c0.8,5.18,3.15,9.8,7.06,13.87c3.91,4.07,9.81,7.51,17.71,10.32c2.93,1.06,5.91,1.23,8.92,0.52c3.01-0.72,6.05-2.07,9.13-4.06
		c3.08-1.99,6.08-4.48,9.01-7.48c2.93-2.99,5.78-6.23,8.56-9.72c-1.13,4.61-1.74,9.05-1.85,13.35c-0.11,4.3,0.45,8.25,1.68,11.87
		c1.23,3.62,3.17,6.84,5.8,9.66c2.63,2.82,6.24,5.17,10.82,7.06c4.44,1.83,8.8,2.39,13.06,1.68c4.26-0.71,8.33-2.25,12.22-4.63
		c3.89-2.38,7.57-5.39,11.05-9.03c3.47-3.64,6.69-7.46,9.63-11.45c2.94-4,5.67-7.94,8.17-11.84c2.5-3.89,4.64-7.35,6.42-10.39
		c-0.25,4.1,0.45,8.25,2.09,12.48c1.64,4.22,4.89,7.48,9.75,9.76c3.47,1.57,6.76,2.24,9.85,1.99c3.09-0.25,5.95-1.06,8.58-2.44
		c2.62-1.38,5.03-3.28,7.22-5.71c2.19-2.43,4.11-5.04,5.77-7.83l-0.09,0.18c0.67-0.74,0.82-1.54,0.46-2.42
		c-0.37-0.87-1.07-1.53-2.11-1.96c-0.78-0.32-1.57-0.32-2.35,0.01c-0.79,0.33-1.48,0.8-2.09,1.42c-2.85,4.62-6.19,8.2-10,10.76
		c-3.82,2.56-8.01,2.89-12.59,1.01c-3.34-1.52-5.55-3.77-6.62-6.74c-1.07-2.97-1.37-6.42-0.89-10.35c0.48-3.93,1.6-8.2,3.37-12.84
		c1.76-4.63,3.81-9.36,6.14-14.19c2.79-5.8,5.7-11.33,8.71-16.61C235.49,190.45,235.64,189.72,235.61,188.98 M-6.46,77.04
		c-2.31-2.69-3.87-5.54-4.69-8.55c-0.82-3.01-0.92-6.21-0.32-9.58c0.61-3.37,1.69-6.68,3.27-9.95c0.76-1.57,1.93-3.58,3.5-6.05
		c1.58-2.46,3.41-4.71,5.49-6.75c2.08-2.04,4.33-3.54,6.75-4.5c2.42-0.96,4.85-0.72,7.29,0.72c2.11,1.16,3.32,3.1,3.65,5.84
		c0.32,2.74,0.18,5.72-0.43,8.94c-0.61,3.22-1.52,6.4-2.71,9.52c-1.2,3.13-2.19,5.69-2.99,7.67c-0.98,2.35-2.12,4.96-3.42,7.82
		c-1.3,2.87-3.18,6.83-5.62,11.91C-0.89,82.08-4.14,79.73-6.46,77.04 M-26.03,135.21c-0.93,1.93-0.48,3.28,1.35,4.03
		c1.99,0.97,3.52,0.66,4.59-0.93c4.5-6.83,9.01-14.13,13.52-21.9c4.5-7.77,8.86-15.71,13.08-23.82c4.67,1.78,8.38,3.52,11.11,5.22
		c2.73,1.7,4.67,3.58,5.82,5.64c1.14,2.06,1.49,4.37,1.04,6.93c-0.45,2.56-1.48,5.53-3.11,8.91c-2.09,4.34-4.39,8.53-6.88,12.56
		c-2.49,4.03-5.03,8.01-7.63,11.93c-2.59,3.92-5.11,7.84-7.54,11.75c-2.44,3.91-4.64,7.92-6.61,12.02
		c-2.62,5.43-4.54,10.88-5.78,16.37c-1.24,5.49-1.39,10.7-0.48,15.62c0.91,4.93,3.07,9.39,6.47,13.39c3.4,4,8.49,7.25,15.28,9.75
		c4.11,1.54,8.41,1.64,12.9,0.31c4.48-1.34,8.88-3.54,13.18-6.62c4.3-3.08,8.53-6.73,12.69-10.96c4.15-4.22,8.04-8.63,11.66-13.22
		c3.62-4.59,6.9-9.03,9.83-13.33c2.93-4.29,5.35-7.93,7.26-10.91c1.25-1.95,0.89-3.47-1.09-4.57c-0.86-0.5-1.75-0.61-2.66-0.33
		c-0.92,0.27-1.62,0.75-2.09,1.42c-1.31,2.07-3.22,4.97-5.73,8.72c-2.51,3.74-5.35,7.76-8.5,12.03c-3.16,4.27-6.63,8.56-10.43,12.86
		c-3.8,4.3-7.67,8.03-11.62,11.18c-3.95,3.15-7.82,5.5-11.62,7.05c-3.8,1.55-7.43,1.68-10.89,0.41c-3.46-1.28-5.39-3.12-5.8-5.53
		c-0.41-2.41,0.15-5.18,1.66-8.31c2.09-4.34,4.56-8.49,7.41-12.45c2.85-3.96,5.8-7.88,8.84-11.76c3.04-3.88,6.05-7.84,9.02-11.89
		c2.97-4.05,5.53-8.31,7.68-12.77c4.24-8.8,6.49-16.73,6.74-23.78c0.25-7.05-1.1-13.31-4.04-18.78
		c-2.95-5.47-7.29-10.26-13.02-14.35c-5.73-4.09-12.43-7.64-20.1-10.65c2.45-5.07,4.32-9.04,5.62-11.91
		c1.3-2.87,2.44-5.47,3.42-7.82c1.09-2.59,2.27-5.69,3.54-9.29c1.27-3.6,2.22-7.26,2.84-10.99c0.63-3.72,0.62-7.27-0.01-10.64
		c-0.63-3.37-2.34-6.06-5.11-8.07c-3.82-2.73-7.52-3.78-11.1-3.15c-3.58,0.63-6.89,2.09-9.94,4.38c-3.05,2.29-5.73,5.1-8.03,8.42
		c-2.3,3.32-4.09,6.31-5.37,8.97c-2.04,4.23-3.34,8.4-3.91,12.5c-0.57,4.11-0.28,8.07,0.86,11.87c1.14,3.81,3.19,7.36,6.14,10.66
		c2.95,3.3,6.96,6.22,12,8.74c-4.05,7.75-8.33,15.5-12.86,23.26c-4.53,7.76-9.03,15-13.51,21.69L-26.03,135.21z"/>
	<path class="st2" d="M230.23,188.61c-0.04-0.74-0.68-1.44-1.93-2.1c-1.78-0.87-3.13-0.74-4.07,0.39c-0.94,1.13-1.73,2.37-2.37,3.69
		c-4,7.33-8.23,14.96-12.68,22.9c-4.45,7.94-9.06,15.71-13.82,23.3c-1.31,2.07-2.93,4.62-4.87,7.66c-1.94,3.04-4.11,6.16-6.51,9.37
		c-2.41,3.21-4.98,6.35-7.71,9.42c-2.74,3.07-5.51,5.66-8.32,7.76c-2.81,2.1-5.69,3.6-8.62,4.49c-2.94,0.89-5.68,0.74-8.24-0.46
		c-2.09-0.86-2.69-3.28-1.79-7.25c0.89-3.97,2.61-8.84,5.15-14.6c2.54-5.76,5.66-12.07,9.37-18.94c3.7-6.87,7.44-13.66,11.22-20.35
		c3.77-6.7,7.35-12.97,10.72-18.82c3.37-5.85,5.95-10.65,7.76-14.39c0.47-0.97,0.87-1.89,1.21-2.76c0.34-0.87,0.17-1.81-0.52-2.82
		c-0.69-1.01-2.03-2.14-4.01-3.38c-1.98-1.25-5-2.71-9.05-4.38c-3.53-1.45-6.37-2.47-8.51-3.07c-2.15-0.59-3.9-0.85-5.27-0.76
		c-1.37,0.09-2.49,0.53-3.35,1.34c-0.86,0.81-1.7,1.9-2.53,3.3c-2.02,3.22-4.13,6.7-6.32,10.43c-2.19,3.73-4.42,7.63-6.69,11.69
		c-2.27,4.06-4.49,8.18-6.66,12.35c-2.17,4.18-4.21,8.25-6.13,12.24c-2.87,4.32-6.1,8.89-9.69,13.71
		c-3.59,4.82-7.23,9.18-10.93,13.09c-3.7,3.91-7.33,7.01-10.89,9.31c-3.56,2.3-6.69,2.97-9.38,2c-2.43-0.85-3.77-2.49-4.02-4.91
		c-0.25-2.42,0.22-5.34,1.4-8.76c1.18-3.42,2.92-7.27,5.21-11.54c2.29-4.27,4.75-8.65,7.39-13.14c2.63-4.49,5.33-8.95,8.1-13.39
		c2.76-4.43,5.21-8.53,7.33-12.29c3.3-5.88,5.79-11.44,7.46-16.69c1.67-5.25,2.17-10.07,1.49-14.48c-0.68-4.41-2.71-8.28-6.08-11.62
		c-3.38-3.34-8.42-5.96-15.14-7.85c-4.8-1.4-9.51-1.2-14.14,0.59c-4.62,1.79-9.06,4.49-13.3,8.1c-4.25,3.61-8.23,7.73-11.94,12.35
		c-3.72,4.62-7.01,9.1-9.87,13.42c-0.17,0.36-0.03,0.79,0.45,1.27c0.47,0.49,1.1,0.89,1.88,1.21c0.78,0.32,1.58,0.54,2.39,0.66
		c0.8,0.11,1.36,0.02,1.67-0.29c2.38-3.65,5.13-7.48,8.24-11.48c3.11-4.01,6.37-7.62,9.81-10.84c3.43-3.22,6.99-5.73,10.69-7.54
		c3.69-1.81,7.38-2.32,11.06-1.53c1.54,0.35,1.58,2.13,0.1,5.36c-1.48,3.23-3.78,7.35-6.9,12.36c-3.12,5.01-6.63,10.59-10.52,16.73
		c-3.89,6.14-7.39,12.27-10.49,18.37c-3.82,7.26-6.61,14.04-8.39,20.32c-1.78,6.29-2.27,12.02-1.47,17.2
		c0.8,5.18,3.15,9.8,7.06,13.87c3.91,4.07,9.81,7.51,17.71,10.32c2.93,1.06,5.91,1.23,8.92,0.52c3.01-0.72,6.05-2.07,9.13-4.06
		c3.08-1.99,6.08-4.48,9.01-7.48c2.93-2.99,5.78-6.23,8.56-9.72c-1.13,4.61-1.74,9.05-1.85,13.35c-0.11,4.3,0.45,8.25,1.68,11.87
		c1.23,3.62,3.17,6.84,5.8,9.66c2.63,2.82,6.24,5.17,10.82,7.06c4.44,1.83,8.8,2.39,13.06,1.68c4.26-0.71,8.33-2.25,12.22-4.63
		c3.89-2.38,7.57-5.39,11.05-9.03c3.47-3.64,6.69-7.46,9.63-11.45c2.94-4,5.67-7.94,8.17-11.84c2.5-3.89,4.64-7.35,6.42-10.39
		c-0.25,4.1,0.45,8.25,2.09,12.48c1.64,4.22,4.89,7.48,9.75,9.76c3.47,1.57,6.76,2.24,9.85,1.99c3.09-0.25,5.95-1.06,8.58-2.44
		c2.62-1.38,5.03-3.28,7.22-5.71c2.19-2.43,4.11-5.04,5.77-7.83l-0.09,0.18c0.67-0.74,0.82-1.54,0.46-2.42
		c-0.37-0.87-1.07-1.53-2.11-1.96c-0.78-0.32-1.57-0.32-2.35,0.01c-0.79,0.33-1.48,0.8-2.09,1.42c-2.85,4.62-6.19,8.2-10,10.76
		c-3.82,2.56-8.01,2.89-12.59,1.01c-3.34-1.52-5.55-3.77-6.62-6.74c-1.07-2.97-1.37-6.42-0.89-10.35c0.48-3.93,1.6-8.2,3.37-12.84
		c1.76-4.63,3.81-9.36,6.14-14.19c2.79-5.8,5.7-11.33,8.71-16.61C230.11,190.08,230.26,189.35,230.23,188.61 M-11.84,76.68
		c-2.31-2.69-3.87-5.54-4.69-8.55c-0.82-3.01-0.92-6.21-0.32-9.58c0.61-3.37,1.69-6.68,3.27-9.95c0.76-1.57,1.93-3.58,3.5-6.05
		c1.58-2.46,3.41-4.71,5.49-6.75c2.08-2.04,4.33-3.54,6.75-4.5c2.42-0.96,4.85-0.72,7.29,0.72c2.11,1.16,3.32,3.1,3.65,5.84
		c0.32,2.74,0.18,5.72-0.43,8.94c-0.61,3.22-1.52,6.4-2.71,9.52c-1.2,3.13-2.19,5.69-2.99,7.67c-0.98,2.35-2.12,4.96-3.42,7.82
		c-1.3,2.87-3.18,6.83-5.62,11.91C-6.28,81.72-9.53,79.37-11.84,76.68 M-31.41,134.85c-0.93,1.93-0.48,3.28,1.35,4.03
		c1.99,0.97,3.52,0.66,4.59-0.93c4.5-6.83,9.01-14.13,13.52-21.9c4.5-7.77,8.86-15.71,13.08-23.82c4.67,1.78,8.38,3.52,11.11,5.22
		c2.73,1.7,4.67,3.58,5.82,5.64c1.14,2.06,1.49,4.37,1.04,6.93c-0.45,2.56-1.48,5.53-3.11,8.91c-2.09,4.34-4.39,8.53-6.88,12.56
		c-2.49,4.03-5.03,8.01-7.63,11.93c-2.59,3.92-5.11,7.84-7.54,11.75c-2.44,3.91-4.64,7.92-6.61,12.02
		c-2.62,5.43-4.54,10.88-5.78,16.37c-1.24,5.49-1.39,10.7-0.48,15.62c0.91,4.93,3.07,9.39,6.47,13.39c3.4,4,8.49,7.25,15.28,9.75
		c4.11,1.54,8.41,1.64,12.9,0.31c4.48-1.34,8.88-3.54,13.18-6.62c4.3-3.08,8.53-6.73,12.69-10.96c4.15-4.22,8.04-8.63,11.66-13.22
		c3.62-4.59,6.9-9.03,9.83-13.33c2.93-4.29,5.35-7.93,7.26-10.91c1.25-1.95,0.89-3.47-1.09-4.57c-0.86-0.5-1.75-0.61-2.66-0.33
		c-0.92,0.27-1.62,0.75-2.09,1.42c-1.31,2.07-3.22,4.97-5.73,8.72c-2.51,3.74-5.35,7.76-8.5,12.03c-3.16,4.27-6.63,8.56-10.43,12.86
		c-3.8,4.3-7.67,8.03-11.62,11.18c-3.95,3.15-7.82,5.5-11.62,7.05c-3.8,1.55-7.43,1.68-10.89,0.41c-3.46-1.28-5.39-3.12-5.8-5.53
		c-0.41-2.41,0.15-5.18,1.66-8.31c2.09-4.34,4.56-8.49,7.41-12.45c2.85-3.96,5.8-7.88,8.84-11.76c3.04-3.88,6.05-7.84,9.02-11.89
		c2.97-4.05,5.53-8.31,7.68-12.77c4.24-8.8,6.49-16.73,6.74-23.78c0.25-7.05-1.1-13.31-4.04-18.78
		c-2.94-5.47-7.29-10.26-13.02-14.35c-5.73-4.09-12.43-7.64-20.1-10.65c2.45-5.07,4.32-9.04,5.62-11.91
		c1.3-2.87,2.44-5.47,3.42-7.82c1.09-2.59,2.27-5.69,3.54-9.29c1.27-3.6,2.22-7.26,2.84-10.99c0.63-3.72,0.62-7.27-0.01-10.64
		c-0.63-3.37-2.34-6.06-5.11-8.07c-3.82-2.73-7.52-3.78-11.1-3.15c-3.58,0.63-6.89,2.09-9.94,4.38c-3.05,2.29-5.73,5.1-8.03,8.42
		c-2.3,3.32-4.09,6.31-5.37,8.97c-2.04,4.23-3.34,8.4-3.91,12.5c-0.57,4.11-0.28,8.07,0.86,11.87c1.14,3.81,3.19,7.36,6.14,10.66
		c2.95,3.3,6.96,6.22,12,8.74c-4.05,7.75-8.33,15.5-12.86,23.26c-4.53,7.76-9.03,15-13.51,21.69L-31.41,134.85z"/>
	<path class="st3" d="M224.71,189.68c-0.04-0.74-0.68-1.44-1.93-2.1c-1.78-0.87-3.13-0.74-4.07,0.39c-0.94,1.13-1.73,2.37-2.37,3.69
		c-4,7.33-8.23,14.96-12.68,22.9c-4.45,7.94-9.06,15.71-13.82,23.3c-1.31,2.07-2.93,4.62-4.87,7.66c-1.94,3.04-4.11,6.16-6.51,9.37
		c-2.41,3.21-4.98,6.35-7.71,9.42c-2.74,3.07-5.51,5.66-8.32,7.76c-2.81,2.1-5.69,3.6-8.62,4.49c-2.94,0.89-5.68,0.74-8.24-0.46
		c-2.09-0.86-2.69-3.28-1.79-7.25c0.89-3.97,2.61-8.84,5.15-14.6c2.54-5.76,5.66-12.07,9.37-18.94c3.7-6.87,7.44-13.66,11.22-20.35
		c3.77-6.7,7.35-12.97,10.72-18.82c3.37-5.85,5.95-10.65,7.76-14.39c0.47-0.97,0.87-1.89,1.21-2.76c0.34-0.87,0.17-1.81-0.52-2.82
		c-0.69-1.01-2.03-2.14-4.01-3.38c-1.98-1.25-5-2.71-9.05-4.38c-3.53-1.45-6.37-2.47-8.51-3.07c-2.15-0.59-3.9-0.85-5.27-0.76
		c-1.37,0.09-2.49,0.53-3.35,1.34c-0.86,0.81-1.7,1.9-2.53,3.3c-2.02,3.22-4.13,6.7-6.32,10.43c-2.19,3.73-4.42,7.63-6.69,11.69
		c-2.27,4.06-4.49,8.18-6.66,12.35c-2.17,4.18-4.21,8.25-6.13,12.24c-2.87,4.32-6.1,8.89-9.69,13.71
		c-3.59,4.82-7.23,9.18-10.93,13.09c-3.7,3.91-7.33,7.01-10.89,9.31c-3.56,2.3-6.69,2.97-9.38,2c-2.43-0.85-3.77-2.49-4.02-4.91
		c-0.25-2.42,0.22-5.34,1.4-8.76c1.18-3.42,2.92-7.27,5.21-11.54c2.29-4.27,4.75-8.65,7.39-13.14c2.63-4.49,5.33-8.95,8.1-13.39
		c2.76-4.43,5.21-8.53,7.33-12.29c3.3-5.88,5.79-11.44,7.46-16.69c1.67-5.25,2.17-10.07,1.49-14.48c-0.68-4.41-2.71-8.28-6.08-11.62
		c-3.38-3.34-8.42-5.96-15.14-7.85c-4.8-1.4-9.51-1.2-14.14,0.59c-4.62,1.79-9.06,4.49-13.3,8.1c-4.25,3.61-8.23,7.73-11.94,12.35
		c-3.72,4.62-7.01,9.1-9.87,13.42c-0.17,0.36-0.03,0.79,0.45,1.27c0.47,0.49,1.1,0.89,1.88,1.21c0.78,0.32,1.58,0.54,2.39,0.66
		c0.8,0.11,1.36,0.02,1.67-0.29c2.38-3.65,5.13-7.48,8.24-11.48c3.11-4.01,6.37-7.62,9.81-10.84c3.43-3.22,6.99-5.73,10.69-7.54
		c3.69-1.81,7.38-2.32,11.06-1.53c1.54,0.35,1.58,2.13,0.1,5.36c-1.48,3.23-3.78,7.35-6.9,12.36c-3.12,5.01-6.63,10.59-10.52,16.73
		c-3.89,6.14-7.39,12.27-10.49,18.37c-3.82,7.26-6.61,14.04-8.39,20.32c-1.78,6.29-2.27,12.02-1.47,17.2
		c0.8,5.18,3.15,9.8,7.06,13.87c3.91,4.07,9.81,7.51,17.71,10.32c2.93,1.06,5.91,1.23,8.92,0.52c3.01-0.72,6.05-2.07,9.13-4.06
		c3.08-1.99,6.08-4.48,9.01-7.48c2.93-2.99,5.78-6.23,8.56-9.72c-1.13,4.61-1.74,9.05-1.85,13.35c-0.11,4.3,0.45,8.25,1.68,11.87
		c1.23,3.62,3.17,6.84,5.8,9.66c2.63,2.82,6.24,5.17,10.82,7.06c4.44,1.83,8.8,2.39,13.06,1.68c4.26-0.71,8.33-2.25,12.22-4.63
		c3.89-2.38,7.57-5.39,11.05-9.03c3.47-3.64,6.69-7.46,9.63-11.45c2.94-4,5.67-7.94,8.17-11.84c2.5-3.89,4.64-7.35,6.42-10.39
		c-0.25,4.1,0.45,8.25,2.09,12.48c1.64,4.22,4.89,7.48,9.75,9.76c3.47,1.57,6.76,2.24,9.85,1.99c3.09-0.25,5.95-1.06,8.58-2.44
		c2.62-1.38,5.03-3.28,7.22-5.71c2.19-2.43,4.11-5.04,5.77-7.83l-0.09,0.18c0.67-0.74,0.82-1.54,0.46-2.42
		c-0.37-0.87-1.07-1.53-2.11-1.96c-0.79-0.32-1.57-0.32-2.35,0.01c-0.79,0.33-1.48,0.8-2.09,1.42c-2.85,4.62-6.19,8.2-10,10.76
		c-3.82,2.56-8.01,2.89-12.59,1.01c-3.34-1.52-5.55-3.77-6.62-6.74c-1.07-2.97-1.37-6.42-0.89-10.35c0.48-3.93,1.6-8.2,3.37-12.84
		c1.76-4.63,3.81-9.36,6.14-14.19c2.79-5.8,5.7-11.33,8.71-16.61C224.59,191.15,224.74,190.42,224.71,189.68 M-17.36,77.75
		c-2.31-2.69-3.87-5.54-4.69-8.55c-0.82-3.01-0.92-6.21-0.32-9.58c0.61-3.37,1.69-6.68,3.27-9.95c0.76-1.57,1.93-3.58,3.5-6.05
		c1.58-2.46,3.41-4.71,5.49-6.75c2.08-2.04,4.33-3.54,6.75-4.5c2.42-0.96,4.85-0.72,7.29,0.72c2.11,1.16,3.32,3.1,3.65,5.84
		c0.32,2.74,0.18,5.72-0.43,8.94c-0.61,3.22-1.52,6.4-2.71,9.52c-1.2,3.13-2.19,5.69-2.99,7.67c-0.98,2.35-2.12,4.96-3.42,7.82
		c-1.3,2.87-3.18,6.83-5.62,11.91C-11.8,82.79-15.05,80.44-17.36,77.75 M-36.93,135.92c-0.93,1.93-0.48,3.28,1.35,4.03
		c1.99,0.97,3.52,0.66,4.59-0.93c4.5-6.83,9.01-14.13,13.52-21.9c4.5-7.77,8.86-15.71,13.08-23.82c4.67,1.78,8.38,3.52,11.11,5.22
		c2.73,1.7,4.67,3.58,5.82,5.64c1.14,2.06,1.49,4.37,1.04,6.93c-0.45,2.56-1.48,5.53-3.11,8.91c-2.09,4.34-4.39,8.53-6.88,12.56
		c-2.49,4.03-5.03,8.01-7.63,11.93c-2.59,3.92-5.11,7.84-7.54,11.75c-2.44,3.91-4.64,7.92-6.61,12.02
		c-2.62,5.43-4.54,10.88-5.78,16.37c-1.24,5.49-1.39,10.7-0.48,15.62c0.91,4.93,3.07,9.39,6.47,13.39c3.4,4,8.49,7.25,15.28,9.75
		c4.11,1.54,8.41,1.64,12.9,0.31c4.48-1.34,8.88-3.54,13.18-6.62c4.3-3.08,8.53-6.73,12.69-10.96c4.15-4.22,8.04-8.63,11.66-13.22
		c3.62-4.59,6.9-9.03,9.83-13.33c2.93-4.29,5.35-7.93,7.26-10.91c1.25-1.95,0.89-3.47-1.09-4.57c-0.86-0.5-1.75-0.61-2.66-0.33
		c-0.92,0.27-1.62,0.75-2.09,1.42c-1.31,2.07-3.22,4.97-5.73,8.72c-2.51,3.74-5.35,7.76-8.5,12.03c-3.16,4.27-6.63,8.56-10.43,12.86
		c-3.8,4.3-7.67,8.03-11.62,11.18c-3.95,3.15-7.82,5.5-11.62,7.05c-3.8,1.55-7.43,1.68-10.89,0.41c-3.46-1.28-5.39-3.12-5.8-5.53
		c-0.41-2.41,0.15-5.18,1.66-8.31c2.09-4.34,4.56-8.49,7.41-12.45c2.85-3.96,5.8-7.88,8.84-11.76c3.04-3.88,6.05-7.84,9.02-11.89
		c2.97-4.05,5.53-8.31,7.68-12.77c4.24-8.8,6.49-16.73,6.74-23.78c0.25-7.05-1.1-13.31-4.04-18.78s-7.29-10.26-13.02-14.35
		c-5.73-4.09-12.43-7.64-20.1-10.65c2.45-5.07,4.32-9.04,5.62-11.91c1.3-2.87,2.44-5.47,3.42-7.82c1.09-2.59,2.27-5.69,3.54-9.29
		c1.27-3.6,2.22-7.26,2.84-10.99c0.63-3.72,0.62-7.27-0.01-10.64c-0.63-3.37-2.34-6.06-5.11-8.07c-3.82-2.73-7.52-3.78-11.1-3.15
		c-3.58,0.63-6.89,2.09-9.94,4.38c-3.05,2.29-5.73,5.1-8.03,8.42c-2.3,3.32-4.09,6.31-5.37,8.97c-2.04,4.23-3.34,8.4-3.91,12.5
		c-0.57,4.11-0.28,8.07,0.86,11.87c1.14,3.81,3.19,7.36,6.14,10.66c2.95,3.3,6.96,6.22,12,8.74c-4.05,7.75-8.33,15.5-12.86,23.26
		c-4.53,7.76-9.03,15-13.51,21.69L-36.93,135.92z"/>
</g>
</svg>
