<?xml version="1.0" encoding="utf-8"?>
<!-- Generator: Adobe Illustrator 24.3.0, SVG Export Plug-In . SVG Version: 6.00 Build 0)  -->
<svg version="1.1" id="Layer_1" xmlns="http://www.w3.org/2000/svg" xmlns:xlink="http://www.w3.org/1999/xlink" x="0px" y="0px"
	 viewBox="0 0 252 144" style="enable-background:new 0 0 252 144;" xml:space="preserve">
<style type="text/css">
	.st0{clip-path:url(#SVGID_1_);fill:#673A5E;}
	.st1{clip-path:url(#SVGID_1_);fill:#AB485E;}
	.st2{clip-path:url(#SVGID_1_);fill:#E1565F;}
	.st3{clip-path:url(#SVGID_1_);fill:#F3755E;}
</style>
<g>
	<defs>
		<rect id="SVGID_3_" x="-10.06" y="-30.48" width="274.07" height="239.48"/>
	</defs>
	<clipPath id="SVGID_1_">
		<use xlink:href="#SVGID_3_"  style="overflow:visible;"/>
	</clipPath>
	<path class="st0" d="M247.21,122.72c-0.03-0.68-0.63-1.33-1.78-1.94c-1.64-0.81-2.89-0.69-3.76,0.36c-0.87,1.05-1.6,2.19-2.19,3.42
		c-3.7,6.78-7.61,13.83-11.73,21.17c-4.12,7.34-8.38,14.52-12.77,21.55c-1.21,1.91-2.71,4.27-4.5,7.08c-1.79,2.81-3.8,5.7-6.02,8.66
		c-2.23,2.97-4.6,5.87-7.13,8.71c-2.53,2.84-5.1,5.23-7.7,7.17c-2.6,1.94-5.26,3.32-7.97,4.15c-2.72,0.82-5.26,0.68-7.62-0.42
		c-1.94-0.8-2.49-3.03-1.66-6.7c0.83-3.68,2.42-8.17,4.77-13.5c2.35-5.32,5.23-11.16,8.66-17.52c3.42-6.35,6.88-12.63,10.37-18.82
		c3.49-6.19,6.79-11.99,9.91-17.4c3.11-5.41,5.51-9.85,7.18-13.31c0.43-0.89,0.8-1.74,1.12-2.55c0.31-0.81,0.15-1.67-0.48-2.61
		c-0.64-0.93-1.87-1.97-3.71-3.13c-1.83-1.16-4.63-2.51-8.37-4.05c-3.26-1.34-5.89-2.29-7.87-2.83c-1.98-0.55-3.61-0.78-4.88-0.7
		c-1.27,0.08-2.3,0.49-3.1,1.24c-0.79,0.75-1.58,1.76-2.34,3.05c-1.87,2.98-3.82,6.19-5.84,9.64c-2.03,3.45-4.09,7.05-6.19,10.81
		c-2.1,3.75-4.15,7.56-6.16,11.42c-2.01,3.86-3.9,7.63-5.67,11.32c-2.66,3.99-5.64,8.22-8.96,12.68c-3.32,4.46-6.69,8.49-10.11,12.1
		c-3.42,3.61-6.78,6.48-10.07,8.61c-3.29,2.13-6.18,2.75-8.67,1.85c-2.25-0.79-3.49-2.3-3.72-4.54c-0.23-2.23,0.2-4.94,1.29-8.1
		c1.09-3.17,2.7-6.72,4.81-10.67c2.12-3.95,4.4-7.99,6.83-12.15c2.43-4.15,4.93-8.28,7.49-12.38c2.55-4.1,4.81-7.89,6.78-11.36
		c3.05-5.43,5.35-10.58,6.9-15.43c1.54-4.85,2-9.31,1.38-13.39c-0.63-4.07-2.5-7.65-5.62-10.74c-3.12-3.09-7.79-5.51-14-7.26
		c-4.44-1.29-8.8-1.11-13.07,0.55c-4.27,1.66-8.38,4.15-12.3,7.49c-3.93,3.34-7.61,7.14-11.04,11.42c-3.44,4.27-6.48,8.41-9.13,12.4
		c-0.16,0.34-0.02,0.73,0.41,1.17c0.44,0.45,1.02,0.82,1.74,1.12c0.73,0.3,1.46,0.5,2.21,0.61c0.74,0.11,1.26,0.02,1.54-0.27
		c2.2-3.38,4.74-6.91,7.62-10.62c2.87-3.7,5.89-7.04,9.07-10.02c3.17-2.98,6.47-5.3,9.88-6.98c3.41-1.67,6.82-2.14,10.23-1.41
		c1.43,0.32,1.46,1.97,0.1,4.96c-1.37,2.98-3.49,6.79-6.38,11.43c-2.88,4.64-6.13,9.8-9.73,15.47c-3.6,5.68-6.84,11.34-9.7,16.99
		c-3.53,6.71-6.11,12.98-7.75,18.79c-1.65,5.82-2.1,11.12-1.36,15.9c0.74,4.79,2.91,9.06,6.53,12.82c3.62,3.77,9.07,6.94,16.37,9.54
		c2.71,0.98,5.46,1.14,8.24,0.48c2.78-0.66,5.59-1.91,8.44-3.76c2.84-1.84,5.62-4.15,8.33-6.91c2.71-2.77,5.35-5.76,7.92-8.99
		c-1.04,4.26-1.61,8.37-1.71,12.35c-0.1,3.97,0.41,7.63,1.55,10.98c1.14,3.35,2.93,6.32,5.37,8.93c2.44,2.61,5.77,4.78,10,6.52
		c4.11,1.69,8.13,2.21,12.07,1.55c3.94-0.66,7.7-2.08,11.3-4.29c3.59-2.2,7-4.98,10.21-8.34c3.21-3.36,6.18-6.89,8.91-10.59
		c2.72-3.7,5.24-7.35,7.56-10.94c2.31-3.6,4.29-6.8,5.93-9.61c-0.23,3.79,0.41,7.63,1.94,11.54c1.52,3.91,4.53,6.91,9.01,9.03
		c3.21,1.46,6.25,2.07,9.11,1.84c2.86-0.23,5.5-0.98,7.93-2.26c2.42-1.28,4.65-3.04,6.68-5.28c2.02-2.25,3.8-4.66,5.34-7.24
		l-0.08,0.17c0.62-0.68,0.76-1.43,0.42-2.23c-0.34-0.81-0.99-1.41-1.95-1.81c-0.73-0.3-1.45-0.3-2.18,0.01
		c-0.73,0.3-1.37,0.74-1.94,1.31c-2.64,4.27-5.72,7.58-9.25,9.95c-3.53,2.36-7.41,2.67-11.64,0.93c-3.09-1.4-5.13-3.48-6.12-6.23
		c-0.99-2.75-1.27-5.94-0.82-9.57c0.45-3.63,1.48-7.59,3.11-11.87c1.63-4.28,3.52-8.66,5.67-13.12c2.58-5.36,5.27-10.48,8.05-15.36
		C247.1,124.08,247.24,123.4,247.21,122.72 M23.38,19.22c-2.13-2.48-3.58-5.12-4.34-7.91c-0.76-2.79-0.85-5.74-0.3-8.85
		c0.56-3.11,1.57-6.18,3.02-9.2c0.7-1.45,1.78-3.31,3.24-5.59c1.46-2.28,3.15-4.36,5.07-6.24c1.92-1.88,4.01-3.27,6.24-4.16
		c2.24-0.89,4.49-0.66,6.74,0.66c1.95,1.07,3.07,2.87,3.37,5.4c0.3,2.53,0.17,5.29-0.4,8.27c-0.57,2.98-1.41,5.92-2.51,8.81
		c-1.11,2.89-2.03,5.26-2.77,7.09c-0.9,2.17-1.96,4.58-3.16,7.23c-1.21,2.65-2.94,6.32-5.2,11.01
		C28.53,23.88,25.52,21.71,23.38,19.22 M5.28,73.01c-0.86,1.79-0.44,3.03,1.25,3.72c1.84,0.89,3.26,0.61,4.25-0.86
		c4.16-6.32,8.33-13.07,12.5-20.25c4.16-7.19,8.19-14.53,12.09-22.03c4.32,1.65,7.75,3.25,10.27,4.83c2.53,1.57,4.32,3.31,5.38,5.22
		c1.06,1.91,1.38,4.04,0.97,6.41c-0.41,2.37-1.37,5.12-2.87,8.24c-1.94,4.02-4.06,7.89-6.36,11.61c-2.31,3.73-4.66,7.4-7.05,11.03
		c-2.4,3.62-4.72,7.24-6.97,10.86c-2.25,3.62-4.29,7.32-6.12,11.11c-2.42,5.02-4.2,10.06-5.34,15.14
		c-1.14,5.08-1.29,9.89-0.44,14.45c0.85,4.56,2.84,8.69,5.98,12.38c3.14,3.7,7.85,6.7,14.13,9.02c3.8,1.43,7.78,1.52,11.92,0.28
		c4.14-1.24,8.21-3.28,12.19-6.13c3.98-2.85,7.89-6.22,11.73-10.13c3.84-3.91,7.43-7.98,10.78-12.23c3.35-4.24,6.38-8.35,9.09-12.32
		c2.71-3.97,4.95-7.33,6.71-10.09c1.16-1.8,0.82-3.21-1-4.23c-0.79-0.46-1.61-0.56-2.46-0.31c-0.85,0.25-1.49,0.69-1.94,1.31
		c-1.21,1.91-2.98,4.6-5.3,8.06c-2.32,3.46-4.94,7.17-7.86,11.12c-2.92,3.95-6.13,7.92-9.64,11.89c-3.51,3.98-7.09,7.42-10.74,10.34
		c-3.65,2.91-7.23,5.09-10.75,6.52c-3.52,1.43-6.87,1.56-10.07,0.38c-3.2-1.18-4.99-2.89-5.36-5.11c-0.38-2.22,0.13-4.79,1.53-7.69
		c1.93-4.01,4.22-7.85,6.85-11.51c2.63-3.66,5.36-7.28,8.17-10.87c2.81-3.58,5.59-7.25,8.34-11c2.75-3.74,5.12-7.68,7.1-11.81
		c3.92-8.14,6-15.47,6.23-21.99c0.23-6.52-1.01-12.31-3.74-17.37C66.02,45.95,62,41.53,56.7,37.74c-5.3-3.78-11.5-7.07-18.59-9.85
		c2.26-4.69,3.99-8.36,5.2-11.01c1.2-2.65,2.26-5.06,3.16-7.23c1.01-2.4,2.1-5.26,3.27-8.59c1.17-3.33,2.05-6.72,2.63-10.16
		c0.58-3.44,0.57-6.72-0.01-9.84c-0.59-3.12-2.16-5.61-4.73-7.46c-3.54-2.52-6.96-3.5-10.26-2.92c-3.31,0.58-6.37,1.93-9.19,4.05
		c-2.82,2.12-5.29,4.72-7.43,7.79c-2.13,3.07-3.79,5.84-4.97,8.29C13.9-5.29,12.7-1.44,12.17,2.36c-0.53,3.8-0.26,7.46,0.8,10.97
		c1.06,3.52,2.95,6.8,5.68,9.86c2.73,3.05,6.43,5.75,11.1,8.08C26,38.43,22.04,45.6,17.86,52.78c-4.19,7.18-8.35,13.87-12.49,20.06
		L5.28,73.01z"/>
	<path class="st1" d="M242.38,122.06c-0.03-0.68-0.63-1.33-1.78-1.94c-1.64-0.81-2.89-0.69-3.76,0.36c-0.87,1.05-1.6,2.19-2.19,3.42
		c-3.7,6.78-7.61,13.83-11.73,21.17c-4.12,7.34-8.38,14.52-12.77,21.55c-1.21,1.91-2.71,4.27-4.5,7.08c-1.79,2.81-3.8,5.7-6.02,8.66
		c-2.23,2.97-4.6,5.87-7.13,8.71c-2.53,2.84-5.1,5.23-7.7,7.17c-2.6,1.94-5.26,3.32-7.97,4.15c-2.72,0.82-5.26,0.68-7.62-0.42
		c-1.94-0.8-2.49-3.03-1.66-6.7c0.83-3.68,2.42-8.17,4.77-13.5c2.35-5.32,5.23-11.16,8.66-17.52c3.42-6.35,6.88-12.63,10.37-18.82
		c3.49-6.19,6.79-11.99,9.91-17.4c3.11-5.41,5.51-9.85,7.18-13.31c0.43-0.89,0.8-1.74,1.12-2.55c0.31-0.81,0.15-1.67-0.48-2.61
		c-0.64-0.93-1.87-1.97-3.71-3.13c-1.83-1.16-4.63-2.51-8.37-4.05c-3.26-1.34-5.89-2.29-7.87-2.83c-1.98-0.55-3.61-0.78-4.88-0.7
		c-1.27,0.08-2.3,0.49-3.1,1.24c-0.79,0.75-1.58,1.76-2.34,3.05c-1.87,2.98-3.82,6.19-5.84,9.64c-2.03,3.45-4.09,7.05-6.19,10.81
		c-2.1,3.75-4.15,7.56-6.16,11.42c-2.01,3.86-3.9,7.63-5.67,11.32c-2.66,3.99-5.64,8.22-8.96,12.68c-3.32,4.46-6.69,8.49-10.11,12.1
		c-3.42,3.61-6.78,6.48-10.07,8.61c-3.29,2.13-6.18,2.75-8.67,1.85c-2.25-0.79-3.49-2.3-3.72-4.54c-0.23-2.23,0.2-4.94,1.29-8.1
		c1.09-3.17,2.7-6.72,4.81-10.67c2.12-3.95,4.4-7.99,6.83-12.15c2.43-4.15,4.93-8.28,7.49-12.38c2.55-4.1,4.81-7.89,6.78-11.36
		c3.05-5.43,5.35-10.58,6.9-15.43c1.54-4.85,2-9.31,1.38-13.39c-0.63-4.07-2.5-7.65-5.62-10.74c-3.12-3.09-7.79-5.51-14-7.26
		c-4.44-1.29-8.8-1.11-13.07,0.55c-4.27,1.66-8.38,4.15-12.3,7.49c-3.93,3.34-7.61,7.14-11.04,11.42c-3.44,4.27-6.48,8.41-9.13,12.4
		c-0.16,0.34-0.02,0.73,0.41,1.17c0.44,0.45,1.02,0.82,1.74,1.12c0.73,0.3,1.46,0.5,2.21,0.61c0.74,0.11,1.26,0.02,1.54-0.27
		c2.2-3.38,4.74-6.91,7.62-10.62c2.87-3.7,5.89-7.04,9.07-10.02c3.17-2.98,6.47-5.3,9.88-6.98c3.41-1.67,6.82-2.14,10.23-1.41
		c1.43,0.32,1.46,1.97,0.1,4.96c-1.37,2.98-3.49,6.79-6.38,11.43c-2.88,4.64-6.13,9.8-9.73,15.47c-3.6,5.68-6.84,11.34-9.7,16.99
		c-3.53,6.71-6.11,12.98-7.75,18.79c-1.65,5.82-2.1,11.12-1.36,15.9c0.74,4.79,2.91,9.06,6.53,12.82c3.62,3.77,9.07,6.94,16.37,9.54
		c2.71,0.98,5.46,1.14,8.24,0.48c2.78-0.66,5.59-1.91,8.44-3.76c2.84-1.84,5.62-4.15,8.33-6.91c2.71-2.77,5.35-5.76,7.92-8.99
		c-1.04,4.26-1.61,8.37-1.71,12.34c-0.1,3.97,0.41,7.63,1.55,10.98c1.14,3.35,2.93,6.32,5.37,8.93c2.44,2.61,5.77,4.78,10,6.52
		c4.11,1.69,8.13,2.21,12.07,1.55c3.94-0.66,7.7-2.08,11.3-4.29c3.59-2.2,7-4.98,10.22-8.34c3.21-3.36,6.18-6.89,8.91-10.59
		c2.72-3.7,5.24-7.35,7.56-10.94c2.31-3.6,4.29-6.8,5.93-9.61c-0.23,3.79,0.41,7.63,1.94,11.54c1.52,3.91,4.53,6.91,9.01,9.03
		c3.21,1.46,6.25,2.07,9.11,1.84c2.86-0.23,5.5-0.98,7.93-2.26c2.42-1.28,4.65-3.04,6.68-5.28c2.02-2.25,3.8-4.66,5.34-7.24
		l-0.08,0.17c0.62-0.68,0.76-1.43,0.42-2.23c-0.34-0.81-0.99-1.41-1.95-1.81c-0.73-0.3-1.45-0.3-2.18,0.01
		c-0.73,0.3-1.37,0.74-1.94,1.31c-2.64,4.27-5.72,7.58-9.25,9.95c-3.53,2.36-7.41,2.67-11.64,0.93c-3.09-1.4-5.13-3.48-6.12-6.23
		c-0.99-2.75-1.27-5.94-0.82-9.57c0.45-3.63,1.48-7.59,3.11-11.87c1.63-4.28,3.52-8.66,5.67-13.12c2.58-5.36,5.27-10.48,8.05-15.36
		C242.27,123.42,242.41,122.75,242.38,122.06 M18.56,18.57c-2.13-2.48-3.58-5.12-4.34-7.91c-0.76-2.79-0.85-5.74-0.3-8.85
		c0.56-3.11,1.57-6.18,3.02-9.2c0.7-1.45,1.78-3.31,3.24-5.59c1.46-2.28,3.15-4.36,5.07-6.24c1.92-1.88,4.01-3.27,6.24-4.16
		c2.24-0.89,4.49-0.66,6.74,0.66c1.95,1.07,3.07,2.87,3.37,5.4c0.3,2.53,0.17,5.29-0.4,8.27c-0.57,2.98-1.41,5.92-2.51,8.81
		c-1.11,2.89-2.03,5.26-2.77,7.09c-0.9,2.17-1.96,4.58-3.16,7.23c-1.21,2.65-2.94,6.32-5.2,11.01C23.7,23.22,20.7,21.05,18.56,18.57
		 M0.46,72.35c-0.86,1.79-0.44,3.03,1.25,3.72c1.84,0.89,3.26,0.61,4.25-0.86c4.16-6.32,8.33-13.07,12.5-20.25
		c4.16-7.19,8.19-14.53,12.09-22.03c4.32,1.65,7.75,3.25,10.27,4.83c2.53,1.57,4.32,3.31,5.38,5.22c1.06,1.91,1.38,4.04,0.97,6.41
		c-0.41,2.37-1.37,5.12-2.87,8.24c-1.94,4.02-4.06,7.89-6.36,11.61c-2.31,3.73-4.66,7.4-7.05,11.03c-2.4,3.62-4.72,7.24-6.97,10.86
		c-2.25,3.62-4.29,7.32-6.12,11.11c-2.42,5.02-4.2,10.06-5.34,15.14c-1.14,5.08-1.29,9.89-0.44,14.45
		c0.85,4.56,2.84,8.69,5.98,12.38c3.14,3.7,7.85,6.7,14.13,9.02c3.8,1.43,7.78,1.52,11.92,0.28c4.14-1.24,8.21-3.28,12.19-6.13
		c3.98-2.85,7.89-6.22,11.73-10.13c3.84-3.91,7.43-7.98,10.78-12.23c3.35-4.24,6.38-8.35,9.09-12.32c2.71-3.97,4.95-7.33,6.71-10.09
		c1.16-1.8,0.82-3.21-1-4.23c-0.79-0.46-1.61-0.56-2.46-0.31c-0.85,0.25-1.49,0.69-1.94,1.31c-1.21,1.91-2.98,4.6-5.3,8.06
		c-2.32,3.46-4.94,7.17-7.86,11.12c-2.92,3.95-6.13,7.92-9.64,11.89c-3.51,3.98-7.09,7.42-10.74,10.34
		c-3.65,2.91-7.23,5.09-10.75,6.52c-3.52,1.43-6.87,1.56-10.07,0.38c-3.2-1.18-4.99-2.89-5.36-5.11c-0.38-2.22,0.13-4.79,1.53-7.69
		c1.93-4.01,4.22-7.85,6.85-11.51c2.63-3.66,5.36-7.28,8.17-10.87s5.59-7.25,8.34-11c2.75-3.74,5.12-7.68,7.1-11.81
		c3.92-8.14,6-15.47,6.23-21.99c0.23-6.52-1.01-12.31-3.74-17.37c-2.72-5.06-6.74-9.48-12.04-13.27c-5.3-3.78-11.5-7.07-18.59-9.85
		c2.26-4.69,3.99-8.36,5.2-11.01c1.2-2.65,2.26-5.06,3.16-7.23c1.01-2.4,2.1-5.26,3.27-8.59c1.17-3.33,2.05-6.72,2.63-10.16
		c0.58-3.44,0.57-6.72-0.01-9.84c-0.59-3.12-2.16-5.61-4.73-7.46c-3.54-2.52-6.96-3.5-10.26-2.92c-3.31,0.58-6.37,1.93-9.19,4.05
		c-2.82,2.12-5.3,4.72-7.43,7.79c-2.13,3.07-3.79,5.84-4.97,8.29C9.07-5.94,7.87-2.09,7.34,1.71c-0.53,3.8-0.26,7.46,0.8,10.97
		c1.06,3.52,2.95,6.8,5.68,9.86c2.73,3.06,6.43,5.75,11.1,8.08c-3.74,7.16-7.71,14.33-11.89,21.51C8.85,59.31,4.69,65.99,0.54,72.18
		L0.46,72.35z"/>
	<path class="st2" d="M237.4,121.73c-0.03-0.68-0.63-1.33-1.78-1.94c-1.64-0.81-2.89-0.69-3.76,0.36c-0.87,1.05-1.6,2.19-2.19,3.42
		c-3.7,6.78-7.61,13.83-11.73,21.17c-4.12,7.34-8.38,14.52-12.77,21.55c-1.21,1.91-2.71,4.27-4.5,7.08c-1.79,2.81-3.8,5.7-6.02,8.66
		c-2.23,2.97-4.6,5.87-7.13,8.71c-2.53,2.84-5.1,5.23-7.7,7.17c-2.6,1.94-5.26,3.32-7.97,4.15c-2.72,0.82-5.26,0.68-7.62-0.42
		c-1.94-0.8-2.49-3.03-1.66-6.7c0.83-3.68,2.42-8.17,4.77-13.5c2.35-5.32,5.23-11.16,8.66-17.52c3.42-6.35,6.88-12.63,10.37-18.82
		c3.49-6.19,6.79-11.99,9.91-17.4c3.11-5.41,5.51-9.85,7.18-13.31c0.43-0.89,0.8-1.74,1.12-2.55c0.31-0.81,0.15-1.67-0.48-2.61
		c-0.64-0.93-1.87-1.97-3.71-3.13c-1.83-1.16-4.63-2.51-8.37-4.05c-3.26-1.34-5.89-2.29-7.87-2.83c-1.98-0.55-3.61-0.78-4.88-0.7
		c-1.27,0.08-2.3,0.49-3.1,1.24c-0.79,0.75-1.58,1.76-2.34,3.05c-1.87,2.98-3.82,6.19-5.84,9.64c-2.03,3.45-4.09,7.05-6.19,10.81
		c-2.1,3.75-4.15,7.56-6.16,11.42c-2.01,3.86-3.9,7.63-5.67,11.32c-2.66,3.99-5.64,8.22-8.96,12.68c-3.32,4.46-6.69,8.49-10.11,12.1
		c-3.42,3.61-6.78,6.48-10.07,8.61c-3.29,2.13-6.18,2.75-8.67,1.85c-2.25-0.79-3.49-2.3-3.72-4.54c-0.23-2.23,0.2-4.94,1.29-8.1
		c1.09-3.17,2.7-6.72,4.81-10.67c2.12-3.95,4.4-7.99,6.83-12.15c2.43-4.15,4.93-8.28,7.49-12.38c2.55-4.1,4.81-7.89,6.78-11.36
		c3.05-5.43,5.35-10.58,6.9-15.43c1.54-4.85,2-9.31,1.38-13.39c-0.63-4.07-2.5-7.65-5.62-10.74c-3.12-3.09-7.79-5.51-14-7.26
		c-4.44-1.29-8.8-1.11-13.07,0.55c-4.27,1.66-8.38,4.15-12.3,7.49c-3.93,3.34-7.61,7.14-11.04,11.42c-3.44,4.27-6.48,8.41-9.13,12.4
		c-0.16,0.34-0.02,0.73,0.41,1.17c0.44,0.45,1.02,0.82,1.74,1.12c0.73,0.3,1.46,0.5,2.21,0.61c0.74,0.11,1.26,0.02,1.54-0.27
		c2.2-3.38,4.74-6.91,7.62-10.62c2.87-3.7,5.89-7.04,9.07-10.02c3.17-2.98,6.47-5.3,9.88-6.98c3.41-1.67,6.82-2.14,10.23-1.41
		c1.43,0.32,1.46,1.97,0.1,4.96c-1.37,2.98-3.49,6.79-6.38,11.43c-2.88,4.64-6.13,9.8-9.73,15.47c-3.6,5.68-6.84,11.34-9.7,16.99
		c-3.53,6.71-6.11,12.98-7.75,18.79c-1.65,5.82-2.1,11.12-1.36,15.9c0.74,4.79,2.91,9.06,6.53,12.82c3.62,3.77,9.07,6.94,16.37,9.54
		c2.71,0.98,5.46,1.14,8.24,0.48c2.78-0.66,5.59-1.91,8.44-3.76c2.84-1.84,5.62-4.15,8.33-6.91c2.71-2.77,5.35-5.76,7.92-8.99
		c-1.04,4.26-1.61,8.37-1.71,12.34c-0.1,3.97,0.41,7.63,1.55,10.98c1.14,3.35,2.93,6.32,5.37,8.93c2.44,2.61,5.77,4.78,10,6.52
		c4.11,1.69,8.13,2.21,12.07,1.55c3.94-0.66,7.7-2.08,11.3-4.29c3.59-2.2,7-4.98,10.22-8.34c3.21-3.36,6.18-6.89,8.91-10.59
		c2.72-3.7,5.24-7.35,7.56-10.94c2.31-3.6,4.29-6.8,5.93-9.61c-0.23,3.79,0.41,7.63,1.94,11.54c1.52,3.91,4.53,6.91,9.01,9.03
		c3.21,1.46,6.25,2.07,9.11,1.84c2.86-0.23,5.5-0.98,7.93-2.26c2.43-1.28,4.65-3.04,6.68-5.28c2.02-2.25,3.8-4.66,5.34-7.24
		l-0.08,0.17c0.62-0.68,0.76-1.43,0.42-2.23c-0.34-0.81-0.99-1.41-1.95-1.81c-0.73-0.3-1.45-0.3-2.18,0.01
		c-0.73,0.3-1.37,0.74-1.94,1.31c-2.64,4.27-5.72,7.58-9.25,9.95c-3.53,2.36-7.41,2.67-11.64,0.93c-3.09-1.4-5.13-3.48-6.12-6.23
		c-0.99-2.75-1.27-5.94-0.82-9.57c0.45-3.63,1.48-7.59,3.11-11.87c1.63-4.28,3.52-8.66,5.67-13.12c2.58-5.36,5.27-10.48,8.05-15.36
		C237.29,123.09,237.43,122.41,237.4,121.73 M13.58,18.23c-2.13-2.48-3.58-5.12-4.34-7.91c-0.76-2.79-0.85-5.74-0.3-8.85
		c0.56-3.11,1.57-6.18,3.02-9.2c0.7-1.45,1.78-3.31,3.24-5.59c1.46-2.28,3.15-4.36,5.07-6.24c1.92-1.88,4.01-3.27,6.24-4.16
		c2.24-0.89,4.49-0.66,6.74,0.66c1.95,1.07,3.07,2.87,3.37,5.4c0.3,2.53,0.17,5.29-0.4,8.27c-0.57,2.98-1.41,5.92-2.51,8.81
		c-1.11,2.89-2.03,5.26-2.77,7.09c-0.9,2.17-1.96,4.58-3.16,7.23c-1.21,2.65-2.94,6.32-5.2,11.01
		C18.72,22.89,15.72,20.71,13.58,18.23 M-4.52,72.01c-0.86,1.79-0.44,3.03,1.25,3.72c1.84,0.89,3.26,0.61,4.25-0.86
		c4.16-6.32,8.33-13.07,12.5-20.25c4.16-7.19,8.19-14.53,12.09-22.03c4.32,1.65,7.75,3.25,10.27,4.83c2.53,1.57,4.32,3.31,5.38,5.22
		c1.06,1.91,1.38,4.04,0.97,6.41c-0.41,2.37-1.37,5.12-2.87,8.24c-1.94,4.02-4.06,7.89-6.36,11.61c-2.31,3.73-4.66,7.4-7.05,11.03
		c-2.4,3.62-4.72,7.24-6.97,10.86c-2.25,3.62-4.29,7.32-6.12,11.11c-2.42,5.02-4.2,10.06-5.34,15.14
		c-1.14,5.08-1.29,9.89-0.44,14.45c0.85,4.56,2.84,8.69,5.98,12.38c3.14,3.7,7.85,6.7,14.13,9.02c3.8,1.43,7.78,1.52,11.92,0.28
		c4.14-1.24,8.21-3.28,12.19-6.13c3.98-2.85,7.89-6.22,11.73-10.13c3.84-3.91,7.43-7.98,10.78-12.23c3.35-4.24,6.38-8.35,9.09-12.32
		c2.71-3.97,4.95-7.33,6.71-10.09c1.16-1.8,0.82-3.21-1-4.23c-0.79-0.46-1.61-0.56-2.46-0.31c-0.85,0.25-1.49,0.69-1.94,1.31
		c-1.21,1.91-2.98,4.6-5.3,8.06c-2.32,3.46-4.94,7.17-7.86,11.12c-2.92,3.95-6.13,7.92-9.64,11.89c-3.51,3.98-7.09,7.42-10.74,10.34
		c-3.65,2.91-7.23,5.09-10.75,6.52c-3.52,1.43-6.87,1.56-10.07,0.38c-3.2-1.18-4.99-2.89-5.36-5.11c-0.38-2.22,0.13-4.79,1.53-7.69
		c1.93-4.01,4.22-7.85,6.85-11.51c2.63-3.66,5.36-7.28,8.17-10.87c2.81-3.58,5.59-7.25,8.34-11c2.75-3.74,5.12-7.68,7.1-11.81
		c3.92-8.14,6-15.47,6.23-21.99c0.23-6.52-1.01-12.31-3.74-17.37c-2.72-5.06-6.74-9.48-12.04-13.27c-5.3-3.78-11.5-7.07-18.59-9.85
		c2.26-4.69,3.99-8.36,5.2-11.01c1.2-2.65,2.26-5.06,3.16-7.23c1.01-2.4,2.1-5.26,3.27-8.59c1.17-3.33,2.05-6.72,2.63-10.16
		c0.58-3.44,0.57-6.72-0.01-9.84c-0.59-3.12-2.16-5.61-4.73-7.46c-3.54-2.52-6.96-3.5-10.26-2.92c-3.31,0.58-6.37,1.93-9.19,4.05
		c-2.82,2.12-5.29,4.72-7.43,7.79c-2.13,3.07-3.79,5.84-4.97,8.29C4.1-6.28,2.89-2.43,2.37,1.37c-0.53,3.8-0.26,7.46,0.8,10.97
		c1.06,3.52,2.95,6.8,5.68,9.86c2.73,3.06,6.43,5.75,11.1,8.08c-3.74,7.16-7.71,14.33-11.89,21.51C3.87,58.97-0.29,65.66-4.44,71.85
		L-4.52,72.01z"/>
	<path class="st3" d="M232.3,122.71c-0.03-0.68-0.63-1.33-1.78-1.94c-1.64-0.81-2.89-0.69-3.76,0.36c-0.87,1.05-1.6,2.19-2.19,3.42
		c-3.7,6.78-7.61,13.83-11.73,21.17c-4.12,7.34-8.38,14.52-12.77,21.55c-1.21,1.91-2.71,4.27-4.5,7.08c-1.79,2.81-3.8,5.7-6.02,8.66
		c-2.23,2.97-4.6,5.87-7.13,8.71c-2.53,2.84-5.1,5.23-7.7,7.17c-2.6,1.94-5.26,3.32-7.97,4.15c-2.72,0.82-5.26,0.68-7.62-0.42
		c-1.94-0.8-2.49-3.03-1.66-6.7c0.83-3.68,2.42-8.17,4.77-13.5c2.35-5.32,5.23-11.16,8.66-17.52c3.42-6.35,6.88-12.63,10.37-18.82
		c3.49-6.19,6.79-11.99,9.91-17.4c3.11-5.41,5.51-9.85,7.18-13.31c0.43-0.89,0.8-1.74,1.12-2.55c0.31-0.81,0.15-1.67-0.48-2.61
		c-0.64-0.93-1.87-1.97-3.71-3.13c-1.83-1.16-4.63-2.51-8.37-4.05c-3.26-1.34-5.89-2.29-7.87-2.83c-1.98-0.55-3.61-0.78-4.88-0.7
		c-1.27,0.08-2.3,0.49-3.1,1.24c-0.79,0.75-1.58,1.76-2.34,3.05c-1.87,2.98-3.82,6.19-5.84,9.64c-2.03,3.45-4.09,7.05-6.19,10.81
		c-2.1,3.75-4.15,7.56-6.16,11.42c-2.01,3.86-3.9,7.63-5.67,11.32c-2.66,3.99-5.64,8.22-8.96,12.68c-3.32,4.46-6.69,8.49-10.11,12.1
		c-3.42,3.61-6.78,6.48-10.07,8.61c-3.29,2.13-6.18,2.75-8.67,1.85c-2.25-0.79-3.49-2.3-3.72-4.54c-0.23-2.23,0.2-4.94,1.29-8.1
		c1.09-3.17,2.7-6.72,4.81-10.67c2.12-3.95,4.4-7.99,6.83-12.15c2.43-4.15,4.93-8.28,7.49-12.38c2.55-4.1,4.81-7.89,6.78-11.36
		c3.05-5.43,5.35-10.58,6.9-15.43c1.54-4.85,2-9.31,1.38-13.39c-0.63-4.07-2.5-7.65-5.62-10.74c-3.12-3.09-7.79-5.51-14-7.26
		c-4.44-1.29-8.8-1.11-13.07,0.55c-4.27,1.66-8.38,4.15-12.3,7.49c-3.93,3.34-7.61,7.14-11.04,11.42c-3.44,4.27-6.48,8.41-9.13,12.4
		c-0.16,0.34-0.02,0.73,0.41,1.17c0.44,0.45,1.02,0.82,1.74,1.12c0.73,0.3,1.46,0.5,2.21,0.61c0.74,0.11,1.26,0.02,1.54-0.27
		c2.2-3.38,4.74-6.91,7.62-10.62c2.87-3.7,5.89-7.04,9.07-10.02c3.17-2.98,6.47-5.3,9.88-6.98c3.41-1.67,6.82-2.14,10.23-1.41
		c1.43,0.32,1.46,1.97,0.1,4.96c-1.37,2.98-3.49,6.79-6.38,11.43c-2.88,4.64-6.13,9.8-9.73,15.47c-3.6,5.68-6.84,11.34-9.7,16.99
		c-3.53,6.71-6.11,12.98-7.75,18.79c-1.65,5.82-2.1,11.12-1.36,15.9c0.74,4.79,2.91,9.06,6.53,12.82c3.62,3.77,9.07,6.94,16.37,9.54
		c2.71,0.98,5.46,1.14,8.24,0.48c2.78-0.66,5.59-1.91,8.44-3.76c2.84-1.84,5.62-4.15,8.33-6.91c2.71-2.77,5.35-5.76,7.92-8.99
		c-1.04,4.26-1.61,8.37-1.71,12.34c-0.1,3.97,0.41,7.63,1.55,10.98c1.14,3.35,2.93,6.32,5.37,8.93c2.44,2.61,5.77,4.78,10,6.52
		c4.11,1.69,8.13,2.21,12.07,1.55c3.94-0.66,7.7-2.08,11.3-4.29c3.59-2.2,7-4.98,10.22-8.34c3.21-3.36,6.18-6.89,8.91-10.59
		c2.72-3.7,5.24-7.35,7.56-10.94c2.31-3.6,4.29-6.8,5.93-9.61c-0.23,3.79,0.41,7.63,1.94,11.54c1.52,3.91,4.53,6.91,9.01,9.03
		c3.21,1.46,6.25,2.07,9.11,1.84c2.86-0.23,5.5-0.98,7.93-2.26c2.42-1.28,4.65-3.04,6.68-5.28c2.02-2.25,3.8-4.66,5.34-7.24
		l-0.08,0.17c0.62-0.68,0.76-1.43,0.42-2.23c-0.34-0.81-0.99-1.41-1.95-1.81c-0.73-0.3-1.45-0.3-2.18,0.01
		c-0.73,0.3-1.37,0.74-1.94,1.31c-2.64,4.27-5.72,7.58-9.25,9.95c-3.53,2.36-7.41,2.67-11.64,0.93c-3.09-1.4-5.13-3.48-6.12-6.23
		c-0.99-2.75-1.27-5.94-0.82-9.57c0.45-3.63,1.48-7.59,3.11-11.87c1.63-4.28,3.52-8.66,5.67-13.12c2.58-5.36,5.27-10.48,8.05-15.36
		C232.19,124.07,232.33,123.4,232.3,122.71 M8.48,19.22c-2.13-2.48-3.58-5.12-4.34-7.91c-0.76-2.79-0.85-5.74-0.3-8.85
		c0.56-3.11,1.57-6.18,3.02-9.2c0.7-1.45,1.78-3.31,3.24-5.59c1.46-2.28,3.15-4.36,5.07-6.24c1.92-1.88,4.01-3.27,6.24-4.16
		c2.24-0.89,4.49-0.66,6.74,0.66c1.95,1.07,3.07,2.87,3.37,5.4c0.3,2.53,0.17,5.29-0.4,8.27c-0.57,2.98-1.41,5.92-2.51,8.81
		C27.52,3.3,26.6,5.66,25.86,7.5c-0.9,2.17-1.96,4.58-3.16,7.23c-1.21,2.65-2.94,6.32-5.2,11.01C13.62,23.88,10.61,21.7,8.48,19.22
		 M-9.62,73c-0.86,1.79-0.44,3.03,1.25,3.72c1.84,0.89,3.26,0.61,4.25-0.86C0.04,69.55,4.2,62.8,8.37,55.61
		c4.16-7.19,8.19-14.53,12.09-22.03c4.32,1.65,7.75,3.25,10.27,4.83c2.53,1.57,4.32,3.31,5.38,5.22c1.06,1.91,1.38,4.04,0.97,6.41
		c-0.41,2.37-1.37,5.12-2.87,8.24c-1.94,4.02-4.06,7.89-6.36,11.61c-2.31,3.73-4.66,7.4-7.05,11.03c-2.4,3.62-4.72,7.24-6.97,10.86
		c-2.25,3.62-4.29,7.32-6.12,11.11c-2.42,5.02-4.2,10.06-5.34,15.14c-1.14,5.08-1.29,9.89-0.44,14.45
		c0.85,4.56,2.84,8.69,5.98,12.38c3.14,3.7,7.85,6.7,14.13,9.02c3.8,1.43,7.78,1.52,11.92,0.28c4.14-1.24,8.21-3.28,12.19-6.13
		c3.98-2.85,7.89-6.22,11.73-10.13c3.84-3.91,7.43-7.98,10.78-12.23c3.35-4.24,6.38-8.35,9.09-12.32c2.71-3.97,4.95-7.33,6.71-10.09
		c1.16-1.8,0.82-3.21-1-4.23c-0.79-0.46-1.61-0.56-2.46-0.31c-0.85,0.25-1.49,0.69-1.94,1.31c-1.21,1.91-2.98,4.6-5.3,8.06
		s-4.94,7.17-7.86,11.12c-2.92,3.95-6.13,7.92-9.64,11.89c-3.51,3.98-7.09,7.42-10.74,10.34c-3.65,2.91-7.23,5.09-10.75,6.52
		c-3.52,1.43-6.87,1.56-10.07,0.38c-3.2-1.18-4.99-2.89-5.36-5.11c-0.38-2.22,0.13-4.79,1.53-7.69c1.93-4.01,4.22-7.85,6.85-11.51
		c2.63-3.66,5.36-7.28,8.17-10.87c2.81-3.58,5.59-7.25,8.34-11c2.75-3.74,5.12-7.68,7.1-11.81c3.92-8.14,6-15.47,6.23-21.99
		c0.23-6.52-1.01-12.31-3.74-17.37S47.1,41.52,41.8,37.74c-5.3-3.78-11.5-7.07-18.59-9.85c2.26-4.69,3.99-8.36,5.2-11.01
		c1.2-2.65,2.26-5.06,3.16-7.23c1.01-2.4,2.1-5.26,3.27-8.59c1.17-3.33,2.05-6.72,2.63-10.16c0.58-3.44,0.57-6.72-0.01-9.84
		c-0.59-3.12-2.16-5.61-4.73-7.46c-3.54-2.52-6.96-3.49-10.26-2.92c-3.31,0.58-6.37,1.93-9.19,4.05c-2.82,2.12-5.29,4.72-7.43,7.79
		c-2.13,3.07-3.79,5.84-4.97,8.29C-1.01-5.29-2.21-1.44-2.74,2.36C-3.26,6.16-3,9.82-1.94,13.33c1.06,3.52,2.95,6.8,5.68,9.86
		c2.73,3.06,6.43,5.75,11.1,8.08C11.1,38.43,7.13,45.6,2.95,52.78c-4.19,7.18-8.35,13.87-12.49,20.06L-9.62,73z"/>
</g>
</svg>
