<?xml version="1.0" encoding="utf-8"?>
<!-- Generator: Adobe Illustrator 24.3.0, SVG Export Plug-In . SVG Version: 6.00 Build 0)  -->
<svg version="1.1" xmlns="http://www.w3.org/2000/svg" xmlns:xlink="http://www.w3.org/1999/xlink" x="0px" y="0px"
	 viewBox="0 0 612 792" style="enable-background:new 0 0 612 792;" xml:space="preserve">
<style type="text/css">
	.st0{clip-path:url(#SVGID_2_);fill:#5F2756;}
	.st1{clip-path:url(#SVGID_2_);fill:#F8A257;}
</style>
<g id="Layer_3">
</g>
<g id="Layer_2">
	<g>
		<defs>
			<rect id="SVGID_1_" x="157.85" y="228.3" width="189.42" height="310.06"/>
		</defs>
		<clipPath id="SVGID_2_">
			<use xlink:href="#SVGID_1_"  style="overflow:visible;"/>
		</clipPath>
		<path class="st0" d="M258.11,501.23c0.58-0.33,0.93-1.17,1.06-2.51c0.13-1.88-0.41-2.99-1.61-3.34c-1.2-0.35-2.44-0.52-3.7-0.54
			c-7.12-0.46-14.54-1-22.29-1.6c-7.75-0.6-15.4-1.41-22.97-2.41c-2.06-0.29-4.62-0.64-7.65-1.07c-3.04-0.43-6.22-1.03-9.54-1.79
			c-3.33-0.77-6.65-1.7-9.97-2.81c-3.32-1.1-6.27-2.44-8.83-4c-2.57-1.57-4.68-3.43-6.32-5.59c-1.65-2.16-2.4-4.58-2.26-7.27
			c0.02-2.15,1.75-3.64,5.21-4.48c3.45-0.84,7.88-1.34,13.28-1.49c5.4-0.15,11.42-0.04,18.08,0.36c6.65,0.39,13.26,0.85,19.8,1.38
			c6.54,0.53,12.68,1.05,18.42,1.57c5.74,0.52,10.38,0.8,13.94,0.83c0.92,0.01,1.78-0.02,2.59-0.08c0.8-0.06,1.5-0.59,2.08-1.59
			c0.58-1,1.06-2.61,1.42-4.82c0.36-2.21,0.57-5.4,0.6-9.56c0.03-3.62-0.06-6.48-0.27-8.56c-0.21-2.08-0.57-3.7-1.08-4.84
			c-0.51-1.15-1.22-1.92-2.13-2.33c-0.92-0.41-2.06-0.69-3.44-0.84c-3.21-0.43-6.65-0.83-10.32-1.2c-3.67-0.37-7.49-0.7-11.45-1.01
			c-3.96-0.31-7.95-0.54-11.96-0.71c-4.02-0.17-7.92-0.27-11.71-0.3c-4.36-0.72-9.03-1.64-14.01-2.76
			c-4.99-1.13-9.62-2.49-13.92-4.08c-4.29-1.59-7.92-3.45-10.89-5.58c-2.97-2.12-4.5-4.54-4.59-7.24c-0.1-2.44,0.78-4.25,2.63-5.45
			c1.85-1.19,4.32-1.98,7.43-2.35c3.1-0.38,6.72-0.44,10.85-0.21c4.13,0.24,8.4,0.58,12.82,1.02c4.41,0.44,8.83,0.95,13.25,1.53
			c4.41,0.57,8.46,1.01,12.13,1.31c5.74,0.45,10.96,0.33,15.68-0.36c4.71-0.69,8.72-2.23,12.01-4.6c3.29-2.37,5.73-5.69,7.32-9.94
			c1.59-4.26,2.06-9.65,1.43-16.19c-0.42-4.69-2.08-8.66-4.98-11.91c-2.9-3.25-6.47-5.96-10.69-8.14
			c-4.23-2.18-8.78-3.93-13.65-5.25c-4.87-1.32-9.48-2.33-13.84-3.04c-0.35,0-0.64,0.3-0.87,0.9c-0.24,0.6-0.36,1.31-0.36,2.11
			c-0.01,0.8,0.07,1.58,0.24,2.32c0.17,0.74,0.42,1.18,0.76,1.32c3.67,0.57,7.59,1.38,11.78,2.42c4.18,1.04,8.1,2.39,11.76,4.03
			c3.66,1.64,6.8,3.68,9.42,6.12c2.62,2.44,4.2,5.4,4.75,8.88c0.21,1.47-1.2,2.22-4.24,2.27c-3.04,0.04-7.06-0.26-12.05-0.91
			c-4.99-0.64-10.55-1.39-16.69-2.25c-6.14-0.85-12.13-1.37-17.99-1.56c-7-0.33-13.29,0.02-18.87,1.04
			c-5.58,1.02-10.3,2.93-14.17,5.71c-3.87,2.78-6.8,6.68-8.8,11.7c-2,5.01-2.86,11.48-2.58,19.4c0.09,2.95,0.9,5.57,2.43,7.87
			c1.53,2.29,3.58,4.36,6.15,6.19c2.57,1.84,5.51,3.4,8.83,4.71c3.32,1.3,6.81,2.44,10.48,3.41c-4.03,0.9-7.77,2.18-11.23,3.83
			c-3.46,1.65-6.44,3.73-8.93,6.26c-2.49,2.53-4.44,5.5-5.85,8.91c-1.41,3.41-2.13,7.46-2.17,12.16c-0.04,4.56,0.9,8.53,2.82,11.9
			c1.92,3.37,4.45,6.24,7.59,8.62c3.14,2.37,6.71,4.32,10.71,5.83c4,1.51,8.07,2.72,12.2,3.63c4.13,0.91,8.14,1.65,12.04,2.22
			c3.9,0.57,7.34,1,10.32,1.3c-3.35,1.44-6.44,3.73-9.28,6.86c-2.84,3.13-4.4,7.24-4.67,12.34c-0.15,3.62,0.37,6.71,1.55,9.27
			c1.18,2.56,2.74,4.68,4.68,6.38c1.93,1.69,4.22,2.99,6.85,3.88c2.63,0.89,5.33,1.49,8.08,1.78l-0.17,0
			c0.8,0.27,1.49,0.08,2.07-0.59c0.58-0.67,0.87-1.54,0.88-2.61c0.01-0.8-0.25-1.48-0.76-2.02c-0.51-0.54-1.11-0.95-1.8-1.22
			c-4.59-0.58-8.51-1.99-11.76-4.23c-3.25-2.24-4.86-5.71-4.82-10.41c0.15-3.49,1.23-6.3,3.26-8.42c2.03-2.13,4.68-3.78,7.97-4.96
			c3.28-1.18,7.05-1.95,11.3-2.32c4.25-0.37,8.67-0.53,13.27-0.49c5.51,0.05,10.85,0.3,16.01,0.74
			C256.9,501.72,257.54,501.56,258.11,501.23 M270.14,247.83c1.4-3.07,3.18-5.57,5.32-7.5c2.14-1.92,4.65-3.31,7.53-4.16
			c2.88-0.85,5.87-1.26,8.97-1.23c1.49,0.01,3.47,0.2,5.94,0.55c2.46,0.36,4.84,1.02,7.13,1.97c2.29,0.96,4.2,2.29,5.74,3.98
			c1.54,1.69,2.12,3.88,1.75,6.55c-0.25,2.28-1.42,4.12-3.49,5.51c-2.08,1.39-4.5,2.48-7.26,3.26c-2.76,0.78-5.58,1.29-8.45,1.54
			c-2.87,0.24-5.23,0.42-7.07,0.54c-2.18,0.11-4.62,0.19-7.32,0.24c-2.7,0.04-6.46,0.04-11.28,0
			C267.9,254.66,268.74,250.91,270.14,247.83 M217.55,254.62c-1.84-0.02-2.76,0.92-2.78,2.79c-0.13,2.1,0.6,3.29,2.21,3.57
			c6.88,1.1,14.13,2.01,21.76,2.72c7.63,0.71,15.34,1.24,23.15,1.57c0.07,4.74-0.14,8.62-0.62,11.67c-0.48,3.04-1.37,5.47-2.64,7.29
			c-1.28,1.82-3.01,3.05-5.19,3.71c-2.18,0.66-4.88,0.97-8.09,0.94c-4.13-0.04-8.19-0.31-12.2-0.81s-7.98-1.07-11.94-1.71
			c-3.95-0.64-7.87-1.21-11.77-1.71c-3.89-0.51-7.79-0.77-11.68-0.81c-5.16-0.04-10.12,0.52-14.89,1.68
			c-4.77,1.17-8.97,3.14-12.6,5.93c-3.63,2.78-6.51,6.45-8.61,10.99c-2.1,4.54-3.07,10.24-2.9,17.08c0.08,4.16,1.37,7.89,3.87,11.2
			c2.5,3.31,5.65,6.19,9.48,8.64c3.82,2.45,8.08,4.6,12.78,6.45c4.69,1.85,9.44,3.4,14.25,4.65c4.81,1.25,9.39,2.26,13.75,3.04
			c4.35,0.77,8.02,1.38,11.01,1.81c1.95,0.28,3.05-0.65,3.3-2.79c0.12-0.94-0.07-1.75-0.58-2.42c-0.51-0.68-1.11-1.08-1.8-1.22
			c-2.06-0.29-4.99-0.75-8.77-1.38c-3.78-0.64-7.88-1.45-12.3-2.42c-4.41-0.98-8.94-2.23-13.57-3.74
			c-4.64-1.52-8.84-3.33-12.61-5.44c-3.77-2.12-6.88-4.49-9.32-7.13c-2.45-2.64-3.71-5.7-3.79-9.19c-0.09-3.49,0.77-5.9,2.55-7.22
			c1.79-1.33,4.17-1.98,7.15-1.95c4.13,0.04,8.22,0.48,12.28,1.32c4.06,0.84,8.13,1.78,12.18,2.82c4.06,1.04,8.18,2.01,12.35,2.92
			c4.18,0.91,8.39,1.38,12.63,1.42c8.37,0.07,15.4-1.22,21.1-3.86c5.7-2.65,10.26-6.35,13.68-11.1c3.42-4.75,5.85-10.42,7.28-17.01
			c1.43-6.58,2.13-13.78,2.08-21.6c4.82,0.04,8.58,0.04,11.28,0c2.7-0.05,5.14-0.12,7.32-0.24c2.41-0.11,5.26-0.36,8.53-0.73
			c3.28-0.37,6.49-1.04,9.66-2.02c3.17-0.97,5.99-2.42,8.48-4.33c2.48-1.91,4.09-4.47,4.8-7.67c0.96-4.39,0.61-8-1.02-10.82
			c-1.64-2.82-3.86-5.07-6.66-6.76c-2.8-1.69-5.89-2.85-9.27-3.49c-3.38-0.63-6.34-0.95-8.86-0.98c-4.02-0.03-7.75,0.54-11.21,1.71
			c-3.45,1.18-6.52,3.03-9.18,5.56c-2.67,2.53-4.85,5.73-6.53,9.6c-1.69,3.88-2.74,8.5-3.14,13.86c-7.46-0.33-15.01-0.87-22.63-1.61
			c-7.63-0.74-14.83-1.67-21.59-2.8L217.55,254.62z"/>
		<path class="st1" d="M167.66,267.28l-0.05,0.03l-1.22-2.55l-2.64,1.52l6.33,13.28l2.74-1.57l-3.18-6.67
			c-0.24-0.5-0.43-1.02-0.57-1.56c-0.14-0.54-0.2-1.06-0.19-1.55c0.01-0.49,0.09-0.93,0.25-1.32c0.16-0.39,0.41-0.68,0.76-0.88
			c0.21-0.12,0.41-0.2,0.61-0.25l-1.3-3.1c-0.1,0.01-0.17,0.03-0.23,0.06c-0.06,0.03-0.12,0.07-0.2,0.12
			c-0.6,0.35-1.01,0.9-1.21,1.65C167.37,265.24,167.4,266.18,167.66,267.28"/>
		<path class="st1" d="M195.15,267.76l-1.87-2.09c-0.12,0.32-0.29,0.6-0.5,0.84c-0.22,0.23-0.51,0.41-0.87,0.52
			c-0.77,0.25-1.47,0-2.07-0.74c-0.61-0.74-1.1-1.83-1.49-3.26c-0.38-1.43-0.51-2.64-0.37-3.63c0.14-0.99,0.56-1.61,1.28-1.84
			c0.36-0.12,0.69-0.14,0.97-0.07c0.29,0.07,0.56,0.19,0.81,0.35l0.67-2.82c-0.38-0.22-0.85-0.39-1.43-0.49
			c-0.58-0.1-1.22-0.04-1.92,0.19c-0.81,0.26-1.47,0.67-1.98,1.24c-0.52,0.56-0.9,1.25-1.14,2.07c-0.24,0.81-0.35,1.72-0.31,2.74
			c0.04,1.01,0.2,2.08,0.51,3.21c0.3,1.13,0.68,2.13,1.14,3c0.46,0.87,0.99,1.59,1.59,2.14c0.6,0.55,1.26,0.92,1.98,1.09
			c0.72,0.17,1.49,0.13,2.29-0.13c0.65-0.21,1.21-0.52,1.66-0.92C194.55,268.75,194.9,268.29,195.15,267.76 M181.78,271.12
			l0.76,2.07l2.34-1.04l-3.04-8.26c-0.35-0.96-0.74-1.79-1.17-2.49c-0.42-0.7-0.89-1.23-1.42-1.61c-0.52-0.37-1.11-0.57-1.74-0.6
			c-0.64-0.03-1.35,0.12-2.13,0.47c-0.7,0.31-1.34,0.8-1.92,1.47c-0.58,0.67-0.99,1.43-1.22,2.27l2.06,1.34
			c0.14-0.53,0.35-1,0.65-1.42c0.3-0.42,0.69-0.73,1.17-0.95c0.56-0.25,1.09-0.25,1.58,0.01c0.49,0.26,0.91,0.85,1.25,1.77
			l0.16,0.44l-0.7,0.31c-0.6,0.26-1.18,0.6-1.75,1.02c-0.57,0.41-1.04,0.91-1.42,1.5c-0.37,0.59-0.6,1.27-0.7,2.04
			c-0.09,0.77,0.04,1.64,0.4,2.62c0.28,0.76,0.62,1.37,1.02,1.82c0.4,0.45,0.81,0.77,1.24,0.97c0.43,0.2,0.86,0.29,1.3,0.26
			c0.43-0.02,0.83-0.12,1.2-0.28c0.8-0.35,1.36-0.85,1.68-1.49c0.32-0.64,0.44-1.38,0.34-2.23L181.78,271.12z M180.28,267.53
			c0.15,0.42,0.28,0.87,0.37,1.34c0.09,0.48,0.12,0.93,0.1,1.37c-0.02,0.43-0.12,0.83-0.3,1.18c-0.18,0.36-0.46,0.62-0.84,0.79
			c-0.38,0.17-0.78,0.15-1.2-0.07c-0.42-0.22-0.76-0.69-1.03-1.41c-0.18-0.49-0.25-0.93-0.22-1.31c0.03-0.38,0.14-0.72,0.32-1.01
			c0.18-0.29,0.42-0.54,0.72-0.75c0.3-0.21,0.62-0.39,0.97-0.54l0.82-0.36L180.28,267.53z"/>
		<path class="st1" d="M225.57,265.26l0.35-22.22l-3.03-0.05l-0.35,22.22L225.57,265.26z M212.03,256.56
			c-0.03-0.35-0.01-0.75,0.04-1.2c0.05-0.45,0.15-0.87,0.29-1.27c0.14-0.4,0.34-0.73,0.6-1.01c0.26-0.28,0.58-0.44,0.97-0.47
			c0.68-0.06,1.2,0.23,1.58,0.9c0.37,0.66,0.6,1.55,0.69,2.66L212.03,256.56z M219.28,258.3l-0.1-1.26
			c-0.08-1.07-0.25-2.06-0.5-2.96c-0.25-0.9-0.59-1.67-1.03-2.31c-0.43-0.64-0.97-1.12-1.62-1.46c-0.65-0.33-1.4-0.46-2.28-0.38
			c-0.79,0.07-1.48,0.33-2.08,0.77c-0.6,0.44-1.11,1.03-1.52,1.78c-0.41,0.75-0.7,1.63-0.87,2.63c-0.17,1.01-0.22,2.11-0.12,3.3
			c0.2,2.56,0.83,4.47,1.9,5.75c1.07,1.28,2.39,1.84,3.98,1.69c1.12-0.11,2.02-0.5,2.7-1.18c0.68-0.68,1.17-1.56,1.48-2.63
			l-2.33-1.2c-0.16,0.53-0.39,1-0.69,1.42s-0.73,0.66-1.28,0.71c-0.39,0.04-0.74-0.04-1.06-0.24c-0.31-0.2-0.58-0.48-0.82-0.84
			s-0.42-0.8-0.57-1.31c-0.15-0.51-0.24-1.05-0.29-1.64L219.28,258.3z M206.99,266.1l-1.58-9.24c-0.13-0.75-0.3-1.48-0.51-2.18
			c-0.21-0.7-0.49-1.31-0.83-1.82c-0.34-0.51-0.77-0.88-1.28-1.13c-0.52-0.24-1.14-0.29-1.88-0.14c-0.84,0.17-1.5,0.59-1.96,1.26
			c-0.46,0.66-0.74,1.39-0.84,2.19l-0.05,0.01l-1.6-9.39l-2.98,0.61l3.73,21.84l2.98-0.62l-1.45-8.52c-0.19-1.12-0.15-2.08,0.12-2.9
			c0.27-0.81,0.74-1.29,1.41-1.43c0.35-0.07,0.65-0.04,0.9,0.1c0.25,0.14,0.46,0.35,0.63,0.63c0.17,0.28,0.3,0.61,0.4,0.98
			c0.1,0.37,0.18,0.74,0.24,1.1l1.58,9.24L206.99,266.1z"/>
		<path class="st1" d="M309.58,305.04l1.75-1.69l-5.53-6.87l-1.75,1.69L309.58,305.04z M295.51,278.1l-8.88,11.43l2.31,2.15
			l5.14-6.61c0.67-0.87,1.38-1.44,2.13-1.72c0.75-0.28,1.38-0.18,1.9,0.3c0.27,0.25,0.44,0.53,0.5,0.83
			c0.06,0.3,0.04,0.61-0.06,0.93c-0.1,0.32-0.25,0.64-0.44,0.96c-0.2,0.32-0.41,0.62-0.63,0.9l-5.57,7.17l2.31,2.15l5.57-7.17
			c0.45-0.58,0.86-1.19,1.23-1.81c0.37-0.62,0.62-1.24,0.77-1.85c0.15-0.61,0.15-1.21,0-1.79c-0.14-0.58-0.5-1.14-1.07-1.68
			c-0.65-0.61-1.37-0.91-2.14-0.89c-0.78,0.01-1.49,0.24-2.16,0.67l-0.04-0.04l1.41-1.81L295.51,278.1z M283.29,275.88
			c0.18-0.29,0.43-0.59,0.73-0.89c0.3-0.31,0.63-0.56,0.97-0.77c0.34-0.21,0.69-0.33,1.05-0.36c0.36-0.03,0.7,0.07,1.02,0.32
			c0.56,0.43,0.79,1.02,0.69,1.8c-0.1,0.77-0.44,1.62-1.03,2.53L283.29,275.88z M287.84,282.3l0.66-1.04
			c0.56-0.88,1.01-1.76,1.35-2.63c0.33-0.87,0.52-1.7,0.56-2.49c0.04-0.8-0.09-1.55-0.39-2.26c-0.3-0.71-0.81-1.34-1.53-1.89
			c-0.65-0.49-1.33-0.78-2.05-0.87c-0.72-0.08-1.46,0.02-2.21,0.31c-0.75,0.29-1.49,0.76-2.21,1.41c-0.72,0.65-1.4,1.47-2.02,2.45
			c-1.34,2.11-1.98,4.03-1.9,5.75c0.07,1.73,0.76,3.09,2.07,4.09c0.92,0.71,1.84,1.03,2.76,0.98c0.92-0.05,1.81-0.38,2.67-0.99
			l-1.09-2.55c-0.43,0.3-0.88,0.5-1.36,0.62c-0.48,0.11-0.94,0-1.39-0.35c-0.32-0.25-0.55-0.55-0.67-0.92
			c-0.12-0.37-0.17-0.78-0.14-1.22c0.03-0.44,0.14-0.91,0.32-1.4c0.18-0.49,0.43-0.98,0.74-1.46L287.84,282.3z M277.76,268.83
			l-0.05-0.03l1.29-2.51l-2.6-1.6l-6.73,13.07l2.69,1.66l3.38-6.56c0.26-0.49,0.55-0.95,0.89-1.37c0.34-0.42,0.7-0.76,1.08-1.02
			c0.38-0.26,0.76-0.42,1.15-0.49c0.38-0.07,0.75,0,1.09,0.22c0.2,0.12,0.38,0.26,0.52,0.42l1.67-2.89
			c-0.06-0.08-0.12-0.14-0.17-0.17c-0.05-0.03-0.12-0.07-0.2-0.12c-0.59-0.37-1.23-0.43-1.92-0.21
			C279.16,267.44,278.46,267.98,277.76,268.83 M269.42,264.29l-0.05-0.02l1.07-2.64l-2.72-1.32l-5.54,13.72l2.82,1.36l2.78-6.89
			c0.21-0.52,0.47-1.01,0.77-1.46c0.3-0.45,0.63-0.83,0.99-1.13c0.36-0.3,0.72-0.5,1.1-0.61c0.38-0.11,0.74-0.07,1.1,0.1
			c0.21,0.1,0.4,0.22,0.56,0.36l1.41-3.05c-0.07-0.07-0.13-0.13-0.19-0.15c-0.06-0.03-0.13-0.06-0.21-0.1c-0.62-0.3-1.27-0.3-1.93,0
			C270.69,262.77,270.05,263.37,269.42,264.29 M257.2,269.57l-0.64,2.12l2.4,0.86l2.55-8.46c0.3-0.99,0.49-1.9,0.58-2.73
			c0.09-0.83,0.05-1.58-0.14-2.23c-0.18-0.65-0.51-1.22-0.97-1.7c-0.47-0.48-1.1-0.86-1.9-1.15c-0.71-0.26-1.49-0.33-2.33-0.23
			c-0.84,0.1-1.6,0.39-2.27,0.87l0.78,2.48c0.41-0.31,0.85-0.51,1.33-0.62c0.47-0.11,0.96-0.07,1.45,0.1
			c0.58,0.21,0.98,0.58,1.2,1.13c0.22,0.54,0.19,1.29-0.1,2.24l-0.13,0.45l-0.71-0.26c-0.61-0.22-1.26-0.38-1.94-0.47
			c-0.68-0.09-1.33-0.04-1.96,0.15c-0.63,0.19-1.21,0.54-1.73,1.07c-0.53,0.52-0.94,1.29-1.24,2.29c-0.23,0.78-0.33,1.49-0.3,2.11
			c0.04,0.62,0.16,1.16,0.37,1.62c0.21,0.46,0.49,0.83,0.84,1.12c0.34,0.29,0.7,0.5,1.08,0.64c0.82,0.29,1.54,0.31,2.16,0.05
			c0.62-0.26,1.15-0.75,1.57-1.46L257.2,269.57z M258.17,265.77c-0.13,0.43-0.3,0.86-0.51,1.29c-0.21,0.43-0.46,0.8-0.73,1.11
			c-0.27,0.32-0.58,0.54-0.93,0.69c-0.35,0.14-0.71,0.15-1.1,0c-0.39-0.14-0.68-0.44-0.87-0.9c-0.19-0.46-0.17-1.06,0.05-1.81
			c0.15-0.5,0.35-0.89,0.6-1.16c0.25-0.27,0.53-0.45,0.84-0.55c0.31-0.09,0.64-0.11,0.99-0.06c0.35,0.05,0.71,0.14,1.06,0.27
			l0.84,0.3L258.17,265.77z M251.36,253.87l-2.99-0.55l-3.36,10.56l-0.05-0.01l-0.29-11.24l-2.65-0.49l-3.62,10.51l-0.05-0.01
			l0.05-11.17l-3.07-0.57l0.58,15.32l3.12,0.58l3.5-9.76l0.03,0.01l0.36,10.47l3.2,0.59L251.36,253.87z"/>
		<path class="st1" d="M328.06,393.37l2.44-1.21c-0.23-0.23-0.42-0.5-0.54-0.81c-0.12-0.3-0.17-0.66-0.15-1.07
			c0.06-0.88,0.51-1.51,1.36-1.88c0.85-0.37,1.95-0.51,3.31-0.41c1.36,0.1,2.44,0.39,3.24,0.87c0.8,0.48,1.18,1.13,1.13,1.95
			c-0.03,0.41-0.12,0.75-0.28,1.02c-0.16,0.27-0.35,0.51-0.58,0.71l2.18,1.66c0.32-0.31,0.63-0.75,0.91-1.3
			c0.28-0.56,0.45-1.24,0.5-2.04c0.06-0.92-0.07-1.74-0.37-2.46c-0.3-0.72-0.76-1.35-1.38-1.88c-0.61-0.53-1.36-0.95-2.23-1.26
			c-0.88-0.31-1.85-0.51-2.92-0.59c-1.07-0.08-2.06-0.03-2.97,0.14c-0.91,0.17-1.7,0.47-2.38,0.9c-0.68,0.43-1.22,0.98-1.62,1.66
			c-0.4,0.68-0.63,1.48-0.69,2.4c-0.05,0.74,0.02,1.42,0.21,2.02C327.41,392.41,327.69,392.93,328.06,393.37 M327.77,381.1
			l13.68-0.52l-0.1-3.32l-13.68,0.52L327.77,381.1z M346.75,380.1c0.36-0.38,0.54-0.85,0.52-1.42c-0.02-0.57-0.22-1.03-0.61-1.37
			c-0.39-0.35-0.84-0.51-1.36-0.49c-0.54,0.02-0.98,0.22-1.32,0.59c-0.35,0.38-0.51,0.85-0.49,1.42c0.02,0.55,0.21,1,0.58,1.36
			c0.37,0.36,0.82,0.53,1.36,0.51C345.94,380.67,346.39,380.47,346.75,380.1 M327.74,373.88l8.51-1.28c0.69-0.1,1.37-0.25,2.02-0.45
			c0.65-0.2,1.22-0.47,1.7-0.82c0.48-0.35,0.84-0.8,1.09-1.35c0.25-0.55,0.32-1.23,0.22-2.05c-0.11-0.93-0.46-1.67-1.04-2.2
			s-1.23-0.88-1.96-1.03l-0.01-0.06l8.64-1.29l-0.41-3.29l-20.11,3.01l0.41,3.29l7.85-1.18c1.03-0.15,1.91-0.06,2.64,0.27
			c0.73,0.34,1.14,0.87,1.23,1.61c0.05,0.39,0,0.72-0.14,0.99c-0.14,0.27-0.34,0.49-0.61,0.65c-0.27,0.17-0.57,0.3-0.91,0.39
			c-0.34,0.09-0.68,0.16-1.02,0.21l-8.51,1.27L327.74,373.88z M330.19,355.31c-0.58,0.05-1.09,0.04-1.54-0.05
			c-0.45-0.08-0.83-0.25-1.13-0.49c-0.3-0.24-0.5-0.58-0.59-0.99c-0.09-0.4-0.05-0.79,0.12-1.15c0.17-0.37,0.43-0.7,0.8-1.01
			c0.36-0.31,0.81-0.59,1.35-0.84c0.53-0.25,1.11-0.46,1.74-0.63c0.63-0.16,1.23-0.27,1.81-0.31c0.58-0.04,1.09-0.02,1.54,0.08
			c0.44,0.09,0.81,0.26,1.12,0.51c0.3,0.24,0.49,0.57,0.58,0.96c0.09,0.42,0.05,0.81-0.11,1.18c-0.17,0.37-0.43,0.7-0.79,0.99
			c-0.36,0.3-0.8,0.57-1.34,0.81c-0.54,0.24-1.12,0.44-1.74,0.61C331.36,355.15,330.76,355.26,330.19,355.31 M335.43,357.16
			c0.82-0.44,1.5-0.94,2.05-1.51c0.55-0.57,0.94-1.19,1.17-1.86c0.23-0.68,0.26-1.39,0.1-2.16c-0.2-0.93-0.58-1.59-1.13-1.97
			c-0.55-0.38-1.19-0.6-1.9-0.68l-0.01-0.06l1.88-0.49l-0.68-3.12l-19.58,5.16l0.69,3.17l8.01-2.11l0.01,0.06
			c-0.56,0.37-1,0.88-1.31,1.54c-0.31,0.66-0.37,1.4-0.19,2.24c0.17,0.76,0.49,1.39,0.98,1.89c0.48,0.5,1.09,0.86,1.82,1.09
			c0.73,0.23,1.55,0.33,2.45,0.31c0.9-0.03,1.87-0.18,2.9-0.45C333.71,357.95,334.62,357.6,335.43,357.16 M323.55,341.93l-1.93,0.74
			l0.83,2.61l7.68-2.93c0.9-0.34,1.68-0.73,2.33-1.16c0.66-0.43,1.17-0.92,1.54-1.47c0.36-0.55,0.58-1.18,0.64-1.88
			c0.06-0.7-0.04-1.48-0.32-2.35c-0.25-0.78-0.66-1.5-1.24-2.17c-0.58-0.67-1.25-1.15-2.01-1.44l-1.33,2.19
			c0.47,0.17,0.89,0.43,1.26,0.78c0.37,0.35,0.63,0.79,0.8,1.33c0.2,0.63,0.17,1.21-0.09,1.73c-0.26,0.52-0.82,0.95-1.68,1.28
			l-0.41,0.16l-0.25-0.78c-0.21-0.67-0.49-1.32-0.84-1.97c-0.35-0.64-0.78-1.18-1.3-1.62c-0.52-0.43-1.12-0.72-1.82-0.86
			c-0.7-0.14-1.5-0.03-2.41,0.32c-0.71,0.27-1.28,0.61-1.71,1.02c-0.43,0.41-0.74,0.85-0.95,1.31c-0.21,0.46-0.31,0.93-0.31,1.41
			c0,0.48,0.06,0.92,0.19,1.33c0.28,0.89,0.71,1.53,1.27,1.91c0.57,0.38,1.24,0.54,2.01,0.48L323.55,341.93z M326.89,340.46
			c-0.39,0.15-0.8,0.26-1.24,0.33c-0.44,0.08-0.86,0.09-1.25,0.04c-0.39-0.05-0.75-0.18-1.06-0.39c-0.31-0.21-0.54-0.53-0.67-0.96
			s-0.09-0.86,0.13-1.31c0.22-0.45,0.67-0.8,1.34-1.06c0.46-0.17,0.86-0.23,1.21-0.18c0.35,0.05,0.65,0.19,0.91,0.4
			c0.26,0.21,0.47,0.49,0.65,0.83c0.17,0.34,0.32,0.7,0.44,1.09l0.29,0.92L326.89,340.46z M327.58,326.74l-0.02-0.05l2.39-1.21
			l-1.25-2.96l-12.43,6.31l1.29,3.07l6.24-3.17c0.47-0.24,0.96-0.42,1.46-0.54c0.5-0.12,0.97-0.17,1.42-0.14
			c0.45,0.03,0.84,0.14,1.19,0.33c0.35,0.19,0.6,0.48,0.77,0.87c0.1,0.23,0.16,0.46,0.2,0.68l2.89-1.27c0-0.11-0.02-0.19-0.05-0.25
			c-0.03-0.06-0.06-0.14-0.1-0.23c-0.28-0.68-0.77-1.14-1.45-1.4C329.46,326.51,328.6,326.5,327.58,326.74 M317.33,319.63
			c-0.54,0.22-1.05,0.37-1.5,0.42c-0.46,0.06-0.86,0.02-1.22-0.12c-0.35-0.14-0.63-0.38-0.81-0.74c-0.2-0.37-0.27-0.76-0.2-1.16
			c0.06-0.41,0.23-0.81,0.51-1.21c0.27-0.4,0.63-0.81,1.08-1.21c0.45-0.4,0.95-0.78,1.51-1.14c0.55-0.36,1.1-0.65,1.64-0.89
			c0.54-0.23,1.03-0.38,1.48-0.44c0.44-0.06,0.84-0.02,1.2,0.11c0.35,0.14,0.63,0.39,0.83,0.76c0.19,0.36,0.25,0.73,0.19,1.14
			c-0.06,0.4-0.23,0.81-0.49,1.22c-0.26,0.41-0.61,0.81-1.06,1.22s-0.94,0.8-1.5,1.15C318.43,319.12,317.88,319.41,317.33,319.63
			 M326.32,317.69l-1.47-2.74l-1.67,1.07l-0.04-0.08c0.48-0.58,0.8-1.22,0.96-1.91c0.16-0.69,0.02-1.45-0.43-2.28
			c-0.36-0.68-0.84-1.17-1.43-1.48c-0.59-0.31-1.26-0.47-2.01-0.47c-0.75,0-1.55,0.16-2.43,0.47c-0.87,0.31-1.76,0.76-2.67,1.34
			c-0.9,0.58-1.68,1.2-2.34,1.86c-0.66,0.67-1.18,1.35-1.55,2.05c-0.37,0.7-0.57,1.42-0.6,2.14c-0.03,0.72,0.14,1.43,0.51,2.12
			c0.38,0.71,0.89,1.2,1.52,1.46c0.63,0.27,1.26,0.32,1.88,0.17l0.03,0.05l-1.44,0.92c-0.48,0.31-0.95,0.55-1.4,0.73
			c-0.45,0.18-0.88,0.27-1.29,0.27c-0.41,0-0.78-0.1-1.13-0.31c-0.35-0.21-0.65-0.55-0.9-1.02c-0.32-0.59-0.48-1.22-0.51-1.87
			c-0.02-0.66,0.06-1.29,0.23-1.9l-2.7-0.34c-0.24,0.86-0.31,1.8-0.19,2.81c0.12,1.01,0.42,1.97,0.9,2.87
			c0.51,0.95,1.08,1.66,1.72,2.13c0.64,0.48,1.33,0.76,2.07,0.85c0.74,0.09,1.52,0,2.34-0.28c0.82-0.27,1.66-0.7,2.55-1.26
			L326.32,317.69z"/>
		<path class="st1" d="M289.37,486.71l0.04-0.04l1.54,2.33l2.41-1.92l-8.02-12.14l-2.5,1.98l4.03,6.09c0.3,0.46,0.56,0.95,0.77,1.46
			c0.21,0.51,0.34,1.01,0.39,1.5c0.06,0.49,0.03,0.94-0.07,1.34c-0.11,0.41-0.32,0.74-0.64,1c-0.19,0.15-0.38,0.26-0.57,0.34
			l1.69,2.86c0.09-0.03,0.16-0.06,0.22-0.1c0.05-0.04,0.11-0.09,0.18-0.15c0.55-0.44,0.88-1.05,0.98-1.83
			C289.93,488.69,289.78,487.77,289.37,486.71 M298.4,474.82c0.21,0.27,0.42,0.59,0.62,0.99c0.2,0.39,0.35,0.8,0.45,1.21
			c0.1,0.41,0.13,0.81,0.07,1.2c-0.05,0.39-0.23,0.73-0.53,1.02c-0.51,0.49-1.1,0.6-1.76,0.31c-0.66-0.29-1.33-0.85-2-1.69
			L298.4,474.82z M291.63,478.15l0.76,0.95c0.65,0.81,1.32,1.49,2.01,2.05c0.69,0.56,1.38,0.96,2.08,1.18
			c0.7,0.23,1.39,0.26,2.09,0.11c0.7-0.15,1.38-0.55,2.04-1.18c0.59-0.57,1.01-1.23,1.26-1.98c0.25-0.75,0.33-1.55,0.26-2.42
			c-0.08-0.87-0.32-1.76-0.73-2.68c-0.41-0.92-0.97-1.84-1.7-2.73c-1.55-1.92-3.1-3.05-4.65-3.38c-1.55-0.33-2.93,0.09-4.12,1.24
			c-0.85,0.82-1.36,1.72-1.53,2.71c-0.17,0.99-0.09,2.01,0.24,3.08l2.52-0.56c-0.16-0.53-0.23-1.05-0.22-1.59
			c0.01-0.53,0.23-1,0.64-1.4c0.3-0.29,0.62-0.45,0.98-0.5s0.73,0,1.11,0.14c0.38,0.14,0.78,0.36,1.17,0.67
			c0.39,0.31,0.77,0.69,1.12,1.13L291.63,478.15z M313.88,465.96l-9.98-10.24l-2.07,2.43l5.77,5.93c0.76,0.78,1.24,1.58,1.47,2.41
			c0.22,0.83,0.1,1.52-0.37,2.06c-0.25,0.28-0.51,0.45-0.78,0.51c-0.28,0.05-0.56,0.02-0.85-0.1c-0.29-0.12-0.57-0.3-0.85-0.53
			c-0.28-0.23-0.54-0.48-0.79-0.73l-6.26-6.43l-2.08,2.43l6.26,6.43c0.51,0.52,1.04,1,1.59,1.43c0.55,0.43,1.1,0.74,1.65,0.93
			c0.55,0.19,1.1,0.22,1.64,0.09c0.54-0.13,1.07-0.5,1.58-1.1c0.59-0.69,0.9-1.45,0.92-2.3c0.03-0.85-0.14-1.64-0.51-2.39l0.04-0.04
			l1.59,1.63L313.88,465.96z M311.93,452.87c-0.41-0.45-0.74-0.89-0.97-1.32c-0.24-0.43-0.37-0.85-0.41-1.26
			c-0.03-0.41,0.06-0.78,0.27-1.12c0.23-0.35,0.52-0.58,0.88-0.69c0.36-0.11,0.77-0.11,1.21,0c0.45,0.1,0.93,0.29,1.45,0.57
			c0.52,0.28,1.04,0.62,1.57,1.02c0.53,0.41,1,0.83,1.42,1.26c0.42,0.44,0.74,0.87,0.98,1.29c0.23,0.42,0.37,0.83,0.4,1.24
			c0.03,0.41-0.06,0.79-0.29,1.14c-0.22,0.34-0.51,0.56-0.87,0.67c-0.36,0.11-0.77,0.11-1.21,0.02c-0.44-0.09-0.93-0.27-1.45-0.54
			c-0.53-0.27-1.05-0.61-1.58-1.01C312.81,453.75,312.34,453.32,311.93,452.87 M317.28,461l1.66-2.61l-1.58-1.21l0.05-0.07
			c0.68,0.23,1.34,0.28,1.98,0.15c0.64-0.13,1.21-0.59,1.71-1.38c0.41-0.64,0.62-1.33,0.63-2.05c0.01-0.72-0.14-1.45-0.45-2.19
			c-0.31-0.74-0.78-1.48-1.4-2.22c-0.62-0.74-1.36-1.44-2.23-2.1c-0.85-0.65-1.69-1.17-2.51-1.55c-0.83-0.38-1.61-0.61-2.35-0.68
			c-0.74-0.07-1.41,0.02-2.02,0.3c-0.61,0.27-1.13,0.74-1.55,1.4c-0.43,0.68-0.63,1.38-0.58,2.12c0.04,0.74,0.26,1.39,0.64,1.94
			l-0.03,0.05l-1.36-1.04c-0.45-0.35-0.85-0.71-1.19-1.09c-0.34-0.38-0.59-0.77-0.76-1.17c-0.17-0.4-0.24-0.82-0.21-1.26
			c0.02-0.43,0.18-0.88,0.47-1.33c0.36-0.56,0.81-0.99,1.34-1.29c0.54-0.3,1.1-0.48,1.67-0.57l-0.84-2.83
			c-0.81,0.12-1.62,0.45-2.41,0.99c-0.79,0.54-1.46,1.24-2.01,2.09c-0.57,0.9-0.92,1.77-1.05,2.6c-0.13,0.84-0.07,1.64,0.16,2.42
			c0.23,0.78,0.64,1.51,1.21,2.21c0.57,0.7,1.27,1.37,2.11,2.01L317.28,461z M313.35,440.32l11.92,7.35l1.49-2.9l-11.92-7.35
			L313.35,440.32z M330.02,450.28c0.49-0.11,0.86-0.42,1.12-0.91c0.26-0.5,0.3-1,0.14-1.52c-0.16-0.52-0.47-0.91-0.92-1.19
			c-0.47-0.29-0.94-0.37-1.41-0.25c-0.48,0.12-0.84,0.43-1.1,0.93c-0.25,0.48-0.3,0.97-0.15,1.49c0.14,0.52,0.45,0.92,0.92,1.21
			C329.06,450.31,329.53,450.4,330.02,450.28 M327.65,440.61c0.61-0.26,1.19-0.66,1.73-1.19c0.54-0.53,0.97-1.21,1.31-2.04
			c0.22-0.56,0.36-1.13,0.39-1.74c0.04-0.6-0.03-1.18-0.21-1.74c-0.18-0.55-0.45-1.07-0.83-1.54c-0.38-0.47-0.87-0.85-1.47-1.15
			c-0.57-0.28-1.09-0.43-1.56-0.45s-0.9,0.04-1.3,0.19c-0.39,0.15-0.74,0.36-1.04,0.62c-0.3,0.26-0.58,0.54-0.84,0.85
			c-0.51,0.59-0.98,1.03-1.42,1.33c-0.43,0.3-0.94,0.3-1.53,0.01c-0.51-0.24-0.86-0.59-1.05-1.02c-0.19-0.44-0.19-0.91,0.01-1.41
			c0.23-0.57,0.56-1.02,0.98-1.33s0.86-0.55,1.34-0.7l-1.1-2.5c-0.73,0.27-1.41,0.7-2.02,1.29c-0.61,0.59-1.09,1.32-1.44,2.18
			c-0.23,0.57-0.37,1.17-0.42,1.77c-0.05,0.61,0.01,1.2,0.19,1.78c0.18,0.58,0.47,1.11,0.89,1.6c0.42,0.49,0.97,0.9,1.66,1.23
			c0.57,0.28,1.11,0.42,1.6,0.43c0.49,0.01,0.95-0.07,1.37-0.24c0.42-0.17,0.8-0.4,1.15-0.7c0.34-0.3,0.66-0.61,0.95-0.94
			c0.51-0.59,0.94-0.99,1.29-1.21c0.35-0.22,0.77-0.21,1.26,0.03c0.47,0.23,0.79,0.57,0.96,1.01c0.16,0.44,0.15,0.89-0.03,1.34
			c-0.2,0.48-0.47,0.87-0.82,1.15c-0.35,0.28-0.73,0.47-1.14,0.57L327.65,440.61z M330.46,420.35c0.31,0.11,0.64,0.28,0.99,0.51
			c0.36,0.23,0.67,0.49,0.95,0.79c0.28,0.3,0.48,0.63,0.62,1c0.14,0.37,0.14,0.76,0.02,1.17c-0.21,0.71-0.67,1.12-1.38,1.24
			c-0.7,0.12-1.54,0-2.51-0.35L330.46,420.35z M326.16,426.97l1.1,0.39c0.94,0.34,1.83,0.55,2.69,0.65c0.85,0.1,1.64,0.06,2.34-0.13
			c0.71-0.19,1.33-0.54,1.86-1.07c0.53-0.52,0.94-1.24,1.21-2.15c0.25-0.82,0.3-1.62,0.17-2.4c-0.13-0.78-0.43-1.52-0.9-2.23
			c-0.47-0.7-1.09-1.34-1.87-1.91c-0.78-0.57-1.69-1.04-2.72-1.41c-2.23-0.8-4.08-0.91-5.58-0.33s-2.49,1.7-2.99,3.35
			c-0.35,1.17-0.37,2.23-0.07,3.18c0.31,0.95,0.85,1.79,1.63,2.52l1.92-1.88c-0.38-0.36-0.69-0.78-0.92-1.24
			c-0.24-0.47-0.27-0.99-0.09-1.57c0.12-0.41,0.33-0.73,0.62-0.97c0.29-0.24,0.63-0.41,1.02-0.5c0.39-0.1,0.84-0.12,1.32-0.07
			c0.48,0.05,0.98,0.17,1.49,0.35L326.16,426.97z M329.89,409.35c-0.53-0.24-0.98-0.51-1.35-0.81c-0.37-0.3-0.64-0.63-0.81-1
			c-0.17-0.36-0.22-0.75-0.13-1.18c0.09-0.42,0.28-0.76,0.58-1c0.3-0.25,0.67-0.42,1.12-0.51c0.45-0.09,0.96-0.12,1.53-0.08
			c0.57,0.04,1.17,0.13,1.8,0.28c0.65,0.16,1.23,0.35,1.77,0.58c0.53,0.23,0.98,0.49,1.35,0.78c0.37,0.29,0.64,0.62,0.82,0.98
			c0.17,0.36,0.22,0.75,0.13,1.18c-0.08,0.4-0.27,0.73-0.57,0.99c-0.3,0.26-0.68,0.44-1.13,0.54c-0.45,0.1-0.96,0.14-1.53,0.11
			c-0.57-0.03-1.18-0.12-1.83-0.28C331,409.79,330.42,409.59,329.89,409.35 M324.32,411.4l19.81,4.79l0.65-3.19l-8.15-1.97
			l0.02-0.09c0.65-0.06,1.24-0.32,1.77-0.78c0.52-0.46,0.86-1.09,1.03-1.89c0.16-0.79,0.12-1.51-0.11-2.18
			c-0.23-0.67-0.62-1.28-1.15-1.83c-0.54-0.55-1.21-1.03-2.03-1.44c-0.82-0.41-1.73-0.74-2.74-0.98c-1.03-0.25-2.01-0.38-2.93-0.38
			s-1.76,0.12-2.49,0.36c-0.74,0.24-1.35,0.62-1.84,1.12c-0.49,0.51-0.81,1.13-0.96,1.88c-0.2,0.96-0.12,1.74,0.23,2.36
			s0.84,1.11,1.46,1.48l-0.01,0.06l-1.91-0.46L324.32,411.4z"/>
		<path class="st1" d="M164.32,494.7l0.05,0.03l-1.29,2.51l2.59,1.6l6.73-13.07l-2.69-1.66l-3.38,6.56
			c-0.26,0.49-0.55,0.95-0.89,1.37c-0.34,0.42-0.7,0.76-1.08,1.02c-0.38,0.26-0.76,0.42-1.15,0.49c-0.38,0.07-0.75,0-1.09-0.22
			c-0.2-0.12-0.38-0.26-0.52-0.42l-1.67,2.89c0.06,0.08,0.12,0.14,0.17,0.17c0.05,0.03,0.12,0.07,0.2,0.12
			c0.59,0.37,1.23,0.43,1.92,0.21C162.92,496.09,163.61,495.55,164.32,494.7 M175.84,493.59c0.31-0.53,0.64-0.97,0.97-1.3
			c0.33-0.33,0.68-0.56,1.03-0.68c0.36-0.11,0.72-0.09,1.08,0.09c0.36,0.17,0.62,0.44,0.77,0.81c0.16,0.37,0.23,0.79,0.23,1.28
			c0,0.49-0.08,1.04-0.23,1.66c-0.15,0.61-0.36,1.24-0.62,1.89c-0.27,0.66-0.56,1.26-0.87,1.78c-0.31,0.53-0.63,0.96-0.97,1.3
			c-0.33,0.34-0.68,0.57-1.03,0.69c-0.35,0.12-0.71,0.09-1.07-0.08c-0.36-0.17-0.62-0.44-0.77-0.81c-0.16-0.36-0.23-0.8-0.24-1.3
			c0-0.51,0.07-1.06,0.22-1.66c0.15-0.6,0.35-1.24,0.62-1.9C175.24,494.71,175.52,494.12,175.84,493.59 M171.34,497.15
			c-0.15,1.01-0.14,1.94,0.02,2.79c0.16,0.85,0.46,1.59,0.91,2.22c0.45,0.64,1.05,1.13,1.81,1.5c0.75,0.36,1.5,0.52,2.24,0.46
			s1.44-0.31,2.12-0.76c0.67-0.45,1.3-1.07,1.89-1.87c0.59-0.8,1.1-1.75,1.54-2.84c0.43-1.08,0.72-2.12,0.86-3.12
			c0.14-1,0.13-1.92-0.03-2.76c-0.16-0.84-0.47-1.58-0.91-2.22c-0.45-0.64-1.05-1.15-1.8-1.51c-0.75-0.36-1.5-0.51-2.23-0.44
			c-0.74,0.07-1.44,0.33-2.12,0.76c-0.68,0.43-1.31,1.05-1.89,1.84c-0.58,0.79-1.09,1.72-1.53,2.8
			C171.77,495.08,171.48,496.14,171.34,497.15 M182.44,503.91l-0.73,2.43l2.27,0.81l-1.09,3.63l2.7,0.97l1.09-3.63l1.63,0.59
			l0.73-2.43l-1.63-0.59l2.41-8.02c0.4-1.34,0.47-2.46,0.2-3.35c-0.27-0.89-0.96-1.54-2.06-1.93c-0.34-0.12-0.69-0.21-1.05-0.25
			s-0.66-0.05-0.9-0.01l-0.69,2.48c0.14-0.03,0.3-0.04,0.47-0.02s0.33,0.06,0.49,0.11c0.44,0.16,0.71,0.45,0.82,0.88
			c0.11,0.43,0.04,1.03-0.19,1.82l-2.2,7.32L182.44,503.91z M196.5,497.73l0.44-2.18l-2.46-0.6l-1.77,8.7
			c-0.21,1.01-0.32,1.94-0.33,2.78c-0.01,0.84,0.1,1.57,0.33,2.21c0.24,0.63,0.61,1.16,1.12,1.58c0.51,0.42,1.17,0.74,2,0.93
			c0.73,0.18,1.51,0.17,2.34-0.02c0.83-0.19,1.55-0.56,2.18-1.11l-1-2.38c-0.38,0.35-0.8,0.6-1.27,0.76
			c-0.46,0.16-0.95,0.18-1.45,0.06c-0.59-0.14-1.03-0.47-1.3-0.99c-0.27-0.52-0.31-1.27-0.11-2.24l0.09-0.46l0.73,0.18
			c0.63,0.15,1.29,0.24,1.97,0.25c0.68,0.01,1.33-0.1,1.94-0.36c0.61-0.25,1.15-0.67,1.63-1.25c0.48-0.58,0.82-1.38,1.03-2.42
			c0.16-0.8,0.2-1.51,0.1-2.13c-0.1-0.62-0.27-1.14-0.52-1.57c-0.25-0.43-0.56-0.77-0.93-1.02c-0.37-0.25-0.75-0.42-1.13-0.51
			c-0.84-0.2-1.56-0.14-2.15,0.18c-0.6,0.33-1.07,0.87-1.43,1.63L196.5,497.73z M195.87,501.62c0.09-0.44,0.22-0.89,0.39-1.33
			c0.17-0.45,0.38-0.85,0.63-1.19c0.24-0.34,0.53-0.6,0.86-0.79c0.33-0.18,0.7-0.22,1.1-0.13c0.4,0.1,0.72,0.37,0.95,0.8
			c0.23,0.44,0.27,1.04,0.11,1.8c-0.11,0.52-0.27,0.92-0.49,1.22c-0.23,0.3-0.49,0.51-0.79,0.64c-0.3,0.13-0.63,0.18-0.98,0.17
			c-0.35-0.02-0.71-0.07-1.08-0.16l-0.86-0.21L195.87,501.62z M206.16,509.64l0.05,0.01l-0.31,2.86l2.96,0.38l1.62-14.89l-3.06-0.39
			l-0.81,7.48c-0.06,0.56-0.17,1.11-0.34,1.64c-0.17,0.53-0.38,1-0.64,1.4c-0.26,0.4-0.55,0.71-0.89,0.94
			c-0.33,0.22-0.69,0.31-1.08,0.26c-0.23-0.03-0.44-0.09-0.63-0.17l-0.53,3.36c0.09,0.05,0.16,0.08,0.22,0.09
			c0.06,0.01,0.14,0.02,0.23,0.03c0.68,0.09,1.29-0.12,1.85-0.62C205.36,511.51,205.81,510.72,206.16,509.64 M211.93,510.61
			l-0.16,2.55l2.38,0.17l-0.24,3.81l2.84,0.21l0.24-3.81l1.71,0.12l0.16-2.55l-1.71-0.12l0.52-8.42c0.09-1.41-0.1-2.51-0.56-3.3
			c-0.46-0.79-1.27-1.23-2.43-1.31c-0.36-0.03-0.72-0.01-1.08,0.04c-0.36,0.05-0.65,0.13-0.87,0.23l-0.11,2.59
			c0.13-0.07,0.28-0.12,0.45-0.14c0.17-0.03,0.34-0.04,0.5-0.02c0.46,0.03,0.8,0.24,1,0.63c0.2,0.39,0.27,0.99,0.22,1.81l-0.48,7.69
			L211.93,510.61z M221.08,512.38c0.48,0.49,1.06,0.89,1.73,1.18c0.67,0.3,1.42,0.43,2.24,0.4c0.55-0.02,1.09-0.14,1.6-0.37
			c0.51-0.22,0.96-0.55,1.34-0.96c0.38-0.42,0.68-0.91,0.91-1.49c0.22-0.58,0.32-1.23,0.3-1.95c-0.02-0.69-0.12-1.27-0.31-1.74
			c-0.18-0.47-0.43-0.87-0.72-1.19c-0.3-0.32-0.62-0.57-0.96-0.76c-0.34-0.18-0.7-0.34-1.06-0.46c-0.71-0.25-1.27-0.52-1.7-0.82
			c-0.43-0.3-0.65-0.8-0.68-1.5c-0.02-0.61,0.11-1.1,0.38-1.49c0.27-0.38,0.66-0.58,1.16-0.6c0.57-0.02,1.08,0.11,1.52,0.38
			c0.44,0.28,0.82,0.62,1.16,1.02l1.57-2.18c-0.54-0.61-1.18-1.08-1.94-1.43c-0.75-0.34-1.56-0.5-2.42-0.47
			c-0.57,0.02-1.12,0.14-1.64,0.36c-0.52,0.22-0.98,0.54-1.38,0.96c-0.4,0.43-0.71,0.95-0.93,1.58c-0.22,0.63-0.32,1.35-0.3,2.17
			c0.02,0.69,0.13,1.28,0.34,1.77c0.2,0.49,0.47,0.91,0.79,1.25c0.32,0.34,0.68,0.62,1.07,0.83c0.39,0.21,0.79,0.39,1.18,0.53
			c0.7,0.25,1.22,0.5,1.55,0.75c0.33,0.25,0.51,0.67,0.52,1.26c0.02,0.57-0.12,1.03-0.41,1.38c-0.3,0.36-0.67,0.54-1.11,0.56
			c-0.48,0.02-0.92-0.08-1.3-0.3c-0.38-0.22-0.7-0.51-0.97-0.87L221.08,512.38z M231.79,498.04l1.83,14.86l3.01-0.45l-1.06-8.59
			c-0.14-1.13-0.05-2.08,0.25-2.87c0.31-0.79,0.8-1.23,1.48-1.33c0.36-0.05,0.65,0,0.9,0.15c0.25,0.15,0.44,0.37,0.6,0.65
			c0.15,0.28,0.27,0.61,0.35,0.97c0.08,0.36,0.15,0.74,0.19,1.13l1.15,9.32l3.01-0.45l-1.15-9.32c-0.09-0.76-0.23-1.49-0.41-2.21
			s-0.43-1.34-0.74-1.86c-0.32-0.53-0.72-0.92-1.22-1.2c-0.49-0.27-1.11-0.35-1.86-0.24c-0.85,0.13-1.53,0.51-2.04,1.15
			c-0.51,0.64-0.84,1.38-0.99,2.21l-0.05,0.01l-0.29-2.36L231.79,498.04z M245.12,495.56l4.72,21.61l2.95-0.78l-4.72-21.61
			L245.12,495.56z M251.61,493.68l5.7,21.32l2.91-0.94l-5.7-21.32L251.61,493.68z M257.94,491.43l5.12,13.9l2.81-1.25l-5.12-13.9
			L257.94,491.43z M265.28,510.61c0.45,0.25,0.91,0.26,1.39,0.05c0.48-0.21,0.81-0.58,0.97-1.1s0.15-1.04-0.04-1.57
			c-0.2-0.54-0.52-0.93-0.96-1.16c-0.44-0.23-0.9-0.23-1.38-0.02c-0.46,0.21-0.79,0.56-0.97,1.06c-0.18,0.5-0.17,1.03,0.03,1.57
			C264.52,509.98,264.84,510.37,265.28,510.61 M270.62,492.68l1.08,2.27l7.42-4.26l-1.08-2.27L270.62,492.68z"/>
	</g>
</g>
</svg>
