<?xml version="1.0" encoding="utf-8"?>
<!-- Generator: Adobe Illustrator 24.3.0, SVG Export Plug-In . SVG Version: 6.00 Build 0)  -->
<svg version="1.1" id="Layer_1" xmlns="http://www.w3.org/2000/svg" xmlns:xlink="http://www.w3.org/1999/xlink" x="0px" y="0px"
	 viewBox="0 0 216 216" style="enable-background:new 0 0 216 216;" xml:space="preserve">
<style type="text/css">
	.st0{clip-path:url(#SVGID_2_);fill:#673A5E;}
	.st1{clip-path:url(#SVGID_2_);fill:#AB485E;}
	.st2{clip-path:url(#SVGID_2_);fill:#E1565F;}
	.st3{clip-path:url(#SVGID_2_);fill:#F3755E;}
</style>
<g>
	<defs>
		<rect id="SVGID_1_" x="-28.52" y="-45.3" width="286.51" height="271.02"/>
	</defs>
	<clipPath id="SVGID_2_">
		<use xlink:href="#SVGID_1_"  style="overflow:visible;"/>
	</clipPath>
	<path class="st0" d="M240.43,128.07c-0.04-0.77-0.66-1.5-1.86-2.19c-1.72-0.91-3.02-0.78-3.93,0.41c-0.91,1.19-1.67,2.48-2.29,3.87
		c-3.87,7.67-7.96,15.65-12.26,23.96c-4.3,8.31-8.76,16.43-13.35,24.38c-1.27,2.16-2.84,4.84-4.71,8.01
		c-1.87,3.18-3.97,6.45-6.3,9.81c-2.33,3.36-4.81,6.64-7.46,9.86c-2.65,3.22-5.33,5.92-8.04,8.12c-2.72,2.2-5.5,3.76-8.34,4.69
		c-2.84,0.93-5.49,0.77-7.97-0.48c-2.02-0.9-2.6-3.43-1.73-7.59c0.87-4.16,2.53-9.25,4.98-15.27c2.46-6.02,5.47-12.63,9.05-19.82
		c3.58-7.19,7.19-14.29,10.85-21.3c3.65-7.01,7.1-13.57,10.36-19.7c3.25-6.12,5.76-11.14,7.5-15.06c0.45-1.01,0.84-1.97,1.17-2.89
		c0.33-0.91,0.16-1.89-0.5-2.95c-0.67-1.05-1.96-2.24-3.88-3.54c-1.92-1.31-4.84-2.83-8.75-4.58c-3.41-1.52-6.16-2.59-8.23-3.21
		c-2.07-0.62-3.77-0.88-5.1-0.79c-1.33,0.09-2.41,0.56-3.24,1.4c-0.83,0.85-1.65,1.99-2.45,3.45c-1.96,3.37-3.99,7.01-6.11,10.91
		c-2.12,3.91-4.27,7.98-6.47,12.23c-2.2,4.25-4.34,8.56-6.44,12.92c-2.1,4.37-4.07,8.64-5.93,12.81c-2.78,4.52-5.9,9.3-9.37,14.35
		c-3.47,5.04-6.99,9.61-10.57,13.7c-3.58,4.09-7.08,7.33-10.52,9.74c-3.44,2.41-6.46,3.11-9.07,2.1c-2.35-0.89-3.65-2.61-3.89-5.14
		c-0.24-2.53,0.21-5.59,1.35-9.17c1.14-3.58,2.82-7.61,5.03-12.07c2.22-4.47,4.6-9.05,7.14-13.74c2.54-4.7,5.15-9.37,7.83-14.01
		c2.67-4.64,5.03-8.93,7.09-12.86c3.19-6.15,5.6-11.97,7.21-17.46c1.61-5.49,2.09-10.54,1.44-15.15c-0.66-4.61-2.62-8.66-5.88-12.16
		c-3.26-3.5-8.14-6.24-14.63-8.22c-4.64-1.46-9.2-1.25-13.66,0.62c-4.47,1.87-8.76,4.7-12.86,8.47c-4.11,3.78-7.95,8.08-11.55,12.92
		c-3.6,4.84-6.77,9.52-9.54,14.04c-0.17,0.38-0.03,0.82,0.43,1.33c0.46,0.51,1.06,0.93,1.82,1.27c0.76,0.34,1.53,0.57,2.31,0.69
		c0.78,0.12,1.32,0.02,1.61-0.3c2.3-3.82,4.96-7.82,7.96-12.02c3-4.19,6.16-7.97,9.48-11.34c3.32-3.37,6.76-6,10.33-7.9
		c3.57-1.89,7.13-2.43,10.69-1.6c1.49,0.36,1.53,2.23,0.1,5.61c-1.43,3.38-3.65,7.69-6.66,12.93c-3.01,5.25-6.4,11.08-10.17,17.51
		c-3.76,6.43-7.15,12.84-10.14,19.23c-3.69,7.6-6.39,14.69-8.11,21.27c-1.72,6.58-2.19,12.58-1.42,17.99
		c0.77,5.42,3.04,10.26,6.83,14.51c3.78,4.26,9.49,7.86,17.11,10.8c2.83,1.11,5.71,1.29,8.62,0.54c2.91-0.75,5.85-2.17,8.82-4.25
		c2.97-2.08,5.87-4.69,8.71-7.82c2.83-3.13,5.59-6.52,8.28-10.17c-1.09,4.82-1.68,9.47-1.79,13.97c-0.11,4.5,0.43,8.64,1.62,12.42
		c1.19,3.79,3.06,7.16,5.61,10.11c2.55,2.95,6.03,5.41,10.46,7.38c4.3,1.91,8.5,2.5,12.62,1.76c4.11-0.74,8.05-2.36,11.82-4.85
		c3.76-2.49,7.32-5.64,10.68-9.44c3.36-3.8,6.46-7.8,9.31-11.98c2.85-4.18,5.48-8.31,7.9-12.39c2.42-4.07,4.48-7.69,6.2-10.87
		c-0.24,4.29,0.43,8.64,2.02,13.06c1.59,4.42,4.73,7.82,9.42,10.22c3.36,1.65,6.53,2.34,9.52,2.08c2.99-0.26,5.76-1.11,8.29-2.55
		c2.54-1.44,4.86-3.44,6.98-5.98c2.11-2.54,3.97-5.27,5.58-8.19l-0.08,0.19c0.65-0.77,0.79-1.61,0.44-2.53
		c-0.35-0.91-1.03-1.6-2.04-2.05c-0.76-0.34-1.52-0.34-2.28,0.01c-0.76,0.34-1.43,0.84-2.02,1.49c-2.76,4.83-5.98,8.58-9.67,11.26
		c-3.69,2.67-7.75,3.02-12.17,1.06c-3.23-1.59-5.37-3.94-6.4-7.05c-1.04-3.11-1.32-6.72-0.86-10.83c0.47-4.11,1.55-8.58,3.25-13.43
		c1.7-4.84,3.68-9.8,5.93-14.85c2.7-6.07,5.51-11.86,8.42-17.38C240.31,129.61,240.46,128.85,240.43,128.07 M6.44,10.94
		C4.21,8.13,2.7,5.15,1.91,2C1.12-1.16,1.01-4.5,1.6-8.02c0.59-3.52,1.64-6.99,3.16-10.41c0.73-1.64,1.86-3.75,3.39-6.33
		c1.53-2.58,3.29-4.93,5.3-7.07c2.01-2.13,4.19-3.7,6.53-4.71c2.34-1,4.69-0.75,7.05,0.75c2.04,1.21,3.21,3.25,3.53,6.11
		c0.31,2.87,0.18,5.99-0.42,9.36c-0.59,3.37-1.47,6.69-2.62,9.97c-1.16,3.27-2.12,5.95-2.89,8.03c-0.94,2.46-2.05,5.19-3.3,8.18
		c-1.26,3-3.07,7.15-5.43,12.46C11.82,16.22,8.67,13.76,6.44,10.94 M-12.48,71.81c-0.9,2.02-0.47,3.43,1.3,4.22
		c1.93,1.01,3.4,0.69,4.44-0.98c4.35-7.15,8.71-14.79,13.07-22.92C10.68,44,14.89,35.69,18.97,27.2c4.52,1.86,8.1,3.68,10.74,5.46
		c2.64,1.78,4.52,3.75,5.62,5.9c1.1,2.16,1.44,4.57,1.01,7.25c-0.43,2.68-1.43,5.79-3,9.32c-2.02,4.54-4.24,8.92-6.65,13.14
		c-2.41,4.22-4.87,8.38-7.37,12.48c-2.51,4.1-4.94,8.2-7.29,12.29c-2.35,4.09-4.48,8.28-6.39,12.57
		c-2.53,5.68-4.39,11.39-5.58,17.13c-1.19,5.75-1.35,11.19-0.46,16.35c0.88,5.16,2.97,9.83,6.26,14.01
		c3.28,4.18,8.21,7.59,14.77,10.2c3.97,1.61,8.13,1.72,12.47,0.32c4.33-1.4,8.58-3.71,12.74-6.93c4.16-3.22,8.25-7.04,12.26-11.47
		c4.01-4.42,7.77-9.04,11.27-13.84c3.5-4.8,6.67-9.45,9.5-13.94c2.83-4.49,5.17-8.3,7.01-11.42c1.21-2.04,0.86-3.63-1.05-4.79
		c-0.83-0.52-1.69-0.64-2.57-0.35c-0.89,0.29-1.56,0.78-2.02,1.48c-1.27,2.16-3.11,5.2-5.54,9.12c-2.43,3.92-5.17,8.11-8.22,12.59
		c-3.05,4.47-6.41,8.96-10.08,13.46c-3.67,4.5-7.41,8.4-11.23,11.7c-3.82,3.3-7.56,5.76-11.24,7.38c-3.68,1.62-7.19,1.76-10.53,0.43
		c-3.35-1.34-5.21-3.27-5.6-5.78c-0.39-2.52,0.14-5.42,1.6-8.7c2.02-4.54,4.41-8.88,7.16-13.03c2.75-4.14,5.6-8.24,8.54-12.3
		c2.94-4.06,5.85-8.21,8.72-12.45c2.87-4.24,5.35-8.69,7.43-13.36c4.1-9.21,6.27-17.51,6.52-24.88C58,59.2,56.7,52.64,53.86,46.92
		c-2.85-5.73-7.04-10.73-12.58-15.02c-5.54-4.28-12.02-8-19.43-11.15c2.36-5.31,4.17-9.46,5.44-12.46c1.26-3,2.36-5.73,3.3-8.18
		C31.63-2.6,32.77-5.84,34-9.61c1.23-3.77,2.14-7.6,2.75-11.5c0.6-3.89,0.6-7.61-0.01-11.14c-0.61-3.53-2.26-6.34-4.94-8.45
		c-3.7-2.86-7.27-3.96-10.73-3.3c-3.46,0.66-6.66,2.18-9.61,4.58c-2.95,2.4-5.54,5.34-7.76,8.81C1.47-27.13-0.27-24-1.5-21.22
		c-1.97,4.43-3.23,8.79-3.78,13.08c-0.55,4.3-0.27,8.44,0.83,12.42c1.11,3.98,3.09,7.7,5.94,11.15c2.86,3.46,6.72,6.5,11.6,9.15
		C9.18,32.69,5.04,40.8,0.66,48.92c-4.38,8.12-8.73,15.69-13.06,22.7L-12.48,71.81z"/>
	<path class="st1" d="M235.39,127.33c-0.04-0.77-0.66-1.5-1.86-2.19c-1.72-0.91-3.02-0.78-3.93,0.41c-0.91,1.19-1.67,2.48-2.29,3.87
		c-3.87,7.67-7.96,15.65-12.26,23.96c-4.3,8.31-8.76,16.43-13.35,24.38c-1.27,2.16-2.84,4.84-4.71,8.01
		c-1.87,3.18-3.97,6.45-6.3,9.81c-2.33,3.36-4.81,6.64-7.46,9.86c-2.65,3.22-5.33,5.92-8.04,8.12c-2.72,2.2-5.5,3.76-8.34,4.69
		c-2.84,0.93-5.49,0.77-7.97-0.48c-2.02-0.9-2.6-3.43-1.73-7.59c0.87-4.16,2.53-9.25,4.98-15.27c2.46-6.02,5.47-12.63,9.05-19.82
		c3.58-7.19,7.19-14.29,10.85-21.3c3.65-7.01,7.1-13.57,10.36-19.7c3.25-6.12,5.76-11.14,7.5-15.06c0.45-1.01,0.84-1.97,1.17-2.89
		c0.33-0.91,0.16-1.89-0.5-2.95c-0.67-1.05-1.96-2.24-3.88-3.54c-1.92-1.31-4.84-2.83-8.75-4.58c-3.41-1.52-6.16-2.59-8.23-3.21
		c-2.07-0.62-3.77-0.88-5.1-0.79c-1.33,0.09-2.41,0.56-3.24,1.4c-0.83,0.85-1.65,1.99-2.45,3.45c-1.96,3.37-3.99,7.01-6.11,10.91
		c-2.12,3.91-4.27,7.98-6.47,12.23c-2.2,4.25-4.34,8.56-6.44,12.92c-2.1,4.37-4.07,8.64-5.93,12.81c-2.78,4.52-5.9,9.3-9.37,14.35
		c-3.47,5.04-6.99,9.61-10.57,13.7c-3.58,4.09-7.08,7.34-10.52,9.74c-3.44,2.41-6.46,3.11-9.07,2.1c-2.35-0.89-3.65-2.61-3.89-5.14
		c-0.24-2.53,0.21-5.59,1.35-9.17c1.14-3.58,2.82-7.61,5.03-12.07c2.22-4.47,4.6-9.05,7.14-13.74c2.54-4.7,5.15-9.37,7.83-14.01
		c2.67-4.64,5.03-8.93,7.09-12.86c3.19-6.15,5.6-11.97,7.21-17.46c1.61-5.49,2.09-10.54,1.44-15.15c-0.66-4.61-2.62-8.66-5.88-12.16
		c-3.26-3.5-8.14-6.24-14.63-8.22c-4.64-1.46-9.2-1.25-13.66,0.62c-4.47,1.87-8.76,4.7-12.86,8.47c-4.11,3.78-7.95,8.08-11.55,12.92
		c-3.6,4.84-6.77,9.52-9.54,14.04c-0.17,0.38-0.03,0.82,0.43,1.33c0.46,0.51,1.06,0.93,1.82,1.27c0.76,0.34,1.53,0.57,2.31,0.69
		c0.78,0.12,1.32,0.02,1.61-0.3c2.3-3.82,4.96-7.82,7.96-12.02c3-4.19,6.16-7.97,9.48-11.34c3.32-3.37,6.76-6,10.33-7.9
		c3.57-1.89,7.13-2.43,10.69-1.6c1.49,0.36,1.53,2.23,0.1,5.61c-1.43,3.38-3.65,7.69-6.66,12.93c-3.01,5.25-6.4,11.08-10.17,17.51
		c-3.76,6.43-7.15,12.84-10.14,19.23c-3.69,7.6-6.39,14.69-8.11,21.27c-1.72,6.58-2.19,12.58-1.42,17.99
		c0.77,5.42,3.04,10.26,6.83,14.51c3.78,4.26,9.49,7.86,17.11,10.8c2.83,1.11,5.71,1.29,8.62,0.54c2.91-0.75,5.85-2.17,8.82-4.25
		c2.97-2.08,5.87-4.69,8.71-7.82c2.83-3.13,5.59-6.52,8.28-10.17c-1.09,4.82-1.68,9.47-1.79,13.97c-0.11,4.5,0.43,8.64,1.62,12.42
		c1.19,3.79,3.06,7.16,5.61,10.11c2.55,2.95,6.03,5.41,10.46,7.38c4.3,1.91,8.5,2.5,12.62,1.76c4.11-0.74,8.05-2.36,11.82-4.85
		c3.76-2.49,7.32-5.64,10.68-9.44c3.36-3.8,6.46-7.8,9.31-11.98c2.85-4.18,5.48-8.31,7.9-12.39c2.42-4.07,4.48-7.69,6.2-10.87
		c-0.24,4.29,0.43,8.64,2.02,13.06c1.59,4.42,4.73,7.82,9.42,10.22c3.36,1.65,6.53,2.34,9.52,2.08c2.99-0.26,5.76-1.11,8.29-2.55
		c2.54-1.44,4.86-3.44,6.98-5.98c2.11-2.54,3.97-5.27,5.58-8.19l-0.08,0.19c0.65-0.77,0.79-1.61,0.44-2.53
		c-0.35-0.91-1.03-1.6-2.04-2.05c-0.76-0.34-1.52-0.34-2.27,0.01c-0.76,0.34-1.43,0.84-2.02,1.49c-2.76,4.83-5.98,8.58-9.67,11.26
		c-3.69,2.67-7.75,3.02-12.17,1.06c-3.23-1.59-5.37-3.94-6.4-7.05c-1.04-3.11-1.32-6.72-0.86-10.83c0.47-4.11,1.55-8.58,3.26-13.43
		c1.7-4.84,3.68-9.8,5.93-14.85c2.7-6.07,5.51-11.86,8.42-17.38C235.27,128.87,235.42,128.1,235.39,127.33 M1.4,10.2
		c-2.23-2.81-3.74-5.79-4.53-8.95C-3.93-1.9-4.03-5.24-3.45-8.77c0.59-3.52,1.64-6.99,3.16-10.41c0.73-1.64,1.86-3.75,3.39-6.33
		c1.53-2.58,3.29-4.93,5.3-7.07c2.01-2.13,4.19-3.7,6.53-4.7c2.34-1,4.69-0.75,7.05,0.75c2.04,1.21,3.21,3.25,3.53,6.11
		c0.31,2.87,0.18,5.98-0.42,9.36c-0.59,3.37-1.47,6.69-2.62,9.97c-1.16,3.27-2.12,5.95-2.89,8.03c-0.94,2.46-2.05,5.19-3.3,8.18
		c-1.26,3-3.07,7.15-5.43,12.46C6.77,15.47,3.63,13.01,1.4,10.2 M-17.52,71.07c-0.9,2.02-0.47,3.43,1.3,4.22
		c1.93,1.01,3.4,0.69,4.44-0.98c4.35-7.15,8.71-14.79,13.07-22.92c4.35-8.13,8.57-16.44,12.64-24.93c4.52,1.86,8.1,3.68,10.74,5.46
		c2.64,1.78,4.52,3.75,5.62,5.9c1.1,2.16,1.44,4.57,1.01,7.25c-0.43,2.68-1.43,5.79-3,9.32c-2.02,4.54-4.24,8.93-6.65,13.14
		c-2.41,4.22-4.87,8.38-7.37,12.48c-2.51,4.1-4.94,8.2-7.29,12.29c-2.35,4.09-4.48,8.28-6.39,12.57
		c-2.53,5.68-4.39,11.39-5.58,17.13c-1.19,5.75-1.35,11.19-0.46,16.35c0.88,5.16,2.97,9.83,6.26,14.01
		c3.28,4.18,8.21,7.59,14.77,10.2c3.97,1.61,8.13,1.72,12.47,0.32c4.33-1.4,8.58-3.71,12.74-6.93c4.16-3.22,8.25-7.04,12.26-11.47
		c4.01-4.42,7.77-9.04,11.27-13.84c3.5-4.8,6.67-9.45,9.5-13.94c2.83-4.49,5.17-8.3,7.01-11.42c1.21-2.04,0.86-3.63-1.05-4.79
		c-0.83-0.52-1.69-0.64-2.57-0.35c-0.89,0.29-1.56,0.78-2.02,1.48c-1.27,2.16-3.11,5.2-5.54,9.12c-2.43,3.92-5.17,8.11-8.22,12.59
		c-3.05,4.47-6.41,8.96-10.08,13.46c-3.67,4.5-7.41,8.4-11.23,11.7c-3.82,3.3-7.56,5.76-11.24,7.38c-3.68,1.62-7.19,1.76-10.53,0.43
		c-3.35-1.34-5.21-3.27-5.6-5.78c-0.39-2.52,0.14-5.42,1.6-8.7c2.02-4.54,4.41-8.88,7.16-13.03c2.75-4.14,5.6-8.24,8.54-12.3
		c2.94-4.06,5.85-8.21,8.72-12.45c2.87-4.24,5.35-8.69,7.43-13.36c4.1-9.21,6.27-17.51,6.52-24.88c0.24-7.37-1.06-13.93-3.91-19.65
		c-2.85-5.73-7.04-10.73-12.58-15.02c-5.54-4.28-12.02-8-19.43-11.15c2.36-5.31,4.17-9.46,5.44-12.46c1.26-3,2.36-5.73,3.3-8.18
		c1.05-2.71,2.19-5.95,3.42-9.72c1.23-3.77,2.14-7.6,2.75-11.5c0.6-3.89,0.6-7.61-0.01-11.14c-0.61-3.53-2.26-6.34-4.94-8.45
		c-3.7-2.86-7.27-3.96-10.73-3.3c-3.46,0.66-6.66,2.18-9.61,4.58c-2.95,2.4-5.54,5.34-7.76,8.81c-2.22,3.48-3.96,6.61-5.19,9.39
		c-1.97,4.43-3.23,8.79-3.78,13.08c-0.55,4.3-0.27,8.44,0.83,12.42c1.11,3.98,3.09,7.7,5.94,11.15c2.86,3.46,6.72,6.51,11.6,9.15
		c-3.91,8.1-8.05,16.22-12.43,24.34c-4.38,8.12-8.72,15.69-13.06,22.7L-17.52,71.07z"/>
	<path class="st2" d="M230.18,126.95c-0.04-0.77-0.66-1.5-1.86-2.19c-1.72-0.91-3.02-0.78-3.93,0.41c-0.91,1.19-1.67,2.48-2.29,3.87
		c-3.87,7.67-7.96,15.65-12.26,23.96c-4.3,8.31-8.76,16.43-13.35,24.38c-1.27,2.16-2.84,4.84-4.71,8.01
		c-1.87,3.18-3.97,6.45-6.3,9.81c-2.33,3.36-4.81,6.64-7.46,9.86c-2.65,3.22-5.33,5.92-8.04,8.12c-2.72,2.2-5.5,3.76-8.34,4.69
		c-2.84,0.93-5.49,0.77-7.97-0.48c-2.02-0.9-2.6-3.43-1.73-7.59c0.87-4.16,2.53-9.25,4.98-15.27c2.46-6.02,5.47-12.63,9.05-19.82
		c3.58-7.19,7.19-14.29,10.85-21.3c3.65-7.01,7.1-13.57,10.36-19.7c3.25-6.12,5.76-11.14,7.5-15.06c0.45-1.01,0.84-1.97,1.17-2.89
		c0.33-0.91,0.16-1.89-0.5-2.95c-0.67-1.05-1.96-2.24-3.88-3.54c-1.92-1.31-4.84-2.83-8.75-4.58c-3.41-1.52-6.16-2.59-8.23-3.21
		c-2.07-0.62-3.77-0.88-5.1-0.79c-1.33,0.09-2.41,0.56-3.24,1.4c-0.83,0.85-1.65,1.99-2.45,3.45c-1.96,3.37-3.99,7.01-6.11,10.91
		c-2.12,3.91-4.27,7.98-6.47,12.23c-2.2,4.25-4.34,8.56-6.44,12.92c-2.1,4.37-4.07,8.64-5.93,12.81c-2.78,4.52-5.9,9.3-9.36,14.35
		c-3.47,5.04-6.99,9.61-10.57,13.7c-3.58,4.09-7.08,7.34-10.52,9.74c-3.44,2.41-6.46,3.11-9.07,2.1c-2.35-0.89-3.65-2.61-3.89-5.14
		c-0.24-2.53,0.21-5.59,1.35-9.17c1.14-3.58,2.82-7.61,5.03-12.07c2.22-4.47,4.6-9.05,7.14-13.74c2.54-4.7,5.15-9.37,7.83-14.01
		c2.67-4.64,5.03-8.93,7.09-12.86c3.19-6.15,5.6-11.97,7.21-17.46c1.61-5.49,2.09-10.54,1.44-15.15c-0.66-4.61-2.62-8.66-5.88-12.16
		c-3.26-3.5-8.14-6.24-14.63-8.22c-4.64-1.46-9.2-1.25-13.66,0.62c-4.47,1.87-8.76,4.7-12.86,8.47c-4.11,3.78-7.95,8.08-11.55,12.92
		c-3.6,4.84-6.77,9.52-9.54,14.04c-0.17,0.38-0.03,0.82,0.43,1.33c0.46,0.51,1.06,0.93,1.82,1.27c0.76,0.34,1.53,0.57,2.31,0.69
		c0.78,0.12,1.32,0.02,1.61-0.3c2.3-3.82,4.96-7.82,7.96-12.02c3-4.19,6.16-7.97,9.48-11.34c3.32-3.37,6.76-6,10.33-7.9
		c3.57-1.89,7.13-2.43,10.69-1.6c1.49,0.36,1.53,2.23,0.1,5.61c-1.43,3.38-3.65,7.69-6.66,12.93c-3.01,5.25-6.4,11.08-10.17,17.51
		c-3.76,6.43-7.15,12.84-10.14,19.23c-3.69,7.6-6.39,14.69-8.11,21.27c-1.72,6.58-2.19,12.58-1.42,17.99
		c0.77,5.42,3.04,10.26,6.83,14.51c3.78,4.26,9.49,7.86,17.11,10.8c2.83,1.11,5.71,1.29,8.62,0.54c2.91-0.75,5.85-2.17,8.82-4.25
		c2.97-2.08,5.87-4.69,8.71-7.82c2.83-3.13,5.59-6.52,8.28-10.17c-1.09,4.82-1.68,9.47-1.79,13.97c-0.11,4.5,0.43,8.64,1.62,12.42
		c1.19,3.79,3.06,7.16,5.61,10.11c2.55,2.95,6.03,5.41,10.46,7.38c4.3,1.91,8.5,2.5,12.62,1.76c4.11-0.74,8.05-2.36,11.82-4.85
		c3.76-2.49,7.32-5.64,10.68-9.44c3.36-3.8,6.46-7.8,9.31-11.98c2.85-4.18,5.48-8.31,7.9-12.39c2.42-4.07,4.48-7.69,6.2-10.87
		c-0.24,4.29,0.43,8.64,2.02,13.06c1.59,4.42,4.73,7.82,9.42,10.22c3.36,1.65,6.53,2.34,9.52,2.08c2.99-0.26,5.75-1.11,8.29-2.55
		c2.54-1.44,4.86-3.44,6.98-5.98c2.11-2.54,3.97-5.27,5.58-8.19l-0.08,0.19c0.65-0.77,0.79-1.61,0.44-2.53
		c-0.35-0.91-1.03-1.6-2.04-2.05c-0.76-0.34-1.52-0.34-2.27,0.01c-0.76,0.34-1.43,0.84-2.02,1.49c-2.76,4.83-5.98,8.58-9.67,11.26
		c-3.69,2.67-7.75,3.02-12.17,1.06c-3.23-1.59-5.37-3.94-6.4-7.05c-1.04-3.11-1.32-6.72-0.86-10.83c0.47-4.11,1.55-8.58,3.25-13.43
		c1.7-4.84,3.68-9.8,5.93-14.85c2.7-6.07,5.51-11.86,8.42-17.38C230.07,128.49,230.21,127.72,230.18,126.95 M-3.81,9.82
		c-2.23-2.81-3.74-5.79-4.53-8.95C-9.13-2.28-9.24-5.62-8.65-9.15c0.59-3.52,1.64-6.99,3.16-10.41c0.73-1.64,1.86-3.75,3.39-6.33
		c1.53-2.58,3.3-4.93,5.3-7.07c2.01-2.13,4.19-3.7,6.53-4.71c2.34-1,4.69-0.75,7.05,0.75c2.04,1.21,3.21,3.25,3.53,6.11
		c0.31,2.87,0.18,5.99-0.42,9.36c-0.59,3.37-1.47,6.69-2.62,9.97c-1.16,3.27-2.12,5.95-2.89,8.03c-0.94,2.46-2.05,5.19-3.3,8.18
		c-1.26,3-3.07,7.15-5.43,12.46C1.57,15.09-1.57,12.63-3.81,9.82 M-22.73,70.69c-0.9,2.02-0.47,3.43,1.3,4.22
		c1.92,1.01,3.4,0.69,4.44-0.98C-12.63,66.78-8.28,59.14-3.92,51c4.35-8.13,8.57-16.44,12.64-24.93c4.52,1.86,8.1,3.68,10.74,5.46
		c2.64,1.78,4.52,3.75,5.62,5.9c1.1,2.16,1.44,4.57,1.01,7.25c-0.43,2.68-1.43,5.79-3,9.32c-2.02,4.54-4.24,8.93-6.65,13.14
		c-2.41,4.22-4.87,8.38-7.37,12.48c-2.51,4.1-4.94,8.2-7.29,12.29c-2.35,4.09-4.48,8.28-6.39,12.57
		c-2.53,5.68-4.39,11.39-5.58,17.13c-1.19,5.75-1.35,11.19-0.46,16.35c0.88,5.16,2.97,9.83,6.26,14.01
		c3.28,4.18,8.21,7.59,14.77,10.2c3.97,1.61,8.13,1.72,12.47,0.32c4.33-1.4,8.58-3.71,12.74-6.93c4.16-3.22,8.25-7.04,12.26-11.47
		c4.01-4.42,7.77-9.04,11.27-13.84c3.5-4.8,6.67-9.45,9.5-13.94c2.83-4.49,5.17-8.3,7.01-11.42c1.21-2.04,0.86-3.63-1.05-4.79
		c-0.83-0.52-1.69-0.64-2.57-0.35c-0.89,0.29-1.56,0.78-2.02,1.48c-1.27,2.16-3.11,5.2-5.54,9.12c-2.43,3.92-5.17,8.11-8.22,12.59
		c-3.05,4.47-6.41,8.96-10.08,13.46c-3.67,4.5-7.41,8.4-11.23,11.7c-3.82,3.3-7.56,5.76-11.24,7.38c-3.68,1.62-7.19,1.76-10.53,0.43
		c-3.35-1.34-5.21-3.26-5.61-5.78c-0.39-2.52,0.14-5.42,1.6-8.7c2.02-4.54,4.41-8.88,7.16-13.03c2.75-4.14,5.6-8.24,8.54-12.3
		c2.94-4.06,5.85-8.21,8.72-12.45C36.44,99.46,38.92,95,41,90.33c4.1-9.21,6.27-17.51,6.52-24.88c0.24-7.37-1.06-13.93-3.91-19.65
		c-2.85-5.73-7.04-10.73-12.58-15.02c-5.54-4.28-12.02-8-19.43-11.15c2.36-5.31,4.17-9.46,5.44-12.46c1.26-3,2.36-5.73,3.3-8.18
		c1.05-2.71,2.19-5.95,3.42-9.72c1.23-3.77,2.14-7.6,2.75-11.5c0.6-3.89,0.6-7.61-0.01-11.14c-0.61-3.53-2.26-6.34-4.94-8.45
		c-3.7-2.86-7.27-3.96-10.73-3.3c-3.46,0.66-6.66,2.18-9.61,4.58c-2.95,2.4-5.53,5.34-7.76,8.81c-2.22,3.48-3.96,6.61-5.19,9.39
		c-1.97,4.43-3.23,8.79-3.78,13.08c-0.55,4.3-0.27,8.44,0.83,12.42c1.11,3.98,3.09,7.7,5.94,11.15c2.86,3.46,6.72,6.51,11.6,9.15
		c-3.91,8.1-8.05,16.22-12.43,24.34c-4.38,8.12-8.72,15.69-13.06,22.7L-22.73,70.69z"/>
	<path class="st3" d="M224.85,128.07c-0.04-0.77-0.66-1.5-1.86-2.19c-1.72-0.91-3.02-0.78-3.93,0.41c-0.91,1.19-1.67,2.48-2.29,3.87
		c-3.87,7.67-7.96,15.65-12.26,23.96c-4.3,8.31-8.76,16.43-13.35,24.38c-1.27,2.16-2.84,4.84-4.71,8.01
		c-1.87,3.18-3.97,6.45-6.3,9.81c-2.33,3.36-4.81,6.64-7.46,9.86c-2.65,3.22-5.33,5.92-8.04,8.12c-2.72,2.2-5.5,3.76-8.34,4.69
		c-2.84,0.93-5.49,0.77-7.97-0.48c-2.02-0.9-2.6-3.43-1.73-7.59c0.87-4.16,2.53-9.25,4.98-15.27c2.46-6.02,5.47-12.63,9.05-19.82
		c3.58-7.19,7.19-14.29,10.85-21.3c3.65-7.01,7.1-13.57,10.36-19.7c3.25-6.12,5.76-11.14,7.5-15.06c0.45-1.01,0.84-1.97,1.17-2.89
		c0.33-0.91,0.16-1.89-0.5-2.95c-0.67-1.05-1.96-2.24-3.88-3.54c-1.92-1.31-4.84-2.83-8.75-4.58c-3.41-1.52-6.16-2.59-8.23-3.21
		c-2.07-0.62-3.77-0.88-5.1-0.79c-1.33,0.09-2.41,0.56-3.24,1.4c-0.83,0.85-1.65,1.99-2.45,3.45c-1.96,3.37-3.99,7.01-6.11,10.91
		c-2.12,3.91-4.27,7.98-6.47,12.23c-2.2,4.25-4.34,8.56-6.44,12.92c-2.1,4.37-4.07,8.64-5.93,12.81c-2.78,4.52-5.9,9.3-9.37,14.35
		c-3.47,5.04-6.99,9.61-10.57,13.7c-3.58,4.09-7.08,7.34-10.52,9.74c-3.44,2.41-6.46,3.11-9.07,2.1c-2.35-0.89-3.65-2.61-3.89-5.14
		c-0.24-2.53,0.21-5.59,1.35-9.17c1.14-3.58,2.82-7.61,5.03-12.07c2.22-4.47,4.6-9.05,7.14-13.74c2.54-4.7,5.15-9.37,7.83-14.01
		c2.67-4.64,5.03-8.93,7.09-12.86c3.19-6.15,5.6-11.97,7.21-17.46c1.61-5.49,2.09-10.54,1.44-15.15c-0.66-4.61-2.62-8.66-5.88-12.16
		c-3.26-3.5-8.14-6.24-14.63-8.22c-4.64-1.46-9.2-1.25-13.66,0.62c-4.47,1.87-8.76,4.7-12.86,8.47c-4.11,3.78-7.95,8.08-11.55,12.92
		c-3.6,4.84-6.77,9.52-9.55,14.04c-0.17,0.38-0.03,0.82,0.43,1.33c0.46,0.51,1.06,0.93,1.82,1.27c0.76,0.34,1.53,0.57,2.31,0.69
		c0.78,0.12,1.32,0.02,1.61-0.3c2.3-3.82,4.96-7.82,7.96-12.02c3-4.19,6.16-7.97,9.48-11.34c3.32-3.37,6.76-6,10.33-7.9
		c3.57-1.89,7.13-2.43,10.69-1.6c1.49,0.36,1.53,2.23,0.1,5.61c-1.43,3.38-3.65,7.69-6.66,12.93c-3.01,5.25-6.4,11.08-10.17,17.51
		c-3.76,6.43-7.15,12.84-10.14,19.23c-3.69,7.6-6.39,14.69-8.11,21.27c-1.72,6.58-2.19,12.58-1.42,17.99
		c0.77,5.42,3.04,10.26,6.83,14.51c3.78,4.26,9.49,7.86,17.11,10.8c2.83,1.11,5.71,1.29,8.62,0.54c2.91-0.75,5.85-2.17,8.82-4.25
		c2.97-2.08,5.87-4.69,8.71-7.82c2.83-3.13,5.59-6.52,8.28-10.17c-1.09,4.82-1.68,9.47-1.79,13.97c-0.11,4.5,0.43,8.64,1.62,12.42
		c1.19,3.79,3.06,7.16,5.61,10.11c2.55,2.95,6.03,5.41,10.46,7.38c4.3,1.91,8.5,2.5,12.62,1.76c4.11-0.74,8.05-2.36,11.82-4.85
		c3.76-2.49,7.32-5.64,10.68-9.44c3.36-3.8,6.46-7.8,9.31-11.98c2.85-4.18,5.48-8.31,7.9-12.39c2.42-4.07,4.48-7.69,6.2-10.87
		c-0.24,4.29,0.43,8.64,2.02,13.06c1.59,4.42,4.73,7.82,9.42,10.22c3.36,1.65,6.53,2.34,9.52,2.08c2.99-0.26,5.76-1.11,8.29-2.55
		c2.54-1.44,4.86-3.44,6.98-5.98c2.11-2.54,3.97-5.27,5.58-8.19l-0.08,0.19c0.65-0.77,0.79-1.61,0.44-2.53
		c-0.35-0.91-1.03-1.6-2.04-2.05c-0.76-0.34-1.52-0.34-2.28,0.01c-0.76,0.34-1.43,0.84-2.02,1.49c-2.76,4.83-5.98,8.58-9.67,11.26
		c-3.69,2.67-7.75,3.02-12.17,1.06c-3.23-1.59-5.37-3.94-6.4-7.05c-1.04-3.11-1.32-6.72-0.86-10.83c0.47-4.11,1.55-8.58,3.25-13.43
		c1.7-4.84,3.68-9.8,5.93-14.85c2.7-6.07,5.51-11.86,8.42-17.38C224.73,129.6,224.88,128.84,224.85,128.07 M-9.14,10.94
		c-2.23-2.81-3.74-5.79-4.53-8.95c-0.79-3.15-0.89-6.49-0.31-10.02c0.59-3.52,1.64-6.99,3.16-10.41c0.73-1.64,1.86-3.75,3.39-6.33
		c1.53-2.58,3.3-4.93,5.3-7.07c2.01-2.13,4.19-3.7,6.53-4.7c2.34-1,4.69-0.75,7.05,0.75c2.04,1.21,3.21,3.25,3.53,6.11
		c0.31,2.87,0.18,5.99-0.42,9.36c-0.59,3.37-1.47,6.69-2.62,9.97C10.77-7.08,9.8-4.4,9.03-2.33c-0.94,2.46-2.05,5.19-3.3,8.18
		c-1.26,3-3.07,7.15-5.43,12.46C-3.76,16.21-6.91,13.75-9.14,10.94 M-28.06,71.81c-0.9,2.02-0.47,3.43,1.3,4.22
		c1.92,1.01,3.4,0.69,4.44-0.98c4.35-7.15,8.71-14.79,13.07-22.92c4.35-8.13,8.57-16.44,12.64-24.93c4.52,1.86,8.1,3.68,10.74,5.46
		c2.64,1.78,4.52,3.75,5.62,5.9c1.1,2.16,1.44,4.57,1.01,7.25c-0.43,2.68-1.43,5.79-3,9.32c-2.02,4.54-4.24,8.92-6.65,13.14
		C8.7,72.5,6.24,76.66,3.73,80.76c-2.51,4.1-4.94,8.2-7.29,12.29c-2.35,4.09-4.48,8.28-6.39,12.57c-2.53,5.68-4.39,11.39-5.58,17.13
		c-1.19,5.75-1.35,11.19-0.46,16.35c0.88,5.16,2.97,9.83,6.26,14.01c3.28,4.18,8.21,7.59,14.77,10.2c3.97,1.61,8.13,1.72,12.47,0.32
		c4.33-1.4,8.58-3.71,12.74-6.93c4.16-3.22,8.25-7.04,12.26-11.47c4.01-4.42,7.77-9.04,11.27-13.84c3.5-4.8,6.67-9.45,9.5-13.94
		c2.83-4.49,5.17-8.3,7.01-11.42c1.21-2.04,0.86-3.63-1.05-4.79c-0.83-0.52-1.69-0.64-2.57-0.35c-0.89,0.29-1.56,0.78-2.02,1.48
		c-1.27,2.16-3.11,5.2-5.54,9.12c-2.43,3.92-5.17,8.11-8.22,12.59c-3.05,4.47-6.41,8.96-10.08,13.46c-3.67,4.5-7.41,8.4-11.23,11.7
		c-3.82,3.3-7.56,5.76-11.24,7.38c-3.68,1.62-7.19,1.76-10.53,0.43c-3.35-1.34-5.21-3.26-5.6-5.78c-0.39-2.52,0.14-5.42,1.6-8.7
		c2.02-4.54,4.41-8.88,7.16-13.03c2.75-4.14,5.6-8.24,8.54-12.3c2.94-4.06,5.85-8.21,8.72-12.45c2.87-4.24,5.35-8.69,7.43-13.36
		c4.1-9.21,6.27-17.51,6.52-24.88c0.24-7.37-1.06-13.93-3.91-19.65c-2.85-5.73-7.04-10.73-12.58-15.02
		c-5.54-4.28-12.02-8-19.43-11.15c2.36-5.31,4.17-9.46,5.44-12.46c1.26-3,2.36-5.73,3.3-8.18c1.05-2.71,2.19-5.95,3.42-9.72
		c1.23-3.77,2.14-7.6,2.75-11.5c0.6-3.89,0.6-7.61-0.01-11.14c-0.61-3.53-2.26-6.34-4.94-8.45c-3.7-2.86-7.27-3.95-10.73-3.3
		c-3.46,0.66-6.66,2.19-9.61,4.58c-2.95,2.4-5.53,5.34-7.76,8.81c-2.22,3.48-3.96,6.61-5.19,9.39c-1.97,4.43-3.23,8.79-3.78,13.08
		c-0.55,4.3-0.27,8.44,0.83,12.42c1.11,3.98,3.09,7.7,5.94,11.15c2.86,3.46,6.72,6.51,11.6,9.15c-3.91,8.1-8.05,16.22-12.43,24.34
		c-4.38,8.12-8.72,15.69-13.06,22.7L-28.06,71.81z"/>
</g>
</svg>
